<mxfile host="65bd71144e">
    <diagram name="Page-1" id="dvBUpR8_VCjb02eA5Gm2">
        <mxGraphModel dx="1086" dy="377" grid="1" gridSize="10" guides="1" tooltips="1" connect="1" arrows="1" fold="1" page="1" pageScale="1" pageWidth="827" pageHeight="1169" math="0" shadow="0">
            <root>
                <mxCell id="0"/>
                <mxCell id="1" parent="0"/>
                <mxCell id="7VhcuU38_8ilDAtrPy3k-13" value="Document" style="rounded=1;whiteSpace=wrap;html=1;fillColor=none;" parent="1" vertex="1">
                    <mxGeometry x="230" y="330" width="70" height="20" as="geometry"/>
                </mxCell>
                <mxCell id="7VhcuU38_8ilDAtrPy3k-15" value="" style="endArrow=none;dashed=1;html=1;dashPattern=1 3;strokeWidth=2;rounded=0;" parent="1" edge="1">
                    <mxGeometry width="50" height="50" relative="1" as="geometry">
                        <mxPoint x="245" y="402" as="sourcePoint"/>
                        <mxPoint x="275" y="402" as="targetPoint"/>
                    </mxGeometry>
                </mxCell>
                <mxCell id="7VhcuU38_8ilDAtrPy3k-17" value="" style="endArrow=classic;html=1;rounded=0;" parent="1" edge="1">
                    <mxGeometry width="50" height="50" relative="1" as="geometry">
                        <mxPoint x="310" y="339.75" as="sourcePoint"/>
                        <mxPoint x="360" y="340.25" as="targetPoint"/>
                    </mxGeometry>
                </mxCell>
                <mxCell id="7VhcuU38_8ilDAtrPy3k-18" value="" style="endArrow=classic;html=1;rounded=0;" parent="1" edge="1">
                    <mxGeometry width="50" height="50" relative="1" as="geometry">
                        <mxPoint x="310" y="369.71" as="sourcePoint"/>
                        <mxPoint x="360" y="370.21" as="targetPoint"/>
                    </mxGeometry>
                </mxCell>
                <mxCell id="7VhcuU38_8ilDAtrPy3k-19" value="" style="endArrow=classic;html=1;rounded=0;" parent="1" edge="1">
                    <mxGeometry width="50" height="50" relative="1" as="geometry">
                        <mxPoint x="310" y="439.71" as="sourcePoint"/>
                        <mxPoint x="360" y="440.21" as="targetPoint"/>
                    </mxGeometry>
                </mxCell>
                <mxCell id="7VhcuU38_8ilDAtrPy3k-20" value="" style="shape=image;verticalLabelPosition=bottom;labelBackgroundColor=default;verticalAlign=top;aspect=fixed;imageAspect=0;image=data:image/png,iVBORw0KGgoAAAANSUhEUgAAAgAAAAIACAYAAAD0eNT6AAAABHNCSVQICAgIfAhkiAAAAAlwSFlzAAAOAAAADgABsMRA8wAAABl0RVh0U29mdHdhcmUAd3d3Lmlua3NjYXBlLm9yZ5vuPBoAACAASURBVHic7d13uF1Vmfjx771pJCShd6mBBAS7iIUu6liw90J0VKwDOqOiP0dlZFQso4Nl7IrYsYNjQ6QMovTRgQEiKEjvkEJCSO79/fEmY4y5yb3n7P2uvc/+fp5nPTBjyLvWPmuv8569VxlifIaBRwNzgQcAmwJ3AjcAlwMXAKPj/LvUTTOBecDOq/59Y2A2sAkwA1gGLAIWA0uAe4DbgSuAmwrUV+2yA7A/sB2wPXAfcAtwLXAWsLBc1dQCw8AuxHfcJqvKLP4yVk3mL2PTXav+fTHwB+BqYHl6jSswtIH/fS7wT8Azga3X8+duBH4AfAS4ppKaqc3mAAcDDyf60Dxgxz7+vnuABUQy8L/AfwHnASv6qqXabhpwJPAy4JGMPZ4tB84APkeMU/5Y6baZwAHAY4E9+csYNa3Hv28F8CfgSmKMuoDob7f1XdNCNgP+g7hxRidQlgH/Rlxgdce2xCD8ZeIX10T6TK9lEfAT4C1EoqFueQEx6E603/wG2K9AfVXOFOAQ4DjgHCb+vdZLGQF+D/w78HRa9J24O/FYv5/G/x7YNbviSrUR8DzgVOB+cr7011euAY4nnj5ocE0iPud++sr9wBuyK650exN95WbKj09LgZOBw4nXCY30COL9RhUNvhV4YG71leAxxC/9hZS/qdZVRoAzgVfQ+yM9NdNkIuGsqq8cm1p7ZdgCeBtwKeXHorHKDcCHaNiPlW2B66i2oX8EtsxshGqzP9UOvhnlFmKQn1395VABH6fa/jECvCS1BarL1sS9fjflx53xlpXEmFr8FeYQcDb1NPLUxHaoWkPE+6vzKH+z9FNuBf4fJgJt9gLq6RtLiQlgaqedgU8Rn2PpcabXshL4PvEEvojnbqCC/ZbD8pqiiswFTqP8zVFluYOYNb6h1S9qlqnEUqu6+sX385qiikwFjqHdX/xrlxHgJNa/4q5yQ8TShTobdl5aa9SvGcSjtPsof0PUVc4GHlTR9VL9jqL+PvGotNaoX4fS/0T1Jpe7gKOJCa+12y+pUT5ma76nU/08kKaW5cREnI0quXKq0/nU3x9OSGuNerUt8D3Kjx1Z5XzgwZVcufV4f1Jj3lp3Q9SzKcRymRHKd/rscjGwR/+XUDXZnpx+eS2+GmqyQ4gN50qPF9llKfE0oDZ1Tf5bu5xSZyPUs52JzVFKd/SSZSHwon4vpGrxfPL6wc5JbdL4TSJeSa6g/DhRsnyP2IK/cnVOrlmzXFRH5dWXZ9OuZTN1l08Tk4vUHG8m7/N/bFKbND7bEFvqlh4XmlIWAA/p64quw5KkynugS7O8kVh+UrpTN638CpcLNskHyfvsn5PUJm3YrsQXXunxoGllEfDEPq7rXxkmZn1nyIqjDTsG+ATx+euvHUIkAalLcTSmzHFj48RYGts+xJ79zs35WzOJvXVeUMVf5hdAt0wCPkNM+NPYHkHMi9i9dEWkjjmI+PLfvnRFGmwq8HXgdf3+RSYA3TEMfBV4TemKtMRuxJkCu5SthtQZhwE/AzYpXZEWmESc2Pvmfv4SE4Du+Dec6T5ROwC/JCYjSarPI4kdGd2XY2L+jTj4rCcmAN3wLuBNpSvRUnOAHwOzSldEGlC74z3WqyHgs8BTevmPTQAG35HAe0tXouUeCfwIjxeWqrY9ceaIT9l6NwX4LvC4if6HJgCD7SDiPZH6dwjw76UrIQ2QqcAPcZ5NFaYTr1AmNHnSBGBwbQV8g6QDJTritXh+vFSVDwH7lq7EANmaCY75JgCDafWMf5fSVO8zeLCV1K+nEac8qloHAe8e7x82ARhM7wCeVLoSA2omcDLxyE3SxO0InIiHL9Xln4EnjOcPmgAMnocTh2eoPg/Gayz1Ygj4GrBF6YoMsGHgK4xjPwUTgMEyDHwSmFy6Ih3wj8CDSldCapkjgANLV6IDtgP+ZUN/yARgsLwaeEzpSnTEZOBT+BhTGq9NgA+UrkSHvBF42Pr+gL8UB8dWwPtLV2IcrgGuJE76uoE4jXL5qv9tM+Ikvj2AucBeNPt43gOIVQFfK10RqQU+QPwybbKFwOXEGHU1MT4tWvW/zSAOjNqJmAj8QGLcbapJxI+U/YGRsf5Q1jGG91TcOP21L1D+qMp1lcXEioSXMvFVCTOI/cE/APyxAW1ZV7kJdzCr0yfI+yyPSGpTFz2c5h4/fh5xQuqjmPiy6b2ANwA/BVY0oC3rKuvdKjirEiYA9dkNuJ/yHW3Ncgkwn5g1X4Uh4hf31xvY1mMqaqP+lgnAYPgR5e/TNctC4MPAnhW2cTvgbcD1DWjfmuWPrOdpf1YlTADq8xnKd7LV5WLgqdT7bnwO8CWa84viZnLPre8SE4D2ezDxCLr0fTpKPJF8D/G6sS7TiFNXb2hAezfYt7MqYAJQjx2AZZTvYHcTk04ydx7cD7io4nb0WtzUpB4mAO33Tcrfn6PA94g9CLLMBj5GM55YXs4Yk/6zKmACUI+PUb5znQ/sWndDxzCZWJNf+mnAdXhYUB1MANptDuXfjd8LvKruhq7HvjRjDtPz1lW5rOAmANXbhHikVbJTnUCcRlXak4k+VvJazK+9ld1jAtBun6bsPXkl1b7n79UWxKmHJa/F+euqWFZwE4DqvYpynWmE5u2Gtw9lJ+D8qv4mdo4JQHttBNxFufvxQuKAnKaYShzWU+p6jBJj5F/JCmwCUL2zKNeRXp/Qvl7sQUzKK3FNVgI719/ETjEBaK/nUW58+i3NXJ47DHyZctfl+LUrlBXYBKBaO1NuZu24T5sq5EGU++XxzoT2dYkJQHudSpl7cAHN+uW/tknEhMQS1+Z61pqonRXYBKBa76JMB/pqRuMq8BTKJEhXZDSuQ0wA2mlrYofP7PvvTmCX+pvXtxnA7ykzhh+2uhKeBdBeLygQ8wrgdQXi9uInxEYf2eYBDy0QV2qSZ5M/OXiU2PXumuS4vbiXGMMXF4j9/NX/YgLQTtsS+1BnWknse1+iw/bqncB/F4j7+AIxpSYpcQ98nthxsC0uB95aIO7/fTYmAO10KPmn0H2S2OWvTVYAR7KegzBqckhyPKlJhoCDk2PeQTvn33yOmLCYaTdWvSYxAWin7C+Y24ntM9voAvLnLRyIJ22qux4MbJkc8x3EONU2I8QuoqPJcQ8FE4C2OjQ53gm0exLnccTTgCyziN2/pC7Kfvx/HfCV5JhVuoA4TTDTIWAC0EY7EI9wsiwkHv+32dXAyckxD0yOJzXF/snxPkysOGiz9yXHOxBMANpo7+R43yYO+mm7zyXH2ys5ntQUmWPUMtqzNHl9ziWWBWbZEZhtAtA+85LjnZQcry5nA39KjNeE/celbFPIPRjsBwzGDxSAryXGGgL2MAFon8wE4Abg14nx6jQKfDcxXnaiJjXBHHLX/2e/2qvTt5Pj7WkC0D6ZXyynkz87tU6nJ8baFNgmMZ7UBJlPvlYS56EMij8Df0iMN9cEoH0yE4AzEmNlOIfcyUI+BVDXzE2MdQlx5scgyTxR1CcALZR5yMUlibEyLCE3w27ygSRSHRyf+pO5c+lWJgDtMgWYlhRrlNwvyyxXJsZq4nGkUp0y+3zmvZwls02uAmiZzJvrRuLAikGTmdTMTowlNcHMxFhXJcbKkjk+zTIBaJfMBGDQ3q2tltkunwCoazKT3kEco1LHJxOAdsn8QlmUGCtTZrtMANQ1mU8ABnGMupdY3ZDBVwAtMz0x1tLEWJmWJMbaODGW1AQzEmMtS4yVZZS8sXeGCUC7ZB4BPEjr/yUNnkEdo7LaNWQCIElSB5kASJLUQSYAkiR1kAmAJEkdZAIgSVIHmQBIktRBJgCSJHWQCYAkSR1kAiBJUgeZAEiS1EEmAJIkdZAJgCRJHWQCIElSB5kASJLUQSYAkiR1kAmAJEkdZAIgSVIHmQBIktRBJgCSJHWQCYAkSR1kAiBJUgeZAEiS1EEmAJIkdZAJgCRJHWQCIElSB5kAtMuKxFiTE2NlmpQYa2ViLKkJMvt85r2cKWvsXWEC0C6LE2PNTIyVaXZirIWJsaQmcIzqz2RgelKsRSYA7bIoMdYg3lwAsxJjZX5eUhNk9vnMezlL6vhkAtAumTfX9sBQYrws2yfGMgFQ12T2+e0SY2VJHZ9MANplCTCSFGsWsG1SrEzzEmOZAKhrMvt85r2cJXV8MgFol1Fy37HtlRgriwmAVJ/MeS97JsbKkjk+LTQBaJ9rE2M9LjFWht3IfcT2p8RYUhNkjk/7M3ivKfdPjHWNCUD7XJkY65DEWBkOTYw1AlyVGE9qgszxaRsG6ynlZHITgCtNANon8wZ7LLBpYry6PTkx1vXAvYnxpCbIHJ8g956u2wHkLlNeYALQPpk32DTgeYnx6rQZ8NTEeFckxpKa4mbg7sR4L02MVbeXJce7wgSgfbIz7PnJ8eryfCKhybIgMZbUJJl9/6HAQxLj1WUG8JzEeMtxDkArXUZ8eFkeB+yXGK8Ok4A3J8e8ODme1BSXJMf7p+R4dXg1uY///we3Am6lJcD5yTH/X3K8qj2P/DXDZyTHk5rizOR4LwZ2T45ZpanAPybHPB08DKitfpUc73DauyRwGvAvyTH/CFyTHFNqijOIPUuyTCL/Hq/SUcBOyTHPBBOAtsr+dTkEfAaYkhy3Cm8B5ibHPD05ntQktwD/mxzzxeQu863KdsC7kmOuAM4BE4C2+g2wNDnmPsSXaZvsSZnXFz7+V9dlP6UE+A9g4wJxe7X6h1Xmu3+A81i1S6kJQDvdR5kvmffSnlcB04GTidm1me4HfpkcU2qanxaIOQ/4dIG4vToaeHqBuH/12YwmlXvqbVPnvJC8z27Nch2wQ0L7+jEEnESZ63NqQvu65BPkfXZHJLWpCyYTewKUuAdfl9C+fh1A/JDLvjYjwC5rViQrsAlAtTYC7qLMDXYpsHn9TezZ8ZS5LqPEfgOqjglAe32UMvfgSuC5Ce3r1d7AnZS5NmeuXZmswCYA1fsCZTrRKHAusbte07yTctfkbuLVg6pjAtBeD6PcvbiU3J0/x+uBxDbhpa7Lq9auUFZgE4DqHUS5jjRKbEq0Y+2tHJ8h4MOUvR6fq72V3WMC0G6/p9z9uIJ1fOEV9CjgNspdj6Ws42yXrOAmANUbIpbblOpQo8ANRCJS0pbAf1L2OowC+9bd0A4yAWi3N1L2nhwBPkL5JcxHEl/AJa/FieuqWFZwE4B6HEHZTjVKZNrvIXa0ynYoMTGx9DX4Rd0N7SgTgHabTrnJgGuW3wB71NzWddkC+GYP9a26rCSWRf+NrAqYANRjMrHzXOkONgpcTt5mHNsBX09o03jLQfU2t7NMANrvbZS/P0eBZcRS5ox5OsPE64fbE9u3vvLtsSqaVQETgPq8lvIdbM1yDrF9cB22Jmb5L2lAO1eXc2tqq0wABsFMyr77XrvcAhwLbFJDW4eJse/iBrRzdRkBHj5WhbMqYQJQn2mUnVk6VrmI2Oxi6z7bN4XYMOM7RBZful1rlyf12T6NzQRgMBxL+ft07XInsXvgYypo3zzgOOIMkNLtWrucsr6KZ1XCBKBe8ynf0cYqK4gTDI8nvsjnsv5JOdsCBwNvIjbWuacBbRir/Hw97VD/TAAGwyxiwnDp+3WsciPwVeCVxGz9v5ktv4bpwEOIzdg+DVzZgPqPVZYTSw/HlFURE4B6DQFnU77DTaRj3gQsAC4kNhe6FljcgLqNtywj/6ChrjEBGBwvoPw9O5FyN3A18N/E08yrgVuJR+ql6zbe8qENfShZFTEBqN/exBdr6U7XlXLc+D4W9cEEYLD8lPL3bVfKdcT8izF5GNBguYwYMFW/PxOvNCSN31HEHviq35uIJ6pjMgEYPMcSywJVn1HgNcRKBEnj9wfg/aUr0QGnAN/b0B8yARg8i4h3bWbZ9fkw8LPSlZBa6l/xyOw6XU9MZtwgE4DBdCFwTOlKDKjzgXeVroTUYiPAS4kdAlWtFcTqhNvH84dNAAbXx4EflK7EgLmLeLqyvHRFpJa7BXgxsUWtqvNO4Nfj/cMmAINrlHgM9IfSFRkQK4GXERt9SOrfGcTrAFXjFOL15LiZAAy2u4hd6m4qXZEB8CbixEFJ1fkX4AulKzEAziOeqIxO5D8yARh8fyKSgLtKV6TF3gV8snQlpAE0SpxlssEZ6xrT/wJPoYdVSSYA3fA/wLOInes0MZ/Gx5RSnVa/Xju7dEVa6Abiy//OXv5jE4DuOAt4PiYBE3Ei8MbSlZA6YCnwDOJRtsbnBuAJxBbqPTEB6JZTgUOAO0pXpAU+TkyiHCldEakj7gYeT2wXrPW7GjgIuLyfv2SYCU4a6ENWHK3fb4mOc33pijTUKLGHwtH45d8EmeOGn3d5S4gTQ79UuiINdgFxhPHVVfxlt5FzMIHL0ZplV5p9jGWJch+xQYma41jyPv+/y2mSxmEI+Cjlx4SmlZ8AG/dxXf/G75MqflaVlVYlZgPfpHynbkK5lsiq1SyvIa8PPDipTRq/5xCvBkqPD6XLCHH42KT+Luff+l5SA75YdcVVmSOIR2+lO3mp8kNgs76voupwKDl94H4iIVbzzAUuofw4UarcQizlrsUrkxrx7LoaoEo8DFhA+c6eWZYB/0A8blQzTSH2sKi7L5ye1SD1ZDrwGcqPGdnlNGCbCq7fmLYhDhCosxFLgZl1NkKVmE68c11G+Y5fdzkT2LuKi6bafYv6+8Ob0lqjfhwMXEb58aPucicxETllpd6JNTfmYxmNUGX2II67LX0T1FFuJF55+Ku/PR5JvAOtc7D1FVB7TCG+HBdRfjypuowAJwFbVXa1xmFn6vvVtwjYOq8pqtALgT9S/qaootwLfATf87bVd6ivb/xjYjtUnV2B71JvcphZzgX2q/QKTcBbx1HBXsqrMxuhyg0DzyP2my59g/RSFgEnANtXfWGUaifgVqrvH+cB0xLboertTfxqvp/y400v5Rzg8MqvSg++SLUN8wCVwbE6EWjLbNw7iZPGtqjjYqiIxxF7NVTVR24CHpDaAtVpd+JkwSr7SF1lhDhd9LG1XIkebQScTDUN/DLxrkaDZ29iTerNlL+R1iwriFmzR1DxZhlqjGcDi+m/r1wLPCS57sqxKTEGnEbzXg9cQ4ydu9fV+H4NAf9MnNDUSwOX44zarphCPLr6FvGLu8QNdT/xCO0onGvSFQ8ljrnutc+chX2lK+YC7wUupdyX/p+BT9Gyjcb2Ip4GjDeDGln15+eWqKyKGyaeDBxJ9IM6d++6Gvgs8Upi04zGqXFmEGc2TCTxvJbon5XvpqZW2JoYMz5LvUsJbyXGwKOBR6S0rEfjWQr1IOKYxsOBfYgbb7UlwH8DPyZ2U7ui6gqqtaYAc4A9iaRw3qqyE7EnxPqWXS0hHvPeQmxOtIDoW1euKvfUVmu1zSbE2HQ4cCCw7Rr/2wri0KufEydhnkY8oZQg9sDZixif5hJj1RxgS2AWY08OXUFMLr6TeKR/5VrlWiIRaLxe1kLPJi7QrcQgLfVq5qoyg7/cVKufHEi9mEr80ltJJJCe8KdeTeGvf6wsJL7zlhWrkSRJkiRJkiRJkiRJkiRJkiRJkiRJkiRJkiRJkiRJkiRJkiRJkiRJkiRJkiRJkiRJkiRJkiRJkiRJkiRJkiRJkiRJkiRJkiRJkiRJkiRJkiRJkiRJkiRJkiRJkiRJkiRJkiRJkiRJkiRJkiRJkiRJkiRJkiRJkiRJkiRJkiRJkiRJkiRJkiRJkiRJkiRJkiRJkiRJkiRJkiRJkiRJkiSpd0OlK9CDLYF5wJ7AXGAXYHNg5qqyMbApMALcAywElgCLgduBq4ErgAWryqLU2qsNtgeeBjwR2BHYAZgE3AJcD5wNnEL0I2lN04DdiTFqHjFGbU2MSzOBzVb9+1RiTFpMjE93E2PRdfz1+HRdbvXVAlOBg4DDgYcQ/Wsb4DZijLoUOBU4A1hWqI6VmATsC7wN+BlwBzBacbkO+DbwWuKGVXftDfyQSB7H03fOBw4rUlM1xfbAS4AvEF/YK6h2fFoEnAMcBxwKbJTTLDXQDOAYxv89eA/wbiLxbI1NgVcDPyKy4qq/8DdUrgdOAp5JZFoafFOAE+h98P4x8RRKg28IOBD4FHA5+ePTUuBXxI+iB9TcVjXHocR3Uy995mbgKflVHr9JxC+pk4hHYtk31VjlLuCzwP6083WJNmxz4Jf031euIp4gaDDtRPz6uory49LqspJ4OnAkMKu+pquwI4Hl9NdXRoBjk+u9QVsSj7ZuofzNtKFyBfA64h2fBsN04Dyq6yO3A3NSW6A6DRFPAs+h/PizobIY+Dwx/0CD4w1U20+Oya3+um1NZCP3UP7GmWi5ZVXdN6n4mijXEPANqu8flwGzE9uh6g0TE6wuovx4M9GykpgA9vDKr4qyHQDcR/X94/DMRqxpG+DTxMzE0jdKv+U24B04KaetXkR9feOjie1QdYaAI2jWY/5eywjwA2CvSq+Qskyn93f+4/nuSv2RMkzcWLdX2IimlKuAJ1d3qZRgCvUO8vcBu6W1RlWYRzVzQZpWlhMTXJ0j0C5vp95+8d6shjwc+G3NjWlCORXYuaJrpnrNp/7+8Mm01qgfGxOv9Kp+1Nq0cj3xI0zNN5V6lryvWRYRfb/WRnyUeOdQuvNnlUXAq6q4eKrVj6i/L9yAK0ea7hDqe8za1PJDYIsqLp5q8yRy+sKz6mrATsC5SY1oYvkuThJsqunEzmsZ/eARSW3SxAwRs6Gr3rSnLeU64HF9X0XV5ePk9IMv1lH5ZwB3JjWgyeVK4KF9XktV70Hk9YFXJLVJ47c1sato6fGhdLmfePUx3NfVVB3OIqcPXFBlpYeADydVvC1lKfDifi6qKvdE8j7//5fUJo3PfsSuaKXHhSaVU6j5XbAmbAE5n/0NVVV4MvE4oXRnbmIZAd7a+6VVxV5C3md/QlKbtGGPJw4GKz0eNLGcD2zV+6VVxe4i53O/v4rHPzOISVV/X8HfNYiGgA8RXwZOCitvcmKsSYmxNLYXAz/FpXBj2Zd47LxT6YoIyBs3JvebAGwOnE7DDxpoiKOIpyR+KUh5jga+Ruz9oLHtBfwaeGDpiihPPwnADGLt+6MrqksXvAL4Ej4JkDK8Bvh3vN/G6wHEGfJ7lK6IcvSaAEwhlro9tsK6dMURxAFIkurzDOLIXk3M1sTrkm1KV0T16yUBGCJOnXL72969E3hz6UpIA+pg4Fv4uq1Xc4BfAJuWrojq1UsC8GFiK1X15yPA80tXQhowDyEmJXtIV38eDHyH3EmzSjbRBOC5wD/VUZEOGibmA3hal1SNmcC38TjmqhyGrysH2kQSgDnAF+qqSEdtDJxMTKiU1J/PEKf6qTrHUPD8eNVrvAnANCKzdn/76u0DfKx0JaSWey2xyZOqNQSciHsEDKTxJgAfwoNN6nQk8KLSlZBa6sGYRNdpc+CrOKly4IwnAXgs8A91V0R8EtiydCWklhkGPoeT/up2IPGURQNkQwnAJGItrRtp1G9z4P2lKyG1zGuIQ35Uv/cD25WuhKqzoQTgKDzSNtMrgceUroTUElvgLPVMs4EPlq6EqrO+NZ7bE+dFN9VK4CLgv4DLgSuI4w3vARYRTy9mEr+sdwbmEu8KD6a5M4WHiScu+xLtkzS2jxBJQFPdCPwK+G9ifLoauBNYsqpsRqwE2pYYn/YiXrk+BpheoL7j8VLiTJOzSldE9foS5Y+pXLusAP4TeCH9rUjYgZjXcEED2rSu8qo+2qb1m0/e5/jJpDZ10SOIo7ZL36trl6uA9wB79tG2jYAnERPvljSgTWuXS/C1cJ0yj61ep52B5YmV2FBZRGT720/kKo7TQ4BvEslF6XauLlfhDlx1mU/e52gCUJ/vUf4+XbOcATyB6r8YZwFvIZ4mlG7jmuVpFbdTf1E8AfhkYgXWV1YAHyfnMd884CfJ7VtfeWm9ze2s+eR9hiYA9Xgg8Yqs9D06SjzeP6De5gLxVOBtxI+h0m0eBX5Tb3M7rWgCsC2wNLECY5VLgIf3cPH69Wzg5h7qW3W5jP6Oa9a6zSfvMzQBqMdXKX9/LiUO9Mp+UrcjcEqfda+qPL7mtnZV0QTgQ4nBxyqfouy63m2B09dRr+zy7Lob2kHzyfv8TACqtxtwP2XvyyuJV4elDAFvAu6j7HX4Vd0N7ahiCcA0YpZqqQ51P/CKni9btSYBn6DsDXZ67a3snvnkfX4mANUr/QPlNOK9fBPsT9nxepR4HaNqFUsAnpsYeO1yL808dOKfKXdNVhKP/FSd+eR9fiYA1ZoEXE+5+/HbwNTaWzkxe1P2mnyg/iZ2TrEEoNS7pRXAs/q4YHU7lnI32Nvrb16nzCfvszMBqNaTKHcfnkJzV+bsDtxCmetyPZ4RULUiCcBWlFn6N0IMyk33GcrcYP+b0bgOmU/eZ2cCUK1Sk//OpvlnDexHuT0DDk1oX5cUSQCOSgy6Zvl4v1cryRTgXMpco0cmtK8r5pP3uZkAVGcWsJj8e+9GYJuE9lXh5ZQZn06sv2mdkpYArLnMrMT794uAtxaI24v7iSN77ywQu4lzI6RMhxLb5mYaAV5CPF5vgxOBrxSI+1RcstxKqz+0qcQe1JlWEIff3Jcctx/XAscUiHtIgZhSk5R4zPxpYoe/NjkKuCk55pbAg5JjqgKrE4DHADOSY58A/C45ZhW+RP4uWPuR/+tHapLsJPgW4F3JMauwkDI/UpwH0EKrE4Dsm+tu2nuM5wixN3emqeRsNyo10dbAPskxjwPuSo5Zla8Rr1czmQC00OoEIPvD+yRxbG9bnUv+o8GDk+NJTXEwuafP3UI86WurUeD9yTEPornLJDWG4VUlc5b5fbRn5v/6HJ8c79HJ8aSmeFRyvI8Te/232Q+JLYuzzKK/I5BVwDCwEzA9MeaPgdsS49Xll8B1ifHmJcaSmiTzi2WE2G+g7UaAk5JjOka1zDAwNznmINxcEDfYtSpmMQAAIABJREFU1xPjbQtskhhPaorMMep0chP7On2NGKeymAC0zDC52fV9wC8S49Xt1OR42cmaVNpUYNfEeNn3dJ3+TO5KKxOAlhkm90M7l/a/W1vT+cSymyzeYOqaOeROLhu0I24zTxR1fGqZYeJ87SxnJ8bKsILcPQHmJMaSmiBzfLqdwTt7I3PMdXxqmWFg08R4g3ZzAVyeGMs5AOqazPHpcmIJ3SDJHHMdn1pmmFi+kSVzWUqW7KU2Upc4PvXnGmBZUqwpwLSkWKrAMDAzMd6fE2NluTYx1uzEWFITOD71ZyVwQ2I8x6gWyX4CsCgxVpbMNvkEQF3j+NQ/xyitU+YTgGXEpLlBk7kKwJtLXWMC0L/MMconAC0yTKyzzbA8KU62zHZlfVZSU0xJjHV/YqxMjlFap+EN/xFJkjRoTAAkSeogEwBJkjrIBECSpA4yAZAkqYNMACRJ6iATAEmSOsgEQJKkDjIBkCSpg0wAJEnqIBMASZI6yARAkqQOMgGQJKmDTAAkSeogEwBJkjrIBECSpA4yAZAkqYNMACRJ6iATAEmSOsgEQJKkDjIBkCSpg0wAJEnqIBMASZI6yARAkqQOMgGQJKmDTAAkSeqgYeC+pFgbJcXJltmuZYmxpCbIGp8ApiXGyjQ9MdbSxFjq0zCwKCnW1FVl0MxOjJX1WUlNkdnnZyXGypTZLseoFslMAAA2SYyVxQRAqk9mn8+8lzNljruOUS2SnQDskhgry26JsRYmxpKaYHFirF0TY2WZCuyQGM8EoEWGyb3B5iXGypLZJm8udU1mnx/E8WkOMDkp1n3A8qRYqsAwcEdivAcnxsryoMRYdybGkpogs88/kLwvyyyOTxrTMHBVYryDEmNlmAE8KjHeHxJjSU2Q2ednAQ9PjJfhkMRYjk8tMwxcmRjvEcCmifHq9jhylw4tSIwlNcG15C5/PTQxVobM9mR+l6gC2QnAJOAZifHq9pzEWCOYYat7VgJXJ8Z7dmKsuu0NzE2MZwLQMtkJAMDLkuPVZSrw3MR41wH3JsaTmiJzjNoX2CcxXp3mJ8czAWiZYeAm4J7EmIcQM1Pb7jnAFonxrkiMJTXJ5cnxXp4crw7TgJcmxzQBaJnVZwGcmxzzbYnx6jAEvD05ZuZnJDXJb5LjvRbYMjlm1V4BbJcY71ZyJ5SrAqsTgDOS484HHpAcs0rPIH9J46+S40lNcTawIjHexsA/JMar2lTyf2SdAYwmx1SfSiUA04APJ8esyjTg+OSY9wLnJ8eUmmIRcGFyzLfQ3p0B30x+3f2B0kKrE4BLgLuSY78QOCw5ZhWOIX/HsLNxhy11W/YXzAzgo8kxq7Aj8K4CcU0AWmh1ArASOKtA/C8AmxeI26tHAv+vQNzsJzRS05S4B55J/kz6fkwCvkK8wsj0Z3z/30rDa/z7DwrE3xk4iZhU13SbAN+mzJnhPywQU2qSs4DbC8T9FLFFcBu8i9yd/1b7foGYqtjGxLu20QLlfQnt68cU4GeUuTa/Tmhfl8wn77P7ZFKbuuITlLkHrwK2TWhfP55JTJQscX0Gbfvk0haS99n9la8kBl67HNXHBavTMPB1yl2X19XfxE6ZT95nZwJQrUdR7j68kDgroIkOJbZLLnFdLk1oX9cUSwAOSwy8dhkhJtg1yWTgi5S7JveRu9lQF8wn7/MzAaje5ZS7Hy8Atqq/iRNyGLlfGGuXpo3Zg6BYAjBMbDlbqjONAh8hJrOUtgnwc8pei+/V3srumU/e52cCUL13UPaevALYrfZWjs8riNVBpa7FCtq9n0tTFUsAIDaQKHmDjQJnAtv3cOGq8nDi4J3S1+GAuhvaQfPJ+/xMAKq3BeXmKq0u9wAvqLuh67ERcMI66pVdvlV3QzuqaAIwC7gjsQJjlVuAl5C7QmAj4N2Ue5+2ZimxLLML5pP3GZoA1OOjlL8/R4nXg9lbBh8IXFZB3fstI+TvhtoVRRMAgPckVmBD5QzgERO7fhM2RMyibcKv/tXlibW2uLvmk/cZmgDUY3uakaSPEj+WXk/9y4N3IZZMjxRq59rlR7W2ttuKJwCbJVdiPOUnxBrXKp8ITANeBPyuAe1bs5xXYRv11+aT9zmaANTn05S/T9cs1wNvAjatuJ0PAr5M2Xf96yqPqrid+oviCQDE2vzSnWxd5U/AccB+xCz9iZpB/Lr+DHBnA9qzrvLUHtql8ZlP3udoAlCfXWnOU4A1y1LgZOC59L6CZ2/gn4gt2ku3Z13lpz22S+OTlgCs79f0TGLJTZNneS4kjsm9DFhAbEm5CFhMJAcziTkNc4j9+/chEoepJSo7Tj/BBKBO84ETk2J9CnhjUqwuOg7459KVWI8R4PfAxcCVxCvGhcDdxAz66cQYtQMxPs0DHkuzNx1aDjyEWA2heiykIXtOPJfy2WaXyjJg7rg+GfVqPnmfp08A6jUduJry922XStN3bR0EaU8A1jwLYF2+S/wiVY73E08yJG3YUuANpSvRIX8mxigNiA0lAABHE79MVa+rgQ+VroTUMj8DTildiY44ClhSuhKqzngSgKuI3bdUnxXAyzHRknpxJHBz6UoMuG/h0r+BM54EAGLXqRLHBXfFPwPnlK6E1FKrNw1bWboiA+oPRJKlATPeBGAU+HtiCZ6q9TPgw6UrIbXcr/AVWh2WAc8nVldpwIw3AYBYuvJCYhmIqnEzcaDHSOmKSAPg3cB/la7EgDkK+O/SlVA9JpIAAJyP65qrsoTYfth3l1I1VhCH9FxTuB6D4rPA50tXQvWZaAIA0SHeXXVFOuZ+4Hm45a9UtZuAJxDzAtS7U/DH3sDrJQGA2IHrhCor0iGjwGtwO02pLlcBTyN2BNXEnUU8SVlRuiKqV68JAMA/Entea2LeShzuIak+FwLPAO4rXZGW+R/gWbgkuRP6SQBGiKU3fpmNzyjwduDfSldE6ohfEU8CnME+PhcChwF3la6IcvSTAEA8Inol8JEK6jLIVgKvBj5YuiJSx/wSeDxwe+mKNNzpwKHAraUrojz9JgAQv2zfSpyFPVrB3zdo7iUeRX6xdEUE5C5jdclsM1wAHEjsZa+/9Q3gyfikpCmyxo3K48wnvvBKn1jVlHI98Oi+rqiqdgh5n/9bk9qk8dkRuIjy40JTygjwAWB9x8Ir36XkfP5/qqPyD0xsQJPL6TT7XO+umkdeH3hJUps0ftOIFUylx4fS5XbgqX1eS9XjNHL6wK/rasBM4GtJjWhaWQEcSzWvV1S9KcCd5PSFeUlt0sQ9k7x+0LRyPrBr/5dQNTmenH7w8bob8kpiC+HSHT6rXAUcUMmVU50yktMFaa1Rr+YQv4JKjxtZZTnwPmByFRdPtXkMOf3h8RmN2RY4iXjfVPoGqPPGOgHYuKJrpno9g/r7xHFprVE/hoAjiJ0DS48jdZazgX0qumaq1zBwLfX2h1uIp6FpDiQ2mSh9I1RdTgf2rPA6qX5DxMzwuvrEXcAWaa1RFTYjkvgVlB9Tqiw3EwmOE/3a5RXU2y/ekNeUv5hC7C9dd3aTUS4ADq/28ijRodTXN5z9316PBE6l/U8s7yaeQm1a7eVRkknA76mnbywApuY15W9NIbLSK6ingXWWc4gvfjPq9qtjss0v8B3rIHgQ8eqybU8EbiMmIW9W+RVRtj2pfg7dvcC+mY1Yn0nAi4kzvJuccd8H/IB4jaHBMQz8iOr6yeX4i2vQ7Al8juZPZr4MeDPOQxo0TyVOj62ij6wkTqFtpB2BY4jHE6VvptXlQuBoYOsa262yJgOfoP++8l/YTwbZRsSTv5OJSb+lx6ZR4A7gs8D+NbZb5T2B/pesLiKWvrbCY4nlKr+huuxnPGUJ8HMiEZlbeyvVJK8hBtSJ9pllxBkPqTNqVdQ2wOuA7xIb6mR+6V9KrN9+Kva5LplL/Mjopc/8Ftg7v8rVmE2c6PVR4gLcSjU30ggxGfEXwHuI9ftFJ0aouM2IeQHj6WOLga8Au5SoqBpjGHgocTz6D4knmFX9aLmHmGz8OeBFuLOoYgnzeYzvlflFwHNZz3y1tk5k24zYZW1PYDciSZi56p+brPr3lcQgvZhYlrWYeI+3ALhy1T/vza64WmES8DjiaNSdge2ILWSvB24k1lT/ElhaqoJqtCnEuLQX8cttC2JuyCxibJpJvKtfSHzJrx6nFhI/ShYQE6Rvyq64WmNH4OlEH9uR6GN3ADcQfecU4JpSlZMkSZIkSZIkSZIkSZIkSZIkSZIkSZIkSZIkSZIkSZIkSZIkSZIkSZIkSZIkSZIkSZIkSZIkSZIkSZIkSZIkSZIkSZIkSZIkSZIkSZIkSZIkSZIkSZIkSZIkSZIkSZIkSZIkSZIkSZIkSZIkSZIkSZIkSZIkSZIkSZIkSZIkSZIkSZIkSZIkSZIkSZIkSZIkSZIkSZIkSZIkSZIkSZKkRhqawJ+dDOwAbA9sBtwFXA/cCKysvmoaUJsAs4CNgZnApqv+uWRVWbzqn3cBi4AVZaqpFtoS2I4Yp+4DbgauI/qUNB4bEePRbGKsWj1OTSLGpUXA3Wv8+5Iy1azGhhKAycBzgGcBTyIG67XdAfwU+AHwQ2CkygqqtXYFHgbMW1X2XPXPdfWhsSwHrgauAK5cVS4DLsHEQGEf4CXA4cDe6/jfVwK/AU4FvgrclFc1NdjGwL78ZVxa/c+dgeEJ/D03EePTglX/vAK4CLityspmGwKeSzRmdALl98BTC9RX5W0DPA/4LPBHJtZvJloWA6cBxwCPYGI3rAbDrsQX+kom1m/eR/yyU7dMJsaKY4ixYxn1jlFXE2Ph84gn5q2xEfAV+mv854Gp2RVXuh2AtxGJX50304bK7cCngcfW21w1xFOAe+i9v/wZeHh6rZVtCvB04LvAvZQbn1YAvwJeQbz+bKwtgQuoptFnY6Y9iGYALwV+TnTskl/86yoLgHcDu9TUfpX1Vib2q3+ssohIJDR4Hgl8HLiV8uPR2mUJ8DXg74h5BY0xhchSqmzsz2hYI9WzWcDRxDuv0jfReMpK4r3vI+u4GCriecQco6r6yL3EY2ENhv2BX1J+7Blv+SMxpk6r42JM1Keop5Hvy2yEKrclcCwxK7/0DdNrOQ14dMXXRbkeBiyl+r7xJ1r2jlZ/ZYiYAHoe5ceZXsu1RCIwveJrM24PpprHausqy4Hd85qiimxEfPEvofwNUlX5T2BOhddIec6gvn7xocR2qDoHUn7+UZXlRuBlTGx5fiV+2mfFN1S+kdcUVeBQ4HLK3xB1lPuA44kER+3wNOrtE0uBHdNao35tTsywr/J1UJPK2cTy1hS7JTRoJbFMTM32AGLGbOkbIKP8gZiIo+b7CfX3h3entUa9GgZeT7tfR463LAc+SOxXUKs3JTVoft0NUV+eTmzqVLrjZ5eTKPjuTRs0k3re/a9dLshqkHqyFfU/qW5iuQJ4SAXXb0wZ2fUovgZoqsnEI/FBfZw2nnIRzlNpqqeS0wdGiAmvap6DgRsoP06UKkuJSYK1yHrXe25dDVDPdiI+l9IdvAllIfDC/i6navBG8vqASwKbZYjYua+J+42UKN9lYlupj8vdSZW/puqKqy/70syNMkqX4/u5qKrcv5L32R+e1CZt2DTgZMqPB00rlxJztSqTVfF7qqy0+vJ44hdv6c7c1PIpPF+gKT5B3uf+sqQ2af1mAr+g/DjQ1PInYG7PV3cNDnLd82JiMk2j96Qu7PXA93CpYNekr7/W39iWWAb3hNIVabBdiFe3fW9uZgLQLa8lTlCbUroiLfBMYithkwApx47Ar4ldH7V+WxBPSQ7o5y8xAeiOF+Kj7Yk6jHgPObl0RaQBtwVxwNhupSvSIrOAH9NHwuSXQTccCpyIn3cvDge+iI+HpbrMAE4B9ipdkRaaTRy6t0cv/7FfCINvX+BHNOTEqZY6AjiudCWkATSFWN722NIVabGtiXldE95t1wRgsO1IHIAzs3RFBsA7gVeWroQ0YD4NPLl0JQbAHOKH3tSJ/EcmAINrMvBNYgtNVeOTwENLV0IaEC/EpLpK+zHBky1NAAbX+4DHla7EgNmImBToEkqpP3sAnytdiQF0FPCs8f5hE4DB9GTgLaUrMaAcuKT+mEjXZwj4ErDreP6wCcDg2YY44c7Ptj4vxF3jpF59FF+l1WlT4OuM4zvAL4nB82E81SzDx/A6SxO1L/Ca0pXogMcAR27oD5kADJb9gZeWrkRHbIFLA6WJmAR8Fr93sryfWCI4Jnc4GxxTgM/Qjg1rlgNXATcCS1b93xCPrmYTB11sVqZqE3Ik8b7tgtIVkVrg9bRnm98bgauJ8WnRqv/fdGBjYOdVZVKZqo3bZsAHgVes7w9lnWDkaYD1eivlT6kaq9wAfJnYUGcO47txtgKeRBzPewEw0oB2rKtcgL9o6pR5GuARSW3qom3JO3p+ouU+4DTgHcSj8/FMTpwGPAT4B+D7xPdb6Xasq4ywgdVgWRUxAajPbOBOyne2Ncsy4uChw6jmC3J34F+A6xrQtrXLCypon9bNBGAwnED5+3TtcjHwRuJ1Xr+mEyet/pzm/Vg5e30Vz6qECUB93k75Tra6LCEmyO1QU1unEpuHXNWAtq4uv6Mdr17ayASg/bYmxoXS9+nqcjbwdzW296HEMscmJQIHjlXZrAqYANRjBnAL5TvYKHF87i61tvYvpgBHE+/nSrd7FHh6vc3tLBOA9jue8vfnKPFeP/MzfgRwfg3t6KX8fKxKZlXABKAeR1G+c90FPKfuho5hF+DcDdQvo5xXczu7ygSg3TajGe/HT6TMxkOTiHNE7p9AXesq+66rglnBTQCqN5ny78TPJ+9X/1imAB+h/A32+Lob2kEmAO32Tsrek/cCL6+7keNwIPEEouS1+P66KpYV3ASgek+jbIc6jWZt5/lyymba36i9hd1jAtBeQ8RSulL3413AAbW3cvx2Bq6g3PW4n3UcGZwV3ASget+iXGf6FvHLu2meS7kk4F5iRYaqYwLQXgdQbny6FXhQ/U2csC2BSyh3XY5eu0JZgU0AqrUJ8YVTohOdRqyDbaqXUm4G7t8ntK9LTADa6/OUuQeXEOv5m2or4ErKXJsL165MVmATgGq9mjId6GJiN6ymew9lrs+ZCW3rEhOAdppOmY1/VhIbiDXd7pTbu2Xv1ZVwB7P2ekmBmAuJTW+WFIg9UccBvygQ90BgxwJxpSZ5KvGUMtu/sp4lbw1yFfG0cLRA7P/77jABaKeZwGMLxH098IcCcXsxQhzZe1ty3CFi90Opy55YIOY5wHsLxO3VD4H/KBD3/z4bE4B2OoD8CXi/JM6YbpNbgWMKxD2kQEypSQ5NjrcCeAPxCqBN3kGclZLpoaw6bM0EoJ2yv2CWEzdXG50I/Do5pvsBqMt2Ig79yvTvwO+TY1ZhEfC25JiTgIPABKCtsrPrrwILkmNWZZSYEJhpe2BeckypKbLHpyXAh5JjVumbwKXJMQ8BE4A22oR4hJNlJXGmdJudDvwmOaavAdRVByfH+yz5c32qNAp8IDnmoWAC0Eb7EI9wsvyU9kz8W58TkuM9ODme1BSZfX+UWCradicDNyfG2xOYagLQPnsmxzspOV5dfkSsS87iKwB10RCwR2K8s4BrEuPVZQW5W4lPBuaYALTP3MRYC4kjfgfBMuAHifGyEzWpCXYklilnGaTzN7LbsqcJQPtkfrGcRXxxDorTEmNtj+cCqHuyE98Sm33V5WJy5zLMMwFon8wb7IzEWBlOJ3fnrcynNVITZL76uhq4NjFe3bK3EjcBaKEdEmOdlxgrw63AnxLjPSAxltQEjk/9+W1irAeYALTLMDAjMd6VibGyZO5nMCsxltQEmX3+isRYWTLH3FkmAO0yk5hlm+GOVWXQZN5gzgFQ12QmAG3dnGx9Mts02wSgXTJvrlsTY2XKnGTjEwB1TWafb/PmP2PJHHd9AtAymTfX4sRYmRYlxjIBUNdk9vnMeznLYvImKpsAtEzm+loTgP6ZAKhrNk6MtSQxVpaVwL1JsUwAWibz8xpJjJUps13eX+oax6j+ZbVr2AFKkqQOMgGQJKmDTAAkSeogEwBJkjrIBECSpA4yAZAkqYNMACRJ6iATAEmSOsgEQJKkDjIBkCSpg0wAJEnqIBMASZI6yARAkqQOMgGQJKmDTAAkSeogEwBJkjrIBECSpA4yAZAkqYNMACRJ6iATAEmSOsgEQJKkDjIBkCSpg0wAJEnqIBMASZI6yARAkqQOMgFol5HEWIPaN4YSY40mxpKaILPPZ97LmbLG3tFBHeQH1ZLEWDMSY2WamRhrcWIsqQkyx6iNE2NlGQamJ8VabALQLplfKLMSY2WanRhrUWIsqQky+3xmMp9lJnlPABaZALRL5s21ZWKsTFskxjIBUNc4RvUns00mAC2TeXNtDWyaGC/LvMRYCxNjSU2Q+ZRybmKsLJltWmgC0C4rgXsT43mD9cc5AOqazKQ3M5nPkjk++QSghW5OjPWoxFgZNgfmJMa7MTGW1ASZ49O+ibGyZI65N5kAtM+VibEOSYyV4RBylzcuSIwlNUHm+LQXsENivAwHJ8a60gSgfa5IjHUwMCUxXt2ekBjrduCOxHhSE2SOTwCPT45Xp33ITWhMAFoo81fl5sDfJcar0xTgOYnxMn8JSU1xLbAsMd6LEmPV7cXJ8UwAWij7i+VlyfHq8hRyl9hk/xKSmmAlcHVivCcyGK8BhshNZkaAP5gAtM+l5G63+Qxgx8R4dXlDcrzLkuNJTXFpYqxh4DWJ8erydGCXxHh/BO41AWif24D/TYw3FXhLYrw67Efu+3+AM5PjSU1xVnK8o4BNkmNW7Z3J8c6EwT3wZdD9Kjneq2n3U4D3Jse7A/hdckypKbLHp02Ao5NjVulw8pc0ngEmAG11ZnK86cDHkmNW5TnEe8JMZ5J7cqPUJFcCNyTHfDuwW3LMKkwH/j055igmAK12JvlfMM8Bnpocs1+zKZO4nFEgptQk2ffAdOATtO+I4HeSn7hcDtwEJgBtdSdwUYG4Xwa2LxC3V5+nzKuL0wrElJqkxD3wFGI+QFscQjy5yPZXn81oUrmn3jZ1zpvJ++zWLGfRjs2B3kCZ63NhRuM65BPkfXZHJLWpC2YT55Zk33/3AY9OaF+/tiO2Ci8xRu23ZkWygpoAVGtr4H7KdKBv0OynR0+j3LVp0y+QNjABaK9vUuYevA3YM6F9vZoNXEyZa7OANV6TNHkQ1/rdCvyiUOwXERNXmvi+7WDgZGBygdj3A98qEFdqopMKxd0S+CmwU6H467Mx8CPgYYXin0QkAv8nK/PwCUD1XkiZLHJ1OYlmvQ54BmUeO64up9bfxM7xCUB7TSYmm5W6H28EHlJ7K8dvc+DXlLseI8Cua1cqK7gJQPWmE4fOlOpQo8DPyN1id12GiM2KVlD2WmSeNdAVJgDt9kHK3pN3Ak+uvZUbtg+xPLLktTh9XRXLCm4CUI93U7ZTjQLXAQfU3dAxbAGcMo461l2uwFdqdTABaLftgaWUvTdHgOMp97TylcCSDdQxo6xzP5Ss4CYA9dgEuJvynWuEeCWwVb3N/T9DxIB9S41tmkiZX29zO8sEoP0+Tfn7c5T4BZ65JfjuxFyE0u0eBc4bq5JZFTABqM8HKN/BVpfbgGOAWTW1dYjYkOi8BrR1dfkjzZoLMUhMANpvF2A55e/TUeKHyneAh9bY3h2JfntfA9q7ujx9rMpmVcAEoD5b04xHTGuWO4j3f3tX1MbNiFO/Si2fWV8ZhNPImsoEYDCcSPn7dM0yAvwn8GxgWgXtGwYOWtXOJn3xjxLnkoy5YiurEiYA9WrSU4C1y8XA+4HDiGUw4zEJeBBxyMepwLIGtGNd5Q9UM4Bo3UwABsMcys8FGKvcQby+fDkTO5J3K2Li76eAaxrQjrHK4WM1YGjVH8iwkPYf2dhkGxPHBDdx7euaRolJgwuAm4HFRHK4EfHaYAtisNiDdnyx/h3w89KVGGCfAN6YFGs+5daud8GxwHtKV2IcFhLj07VEcrCYWGG0KbGJzwOAeeTNd+rHqazn8T/kZSE+AajfsyifbXapfGd8H4v64BOAwTGN8kvhulTuZQMHDblsabD8APhx6Up0xL3E3gOSxuc+3Co70/uICcpjMgEYPG8iJgSqXu8mHhFKGr+fA98tXYkOuAL4yIb+kAnA4LmavHemXXUGcRaCpIk7kpg0p3osA15MPHFZLxOAwXQi8JXSlRhQtxA318rSFZFa6i7gBcTeAKrem4BLxvMHTQAG1xuIVQGqzgjwUmL1gqTenQ+8q3QlBtB3gM+O9w+bAAyuJUSW7XyA6hwL/LJ0JaQB8WFiMx5V4w/AqybyH5gADLZLgWfio7YqfB3419KVkAbIKPAi4KLSFRkAtxEb/iycyH9kAjD4fgn8PfH4Wr35T2KXsNHC9ZAGzSJiM60rS1ekxXq+hiYA3fB1YktdTdz5xKuUFaUrIg2o24EnAzeVrkgLLQeeS2y3PmEmAN3xSeJwHo3fpcBTcB6FVLc/EUnAnaUr0iIriEnJv+j1LzAB6Ja3E0tEfJS9YecBhxB7gUuq3++A/YmzQrR+9xLzu/rajtwEoHtOIN5n+0h7bD8GDiUeTUrKcznwaOB/Slekwe4CnkQFKyiGmeCswT54GFBznEScg720dEUaaPW1ubd0RQTkjU8AdyfG0thuBA4Cfl26Ig10E3AwcE4Vf9kweRMvbkiKo/E5lbjJ/lS6Ig1xP/BW4unI/WWrojVkTgy7MTGW1u8u4InErqYKZwOPBH5f5V96GjlHE3p0ajPNBr5N+aMrS5Y/A4/r90KqFs8grx9sm9QmTczLiKVupceJUmWEeHU7pd8LuS5vT2rEa+qovCpzJHGIROnOnl1OATav4PqpHpsSh5rU3Q8q/VWlys0jJgmWHi+yy63EGv/a7JnQiBFghzoboUo8FPgt5Tt9RrkdeDUwVMmVU51+Sf2152JdAAACRUlEQVT94bi01qhX04mlzMspP35klG+S9FTqnJob8uOMRqgSQ8ARROZZ+gaoo4wQE/22quqCqXYvot4+sRzYI6016tdc4OeUH0vqKguIWf5pHk0MjHU0ZiXxy1LtsiXwBeLzK31DVFUuBh5T5UVSiiHgQurrF5/Ka4oqMgS8hJi4WXpcqaosBt4BTK3wOo3bNyZY2fGW/8hshCo3hzhe8n7K3yC9lt8RTzUmVXxtlOdA6umDtwDbJLZD1ZpGzF/6M+XHmV7LImKS33YVX5sJmQ5cQLUN+zXxAan9diE66VLK3zAT6X+H43v+QXE01faP5cSaarXfVCLJv5Ly4854yz3A8TRoEvJOxJnCVTTufzCzHkTbEytHLqP8DbSuchfxxMJlfYPp36juy/8lyXVX/SYTW+R+n5zVIxMtI8BZwCuBmTVdg75sTv+zbn8CbJJdcaXbm8hgb6bsTbWC2M/iCGBGrS1WE7ya/maC306c86DBtikxJpxGfXPcxluuIcbKOXU2uCqTgTcQ78cm0sjriczGMwa6ZRLwCOIR7cnElqp131BXE7/0nwdsVn8T1TAPY+I/VFYAX8QlyV20DTFWfJYYO+oen24jdls9hhgbG/kackOVmkV8oT+TOKVpXZOoVhCPNL5PbNvoHuqaCjyKWP2xJ7FsZy7ximmiN8LdxLKYK4j3e5cD/4UH9SgcRjzKfxqxcmVd/gj8iPjyvyypXmq2XYkVQXsRmwytHqOmT/DvuZ/YTn31+LQAOJ94BT5aVWXr8v8BhWoYUQTexGEAAAAASUVORK5CYII=;" parent="1" vertex="1">
                    <mxGeometry x="370" y="328" width="20" height="20" as="geometry"/>
                </mxCell>
                <mxCell id="7VhcuU38_8ilDAtrPy3k-21" value="" style="shape=image;verticalLabelPosition=bottom;labelBackgroundColor=default;verticalAlign=top;aspect=fixed;imageAspect=0;image=data:image/png,iVBORw0KGgoAAAANSUhEUgAAAgAAAAIACAYAAAD0eNT6AAAABHNCSVQICAgIfAhkiAAAAAlwSFlzAAAOAAAADgABsMRA8wAAABl0RVh0U29mdHdhcmUAd3d3Lmlua3NjYXBlLm9yZ5vuPBoAACAASURBVHic7d13uF1Vmfjx771pJCShd6mBBAS7iIUu6liw90J0VKwDOqOiP0dlZFQso4Nl7IrYsYNjQ6QMovTRgQEiKEjvkEJCSO79/fEmY4y5yb3n7P2uvc/+fp5nPTBjyLvWPmuv8569VxlifIaBRwNzgQcAmwJ3AjcAlwMXAKPj/LvUTTOBecDOq/59Y2A2sAkwA1gGLAIWA0uAe4DbgSuAmwrUV+2yA7A/sB2wPXAfcAtwLXAWsLBc1dQCw8AuxHfcJqvKLP4yVk3mL2PTXav+fTHwB+BqYHl6jSswtIH/fS7wT8Azga3X8+duBH4AfAS4ppKaqc3mAAcDDyf60Dxgxz7+vnuABUQy8L/AfwHnASv6qqXabhpwJPAy4JGMPZ4tB84APkeMU/5Y6baZwAHAY4E9+csYNa3Hv28F8CfgSmKMuoDob7f1XdNCNgP+g7hxRidQlgH/Rlxgdce2xCD8ZeIX10T6TK9lEfAT4C1EoqFueQEx6E603/wG2K9AfVXOFOAQ4DjgHCb+vdZLGQF+D/w78HRa9J24O/FYv5/G/x7YNbviSrUR8DzgVOB+cr7011euAY4nnj5ocE0iPud++sr9wBuyK650exN95WbKj09LgZOBw4nXCY30COL9RhUNvhV4YG71leAxxC/9hZS/qdZVRoAzgVfQ+yM9NdNkIuGsqq8cm1p7ZdgCeBtwKeXHorHKDcCHaNiPlW2B66i2oX8EtsxshGqzP9UOvhnlFmKQn1395VABH6fa/jECvCS1BarL1sS9fjflx53xlpXEmFr8FeYQcDb1NPLUxHaoWkPE+6vzKH+z9FNuBf4fJgJt9gLq6RtLiQlgaqedgU8Rn2PpcabXshL4PvEEvojnbqCC/ZbD8pqiiswFTqP8zVFluYOYNb6h1S9qlqnEUqu6+sX385qiikwFjqHdX/xrlxHgJNa/4q5yQ8TShTobdl5aa9SvGcSjtPsof0PUVc4GHlTR9VL9jqL+PvGotNaoX4fS/0T1Jpe7gKOJCa+12y+pUT5ma76nU/08kKaW5cREnI0quXKq0/nU3x9OSGuNerUt8D3Kjx1Z5XzgwZVcufV4f1Jj3lp3Q9SzKcRymRHKd/rscjGwR/+XUDXZnpx+eS2+GmqyQ4gN50qPF9llKfE0oDZ1Tf5bu5xSZyPUs52JzVFKd/SSZSHwon4vpGrxfPL6wc5JbdL4TSJeSa6g/DhRsnyP2IK/cnVOrlmzXFRH5dWXZ9OuZTN1l08Tk4vUHG8m7/N/bFKbND7bEFvqlh4XmlIWAA/p64quw5KkynugS7O8kVh+UrpTN638CpcLNskHyfvsn5PUJm3YrsQXXunxoGllEfDEPq7rXxkmZn1nyIqjDTsG+ATx+euvHUIkAalLcTSmzHFj48RYGts+xJ79zs35WzOJvXVeUMVf5hdAt0wCPkNM+NPYHkHMi9i9dEWkjjmI+PLfvnRFGmwq8HXgdf3+RSYA3TEMfBV4TemKtMRuxJkCu5SthtQZhwE/AzYpXZEWmESc2Pvmfv4SE4Du+Dec6T5ROwC/JCYjSarPI4kdGd2XY2L+jTj4rCcmAN3wLuBNpSvRUnOAHwOzSldEGlC74z3WqyHgs8BTevmPTQAG35HAe0tXouUeCfwIjxeWqrY9ceaIT9l6NwX4LvC4if6HJgCD7SDiPZH6dwjw76UrIQ2QqcAPcZ5NFaYTr1AmNHnSBGBwbQV8g6QDJTritXh+vFSVDwH7lq7EANmaCY75JgCDafWMf5fSVO8zeLCV1K+nEac8qloHAe8e7x82ARhM7wCeVLoSA2omcDLxyE3SxO0InIiHL9Xln4EnjOcPmgAMnocTh2eoPg/Gayz1Ygj4GrBF6YoMsGHgK4xjPwUTgMEyDHwSmFy6Ih3wj8CDSldCapkjgANLV6IDtgP+ZUN/yARgsLwaeEzpSnTEZOBT+BhTGq9NgA+UrkSHvBF42Pr+gL8UB8dWwPtLV2IcrgGuJE76uoE4jXL5qv9tM+Ikvj2AucBeNPt43gOIVQFfK10RqQU+QPwybbKFwOXEGHU1MT4tWvW/zSAOjNqJmAj8QGLcbapJxI+U/YGRsf5Q1jGG91TcOP21L1D+qMp1lcXEioSXMvFVCTOI/cE/APyxAW1ZV7kJdzCr0yfI+yyPSGpTFz2c5h4/fh5xQuqjmPiy6b2ANwA/BVY0oC3rKuvdKjirEiYA9dkNuJ/yHW3Ncgkwn5g1X4Uh4hf31xvY1mMqaqP+lgnAYPgR5e/TNctC4MPAnhW2cTvgbcD1DWjfmuWPrOdpf1YlTADq8xnKd7LV5WLgqdT7bnwO8CWa84viZnLPre8SE4D2ezDxCLr0fTpKPJF8D/G6sS7TiFNXb2hAezfYt7MqYAJQjx2AZZTvYHcTk04ydx7cD7io4nb0WtzUpB4mAO33Tcrfn6PA94g9CLLMBj5GM55YXs4Yk/6zKmACUI+PUb5znQ/sWndDxzCZWJNf+mnAdXhYUB1MANptDuXfjd8LvKruhq7HvjRjDtPz1lW5rOAmANXbhHikVbJTnUCcRlXak4k+VvJazK+9ld1jAtBun6bsPXkl1b7n79UWxKmHJa/F+euqWFZwE4DqvYpynWmE5u2Gtw9lJ+D8qv4mdo4JQHttBNxFufvxQuKAnKaYShzWU+p6jBJj5F/JCmwCUL2zKNeRXp/Qvl7sQUzKK3FNVgI719/ETjEBaK/nUW58+i3NXJ47DHyZctfl+LUrlBXYBKBaO1NuZu24T5sq5EGU++XxzoT2dYkJQHudSpl7cAHN+uW/tknEhMQS1+Z61pqonRXYBKBa76JMB/pqRuMq8BTKJEhXZDSuQ0wA2mlrYofP7PvvTmCX+pvXtxnA7ykzhh+2uhKeBdBeLygQ8wrgdQXi9uInxEYf2eYBDy0QV2qSZ5M/OXiU2PXumuS4vbiXGMMXF4j9/NX/YgLQTtsS+1BnWknse1+iw/bqncB/F4j7+AIxpSYpcQ98nthxsC0uB95aIO7/fTYmAO10KPmn0H2S2OWvTVYAR7KegzBqckhyPKlJhoCDk2PeQTvn33yOmLCYaTdWvSYxAWin7C+Y24ntM9voAvLnLRyIJ22qux4MbJkc8x3EONU2I8QuoqPJcQ8FE4C2OjQ53gm0exLnccTTgCyziN2/pC7Kfvx/HfCV5JhVuoA4TTDTIWAC0EY7EI9wsiwkHv+32dXAyckxD0yOJzXF/snxPkysOGiz9yXHOxBMANpo7+R43yYO+mm7zyXH2ys5ntQUmWPUMtqzNHl9ziWWBWbZEZhtAtA+85LjnZQcry5nA39KjNeE/celbFPIPRjsBwzGDxSAryXGGgL2MAFon8wE4Abg14nx6jQKfDcxXnaiJjXBHHLX/2e/2qvTt5Pj7WkC0D6ZXyynkz87tU6nJ8baFNgmMZ7UBJlPvlYS56EMij8Df0iMN9cEoH0yE4AzEmNlOIfcyUI+BVDXzE2MdQlx5scgyTxR1CcALZR5yMUlibEyLCE3w27ygSRSHRyf+pO5c+lWJgDtMgWYlhRrlNwvyyxXJsZq4nGkUp0y+3zmvZwls02uAmiZzJvrRuLAikGTmdTMTowlNcHMxFhXJcbKkjk+zTIBaJfMBGDQ3q2tltkunwCoazKT3kEco1LHJxOAdsn8QlmUGCtTZrtMANQ1mU8ABnGMupdY3ZDBVwAtMz0x1tLEWJmWJMbaODGW1AQzEmMtS4yVZZS8sXeGCUC7ZB4BPEjr/yUNnkEdo7LaNWQCIElSB5kASJLUQSYAkiR1kAmAJEkdZAIgSVIHmQBIktRBJgCSJHWQCYAkSR1kAiBJUgeZAEiS1EEmAJIkdZAJgCRJHWQCIElSB5kASJLUQSYAkiR1kAmAJEkdZAIgSVIHmQBIktRBJgCSJHWQCYAkSR1kAiBJUgeZAEiS1EEmAJIkdZAJgCRJHWQCIElSB5kAtMuKxFiTE2NlmpQYa2ViLKkJMvt85r2cKWvsXWEC0C6LE2PNTIyVaXZirIWJsaQmcIzqz2RgelKsRSYA7bIoMdYg3lwAsxJjZX5eUhNk9vnMezlL6vhkAtAumTfX9sBQYrws2yfGMgFQ12T2+e0SY2VJHZ9MANplCTCSFGsWsG1SrEzzEmOZAKhrMvt85r2cJXV8MgFol1Fy37HtlRgriwmAVJ/MeS97JsbKkjk+LTQBaJ9rE2M9LjFWht3IfcT2p8RYUhNkjk/7M3ivKfdPjHWNCUD7XJkY65DEWBkOTYw1AlyVGE9qgszxaRsG6ynlZHITgCtNANon8wZ7LLBpYry6PTkx1vXAvYnxpCbIHJ8g956u2wHkLlNeYALQPpk32DTgeYnx6rQZ8NTEeFckxpKa4mbg7sR4L02MVbeXJce7wgSgfbIz7PnJ8eryfCKhybIgMZbUJJl9/6HAQxLj1WUG8JzEeMtxDkArXUZ8eFkeB+yXGK8Ok4A3J8e8ODme1BSXJMf7p+R4dXg1uY///we3Am6lJcD5yTH/X3K8qj2P/DXDZyTHk5rizOR4LwZ2T45ZpanAPybHPB08DKitfpUc73DauyRwGvAvyTH/CFyTHFNqijOIPUuyTCL/Hq/SUcBOyTHPBBOAtsr+dTkEfAaYkhy3Cm8B5ibHPD05ntQktwD/mxzzxeQu863KdsC7kmOuAM4BE4C2+g2wNDnmPsSXaZvsSZnXFz7+V9dlP6UE+A9g4wJxe7X6h1Xmu3+A81i1S6kJQDvdR5kvmffSnlcB04GTidm1me4HfpkcU2qanxaIOQ/4dIG4vToaeHqBuH/12YwmlXvqbVPnvJC8z27Nch2wQ0L7+jEEnESZ63NqQvu65BPkfXZHJLWpCyYTewKUuAdfl9C+fh1A/JDLvjYjwC5rViQrsAlAtTYC7qLMDXYpsHn9TezZ8ZS5LqPEfgOqjglAe32UMvfgSuC5Ce3r1d7AnZS5NmeuXZmswCYA1fsCZTrRKHAusbte07yTctfkbuLVg6pjAtBeD6PcvbiU3J0/x+uBxDbhpa7Lq9auUFZgE4DqHUS5jjRKbEq0Y+2tHJ8h4MOUvR6fq72V3WMC0G6/p9z9uIJ1fOEV9CjgNspdj6Ws42yXrOAmANUbIpbblOpQo8ANRCJS0pbAf1L2OowC+9bd0A4yAWi3N1L2nhwBPkL5JcxHEl/AJa/FieuqWFZwE4B6HEHZTjVKZNrvIXa0ynYoMTGx9DX4Rd0N7SgTgHabTrnJgGuW3wB71NzWddkC+GYP9a26rCSWRf+NrAqYANRjMrHzXOkONgpcTt5mHNsBX09o03jLQfU2t7NMANrvbZS/P0eBZcRS5ox5OsPE64fbE9u3vvLtsSqaVQETgPq8lvIdbM1yDrF9cB22Jmb5L2lAO1eXc2tqq0wABsFMyr77XrvcAhwLbFJDW4eJse/iBrRzdRkBHj5WhbMqYQJQn2mUnVk6VrmI2Oxi6z7bN4XYMOM7RBZful1rlyf12T6NzQRgMBxL+ft07XInsXvgYypo3zzgOOIMkNLtWrucsr6KZ1XCBKBe8ynf0cYqK4gTDI8nvsjnsv5JOdsCBwNvIjbWuacBbRir/Hw97VD/TAAGwyxiwnDp+3WsciPwVeCVxGz9v5ktv4bpwEOIzdg+DVzZgPqPVZYTSw/HlFURE4B6DQFnU77DTaRj3gQsAC4kNhe6FljcgLqNtywj/6ChrjEBGBwvoPw9O5FyN3A18N/E08yrgVuJR+ql6zbe8qENfShZFTEBqN/exBdr6U7XlXLc+D4W9cEEYLD8lPL3bVfKdcT8izF5GNBguYwYMFW/PxOvNCSN31HEHviq35uIJ6pjMgEYPMcSywJVn1HgNcRKBEnj9wfg/aUr0QGnAN/b0B8yARg8i4h3bWbZ9fkw8LPSlZBa6l/xyOw6XU9MZtwgE4DBdCFwTOlKDKjzgXeVroTUYiPAS4kdAlWtFcTqhNvH84dNAAbXx4EflK7EgLmLeLqyvHRFpJa7BXgxsUWtqvNO4Nfj/cMmAINrlHgM9IfSFRkQK4GXERt9SOrfGcTrAFXjFOL15LiZAAy2u4hd6m4qXZEB8CbixEFJ1fkX4AulKzEAziOeqIxO5D8yARh8fyKSgLtKV6TF3gV8snQlpAE0SpxlssEZ6xrT/wJPoYdVSSYA3fA/wLOInes0MZ/Gx5RSnVa/Xju7dEVa6Abiy//OXv5jE4DuOAt4PiYBE3Ei8MbSlZA6YCnwDOJRtsbnBuAJxBbqPTEB6JZTgUOAO0pXpAU+TkyiHCldEakj7gYeT2wXrPW7GjgIuLyfv2SYCU4a6ENWHK3fb4mOc33pijTUKLGHwtH45d8EmeOGn3d5S4gTQ79UuiINdgFxhPHVVfxlt5FzMIHL0ZplV5p9jGWJch+xQYma41jyPv+/y2mSxmEI+Cjlx4SmlZ8AG/dxXf/G75MqflaVlVYlZgPfpHynbkK5lsiq1SyvIa8PPDipTRq/5xCvBkqPD6XLCHH42KT+Luff+l5SA75YdcVVmSOIR2+lO3mp8kNgs76voupwKDl94H4iIVbzzAUuofw4UarcQizlrsUrkxrx7LoaoEo8DFhA+c6eWZYB/0A8blQzTSH2sKi7L5ye1SD1ZDrwGcqPGdnlNGCbCq7fmLYhDhCosxFLgZl1NkKVmE68c11G+Y5fdzkT2LuKi6bafYv6+8Ob0lqjfhwMXEb58aPucicxETllpd6JNTfmYxmNUGX2II67LX0T1FFuJF55+Ku/PR5JvAOtc7D1FVB7TCG+HBdRfjypuowAJwFbVXa1xmFn6vvVtwjYOq8pqtALgT9S/qaootwLfATf87bVd6ivb/xjYjtUnV2B71JvcphZzgX2q/QKTcBbx1HBXsqrMxuhyg0DzyP2my59g/RSFgEnANtXfWGUaifgVqrvH+cB0xLboertTfxqvp/y400v5Rzg8MqvSg++SLUN8wCVwbE6EWjLbNw7iZPGtqjjYqiIxxF7NVTVR24CHpDaAtVpd+JkwSr7SF1lhDhd9LG1XIkebQScTDUN/DLxrkaDZ29iTerNlL+R1iwriFmzR1DxZhlqjGcDi+m/r1wLPCS57sqxKTEGnEbzXg9cQ4ydu9fV+H4NAf9MnNDUSwOX44zarphCPLr6FvGLu8QNdT/xCO0onGvSFQ8ljrnutc+chX2lK+YC7wUupdyX/p+BT9Gyjcb2Ip4GjDeDGln15+eWqKyKGyaeDBxJ9IM6d++6Gvgs8Upi04zGqXFmEGc2TCTxvJbon5XvpqZW2JoYMz5LvUsJbyXGwKOBR6S0rEfjWQr1IOKYxsOBfYgbb7UlwH8DPyZ2U7ui6gqqtaYAc4A9iaRw3qqyE7EnxPqWXS0hHvPeQmxOtIDoW1euKvfUVmu1zSbE2HQ4cCCw7Rr/2wri0KufEydhnkY8oZQg9sDZixif5hJj1RxgS2AWY08OXUFMLr6TeKR/5VrlWiIRaLxe1kLPJi7QrcQgLfVq5qoyg7/cVKufHEi9mEr80ltJJJCe8KdeTeGvf6wsJL7zlhWrkSRJkiRJkiRJkiRJkiRJkiRJkiRJkiRJkiRJkiRJkiRJkiRJkiRJkiRJkiRJkiRJkiRJkiRJkiRJkiRJkiRJkiRJkiRJkiRJkiRJkiRJkiRJkiRJkiRJkiRJkiRJkiRJkiRJkiRJkiRJkiRJkiRJkiRJkiRJkiRJkiRJkiRJkiRJkiRJkiRJkiRJkiRJkiRJkiRJkiRJkiRJkiRJkiSpd0OlK9CDLYF5wJ7AXGAXYHNg5qqyMbApMALcAywElgCLgduBq4ErgAWryqLU2qsNtgeeBjwR2BHYAZgE3AJcD5wNnEL0I2lN04DdiTFqHjFGbU2MSzOBzVb9+1RiTFpMjE93E2PRdfz1+HRdbvXVAlOBg4DDgYcQ/Wsb4DZijLoUOBU4A1hWqI6VmATsC7wN+BlwBzBacbkO+DbwWuKGVXftDfyQSB7H03fOBw4rUlM1xfbAS4AvEF/YK6h2fFoEnAMcBxwKbJTTLDXQDOAYxv89eA/wbiLxbI1NgVcDPyKy4qq/8DdUrgdOAp5JZFoafFOAE+h98P4x8RRKg28IOBD4FHA5+ePTUuBXxI+iB9TcVjXHocR3Uy995mbgKflVHr9JxC+pk4hHYtk31VjlLuCzwP6083WJNmxz4Jf031euIp4gaDDtRPz6uory49LqspJ4OnAkMKu+pquwI4Hl9NdXRoBjk+u9QVsSj7ZuofzNtKFyBfA64h2fBsN04Dyq6yO3A3NSW6A6DRFPAs+h/PizobIY+Dwx/0CD4w1U20+Oya3+um1NZCP3UP7GmWi5ZVXdN6n4mijXEPANqu8flwGzE9uh6g0TE6wuovx4M9GykpgA9vDKr4qyHQDcR/X94/DMRqxpG+DTxMzE0jdKv+U24B04KaetXkR9feOjie1QdYaAI2jWY/5eywjwA2CvSq+Qskyn93f+4/nuSv2RMkzcWLdX2IimlKuAJ1d3qZRgCvUO8vcBu6W1RlWYRzVzQZpWlhMTXJ0j0C5vp95+8d6shjwc+G3NjWlCORXYuaJrpnrNp/7+8Mm01qgfGxOv9Kp+1Nq0cj3xI0zNN5V6lryvWRYRfb/WRnyUeOdQuvNnlUXAq6q4eKrVj6i/L9yAK0ea7hDqe8za1PJDYIsqLp5q8yRy+sKz6mrATsC5SY1oYvkuThJsqunEzmsZ/eARSW3SxAwRs6Gr3rSnLeU64HF9X0XV5ePk9IMv1lH5ZwB3JjWgyeVK4KF9XktV70Hk9YFXJLVJ47c1sato6fGhdLmfePUx3NfVVB3OIqcPXFBlpYeADydVvC1lKfDifi6qKvdE8j7//5fUJo3PfsSuaKXHhSaVU6j5XbAmbAE5n/0NVVV4MvE4oXRnbmIZAd7a+6VVxV5C3md/QlKbtGGPJw4GKz0eNLGcD2zV+6VVxe4i53O/v4rHPzOISVV/X8HfNYiGgA8RXwZOCitvcmKsSYmxNLYXAz/FpXBj2Zd47LxT6YoIyBs3JvebAGwOnE7DDxpoiKOIpyR+KUh5jga+Ruz9oLHtBfwaeGDpiihPPwnADGLt+6MrqksXvAL4Ej4JkDK8Bvh3vN/G6wHEGfJ7lK6IcvSaAEwhlro9tsK6dMURxAFIkurzDOLIXk3M1sTrkm1KV0T16yUBGCJOnXL72969E3hz6UpIA+pg4Fv4uq1Xc4BfAJuWrojq1UsC8GFiK1X15yPA80tXQhowDyEmJXtIV38eDHyH3EmzSjbRBOC5wD/VUZEOGibmA3hal1SNmcC38TjmqhyGrysH2kQSgDnAF+qqSEdtDJxMTKiU1J/PEKf6qTrHUPD8eNVrvAnANCKzdn/76u0DfKx0JaSWey2xyZOqNQSciHsEDKTxJgAfwoNN6nQk8KLSlZBa6sGYRNdpc+CrOKly4IwnAXgs8A91V0R8EtiydCWklhkGPoeT/up2IPGURQNkQwnAJGItrRtp1G9z4P2lKyG1zGuIQ35Uv/cD25WuhKqzoQTgKDzSNtMrgceUroTUElvgLPVMs4EPlq6EqrO+NZ7bE+dFN9VK4CLgv4DLgSuI4w3vARYRTy9mEr+sdwbmEu8KD6a5M4WHiScu+xLtkzS2jxBJQFPdCPwK+G9ifLoauBNYsqpsRqwE2pYYn/YiXrk+BpheoL7j8VLiTJOzSldE9foS5Y+pXLusAP4TeCH9rUjYgZjXcEED2rSu8qo+2qb1m0/e5/jJpDZ10SOIo7ZL36trl6uA9wB79tG2jYAnERPvljSgTWuXS/C1cJ0yj61ep52B5YmV2FBZRGT720/kKo7TQ4BvEslF6XauLlfhDlx1mU/e52gCUJ/vUf4+XbOcATyB6r8YZwFvIZ4mlG7jmuVpFbdTf1E8AfhkYgXWV1YAHyfnMd884CfJ7VtfeWm9ze2s+eR9hiYA9Xgg8Yqs9D06SjzeP6De5gLxVOBtxI+h0m0eBX5Tb3M7rWgCsC2wNLECY5VLgIf3cPH69Wzg5h7qW3W5jP6Oa9a6zSfvMzQBqMdXKX9/LiUO9Mp+UrcjcEqfda+qPL7mtnZV0QTgQ4nBxyqfouy63m2B09dRr+zy7Lob2kHzyfv8TACqtxtwP2XvyyuJV4elDAFvAu6j7HX4Vd0N7ahiCcA0YpZqqQ51P/CKni9btSYBn6DsDXZ67a3snvnkfX4mANUr/QPlNOK9fBPsT9nxepR4HaNqFUsAnpsYeO1yL808dOKfKXdNVhKP/FSd+eR9fiYA1ZoEXE+5+/HbwNTaWzkxe1P2mnyg/iZ2TrEEoNS7pRXAs/q4YHU7lnI32Nvrb16nzCfvszMBqNaTKHcfnkJzV+bsDtxCmetyPZ4RULUiCcBWlFn6N0IMyk33GcrcYP+b0bgOmU/eZ2cCUK1Sk//OpvlnDexHuT0DDk1oX5cUSQCOSgy6Zvl4v1cryRTgXMpco0cmtK8r5pP3uZkAVGcWsJj8e+9GYJuE9lXh5ZQZn06sv2mdkpYArLnMrMT794uAtxaI24v7iSN77ywQu4lzI6RMhxLb5mYaAV5CPF5vgxOBrxSI+1RcstxKqz+0qcQe1JlWEIff3Jcctx/XAscUiHtIgZhSk5R4zPxpYoe/NjkKuCk55pbAg5JjqgKrE4DHADOSY58A/C45ZhW+RP4uWPuR/+tHapLsJPgW4F3JMauwkDI/UpwH0EKrE4Dsm+tu2nuM5wixN3emqeRsNyo10dbAPskxjwPuSo5Zla8Rr1czmQC00OoEIPvD+yRxbG9bnUv+o8GDk+NJTXEwuafP3UI86WurUeD9yTEPornLJDWG4VUlc5b5fbRn5v/6HJ8c79HJ8aSmeFRyvI8Te/232Q+JLYuzzKK/I5BVwDCwEzA9MeaPgdsS49Xll8B1ifHmJcaSmiTzi2WE2G+g7UaAk5JjOka1zDAwNznmINxcEDfYtSpmMQAAIABJREFU1xPjbQtskhhPaorMMep0chP7On2NGKeymAC0zDC52fV9wC8S49Xt1OR42cmaVNpUYNfEeNn3dJ3+TO5KKxOAlhkm90M7l/a/W1vT+cSymyzeYOqaOeROLhu0I24zTxR1fGqZYeJ87SxnJ8bKsILcPQHmJMaSmiBzfLqdwTt7I3PMdXxqmWFg08R4g3ZzAVyeGMs5AOqazPHpcmIJ3SDJHHMdn1pmmFi+kSVzWUqW7KU2Upc4PvXnGmBZUqwpwLSkWKrAMDAzMd6fE2NluTYx1uzEWFITOD71ZyVwQ2I8x6gWyX4CsCgxVpbMNvkEQF3j+NQ/xyitU+YTgGXEpLlBk7kKwJtLXWMC0L/MMconAC0yTKyzzbA8KU62zHZlfVZSU0xJjHV/YqxMjlFap+EN/xFJkjRoTAAkSeogEwBJkjrIBECSpA4yAZAkqYNMACRJ6iATAEmSOsgEQJKkDjIBkCSpg0wAJEnqIBMASZI6yARAkqQOMgGQJKmDTAAkSeogEwBJkjrIBECSpA4yAZAkqYNMACRJ6iATAEmSOsgEQJKkDjIBkCSpg0wAJEnqIBMASZI6yARAkqQOMgGQJKmDTAAkSeqgYeC+pFgbJcXJltmuZYmxpCbIGp8ApiXGyjQ9MdbSxFjq0zCwKCnW1FVl0MxOjJX1WUlNkdnnZyXGypTZLseoFslMAAA2SYyVxQRAqk9mn8+8lzNljruOUS2SnQDskhgry26JsRYmxpKaYHFirF0TY2WZCuyQGM8EoEWGyb3B5iXGypLZJm8udU1mnx/E8WkOMDkp1n3A8qRYqsAwcEdivAcnxsryoMRYdybGkpogs88/kLwvyyyOTxrTMHBVYryDEmNlmAE8KjHeHxJjSU2Q2ednAQ9PjJfhkMRYjk8tMwxcmRjvEcCmifHq9jhylw4tSIwlNcG15C5/PTQxVobM9mR+l6gC2QnAJOAZifHq9pzEWCOYYat7VgJXJ8Z7dmKsuu0NzE2MZwLQMtkJAMDLkuPVZSrw3MR41wH3JsaTmiJzjNoX2CcxXp3mJ8czAWiZYeAm4J7EmIcQM1Pb7jnAFonxrkiMJTXJ5cnxXp4crw7TgJcmxzQBaJnVZwGcmxzzbYnx6jAEvD05ZuZnJDXJb5LjvRbYMjlm1V4BbJcY71ZyJ5SrAqsTgDOS484HHpAcs0rPIH9J46+S40lNcTawIjHexsA/JMar2lTyf2SdAYwmx1SfSiUA04APJ8esyjTg+OSY9wLnJ8eUmmIRcGFyzLfQ3p0B30x+3f2B0kKrE4BLgLuSY78QOCw5ZhWOIX/HsLNxhy11W/YXzAzgo8kxq7Aj8K4CcU0AWmh1ArASOKtA/C8AmxeI26tHAv+vQNzsJzRS05S4B55J/kz6fkwCvkK8wsj0Z3z/30rDa/z7DwrE3xk4iZhU13SbAN+mzJnhPywQU2qSs4DbC8T9FLFFcBu8i9yd/1b7foGYqtjGxLu20QLlfQnt68cU4GeUuTa/Tmhfl8wn77P7ZFKbuuITlLkHrwK2TWhfP55JTJQscX0Gbfvk0haS99n9la8kBl67HNXHBavTMPB1yl2X19XfxE6ZT95nZwJQrUdR7j68kDgroIkOJbZLLnFdLk1oX9cUSwAOSwy8dhkhJtg1yWTgi5S7JveRu9lQF8wn7/MzAaje5ZS7Hy8Atqq/iRNyGLlfGGuXpo3Zg6BYAjBMbDlbqjONAh8hJrOUtgnwc8pei+/V3srumU/e52cCUL13UPaevALYrfZWjs8riNVBpa7FCtq9n0tTFUsAIDaQKHmDjQJnAtv3cOGq8nDi4J3S1+GAuhvaQfPJ+/xMAKq3BeXmKq0u9wAvqLuh67ERcMI66pVdvlV3QzuqaAIwC7gjsQJjlVuAl5C7QmAj4N2Ue5+2ZimxLLML5pP3GZoA1OOjlL8/R4nXg9lbBh8IXFZB3fstI+TvhtoVRRMAgPckVmBD5QzgERO7fhM2RMyibcKv/tXlibW2uLvmk/cZmgDUY3uakaSPEj+WXk/9y4N3IZZMjxRq59rlR7W2ttuKJwCbJVdiPOUnxBrXKp8ITANeBPyuAe1bs5xXYRv11+aT9zmaANTn05S/T9cs1wNvAjatuJ0PAr5M2Xf96yqPqrid+oviCQDE2vzSnWxd5U/AccB+xCz9iZpB/Lr+DHBnA9qzrvLUHtql8ZlP3udoAlCfXWnOU4A1y1LgZOC59L6CZ2/gn4gt2ku3Z13lpz22S+OTlgCs79f0TGLJTZNneS4kjsm9DFhAbEm5CFhMJAcziTkNc4j9+/chEoepJSo7Tj/BBKBO84ETk2J9CnhjUqwuOg7459KVWI8R4PfAxcCVxCvGhcDdxAz66cQYtQMxPs0DHkuzNx1aDjyEWA2heiykIXtOPJfy2WaXyjJg7rg+GfVqPnmfp08A6jUduJry922XStN3bR0EaU8A1jwLYF2+S/wiVY73E08yJG3YUuANpSvRIX8mxigNiA0lAABHE79MVa+rgQ+VroTUMj8DTildiY44ClhSuhKqzngSgKuI3bdUnxXAyzHRknpxJHBz6UoMuG/h0r+BM54EAGLXqRLHBXfFPwPnlK6E1FKrNw1bWboiA+oPRJKlATPeBGAU+HtiCZ6q9TPgw6UrIbXcr/AVWh2WAc8nVldpwIw3AYBYuvJCYhmIqnEzcaDHSOmKSAPg3cB/la7EgDkK+O/SlVA9JpIAAJyP65qrsoTYfth3l1I1VhCH9FxTuB6D4rPA50tXQvWZaAIA0SHeXXVFOuZ+4Hm45a9UtZuAJxDzAtS7U/DH3sDrJQGA2IHrhCor0iGjwGtwO02pLlcBTyN2BNXEnUU8SVlRuiKqV68JAMA/Entea2LeShzuIak+FwLPAO4rXZGW+R/gWbgkuRP6SQBGiKU3fpmNzyjwduDfSldE6ohfEU8CnME+PhcChwF3la6IcvSTAEA8Inol8JEK6jLIVgKvBj5YuiJSx/wSeDxwe+mKNNzpwKHAraUrojz9JgAQv2zfSpyFPVrB3zdo7iUeRX6xdEUE5C5jdclsM1wAHEjsZa+/9Q3gyfikpCmyxo3K48wnvvBKn1jVlHI98Oi+rqiqdgh5n/9bk9qk8dkRuIjy40JTygjwAWB9x8Ir36XkfP5/qqPyD0xsQJPL6TT7XO+umkdeH3hJUps0ftOIFUylx4fS5XbgqX1eS9XjNHL6wK/rasBM4GtJjWhaWQEcSzWvV1S9KcCd5PSFeUlt0sQ9k7x+0LRyPrBr/5dQNTmenH7w8bob8kpiC+HSHT6rXAUcUMmVU50yktMFaa1Rr+YQv4JKjxtZZTnwPmByFRdPtXkMOf3h8RmN2RY4iXjfVPoGqPPGOgHYuKJrpno9g/r7xHFprVE/hoAjiJ0DS48jdZazgX0qumaq1zBwLfX2h1uIp6FpDiQ2mSh9I1RdTgf2rPA6qX5DxMzwuvrEXcAWaa1RFTYjkvgVlB9Tqiw3EwmOE/3a5RXU2y/ekNeUv5hC7C9dd3aTUS4ADq/28ijRodTXN5z9316PBE6l/U8s7yaeQm1a7eVRkknA76mnbywApuY15W9NIbLSK6ingXWWc4gvfjPq9qtjss0v8B3rIHgQ8eqybU8EbiMmIW9W+RVRtj2pfg7dvcC+mY1Yn0nAi4kzvJuccd8H/IB4jaHBMQz8iOr6yeX4i2vQ7Al8juZPZr4MeDPOQxo0TyVOj62ij6wkTqFtpB2BY4jHE6VvptXlQuBoYOsa262yJgOfoP++8l/YTwbZRsSTv5OJSb+lx6ZR4A7gs8D+NbZb5T2B/pesLiKWvrbCY4nlKr+huuxnPGUJ8HMiEZlbeyvVJK8hBtSJ9pllxBkPqTNqVdQ2wOuA7xIb6mR+6V9KrN9+Kva5LplL/Mjopc/8Ftg7v8rVmE2c6PVR4gLcSjU30ggxGfEXwHuI9ftFJ0aouM2IeQHj6WOLga8Au5SoqBpjGHgocTz6D4knmFX9aLmHmGz8OeBFuLOoYgnzeYzvlflFwHNZz3y1tk5k24zYZW1PYDciSZi56p+brPr3lcQgvZhYlrWYeI+3ALhy1T/vza64WmES8DjiaNSdge2ILWSvB24k1lT/ElhaqoJqtCnEuLQX8cttC2JuyCxibJpJvKtfSHzJrx6nFhI/ShYQE6Rvyq64WmNH4OlEH9uR6GN3ADcQfecU4JpSlZMkSZIkSZIkSZIkSZIkSZIkSZIkSZIkSZIkSZIkSZIkSZIkSZIkSZIkSZIkSZIkSZIkSZIkSZIkSZIkSZIkSZIkSZIkSZIkSZIkSZIkSZIkSZIkSZIkSZIkSZIkSZIkSZIkSZIkSZIkSZIkSZIkSZIkSZIkSZIkSZIkSZIkSZIkSZIkSZIkSZIkSZIkSZIkSZIkSZIkSZIkSZIkSZKkRhqawJ+dDOwAbA9sBtwFXA/cCKysvmoaUJsAs4CNgZnApqv+uWRVWbzqn3cBi4AVZaqpFtoS2I4Yp+4DbgauI/qUNB4bEePRbGKsWj1OTSLGpUXA3Wv8+5Iy1azGhhKAycBzgGcBTyIG67XdAfwU+AHwQ2CkygqqtXYFHgbMW1X2XPXPdfWhsSwHrgauAK5cVS4DLsHEQGEf4CXA4cDe6/jfVwK/AU4FvgrclFc1NdjGwL78ZVxa/c+dgeEJ/D03EePTglX/vAK4CLityspmGwKeSzRmdALl98BTC9RX5W0DPA/4LPBHJtZvJloWA6cBxwCPYGI3rAbDrsQX+kom1m/eR/yyU7dMJsaKY4ixYxn1jlFXE2Ph84gn5q2xEfAV+mv854Gp2RVXuh2AtxGJX50304bK7cCngcfW21w1xFOAe+i9v/wZeHh6rZVtCvB04LvAvZQbn1YAvwJeQbz+bKwtgQuoptFnY6Y9iGYALwV+TnTskl/86yoLgHcDu9TUfpX1Vib2q3+ssohIJDR4Hgl8HLiV8uPR2mUJ8DXg74h5BY0xhchSqmzsz2hYI9WzWcDRxDuv0jfReMpK4r3vI+u4GCriecQco6r6yL3EY2ENhv2BX1J+7Blv+SMxpk6r42JM1Keop5Hvy2yEKrclcCwxK7/0DdNrOQ14dMXXRbkeBiyl+r7xJ1r2jlZ/ZYiYAHoe5ceZXsu1RCIwveJrM24PpprHausqy4Hd85qiimxEfPEvofwNUlX5T2BOhddIec6gvn7xocR2qDoHUn7+UZXlRuBlTGx5fiV+2mfFN1S+kdcUVeBQ4HLK3xB1lPuA44kER+3wNOrtE0uBHdNao35tTsywr/J1UJPK2cTy1hS7JTRoJbFMTM32AGLGbOkbIKP8gZiIo+b7CfX3h3entUa9GgZeT7tfR463LAc+SOxXUKs3JTVoft0NUV+eTmzqVLrjZ5eTKPjuTRs0k3re/a9dLshqkHqyFfU/qW5iuQJ4SAXXb0wZ2fUovgZoqsnEI/FBfZw2nnIRzlNpqqeS0wdGiAmvap6DgRsoP06UKkuJSYK1yHrXe25dDVDPdiI+l9IdvAllIfDC/i6navBG8vqASwKbZYjYua+J+42UKN9lYlupj8vdSZW/puqKqy/70syNMkqX4/u5qKrcv5L32R+e1CZt2DTgZMqPB00rlxJztSqTVfF7qqy0+vJ44hdv6c7c1PIpPF+gKT5B3uf+sqQ2af1mAr+g/DjQ1PInYG7PV3cNDnLd82JiMk2j96Qu7PXA93CpYNekr7/W39iWWAb3hNIVabBdiFe3fW9uZgLQLa8lTlCbUroiLfBMYithkwApx47Ar4ldH7V+WxBPSQ7o5y8xAeiOF+Kj7Yk6jHgPObl0RaQBtwVxwNhupSvSIrOAH9NHwuSXQTccCpyIn3cvDge+iI+HpbrMAE4B9ipdkRaaTRy6t0cv/7FfCINvX+BHNOTEqZY6AjiudCWkATSFWN722NIVabGtiXldE95t1wRgsO1IHIAzs3RFBsA7gVeWroQ0YD4NPLl0JQbAHOKH3tSJ/EcmAINrMvBNYgtNVeOTwENLV0IaEC/EpLpK+zHBky1NAAbX+4DHla7EgNmImBToEkqpP3sAnytdiQF0FPCs8f5hE4DB9GTgLaUrMaAcuKT+mEjXZwj4ErDreP6wCcDg2YY44c7Ptj4vxF3jpF59FF+l1WlT4OuM4zvAL4nB82E81SzDx/A6SxO1L/Ca0pXogMcAR27oD5kADJb9gZeWrkRHbIFLA6WJmAR8Fr93sryfWCI4Jnc4GxxTgM/Qjg1rlgNXATcCS1b93xCPrmYTB11sVqZqE3Ik8b7tgtIVkVrg9bRnm98bgauJ8WnRqv/fdGBjYOdVZVKZqo3bZsAHgVes7w9lnWDkaYD1eivlT6kaq9wAfJnYUGcO47txtgKeRBzPewEw0oB2rKtcgL9o6pR5GuARSW3qom3JO3p+ouU+4DTgHcSj8/FMTpwGPAT4B+D7xPdb6Xasq4ywgdVgWRUxAajPbOBOyne2Ncsy4uChw6jmC3J34F+A6xrQtrXLCypon9bNBGAwnED5+3TtcjHwRuJ1Xr+mEyet/pzm/Vg5e30Vz6qECUB93k75Tra6LCEmyO1QU1unEpuHXNWAtq4uv6Mdr17ayASg/bYmxoXS9+nqcjbwdzW296HEMscmJQIHjlXZrAqYANRjBnAL5TvYKHF87i61tvYvpgBHE+/nSrd7FHh6vc3tLBOA9jue8vfnKPFeP/MzfgRwfg3t6KX8fKxKZlXABKAeR1G+c90FPKfuho5hF+DcDdQvo5xXczu7ygSg3TajGe/HT6TMxkOTiHNE7p9AXesq+66rglnBTQCqN5ny78TPJ+9X/1imAB+h/A32+Lob2kEmAO32Tsrek/cCL6+7keNwIPEEouS1+P66KpYV3ASgek+jbIc6jWZt5/lyymba36i9hd1jAtBeQ8RSulL3413AAbW3cvx2Bq6g3PW4n3UcGZwV3ASget+iXGf6FvHLu2meS7kk4F5iRYaqYwLQXgdQbny6FXhQ/U2csC2BSyh3XY5eu0JZgU0AqrUJ8YVTohOdRqyDbaqXUm4G7t8ntK9LTADa6/OUuQeXEOv5m2or4ErKXJsL165MVmATgGq9mjId6GJiN6ymew9lrs+ZCW3rEhOAdppOmY1/VhIbiDXd7pTbu2Xv1ZVwB7P2ekmBmAuJTW+WFIg9UccBvygQ90BgxwJxpSZ5KvGUMtu/sp4lbw1yFfG0cLRA7P/77jABaKeZwGMLxH098IcCcXsxQhzZe1ty3CFi90Opy55YIOY5wHsLxO3VD4H/KBD3/z4bE4B2OoD8CXi/JM6YbpNbgWMKxD2kQEypSQ5NjrcCeAPxCqBN3kGclZLpoaw6bM0EoJ2yv2CWEzdXG50I/Do5pvsBqMt2Ig79yvTvwO+TY1ZhEfC25JiTgIPABKCtsrPrrwILkmNWZZSYEJhpe2BeckypKbLHpyXAh5JjVumbwKXJMQ8BE4A22oR4hJNlJXGmdJudDvwmOaavAdRVByfH+yz5c32qNAp8IDnmoWAC0Eb7EI9wsvyU9kz8W58TkuM9ODme1BSZfX+UWCradicDNyfG2xOYagLQPnsmxzspOV5dfkSsS87iKwB10RCwR2K8s4BrEuPVZQW5W4lPBuaYALTP3MRYC4kjfgfBMuAHifGyEzWpCXYklilnGaTzN7LbsqcJQPtkfrGcRXxxDorTEmNtj+cCqHuyE98Sm33V5WJy5zLMMwFon8wb7IzEWBlOJ3fnrcynNVITZL76uhq4NjFe3bK3EjcBaKEdEmOdlxgrw63AnxLjPSAxltQEjk/9+W1irAeYALTLMDAjMd6VibGyZO5nMCsxltQEmX3+isRYWTLH3FkmAO0yk5hlm+GOVWXQZN5gzgFQ12QmAG3dnGx9Mts02wSgXTJvrlsTY2XKnGTjEwB1TWafb/PmP2PJHHd9AtAymTfX4sRYmRYlxjIBUNdk9vnMeznLYvImKpsAtEzm+loTgP6ZAKhrNk6MtSQxVpaVwL1JsUwAWibz8xpJjJUps13eX+oax6j+ZbVr2AFKkqQOMgGQJKmDTAAkSeogEwBJkjrIBECSpA4yAZAkqYNMACRJ6iATAEmSOsgEQJKkDjIBkCSpg0wAJEnqIBMASZI6yARAkqQOMgGQJKmDTAAkSeogEwBJkjrIBECSpA4yAZAkqYNMACRJ6iATAEmSOsgEQJKkDjIBkCSpg0wAJEnqIBMASZI6yARAkqQOMgFol5HEWIPaN4YSY40mxpKaILPPZ97LmbLG3tFBHeQH1ZLEWDMSY2WamRhrcWIsqQkyx6iNE2NlGQamJ8VabALQLplfKLMSY2WanRhrUWIsqQky+3xmMp9lJnlPABaZALRL5s21ZWKsTFskxjIBUNc4RvUns00mAC2TeXNtDWyaGC/LvMRYCxNjSU2Q+ZRybmKsLJltWmgC0C4rgXsT43mD9cc5AOqazKQ3M5nPkjk++QSghW5OjPWoxFgZNgfmJMa7MTGW1ASZ49O+ibGyZI65N5kAtM+VibEOSYyV4RBylzcuSIwlNUHm+LQXsENivAwHJ8a60gSgfa5IjHUwMCUxXt2ekBjrduCOxHhSE2SOTwCPT45Xp33ITWhMAFoo81fl5sDfJcar0xTgOYnxMn8JSU1xLbAsMd6LEmPV7cXJ8UwAWij7i+VlyfHq8hRyl9hk/xKSmmAlcHVivCcyGK8BhshNZkaAP5gAtM+l5G63+Qxgx8R4dXlDcrzLkuNJTXFpYqxh4DWJ8erydGCXxHh/BO41AWif24D/TYw3FXhLYrw67Efu+3+AM5PjSU1xVnK8o4BNkmNW7Z3J8c6EwT3wZdD9Kjneq2n3U4D3Jse7A/hdckypKbLHp02Ao5NjVulw8pc0ngEmAG11ZnK86cDHkmNW5TnEe8JMZ5J7cqPUJFcCNyTHfDuwW3LMKkwH/j055igmAK12JvlfMM8Bnpocs1+zKZO4nFEgptQk2ffAdOATtO+I4HeSn7hcDtwEJgBtdSdwUYG4Xwa2LxC3V5+nzKuL0wrElJqkxD3wFGI+QFscQjy5yPZXn81oUrmn3jZ1zpvJ++zWLGfRjs2B3kCZ63NhRuM65BPkfXZHJLWpC2YT55Zk33/3AY9OaF+/tiO2Ci8xRu23ZkWygpoAVGtr4H7KdKBv0OynR0+j3LVp0y+QNjABaK9vUuYevA3YM6F9vZoNXEyZa7OANV6TNHkQ1/rdCvyiUOwXERNXmvi+7WDgZGBygdj3A98qEFdqopMKxd0S+CmwU6H467Mx8CPgYYXin0QkAv8nK/PwCUD1XkiZLHJ1OYlmvQ54BmUeO64up9bfxM7xCUB7TSYmm5W6H28EHlJ7K8dvc+DXlLseI8Cua1cqK7gJQPWmE4fOlOpQo8DPyN1id12GiM2KVlD2WmSeNdAVJgDt9kHK3pN3Ak+uvZUbtg+xPLLktTh9XRXLCm4CUI93U7ZTjQLXAQfU3dAxbAGcMo461l2uwFdqdTABaLftgaWUvTdHgOMp97TylcCSDdQxo6xzP5Ss4CYA9dgEuJvynWuEeCWwVb3N/T9DxIB9S41tmkiZX29zO8sEoP0+Tfn7c5T4BZ65JfjuxFyE0u0eBc4bq5JZFTABqM8HKN/BVpfbgGOAWTW1dYjYkOi8BrR1dfkjzZoLMUhMANpvF2A55e/TUeKHyneAh9bY3h2JfntfA9q7ujx9rMpmVcAEoD5b04xHTGuWO4j3f3tX1MbNiFO/Si2fWV8ZhNPImsoEYDCcSPn7dM0yAvwn8GxgWgXtGwYOWtXOJn3xjxLnkoy5YiurEiYA9WrSU4C1y8XA+4HDiGUw4zEJeBBxyMepwLIGtGNd5Q9UM4Bo3UwABsMcys8FGKvcQby+fDkTO5J3K2Li76eAaxrQjrHK4WM1YGjVH8iwkPYf2dhkGxPHBDdx7euaRolJgwuAm4HFRHK4EfHaYAtisNiDdnyx/h3w89KVGGCfAN6YFGs+5daud8GxwHtKV2IcFhLj07VEcrCYWGG0KbGJzwOAeeTNd+rHqazn8T/kZSE+AajfsyifbXapfGd8H4v64BOAwTGN8kvhulTuZQMHDblsabD8APhx6Up0xL3E3gOSxuc+3Co70/uICcpjMgEYPG8iJgSqXu8mHhFKGr+fA98tXYkOuAL4yIb+kAnA4LmavHemXXUGcRaCpIk7kpg0p3osA15MPHFZLxOAwXQi8JXSlRhQtxA318rSFZFa6i7gBcTeAKrem4BLxvMHTQAG1xuIVQGqzgjwUmL1gqTenQ+8q3QlBtB3gM+O9w+bAAyuJUSW7XyA6hwL/LJ0JaQB8WFiMx5V4w/AqybyH5gADLZLgWfio7YqfB3419KVkAbIKPAi4KLSFRkAtxEb/iycyH9kAjD4fgn8PfH4Wr35T2KXsNHC9ZAGzSJiM60rS1ekxXq+hiYA3fB1YktdTdz5xKuUFaUrIg2o24EnAzeVrkgLLQeeS2y3PmEmAN3xSeJwHo3fpcBTcB6FVLc/EUnAnaUr0iIriEnJv+j1LzAB6Ja3E0tEfJS9YecBhxB7gUuq3++A/YmzQrR+9xLzu/rajtwEoHtOIN5n+0h7bD8GDiUeTUrKcznwaOB/Slekwe4CnkQFKyiGmeCswT54GFBznEScg720dEUaaPW1ubd0RQTkjU8AdyfG0thuBA4Cfl26Ig10E3AwcE4Vf9kweRMvbkiKo/E5lbjJ/lS6Ig1xP/BW4unI/WWrojVkTgy7MTGW1u8u4InErqYKZwOPBH5f5V96GjlHE3p0ajPNBr5N+aMrS5Y/A4/r90KqFs8grx9sm9QmTczLiKVupceJUmWEeHU7pd8LuS5vT2rEa+qovCpzJHGIROnOnl1OATav4PqpHpsSh5rU3Q8q/VWlys0jJgmWHi+yy63EGv/a7JnQiBFghzoboUo8FPgt5Tt9RrkdeDUwVMmVU51+Sf2152JdAAACRUlEQVT94bi01qhX04mlzMspP35klG+S9FTqnJob8uOMRqgSQ8ARROZZ+gaoo4wQE/22quqCqXYvot4+sRzYI6016tdc4OeUH0vqKguIWf5pHk0MjHU0ZiXxy1LtsiXwBeLzK31DVFUuBh5T5UVSiiHgQurrF5/Ka4oqMgS8hJi4WXpcqaosBt4BTK3wOo3bNyZY2fGW/8hshCo3hzhe8n7K3yC9lt8RTzUmVXxtlOdA6umDtwDbJLZD1ZpGzF/6M+XHmV7LImKS33YVX5sJmQ5cQLUN+zXxAan9diE66VLK3zAT6X+H43v+QXE01faP5cSaarXfVCLJv5Ly4854yz3A8TRoEvJOxJnCVTTufzCzHkTbEytHLqP8DbSuchfxxMJlfYPp36juy/8lyXVX/SYTW+R+n5zVIxMtI8BZwCuBmTVdg75sTv+zbn8CbJJdcaXbm8hgb6bsTbWC2M/iCGBGrS1WE7ya/maC306c86DBtikxJpxGfXPcxluuIcbKOXU2uCqTgTcQ78cm0sjriczGMwa6ZRLwCOIR7cnElqp131BXE7/0nwdsVn8T1TAPY+I/VFYAX8QlyV20DTFWfJYYO+oen24jdls9hhgbG/kackOVmkV8oT+TOKVpXZOoVhCPNL5PbNvoHuqaCjyKWP2xJ7FsZy7ximmiN8LdxLKYK4j3e5cD/4UH9SgcRjzKfxqxcmVd/gj8iPjyvyypXmq2XYkVQXsRmwytHqOmT/DvuZ/YTn31+LQAOJ94BT5aVWXr8v8BhWoYUQTexGEAAAAASUVORK5CYII=;" parent="1" vertex="1">
                    <mxGeometry x="370" y="360" width="20" height="20" as="geometry"/>
                </mxCell>
                <mxCell id="7VhcuU38_8ilDAtrPy3k-22" value="" style="shape=image;verticalLabelPosition=bottom;labelBackgroundColor=default;verticalAlign=top;aspect=fixed;imageAspect=0;image=data:image/png,iVBORw0KGgoAAAANSUhEUgAAAgAAAAIACAYAAAD0eNT6AAAABHNCSVQICAgIfAhkiAAAAAlwSFlzAAAOAAAADgABsMRA8wAAABl0RVh0U29mdHdhcmUAd3d3Lmlua3NjYXBlLm9yZ5vuPBoAACAASURBVHic7d13uF1Vmfjx771pJCShd6mBBAS7iIUu6liw90J0VKwDOqOiP0dlZFQso4Nl7IrYsYNjQ6QMovTRgQEiKEjvkEJCSO79/fEmY4y5yb3n7P2uvc/+fp5nPTBjyLvWPmuv8569VxlifIaBRwNzgQcAmwJ3AjcAlwMXAKPj/LvUTTOBecDOq/59Y2A2sAkwA1gGLAIWA0uAe4DbgSuAmwrUV+2yA7A/sB2wPXAfcAtwLXAWsLBc1dQCw8AuxHfcJqvKLP4yVk3mL2PTXav+fTHwB+BqYHl6jSswtIH/fS7wT8Azga3X8+duBH4AfAS4ppKaqc3mAAcDDyf60Dxgxz7+vnuABUQy8L/AfwHnASv6qqXabhpwJPAy4JGMPZ4tB84APkeMU/5Y6baZwAHAY4E9+csYNa3Hv28F8CfgSmKMuoDob7f1XdNCNgP+g7hxRidQlgH/Rlxgdce2xCD8ZeIX10T6TK9lEfAT4C1EoqFueQEx6E603/wG2K9AfVXOFOAQ4DjgHCb+vdZLGQF+D/w78HRa9J24O/FYv5/G/x7YNbviSrUR8DzgVOB+cr7011euAY4nnj5ocE0iPud++sr9wBuyK650exN95WbKj09LgZOBw4nXCY30COL9RhUNvhV4YG71leAxxC/9hZS/qdZVRoAzgVfQ+yM9NdNkIuGsqq8cm1p7ZdgCeBtwKeXHorHKDcCHaNiPlW2B66i2oX8EtsxshGqzP9UOvhnlFmKQn1395VABH6fa/jECvCS1BarL1sS9fjflx53xlpXEmFr8FeYQcDb1NPLUxHaoWkPE+6vzKH+z9FNuBf4fJgJt9gLq6RtLiQlgaqedgU8Rn2PpcabXshL4PvEEvojnbqCC/ZbD8pqiiswFTqP8zVFluYOYNb6h1S9qlqnEUqu6+sX385qiikwFjqHdX/xrlxHgJNa/4q5yQ8TShTobdl5aa9SvGcSjtPsof0PUVc4GHlTR9VL9jqL+PvGotNaoX4fS/0T1Jpe7gKOJCa+12y+pUT5ma76nU/08kKaW5cREnI0quXKq0/nU3x9OSGuNerUt8D3Kjx1Z5XzgwZVcufV4f1Jj3lp3Q9SzKcRymRHKd/rscjGwR/+XUDXZnpx+eS2+GmqyQ4gN50qPF9llKfE0oDZ1Tf5bu5xSZyPUs52JzVFKd/SSZSHwon4vpGrxfPL6wc5JbdL4TSJeSa6g/DhRsnyP2IK/cnVOrlmzXFRH5dWXZ9OuZTN1l08Tk4vUHG8m7/N/bFKbND7bEFvqlh4XmlIWAA/p64quw5KkynugS7O8kVh+UrpTN638CpcLNskHyfvsn5PUJm3YrsQXXunxoGllEfDEPq7rXxkmZn1nyIqjDTsG+ATx+euvHUIkAalLcTSmzHFj48RYGts+xJ79zs35WzOJvXVeUMVf5hdAt0wCPkNM+NPYHkHMi9i9dEWkjjmI+PLfvnRFGmwq8HXgdf3+RSYA3TEMfBV4TemKtMRuxJkCu5SthtQZhwE/AzYpXZEWmESc2Pvmfv4SE4Du+Dec6T5ROwC/JCYjSarPI4kdGd2XY2L+jTj4rCcmAN3wLuBNpSvRUnOAHwOzSldEGlC74z3WqyHgs8BTevmPTQAG35HAe0tXouUeCfwIjxeWqrY9ceaIT9l6NwX4LvC4if6HJgCD7SDiPZH6dwjw76UrIQ2QqcAPcZ5NFaYTr1AmNHnSBGBwbQV8g6QDJTritXh+vFSVDwH7lq7EANmaCY75JgCDafWMf5fSVO8zeLCV1K+nEac8qloHAe8e7x82ARhM7wCeVLoSA2omcDLxyE3SxO0InIiHL9Xln4EnjOcPmgAMnocTh2eoPg/Gayz1Ygj4GrBF6YoMsGHgK4xjPwUTgMEyDHwSmFy6Ih3wj8CDSldCapkjgANLV6IDtgP+ZUN/yARgsLwaeEzpSnTEZOBT+BhTGq9NgA+UrkSHvBF42Pr+gL8UB8dWwPtLV2IcrgGuJE76uoE4jXL5qv9tM+Ikvj2AucBeNPt43gOIVQFfK10RqQU+QPwybbKFwOXEGHU1MT4tWvW/zSAOjNqJmAj8QGLcbapJxI+U/YGRsf5Q1jGG91TcOP21L1D+qMp1lcXEioSXMvFVCTOI/cE/APyxAW1ZV7kJdzCr0yfI+yyPSGpTFz2c5h4/fh5xQuqjmPiy6b2ANwA/BVY0oC3rKuvdKjirEiYA9dkNuJ/yHW3Ncgkwn5g1X4Uh4hf31xvY1mMqaqP+lgnAYPgR5e/TNctC4MPAnhW2cTvgbcD1DWjfmuWPrOdpf1YlTADq8xnKd7LV5WLgqdT7bnwO8CWa84viZnLPre8SE4D2ezDxCLr0fTpKPJF8D/G6sS7TiFNXb2hAezfYt7MqYAJQjx2AZZTvYHcTk04ydx7cD7io4nb0WtzUpB4mAO33Tcrfn6PA94g9CLLMBj5GM55YXs4Yk/6zKmACUI+PUb5znQ/sWndDxzCZWJNf+mnAdXhYUB1MANptDuXfjd8LvKruhq7HvjRjDtPz1lW5rOAmANXbhHikVbJTnUCcRlXak4k+VvJazK+9ld1jAtBun6bsPXkl1b7n79UWxKmHJa/F+euqWFZwE4DqvYpynWmE5u2Gtw9lJ+D8qv4mdo4JQHttBNxFufvxQuKAnKaYShzWU+p6jBJj5F/JCmwCUL2zKNeRXp/Qvl7sQUzKK3FNVgI719/ETjEBaK/nUW58+i3NXJ47DHyZctfl+LUrlBXYBKBaO1NuZu24T5sq5EGU++XxzoT2dYkJQHudSpl7cAHN+uW/tknEhMQS1+Z61pqonRXYBKBa76JMB/pqRuMq8BTKJEhXZDSuQ0wA2mlrYofP7PvvTmCX+pvXtxnA7ykzhh+2uhKeBdBeLygQ8wrgdQXi9uInxEYf2eYBDy0QV2qSZ5M/OXiU2PXumuS4vbiXGMMXF4j9/NX/YgLQTtsS+1BnWknse1+iw/bqncB/F4j7+AIxpSYpcQ98nthxsC0uB95aIO7/fTYmAO10KPmn0H2S2OWvTVYAR7KegzBqckhyPKlJhoCDk2PeQTvn33yOmLCYaTdWvSYxAWin7C+Y24ntM9voAvLnLRyIJ22qux4MbJkc8x3EONU2I8QuoqPJcQ8FE4C2OjQ53gm0exLnccTTgCyziN2/pC7Kfvx/HfCV5JhVuoA4TTDTIWAC0EY7EI9wsiwkHv+32dXAyckxD0yOJzXF/snxPkysOGiz9yXHOxBMANpo7+R43yYO+mm7zyXH2ys5ntQUmWPUMtqzNHl9ziWWBWbZEZhtAtA+85LjnZQcry5nA39KjNeE/celbFPIPRjsBwzGDxSAryXGGgL2MAFon8wE4Abg14nx6jQKfDcxXnaiJjXBHHLX/2e/2qvTt5Pj7WkC0D6ZXyynkz87tU6nJ8baFNgmMZ7UBJlPvlYS56EMij8Df0iMN9cEoH0yE4AzEmNlOIfcyUI+BVDXzE2MdQlx5scgyTxR1CcALZR5yMUlibEyLCE3w27ygSRSHRyf+pO5c+lWJgDtMgWYlhRrlNwvyyxXJsZq4nGkUp0y+3zmvZwls02uAmiZzJvrRuLAikGTmdTMTowlNcHMxFhXJcbKkjk+zTIBaJfMBGDQ3q2tltkunwCoazKT3kEco1LHJxOAdsn8QlmUGCtTZrtMANQ1mU8ABnGMupdY3ZDBVwAtMz0x1tLEWJmWJMbaODGW1AQzEmMtS4yVZZS8sXeGCUC7ZB4BPEjr/yUNnkEdo7LaNWQCIElSB5kASJLUQSYAkiR1kAmAJEkdZAIgSVIHmQBIktRBJgCSJHWQCYAkSR1kAiBJUgeZAEiS1EEmAJIkdZAJgCRJHWQCIElSB5kASJLUQSYAkiR1kAmAJEkdZAIgSVIHmQBIktRBJgCSJHWQCYAkSR1kAiBJUgeZAEiS1EEmAJIkdZAJgCRJHWQCIElSB5kAtMuKxFiTE2NlmpQYa2ViLKkJMvt85r2cKWvsXWEC0C6LE2PNTIyVaXZirIWJsaQmcIzqz2RgelKsRSYA7bIoMdYg3lwAsxJjZX5eUhNk9vnMezlL6vhkAtAumTfX9sBQYrws2yfGMgFQ12T2+e0SY2VJHZ9MANplCTCSFGsWsG1SrEzzEmOZAKhrMvt85r2cJXV8MgFol1Fy37HtlRgriwmAVJ/MeS97JsbKkjk+LTQBaJ9rE2M9LjFWht3IfcT2p8RYUhNkjk/7M3ivKfdPjHWNCUD7XJkY65DEWBkOTYw1AlyVGE9qgszxaRsG6ynlZHITgCtNANon8wZ7LLBpYry6PTkx1vXAvYnxpCbIHJ8g956u2wHkLlNeYALQPpk32DTgeYnx6rQZ8NTEeFckxpKa4mbg7sR4L02MVbeXJce7wgSgfbIz7PnJ8eryfCKhybIgMZbUJJl9/6HAQxLj1WUG8JzEeMtxDkArXUZ8eFkeB+yXGK8Ok4A3J8e8ODme1BSXJMf7p+R4dXg1uY///we3Am6lJcD5yTH/X3K8qj2P/DXDZyTHk5rizOR4LwZ2T45ZpanAPybHPB08DKitfpUc73DauyRwGvAvyTH/CFyTHFNqijOIPUuyTCL/Hq/SUcBOyTHPBBOAtsr+dTkEfAaYkhy3Cm8B5ibHPD05ntQktwD/mxzzxeQu863KdsC7kmOuAM4BE4C2+g2wNDnmPsSXaZvsSZnXFz7+V9dlP6UE+A9g4wJxe7X6h1Xmu3+A81i1S6kJQDvdR5kvmffSnlcB04GTidm1me4HfpkcU2qanxaIOQ/4dIG4vToaeHqBuH/12YwmlXvqbVPnvJC8z27Nch2wQ0L7+jEEnESZ63NqQvu65BPkfXZHJLWpCyYTewKUuAdfl9C+fh1A/JDLvjYjwC5rViQrsAlAtTYC7qLMDXYpsHn9TezZ8ZS5LqPEfgOqjglAe32UMvfgSuC5Ce3r1d7AnZS5NmeuXZmswCYA1fsCZTrRKHAusbte07yTctfkbuLVg6pjAtBeD6PcvbiU3J0/x+uBxDbhpa7Lq9auUFZgE4DqHUS5jjRKbEq0Y+2tHJ8h4MOUvR6fq72V3WMC0G6/p9z9uIJ1fOEV9CjgNspdj6Ws42yXrOAmANUbIpbblOpQo8ANRCJS0pbAf1L2OowC+9bd0A4yAWi3N1L2nhwBPkL5JcxHEl/AJa/FieuqWFZwE4B6HEHZTjVKZNrvIXa0ynYoMTGx9DX4Rd0N7SgTgHabTrnJgGuW3wB71NzWddkC+GYP9a26rCSWRf+NrAqYANRjMrHzXOkONgpcTt5mHNsBX09o03jLQfU2t7NMANrvbZS/P0eBZcRS5ox5OsPE64fbE9u3vvLtsSqaVQETgPq8lvIdbM1yDrF9cB22Jmb5L2lAO1eXc2tqq0wABsFMyr77XrvcAhwLbFJDW4eJse/iBrRzdRkBHj5WhbMqYQJQn2mUnVk6VrmI2Oxi6z7bN4XYMOM7RBZful1rlyf12T6NzQRgMBxL+ft07XInsXvgYypo3zzgOOIMkNLtWrucsr6KZ1XCBKBe8ynf0cYqK4gTDI8nvsjnsv5JOdsCBwNvIjbWuacBbRir/Hw97VD/TAAGwyxiwnDp+3WsciPwVeCVxGz9v5ktv4bpwEOIzdg+DVzZgPqPVZYTSw/HlFURE4B6DQFnU77DTaRj3gQsAC4kNhe6FljcgLqNtywj/6ChrjEBGBwvoPw9O5FyN3A18N/E08yrgVuJR+ql6zbe8qENfShZFTEBqN/exBdr6U7XlXLc+D4W9cEEYLD8lPL3bVfKdcT8izF5GNBguYwYMFW/PxOvNCSN31HEHviq35uIJ6pjMgEYPMcSywJVn1HgNcRKBEnj9wfg/aUr0QGnAN/b0B8yARg8i4h3bWbZ9fkw8LPSlZBa6l/xyOw6XU9MZtwgE4DBdCFwTOlKDKjzgXeVroTUYiPAS4kdAlWtFcTqhNvH84dNAAbXx4EflK7EgLmLeLqyvHRFpJa7BXgxsUWtqvNO4Nfj/cMmAINrlHgM9IfSFRkQK4GXERt9SOrfGcTrAFXjFOL15LiZAAy2u4hd6m4qXZEB8CbixEFJ1fkX4AulKzEAziOeqIxO5D8yARh8fyKSgLtKV6TF3gV8snQlpAE0SpxlssEZ6xrT/wJPoYdVSSYA3fA/wLOInes0MZ/Gx5RSnVa/Xju7dEVa6Abiy//OXv5jE4DuOAt4PiYBE3Ei8MbSlZA6YCnwDOJRtsbnBuAJxBbqPTEB6JZTgUOAO0pXpAU+TkyiHCldEakj7gYeT2wXrPW7GjgIuLyfv2SYCU4a6ENWHK3fb4mOc33pijTUKLGHwtH45d8EmeOGn3d5S4gTQ79UuiINdgFxhPHVVfxlt5FzMIHL0ZplV5p9jGWJch+xQYma41jyPv+/y2mSxmEI+Cjlx4SmlZ8AG/dxXf/G75MqflaVlVYlZgPfpHynbkK5lsiq1SyvIa8PPDipTRq/5xCvBkqPD6XLCHH42KT+Luff+l5SA75YdcVVmSOIR2+lO3mp8kNgs76voupwKDl94H4iIVbzzAUuofw4UarcQizlrsUrkxrx7LoaoEo8DFhA+c6eWZYB/0A8blQzTSH2sKi7L5ye1SD1ZDrwGcqPGdnlNGCbCq7fmLYhDhCosxFLgZl1NkKVmE68c11G+Y5fdzkT2LuKi6bafYv6+8Ob0lqjfhwMXEb58aPucicxETllpd6JNTfmYxmNUGX2II67LX0T1FFuJF55+Ku/PR5JvAOtc7D1FVB7TCG+HBdRfjypuowAJwFbVXa1xmFn6vvVtwjYOq8pqtALgT9S/qaootwLfATf87bVd6ivb/xjYjtUnV2B71JvcphZzgX2q/QKTcBbx1HBXsqrMxuhyg0DzyP2my59g/RSFgEnANtXfWGUaifgVqrvH+cB0xLboertTfxqvp/y400v5Rzg8MqvSg++SLUN8wCVwbE6EWjLbNw7iZPGtqjjYqiIxxF7NVTVR24CHpDaAtVpd+JkwSr7SF1lhDhd9LG1XIkebQScTDUN/DLxrkaDZ29iTerNlL+R1iwriFmzR1DxZhlqjGcDi+m/r1wLPCS57sqxKTEGnEbzXg9cQ4ydu9fV+H4NAf9MnNDUSwOX44zarphCPLr6FvGLu8QNdT/xCO0onGvSFQ8ljrnutc+chX2lK+YC7wUupdyX/p+BT9Gyjcb2Ip4GjDeDGln15+eWqKyKGyaeDBxJ9IM6d++6Gvgs8Upi04zGqXFmEGc2TCTxvJbon5XvpqZW2JoYMz5LvUsJbyXGwKOBR6S0rEfjWQr1IOKYxsOBfYgbb7UlwH8DPyZ2U7ui6gqqtaYAc4A9iaRw3qqyE7EnxPqWXS0hHvPeQmxOtIDoW1euKvfUVmu1zSbE2HQ4cCCw7Rr/2wri0KufEydhnkY8oZQg9sDZixif5hJj1RxgS2AWY08OXUFMLr6TeKR/5VrlWiIRaLxe1kLPJi7QrcQgLfVq5qoyg7/cVKufHEi9mEr80ltJJJCe8KdeTeGvf6wsJL7zlhWrkSRJkiRJkiRJkiRJkiRJkiRJkiRJkiRJkiRJkiRJkiRJkiRJkiRJkiRJkiRJkiRJkiRJkiRJkiRJkiRJkiRJkiRJkiRJkiRJkiRJkiRJkiRJkiRJkiRJkiRJkiRJkiRJkiRJkiRJkiRJkiRJkiRJkiRJkiRJkiRJkiRJkiRJkiRJkiRJkiRJkiRJkiRJkiRJkiRJkiRJkiRJkiRJkiSpd0OlK9CDLYF5wJ7AXGAXYHNg5qqyMbApMALcAywElgCLgduBq4ErgAWryqLU2qsNtgeeBjwR2BHYAZgE3AJcD5wNnEL0I2lN04DdiTFqHjFGbU2MSzOBzVb9+1RiTFpMjE93E2PRdfz1+HRdbvXVAlOBg4DDgYcQ/Wsb4DZijLoUOBU4A1hWqI6VmATsC7wN+BlwBzBacbkO+DbwWuKGVXftDfyQSB7H03fOBw4rUlM1xfbAS4AvEF/YK6h2fFoEnAMcBxwKbJTTLDXQDOAYxv89eA/wbiLxbI1NgVcDPyKy4qq/8DdUrgdOAp5JZFoafFOAE+h98P4x8RRKg28IOBD4FHA5+ePTUuBXxI+iB9TcVjXHocR3Uy995mbgKflVHr9JxC+pk4hHYtk31VjlLuCzwP6083WJNmxz4Jf031euIp4gaDDtRPz6uory49LqspJ4OnAkMKu+pquwI4Hl9NdXRoBjk+u9QVsSj7ZuofzNtKFyBfA64h2fBsN04Dyq6yO3A3NSW6A6DRFPAs+h/PizobIY+Dwx/0CD4w1U20+Oya3+um1NZCP3UP7GmWi5ZVXdN6n4mijXEPANqu8flwGzE9uh6g0TE6wuovx4M9GykpgA9vDKr4qyHQDcR/X94/DMRqxpG+DTxMzE0jdKv+U24B04KaetXkR9feOjie1QdYaAI2jWY/5eywjwA2CvSq+Qskyn93f+4/nuSv2RMkzcWLdX2IimlKuAJ1d3qZRgCvUO8vcBu6W1RlWYRzVzQZpWlhMTXJ0j0C5vp95+8d6shjwc+G3NjWlCORXYuaJrpnrNp/7+8Mm01qgfGxOv9Kp+1Nq0cj3xI0zNN5V6lryvWRYRfb/WRnyUeOdQuvNnlUXAq6q4eKrVj6i/L9yAK0ea7hDqe8za1PJDYIsqLp5q8yRy+sKz6mrATsC5SY1oYvkuThJsqunEzmsZ/eARSW3SxAwRs6Gr3rSnLeU64HF9X0XV5ePk9IMv1lH5ZwB3JjWgyeVK4KF9XktV70Hk9YFXJLVJ47c1sato6fGhdLmfePUx3NfVVB3OIqcPXFBlpYeADydVvC1lKfDifi6qKvdE8j7//5fUJo3PfsSuaKXHhSaVU6j5XbAmbAE5n/0NVVV4MvE4oXRnbmIZAd7a+6VVxV5C3md/QlKbtGGPJw4GKz0eNLGcD2zV+6VVxe4i53O/v4rHPzOISVV/X8HfNYiGgA8RXwZOCitvcmKsSYmxNLYXAz/FpXBj2Zd47LxT6YoIyBs3JvebAGwOnE7DDxpoiKOIpyR+KUh5jga+Ruz9oLHtBfwaeGDpiihPPwnADGLt+6MrqksXvAL4Ej4JkDK8Bvh3vN/G6wHEGfJ7lK6IcvSaAEwhlro9tsK6dMURxAFIkurzDOLIXk3M1sTrkm1KV0T16yUBGCJOnXL72969E3hz6UpIA+pg4Fv4uq1Xc4BfAJuWrojq1UsC8GFiK1X15yPA80tXQhowDyEmJXtIV38eDHyH3EmzSjbRBOC5wD/VUZEOGibmA3hal1SNmcC38TjmqhyGrysH2kQSgDnAF+qqSEdtDJxMTKiU1J/PEKf6qTrHUPD8eNVrvAnANCKzdn/76u0DfKx0JaSWey2xyZOqNQSciHsEDKTxJgAfwoNN6nQk8KLSlZBa6sGYRNdpc+CrOKly4IwnAXgs8A91V0R8EtiydCWklhkGPoeT/up2IPGURQNkQwnAJGItrRtp1G9z4P2lKyG1zGuIQ35Uv/cD25WuhKqzoQTgKDzSNtMrgceUroTUElvgLPVMs4EPlq6EqrO+NZ7bE+dFN9VK4CLgv4DLgSuI4w3vARYRTy9mEr+sdwbmEu8KD6a5M4WHiScu+xLtkzS2jxBJQFPdCPwK+G9ifLoauBNYsqpsRqwE2pYYn/YiXrk+BpheoL7j8VLiTJOzSldE9foS5Y+pXLusAP4TeCH9rUjYgZjXcEED2rSu8qo+2qb1m0/e5/jJpDZ10SOIo7ZL36trl6uA9wB79tG2jYAnERPvljSgTWuXS/C1cJ0yj61ep52B5YmV2FBZRGT720/kKo7TQ4BvEslF6XauLlfhDlx1mU/e52gCUJ/vUf4+XbOcATyB6r8YZwFvIZ4mlG7jmuVpFbdTf1E8AfhkYgXWV1YAHyfnMd884CfJ7VtfeWm9ze2s+eR9hiYA9Xgg8Yqs9D06SjzeP6De5gLxVOBtxI+h0m0eBX5Tb3M7rWgCsC2wNLECY5VLgIf3cPH69Wzg5h7qW3W5jP6Oa9a6zSfvMzQBqMdXKX9/LiUO9Mp+UrcjcEqfda+qPL7mtnZV0QTgQ4nBxyqfouy63m2B09dRr+zy7Lob2kHzyfv8TACqtxtwP2XvyyuJV4elDAFvAu6j7HX4Vd0N7ahiCcA0YpZqqQ51P/CKni9btSYBn6DsDXZ67a3snvnkfX4mANUr/QPlNOK9fBPsT9nxepR4HaNqFUsAnpsYeO1yL808dOKfKXdNVhKP/FSd+eR9fiYA1ZoEXE+5+/HbwNTaWzkxe1P2mnyg/iZ2TrEEoNS7pRXAs/q4YHU7lnI32Nvrb16nzCfvszMBqNaTKHcfnkJzV+bsDtxCmetyPZ4RULUiCcBWlFn6N0IMyk33GcrcYP+b0bgOmU/eZ2cCUK1Sk//OpvlnDexHuT0DDk1oX5cUSQCOSgy6Zvl4v1cryRTgXMpco0cmtK8r5pP3uZkAVGcWsJj8e+9GYJuE9lXh5ZQZn06sv2mdkpYArLnMrMT794uAtxaI24v7iSN77ywQu4lzI6RMhxLb5mYaAV5CPF5vgxOBrxSI+1RcstxKqz+0qcQe1JlWEIff3Jcctx/XAscUiHtIgZhSk5R4zPxpYoe/NjkKuCk55pbAg5JjqgKrE4DHADOSY58A/C45ZhW+RP4uWPuR/+tHapLsJPgW4F3JMauwkDI/UpwH0EKrE4Dsm+tu2nuM5wixN3emqeRsNyo10dbAPskxjwPuSo5Zla8Rr1czmQC00OoEIPvD+yRxbG9bnUv+o8GDk+NJTXEwuafP3UI86WurUeD9yTEPornLJDWG4VUlc5b5fbRn5v/6HJ8c79HJ8aSmeFRyvI8Te/232Q+JLYuzzKK/I5BVwDCwEzA9MeaPgdsS49Xll8B1ifHmJcaSmiTzi2WE2G+g7UaAk5JjOka1zDAwNznmINxcEDfYtSpmMQAAIABJREFU1xPjbQtskhhPaorMMep0chP7On2NGKeymAC0zDC52fV9wC8S49Xt1OR42cmaVNpUYNfEeNn3dJ3+TO5KKxOAlhkm90M7l/a/W1vT+cSymyzeYOqaOeROLhu0I24zTxR1fGqZYeJ87SxnJ8bKsILcPQHmJMaSmiBzfLqdwTt7I3PMdXxqmWFg08R4g3ZzAVyeGMs5AOqazPHpcmIJ3SDJHHMdn1pmmFi+kSVzWUqW7KU2Upc4PvXnGmBZUqwpwLSkWKrAMDAzMd6fE2NluTYx1uzEWFITOD71ZyVwQ2I8x6gWyX4CsCgxVpbMNvkEQF3j+NQ/xyitU+YTgGXEpLlBk7kKwJtLXWMC0L/MMconAC0yTKyzzbA8KU62zHZlfVZSU0xJjHV/YqxMjlFap+EN/xFJkjRoTAAkSeogEwBJkjrIBECSpA4yAZAkqYNMACRJ6iATAEmSOsgEQJKkDjIBkCSpg0wAJEnqIBMASZI6yARAkqQOMgGQJKmDTAAkSeogEwBJkjrIBECSpA4yAZAkqYNMACRJ6iATAEmSOsgEQJKkDjIBkCSpg0wAJEnqIBMASZI6yARAkqQOMgGQJKmDTAAkSeqgYeC+pFgbJcXJltmuZYmxpCbIGp8ApiXGyjQ9MdbSxFjq0zCwKCnW1FVl0MxOjJX1WUlNkdnnZyXGypTZLseoFslMAAA2SYyVxQRAqk9mn8+8lzNljruOUS2SnQDskhgry26JsRYmxpKaYHFirF0TY2WZCuyQGM8EoEWGyb3B5iXGypLZJm8udU1mnx/E8WkOMDkp1n3A8qRYqsAwcEdivAcnxsryoMRYdybGkpogs88/kLwvyyyOTxrTMHBVYryDEmNlmAE8KjHeHxJjSU2Q2ednAQ9PjJfhkMRYjk8tMwxcmRjvEcCmifHq9jhylw4tSIwlNcG15C5/PTQxVobM9mR+l6gC2QnAJOAZifHq9pzEWCOYYat7VgJXJ8Z7dmKsuu0NzE2MZwLQMtkJAMDLkuPVZSrw3MR41wH3JsaTmiJzjNoX2CcxXp3mJ8czAWiZYeAm4J7EmIcQM1Pb7jnAFonxrkiMJTXJ5cnxXp4crw7TgJcmxzQBaJnVZwGcmxzzbYnx6jAEvD05ZuZnJDXJb5LjvRbYMjlm1V4BbJcY71ZyJ5SrAqsTgDOS484HHpAcs0rPIH9J46+S40lNcTawIjHexsA/JMar2lTyf2SdAYwmx1SfSiUA04APJ8esyjTg+OSY9wLnJ8eUmmIRcGFyzLfQ3p0B30x+3f2B0kKrE4BLgLuSY78QOCw5ZhWOIX/HsLNxhy11W/YXzAzgo8kxq7Aj8K4CcU0AWmh1ArASOKtA/C8AmxeI26tHAv+vQNzsJzRS05S4B55J/kz6fkwCvkK8wsj0Z3z/30rDa/z7DwrE3xk4iZhU13SbAN+mzJnhPywQU2qSs4DbC8T9FLFFcBu8i9yd/1b7foGYqtjGxLu20QLlfQnt68cU4GeUuTa/Tmhfl8wn77P7ZFKbuuITlLkHrwK2TWhfP55JTJQscX0Gbfvk0haS99n9la8kBl67HNXHBavTMPB1yl2X19XfxE6ZT95nZwJQrUdR7j68kDgroIkOJbZLLnFdLk1oX9cUSwAOSwy8dhkhJtg1yWTgi5S7JveRu9lQF8wn7/MzAaje5ZS7Hy8Atqq/iRNyGLlfGGuXpo3Zg6BYAjBMbDlbqjONAh8hJrOUtgnwc8pei+/V3srumU/e52cCUL13UPaevALYrfZWjs8riNVBpa7FCtq9n0tTFUsAIDaQKHmDjQJnAtv3cOGq8nDi4J3S1+GAuhvaQfPJ+/xMAKq3BeXmKq0u9wAvqLuh67ERcMI66pVdvlV3QzuqaAIwC7gjsQJjlVuAl5C7QmAj4N2Ue5+2ZimxLLML5pP3GZoA1OOjlL8/R4nXg9lbBh8IXFZB3fstI+TvhtoVRRMAgPckVmBD5QzgERO7fhM2RMyibcKv/tXlibW2uLvmk/cZmgDUY3uakaSPEj+WXk/9y4N3IZZMjxRq59rlR7W2ttuKJwCbJVdiPOUnxBrXKp8ITANeBPyuAe1bs5xXYRv11+aT9zmaANTn05S/T9cs1wNvAjatuJ0PAr5M2Xf96yqPqrid+oviCQDE2vzSnWxd5U/AccB+xCz9iZpB/Lr+DHBnA9qzrvLUHtql8ZlP3udoAlCfXWnOU4A1y1LgZOC59L6CZ2/gn4gt2ku3Z13lpz22S+OTlgCs79f0TGLJTZNneS4kjsm9DFhAbEm5CFhMJAcziTkNc4j9+/chEoepJSo7Tj/BBKBO84ETk2J9CnhjUqwuOg7459KVWI8R4PfAxcCVxCvGhcDdxAz66cQYtQMxPs0DHkuzNx1aDjyEWA2heiykIXtOPJfy2WaXyjJg7rg+GfVqPnmfp08A6jUduJry922XStN3bR0EaU8A1jwLYF2+S/wiVY73E08yJG3YUuANpSvRIX8mxigNiA0lAABHE79MVa+rgQ+VroTUMj8DTildiY44ClhSuhKqzngSgKuI3bdUnxXAyzHRknpxJHBz6UoMuG/h0r+BM54EAGLXqRLHBXfFPwPnlK6E1FKrNw1bWboiA+oPRJKlATPeBGAU+HtiCZ6q9TPgw6UrIbXcr/AVWh2WAc8nVldpwIw3AYBYuvJCYhmIqnEzcaDHSOmKSAPg3cB/la7EgDkK+O/SlVA9JpIAAJyP65qrsoTYfth3l1I1VhCH9FxTuB6D4rPA50tXQvWZaAIA0SHeXXVFOuZ+4Hm45a9UtZuAJxDzAtS7U/DH3sDrJQGA2IHrhCor0iGjwGtwO02pLlcBTyN2BNXEnUU8SVlRuiKqV68JAMA/Entea2LeShzuIak+FwLPAO4rXZGW+R/gWbgkuRP6SQBGiKU3fpmNzyjwduDfSldE6ohfEU8CnME+PhcChwF3la6IcvSTAEA8Inol8JEK6jLIVgKvBj5YuiJSx/wSeDxwe+mKNNzpwKHAraUrojz9JgAQv2zfSpyFPVrB3zdo7iUeRX6xdEUE5C5jdclsM1wAHEjsZa+/9Q3gyfikpCmyxo3K48wnvvBKn1jVlHI98Oi+rqiqdgh5n/9bk9qk8dkRuIjy40JTygjwAWB9x8Ir36XkfP5/qqPyD0xsQJPL6TT7XO+umkdeH3hJUps0ftOIFUylx4fS5XbgqX1eS9XjNHL6wK/rasBM4GtJjWhaWQEcSzWvV1S9KcCd5PSFeUlt0sQ9k7x+0LRyPrBr/5dQNTmenH7w8bob8kpiC+HSHT6rXAUcUMmVU50yktMFaa1Rr+YQv4JKjxtZZTnwPmByFRdPtXkMOf3h8RmN2RY4iXjfVPoGqPPGOgHYuKJrpno9g/r7xHFprVE/hoAjiJ0DS48jdZazgX0qumaq1zBwLfX2h1uIp6FpDiQ2mSh9I1RdTgf2rPA6qX5DxMzwuvrEXcAWaa1RFTYjkvgVlB9Tqiw3EwmOE/3a5RXU2y/ekNeUv5hC7C9dd3aTUS4ADq/28ijRodTXN5z9316PBE6l/U8s7yaeQm1a7eVRkknA76mnbywApuY15W9NIbLSK6ingXWWc4gvfjPq9qtjss0v8B3rIHgQ8eqybU8EbiMmIW9W+RVRtj2pfg7dvcC+mY1Yn0nAi4kzvJuccd8H/IB4jaHBMQz8iOr6yeX4i2vQ7Al8juZPZr4MeDPOQxo0TyVOj62ij6wkTqFtpB2BY4jHE6VvptXlQuBoYOsa262yJgOfoP++8l/YTwbZRsSTv5OJSb+lx6ZR4A7gs8D+NbZb5T2B/pesLiKWvrbCY4nlKr+huuxnPGUJ8HMiEZlbeyvVJK8hBtSJ9pllxBkPqTNqVdQ2wOuA7xIb6mR+6V9KrN9+Kva5LplL/Mjopc/8Ftg7v8rVmE2c6PVR4gLcSjU30ggxGfEXwHuI9ftFJ0aouM2IeQHj6WOLga8Au5SoqBpjGHgocTz6D4knmFX9aLmHmGz8OeBFuLOoYgnzeYzvlflFwHNZz3y1tk5k24zYZW1PYDciSZi56p+brPr3lcQgvZhYlrWYeI+3ALhy1T/vza64WmES8DjiaNSdge2ILWSvB24k1lT/ElhaqoJqtCnEuLQX8cttC2JuyCxibJpJvKtfSHzJrx6nFhI/ShYQE6Rvyq64WmNH4OlEH9uR6GN3ADcQfecU4JpSlZMkSZIkSZIkSZIkSZIkSZIkSZIkSZIkSZIkSZIkSZIkSZIkSZIkSZIkSZIkSZIkSZIkSZIkSZIkSZIkSZIkSZIkSZIkSZIkSZIkSZIkSZIkSZIkSZIkSZIkSZIkSZIkSZIkSZIkSZIkSZIkSZIkSZIkSZIkSZIkSZIkSZIkSZIkSZIkSZIkSZIkSZIkSZIkSZIkSZIkSZIkSZIkSZKkRhqawJ+dDOwAbA9sBtwFXA/cCKysvmoaUJsAs4CNgZnApqv+uWRVWbzqn3cBi4AVZaqpFtoS2I4Yp+4DbgauI/qUNB4bEePRbGKsWj1OTSLGpUXA3Wv8+5Iy1azGhhKAycBzgGcBTyIG67XdAfwU+AHwQ2CkygqqtXYFHgbMW1X2XPXPdfWhsSwHrgauAK5cVS4DLsHEQGEf4CXA4cDe6/jfVwK/AU4FvgrclFc1NdjGwL78ZVxa/c+dgeEJ/D03EePTglX/vAK4CLityspmGwKeSzRmdALl98BTC9RX5W0DPA/4LPBHJtZvJloWA6cBxwCPYGI3rAbDrsQX+kom1m/eR/yyU7dMJsaKY4ixYxn1jlFXE2Ph84gn5q2xEfAV+mv854Gp2RVXuh2AtxGJX50304bK7cCngcfW21w1xFOAe+i9v/wZeHh6rZVtCvB04LvAvZQbn1YAvwJeQbz+bKwtgQuoptFnY6Y9iGYALwV+TnTskl/86yoLgHcDu9TUfpX1Vib2q3+ssohIJDR4Hgl8HLiV8uPR2mUJ8DXg74h5BY0xhchSqmzsz2hYI9WzWcDRxDuv0jfReMpK4r3vI+u4GCriecQco6r6yL3EY2ENhv2BX1J+7Blv+SMxpk6r42JM1Keop5Hvy2yEKrclcCwxK7/0DdNrOQ14dMXXRbkeBiyl+r7xJ1r2jlZ/ZYiYAHoe5ceZXsu1RCIwveJrM24PpprHausqy4Hd85qiimxEfPEvofwNUlX5T2BOhddIec6gvn7xocR2qDoHUn7+UZXlRuBlTGx5fiV+2mfFN1S+kdcUVeBQ4HLK3xB1lPuA44kER+3wNOrtE0uBHdNao35tTsywr/J1UJPK2cTy1hS7JTRoJbFMTM32AGLGbOkbIKP8gZiIo+b7CfX3h3entUa9GgZeT7tfR463LAc+SOxXUKs3JTVoft0NUV+eTmzqVLrjZ5eTKPjuTRs0k3re/a9dLshqkHqyFfU/qW5iuQJ4SAXXb0wZ2fUovgZoqsnEI/FBfZw2nnIRzlNpqqeS0wdGiAmvap6DgRsoP06UKkuJSYK1yHrXe25dDVDPdiI+l9IdvAllIfDC/i6navBG8vqASwKbZYjYua+J+42UKN9lYlupj8vdSZW/puqKqy/70syNMkqX4/u5qKrcv5L32R+e1CZt2DTgZMqPB00rlxJztSqTVfF7qqy0+vJ44hdv6c7c1PIpPF+gKT5B3uf+sqQ2af1mAr+g/DjQ1PInYG7PV3cNDnLd82JiMk2j96Qu7PXA93CpYNekr7/W39iWWAb3hNIVabBdiFe3fW9uZgLQLa8lTlCbUroiLfBMYithkwApx47Ar4ldH7V+WxBPSQ7o5y8xAeiOF+Kj7Yk6jHgPObl0RaQBtwVxwNhupSvSIrOAH9NHwuSXQTccCpyIn3cvDge+iI+HpbrMAE4B9ipdkRaaTRy6t0cv/7FfCINvX+BHNOTEqZY6AjiudCWkATSFWN722NIVabGtiXldE95t1wRgsO1IHIAzs3RFBsA7gVeWroQ0YD4NPLl0JQbAHOKH3tSJ/EcmAINrMvBNYgtNVeOTwENLV0IaEC/EpLpK+zHBky1NAAbX+4DHla7EgNmImBToEkqpP3sAnytdiQF0FPCs8f5hE4DB9GTgLaUrMaAcuKT+mEjXZwj4ErDreP6wCcDg2YY44c7Ptj4vxF3jpF59FF+l1WlT4OuM4zvAL4nB82E81SzDx/A6SxO1L/Ca0pXogMcAR27oD5kADJb9gZeWrkRHbIFLA6WJmAR8Fr93sryfWCI4Jnc4GxxTgM/Qjg1rlgNXATcCS1b93xCPrmYTB11sVqZqE3Ik8b7tgtIVkVrg9bRnm98bgauJ8WnRqv/fdGBjYOdVZVKZqo3bZsAHgVes7w9lnWDkaYD1eivlT6kaq9wAfJnYUGcO47txtgKeRBzPewEw0oB2rKtcgL9o6pR5GuARSW3qom3JO3p+ouU+4DTgHcSj8/FMTpwGPAT4B+D7xPdb6Xasq4ywgdVgWRUxAajPbOBOyne2Ncsy4uChw6jmC3J34F+A6xrQtrXLCypon9bNBGAwnED5+3TtcjHwRuJ1Xr+mEyet/pzm/Vg5e30Vz6qECUB93k75Tra6LCEmyO1QU1unEpuHXNWAtq4uv6Mdr17ayASg/bYmxoXS9+nqcjbwdzW296HEMscmJQIHjlXZrAqYANRjBnAL5TvYKHF87i61tvYvpgBHE+/nSrd7FHh6vc3tLBOA9jue8vfnKPFeP/MzfgRwfg3t6KX8fKxKZlXABKAeR1G+c90FPKfuho5hF+DcDdQvo5xXczu7ygSg3TajGe/HT6TMxkOTiHNE7p9AXesq+66rglnBTQCqN5ny78TPJ+9X/1imAB+h/A32+Lob2kEmAO32Tsrek/cCL6+7keNwIPEEouS1+P66KpYV3ASgek+jbIc6jWZt5/lyymba36i9hd1jAtBeQ8RSulL3413AAbW3cvx2Bq6g3PW4n3UcGZwV3ASget+iXGf6FvHLu2meS7kk4F5iRYaqYwLQXgdQbny6FXhQ/U2csC2BSyh3XY5eu0JZgU0AqrUJ8YVTohOdRqyDbaqXUm4G7t8ntK9LTADa6/OUuQeXEOv5m2or4ErKXJsL165MVmATgGq9mjId6GJiN6ymew9lrs+ZCW3rEhOAdppOmY1/VhIbiDXd7pTbu2Xv1ZVwB7P2ekmBmAuJTW+WFIg9UccBvygQ90BgxwJxpSZ5KvGUMtu/sp4lbw1yFfG0cLRA7P/77jABaKeZwGMLxH098IcCcXsxQhzZe1ty3CFi90Opy55YIOY5wHsLxO3VD4H/KBD3/z4bE4B2OoD8CXi/JM6YbpNbgWMKxD2kQEypSQ5NjrcCeAPxCqBN3kGclZLpoaw6bM0EoJ2yv2CWEzdXG50I/Do5pvsBqMt2Ig79yvTvwO+TY1ZhEfC25JiTgIPABKCtsrPrrwILkmNWZZSYEJhpe2BeckypKbLHpyXAh5JjVumbwKXJMQ8BE4A22oR4hJNlJXGmdJudDvwmOaavAdRVByfH+yz5c32qNAp8IDnmoWAC0Eb7EI9wsvyU9kz8W58TkuM9ODme1BSZfX+UWCradicDNyfG2xOYagLQPnsmxzspOV5dfkSsS87iKwB10RCwR2K8s4BrEuPVZQW5W4lPBuaYALTP3MRYC4kjfgfBMuAHifGyEzWpCXYklilnGaTzN7LbsqcJQPtkfrGcRXxxDorTEmNtj+cCqHuyE98Sm33V5WJy5zLMMwFon8wb7IzEWBlOJ3fnrcynNVITZL76uhq4NjFe3bK3EjcBaKEdEmOdlxgrw63AnxLjPSAxltQEjk/9+W1irAeYALTLMDAjMd6VibGyZO5nMCsxltQEmX3+isRYWTLH3FkmAO0yk5hlm+GOVWXQZN5gzgFQ12QmAG3dnGx9Mts02wSgXTJvrlsTY2XKnGTjEwB1TWafb/PmP2PJHHd9AtAymTfX4sRYmRYlxjIBUNdk9vnMeznLYvImKpsAtEzm+loTgP6ZAKhrNk6MtSQxVpaVwL1JsUwAWibz8xpJjJUps13eX+oax6j+ZbVr2AFKkqQOMgGQJKmDTAAkSeogEwBJkjrIBECSpA4yAZAkqYNMACRJ6iATAEmSOsgEQJKkDjIBkCSpg0wAJEnqIBMASZI6yARAkqQOMgGQJKmDTAAkSeogEwBJkjrIBECSpA4yAZAkqYNMACRJ6iATAEmSOsgEQJKkDjIBkCSpg0wAJEnqIBMASZI6yARAkqQOMgFol5HEWIPaN4YSY40mxpKaILPPZ97LmbLG3tFBHeQH1ZLEWDMSY2WamRhrcWIsqQkyx6iNE2NlGQamJ8VabALQLplfKLMSY2WanRhrUWIsqQky+3xmMp9lJnlPABaZALRL5s21ZWKsTFskxjIBUNc4RvUns00mAC2TeXNtDWyaGC/LvMRYCxNjSU2Q+ZRybmKsLJltWmgC0C4rgXsT43mD9cc5AOqazKQ3M5nPkjk++QSghW5OjPWoxFgZNgfmJMa7MTGW1ASZ49O+ibGyZI65N5kAtM+VibEOSYyV4RBylzcuSIwlNUHm+LQXsENivAwHJ8a60gSgfa5IjHUwMCUxXt2ekBjrduCOxHhSE2SOTwCPT45Xp33ITWhMAFoo81fl5sDfJcar0xTgOYnxMn8JSU1xLbAsMd6LEmPV7cXJ8UwAWij7i+VlyfHq8hRyl9hk/xKSmmAlcHVivCcyGK8BhshNZkaAP5gAtM+l5G63+Qxgx8R4dXlDcrzLkuNJTXFpYqxh4DWJ8erydGCXxHh/BO41AWif24D/TYw3FXhLYrw67Efu+3+AM5PjSU1xVnK8o4BNkmNW7Z3J8c6EwT3wZdD9Kjneq2n3U4D3Jse7A/hdckypKbLHp02Ao5NjVulw8pc0ngEmAG11ZnK86cDHkmNW5TnEe8JMZ5J7cqPUJFcCNyTHfDuwW3LMKkwH/j055igmAK12JvlfMM8Bnpocs1+zKZO4nFEgptQk2ffAdOATtO+I4HeSn7hcDtwEJgBtdSdwUYG4Xwa2LxC3V5+nzKuL0wrElJqkxD3wFGI+QFscQjy5yPZXn81oUrmn3jZ1zpvJ++zWLGfRjs2B3kCZ63NhRuM65BPkfXZHJLWpC2YT55Zk33/3AY9OaF+/tiO2Ci8xRu23ZkWygpoAVGtr4H7KdKBv0OynR0+j3LVp0y+QNjABaK9vUuYevA3YM6F9vZoNXEyZa7OANV6TNHkQ1/rdCvyiUOwXERNXmvi+7WDgZGBygdj3A98qEFdqopMKxd0S+CmwU6H467Mx8CPgYYXin0QkAv8nK/PwCUD1XkiZLHJ1OYlmvQ54BmUeO64up9bfxM7xCUB7TSYmm5W6H28EHlJ7K8dvc+DXlLseI8Cua1cqK7gJQPWmE4fOlOpQo8DPyN1id12GiM2KVlD2WmSeNdAVJgDt9kHK3pN3Ak+uvZUbtg+xPLLktTh9XRXLCm4CUI93U7ZTjQLXAQfU3dAxbAGcMo461l2uwFdqdTABaLftgaWUvTdHgOMp97TylcCSDdQxo6xzP5Ss4CYA9dgEuJvynWuEeCWwVb3N/T9DxIB9S41tmkiZX29zO8sEoP0+Tfn7c5T4BZ65JfjuxFyE0u0eBc4bq5JZFTABqM8HKN/BVpfbgGOAWTW1dYjYkOi8BrR1dfkjzZoLMUhMANpvF2A55e/TUeKHyneAh9bY3h2JfntfA9q7ujx9rMpmVcAEoD5b04xHTGuWO4j3f3tX1MbNiFO/Si2fWV8ZhNPImsoEYDCcSPn7dM0yAvwn8GxgWgXtGwYOWtXOJn3xjxLnkoy5YiurEiYA9WrSU4C1y8XA+4HDiGUw4zEJeBBxyMepwLIGtGNd5Q9UM4Bo3UwABsMcys8FGKvcQby+fDkTO5J3K2Li76eAaxrQjrHK4WM1YGjVH8iwkPYf2dhkGxPHBDdx7euaRolJgwuAm4HFRHK4EfHaYAtisNiDdnyx/h3w89KVGGCfAN6YFGs+5daud8GxwHtKV2IcFhLj07VEcrCYWGG0KbGJzwOAeeTNd+rHqazn8T/kZSE+AajfsyifbXapfGd8H4v64BOAwTGN8kvhulTuZQMHDblsabD8APhx6Up0xL3E3gOSxuc+3Co70/uICcpjMgEYPG8iJgSqXu8mHhFKGr+fA98tXYkOuAL4yIb+kAnA4LmavHemXXUGcRaCpIk7kpg0p3osA15MPHFZLxOAwXQi8JXSlRhQtxA318rSFZFa6i7gBcTeAKrem4BLxvMHTQAG1xuIVQGqzgjwUmL1gqTenQ+8q3QlBtB3gM+O9w+bAAyuJUSW7XyA6hwL/LJ0JaQB8WFiMx5V4w/AqybyH5gADLZLgWfio7YqfB3419KVkAbIKPAi4KLSFRkAtxEb/iycyH9kAjD4fgn8PfH4Wr35T2KXsNHC9ZAGzSJiM60rS1ekxXq+hiYA3fB1YktdTdz5xKuUFaUrIg2o24EnAzeVrkgLLQeeS2y3PmEmAN3xSeJwHo3fpcBTcB6FVLc/EUnAnaUr0iIriEnJv+j1LzAB6Ja3E0tEfJS9YecBhxB7gUuq3++A/YmzQrR+9xLzu/rajtwEoHtOIN5n+0h7bD8GDiUeTUrKcznwaOB/Slekwe4CnkQFKyiGmeCswT54GFBznEScg720dEUaaPW1ubd0RQTkjU8AdyfG0thuBA4Cfl26Ig10E3AwcE4Vf9kweRMvbkiKo/E5lbjJ/lS6Ig1xP/BW4unI/WWrojVkTgy7MTGW1u8u4InErqYKZwOPBH5f5V96GjlHE3p0ajPNBr5N+aMrS5Y/A4/r90KqFs8grx9sm9QmTczLiKVupceJUmWEeHU7pd8LuS5vT2rEa+qovCpzJHGIROnOnl1OATav4PqpHpsSh5rU3Q8q/VWlys0jJgmWHi+yy63EGv/a7JnQiBFghzoboUo8FPgt5Tt9RrkdeDUwVMmVU51+Sf2152JdAAACRUlEQVT94bi01qhX04mlzMspP35klG+S9FTqnJob8uOMRqgSQ8ARROZZ+gaoo4wQE/22quqCqXYvot4+sRzYI6016tdc4OeUH0vqKguIWf5pHk0MjHU0ZiXxy1LtsiXwBeLzK31DVFUuBh5T5UVSiiHgQurrF5/Ka4oqMgS8hJi4WXpcqaosBt4BTK3wOo3bNyZY2fGW/8hshCo3hzhe8n7K3yC9lt8RTzUmVXxtlOdA6umDtwDbJLZD1ZpGzF/6M+XHmV7LImKS33YVX5sJmQ5cQLUN+zXxAan9diE66VLK3zAT6X+H43v+QXE01faP5cSaarXfVCLJv5Ly4854yz3A8TRoEvJOxJnCVTTufzCzHkTbEytHLqP8DbSuchfxxMJlfYPp36juy/8lyXVX/SYTW+R+n5zVIxMtI8BZwCuBmTVdg75sTv+zbn8CbJJdcaXbm8hgb6bsTbWC2M/iCGBGrS1WE7ya/maC306c86DBtikxJpxGfXPcxluuIcbKOXU2uCqTgTcQ78cm0sjriczGMwa6ZRLwCOIR7cnElqp131BXE7/0nwdsVn8T1TAPY+I/VFYAX8QlyV20DTFWfJYYO+oen24jdls9hhgbG/kackOVmkV8oT+TOKVpXZOoVhCPNL5PbNvoHuqaCjyKWP2xJ7FsZy7ximmiN8LdxLKYK4j3e5cD/4UH9SgcRjzKfxqxcmVd/gj8iPjyvyypXmq2XYkVQXsRmwytHqOmT/DvuZ/YTn31+LQAOJ94BT5aVWXr8v8BhWoYUQTexGEAAAAASUVORK5CYII=;" parent="1" vertex="1">
                    <mxGeometry x="370" y="430" width="20" height="20" as="geometry"/>
                </mxCell>
                <mxCell id="7VhcuU38_8ilDAtrPy3k-23" value="" style="endArrow=classic;html=1;rounded=0;" parent="1" edge="1">
                    <mxGeometry width="50" height="50" relative="1" as="geometry">
                        <mxPoint x="400" y="339.66" as="sourcePoint"/>
                        <mxPoint x="460" y="390" as="targetPoint"/>
                    </mxGeometry>
                </mxCell>
                <mxCell id="7VhcuU38_8ilDAtrPy3k-24" value="" style="endArrow=classic;html=1;rounded=0;" parent="1" edge="1">
                    <mxGeometry width="50" height="50" relative="1" as="geometry">
                        <mxPoint x="400" y="372" as="sourcePoint"/>
                        <mxPoint x="460" y="400" as="targetPoint"/>
                    </mxGeometry>
                </mxCell>
                <mxCell id="7VhcuU38_8ilDAtrPy3k-25" value="" style="endArrow=classic;html=1;rounded=0;" parent="1" edge="1">
                    <mxGeometry width="50" height="50" relative="1" as="geometry">
                        <mxPoint x="400" y="440" as="sourcePoint"/>
                        <mxPoint x="460" y="410" as="targetPoint"/>
                    </mxGeometry>
                </mxCell>
                <mxCell id="7VhcuU38_8ilDAtrPy3k-26" value="" style="shape=image;verticalLabelPosition=bottom;labelBackgroundColor=default;verticalAlign=top;aspect=fixed;imageAspect=0;image=data:image/png,iVBORw0KGgoAAAANSUhEUgAAAgAAAAIACAMAAADDpiTIAAADAFBMVEX///8AAAAAAAAAAAAAAAAAAAAAAAAAAAAAAAAAAAAAAAAAAAAAAAAAAAAAAAAAAAAAAAAAAAAAAAAAAAAAAAAAAAAAAAAAAAAAAAAAAAAAAAAAAAAAAAAAAAAAAAAAAAAAAAAAAAAAAAAAAAAAAAAAAAAAAAAAAAAAAAAAAAAAAAAAAAAAAAAAAAAAAAAAAAAAAAAAAAAAAAAAAAAAAAAAAAAAAAAAAAAAAAAAAAAAAAAAAAAAAAAAAAAAAAAAAAAAAAAAAAAAAAAAAAAAAAAAAAAAAAAAAAAAAAAAAAAAAAAAAAAAAAAAAAAAAAAAAAAAAAAAAAAAAAAAAAAAAAAAAAAAAAAAAAAAAAAAAAAAAAAAAAAAAAAAAAAAAAAAAAAAAAAAAAAAAAAAAAAAAAAAAAAAAAAAAAAAAAAAAAAAAAAAAAAAAAAAAAAAAAAAAAAAAAAAAAAAAAAAAAAAAAAAAAAAAAAAAAAAAAAAAAAAAAAAAAAAAAAAAAAAAAAAAAAAAAAAAAAAAAAAAAAAAAAAAAAAAAAAAAAAAAAAAAAAAAAAAAAAAAAAAAAAAAAAAAAAAAAAAAAAAAAAAAAAAAAAAAAAAAAAAAAAAAAAAAAAAAAAAAAAAAAAAAAAAAAAAAAAAAAAAAAAAAAAAAAAAAAAAAAAAAAAAAAAAAAAAAAAAAAAAAAAAAAAAAAAAAAAAAAAAAAAAAAAAAAAAAAAAAAAAAAAAAAAAAAAAAAAAAAAAAAAAAAAAAAAAAAAAAAAAAAAAAAAAAAAAAAAAAAAAAAAAAAAAAAAAAAAAAAAAAAAAAAAAAAAAAAAAAAAAAAAAAAAAAAAAAAAAAAAAAAAAAAAAAAAAAAAAAAAAAAAAAAAAAAAAAAAAAAAAAAAAAAAAAAAAAAAAAAAAAAAAAAAAAAAAAAAAAAAAAAAAAAAAAAAAAAAAAAAAAAAAAAAAAAAAAAAAAAAAAAAAAAAAAAAAAAAAAAAAAAAAAAAAAAAAAAAAAAAAAAAAAAAAAAAAAAAAAALI7fhAAAA/3RSTlMACHAB/v0FAgP5Bvfo5/wNB/QuCdqd+O/1+wryE9WQBHJc86n247ILD5FtEj3lNbiv+h0e8BW5KDR50yPGf7DC7rMvgLHpIY94IFcU8UotOaWo7BzIloShx6OiLEtI3XpG2A4Rrl+By0PtUQxgysTZ3DJPGk2KZ9a1EMC7KWYfqnU2l79COuvird7OmGiCfoVZVlTRrD6cFr6JYua8mhckwW5ASZTDfEFk4clebDGme9eNgzuL2zdqG5Xq5Cd0cc1ER1NhWCKra2mOxYxac3dMtz+G4Fu6GFA80J+ZKl22Y7SnONLMJVUwzytSJtS9pDOIRZIZoJ5O35tlk4d9dm9ZD5etAAAkw0lEQVR4Xuza3UuTfRzH8e/c3GptuDWbaD6vITPXI21Tm7UFSyEIxWjTwQi0GrRMVqY9zGok4YiyZymrZejGxGYlCqaGB7UMqqMeIOhADJGgww6/N57dJzfdXrs2d/2u3+s/+Hz5Hr6BB6Sfv7842Tx19aXu0rqG2iaLwT/r+Xb6RFjuXq8WidTr3fLwidPfPLN+g6WptmHdJd3Lq1PNJ198/ywFbqIyalqP/myrPnWnyX9Tq0TGlNqb/qY7p6rbfh5trcmAFEeJbbeLXIH2in2YEPsq2gOuots2MaQWakfrl+B7jV2fjkmRrrdr3ge/tO6AFUZt/Ho+39CyAVfIhhZD/vmvGyH5qLtPxp7ek2FKkN17OvbkLiQH5X0dDOyqw5RTtysQfO2FxKFWWdv6dmZhSsva2ddmXQVso7yLvWeUyBHKM72LXmAJlVM2+UaLnKN9M1mWA3GhhMbmA93ZyFnZ3QeajUJggpJcHDBkIQGyDAMXJbAs1PZQpxsJ4u4MbYf/hypx6g4hgQ7pnCV/mU4Jf5f7VyOxVvvLfwvhP1DeY8NdSLyu4WNeYIB0j1wLyBsLrkfwL1RldTfyTHd1JSyhwPZhGnlp+oMNeK/mwhHksSMXaoDHfJMeTCJll/5PS8W0/fHZ9i0ax1L7d81cXm6+ttQKOjRb2s8+tk9XtPzRdykxiTyTPuCl3LR6TDC1PO+45WC+ubTIud/4cBkll/ihcb+zqNScf9ByPE+uxgSrT8sFvrnsSNRZRTLPrb1TN8oax1XAEtV4Y9mNqb23PDIRJobacRl4JCM2h6wrzvvUNxAZrFRAAikqByMDfZ/yipF1c7EM4AdrgNXzpY9W9cY+ru2ApOpY+zHWWzWazuoLB6xAPEHEjmzJjl55ft0qWNE51uvPr0SzkS32iABINj/iRjZs/dW5p6dRCilC2tizp/PXVmSDe2QeCFUw80CEcZNXmWfOFaTkvnMz5io5xk30YKYAyCONhTFOa2bf9fggxfl63s2uwTiFY1Igi2JMi3HJdLw1iYEjxKa3jkyMi3ZMAeQQDE0gc7s3H+7PBc7J7T+8eTcyNzEkADIIgnpkqq429EoInCV8FaqtQ6b0QRJeQJV2n3E+4zJJgPMkJhfjyOl+mgq4LadQjoxEiQroSpy6KDIiL8wB7lIUypABt+bHNiDOth8aNzIgK1QAR/WP4rKJ7M82SYBQkk3P7CJcttH+f9i1n5eo9jAM4Nc7Yzrp6GROzjiNaY1paWRdRUtJd0ZKWrmplEIssjClH5AYd5UGoVEULbqkEOWiLv3QlNBFm4gWRYG5ahdGBWFUaLSQ5y7u4sKd7zlzps73+37Pve/nH3h4OA/nLM7rzJ/9JYiXuyn3P389/1tuU/wbKHHeyYBvOGLf0+cNRIYd9h1oGbP36fMGxlqc/Pa3/vR5A87/DvjuBhCHGbqnT7+BGcQhcNfniLd/Zjyd/BW//K9V+AOwLlP/70DRKlgXXlvIh/GFa8OwblWR3m1Gz8IqT2Px3wGsuNEDq86OalzEtS8Ii7oW6v4JYHULXbAouMmla4vBaasd2vb/qwRz7W8LwprpQT0rHPLCkqyB46IAdnwgC5Z4D2lYIHkkEVa0D7caBbDW4XZYkTiSrFuBh9Wwom9TulkAS9/UByuqH+pVoHknLJhYOBIrgB1ZmIAFO5s1KuAacCO21OeWbhtY9vNUxOYecGnz+Z9z4nWT8+/o5pI1ufi/jJi88Z24soQ/vYjp8mIt7t2mEUswpzXeANaaE0Qs0wX0BbqrEEv19h8JYNurEUtVN3WBwUuIwZv3owEsz4sYLg0Sn36M0b79+TswRnomUp5P/fbn70B+OV2BT330b3/+DvR9oirwrhSmdthy7sEKd8BU6TuaAg/Nlxn5blcQ+x6BGS/Jj4GEDpgJ77Uviu0Nw0xHAkGBPTDjz7Yzi2X7YWaP+gK5MBF6ZnccexaCiVzVBT6nwdi5t/YHsrfnYCzts9oClTUw9sUnI5L5vsBYTaXSu5WPMOS5KCuVXfTA0EeFt1auLTC0ROK7iH1eAkNb1B2InIehrAaZwawhC4bOqyrQmwYjqRlyo1lGKoyk9Sq6ANsMI1NDssPZ0BSMbFZzI9YPI/d2yU9nu+7BSL+K/MIJGHhUpyKf1T2CgYlCBfEPYOCWotMP1noLBh7ID6/0QGzdV1X92dd1EPNUSs9ug9iycXX92fgyiLXJTr4OAwdU9mcHYOC63Nyk9xCrVduf1ULsfZLU2KsQ60lWW58l90DsqtQXQBeEuopU92dFRs9C5ivgMIQiH9T3Zx8iEDosMfMJhA5S9GcHIfREXmKBeHP5JPd/LDsfIpECaYmPIZRH05/lQeixtMASiDS5aOozVxNESmTlpadAwP2Gqj9744ZASrrSN84sXX82q/SbvBoCAcIbALYrAIHVcsIKPRC4RtmfXYOAR85ZwG2InKGsz85A5LaUrEYIpJL+BGDJqRBolJI1BYEbtP3ZDQhMyUhKh0gxbX1WDJF0CUnjEJh00dZnrkkIjCs6BaC/A2G1qo4C7kNglLo+G4XAfUU/AtwF1PVZgVvR74AqRPtG3599Q7QqCTlhRDtFX5+dQrSwhJxJRJujr8/mEG1SQs5KRFtDX5+tQbSVEs6QITBCX5+NQMD+M/0CCPjp6zM/BOy/C1wKgR76+qwHAkttj0mAwE36+uwmBBLUDKCDvj7rIBxAJn19lkk4gBB9fRYiHACWU7dny0E5gBPU9dkJ0gHspq7PdpMOoN5H25756kkHgHna+mwetAOYpa3PZokHECL9BjBfiHgAOEZZnx0D9QDuUNZnd8gHEDxN156dDpIPAOvp6rP1oB8AXlC1Zy+gwwA6F9G0Z4s6tRgAcmnqs1zoMYDSMor2rKxUkwHgNUV99hq6DCCxWX171pyozQBQX666PSuvhz4DQGe32vasuxM6DQAvk1S2Z0kvodcAcFJlfXYSug0Ar9S1Z6+g3wBSKlS1ZxUpGg4Ak5Vq2rPKSeg4AHgzVLRnGV7oOQBk9cpvz3qzoOsAEGiR3Z61BKDvALBhm9z2bNsG6DwAJPbLbM/6E6H3AIB98tqzfYD2A0DtCjnl2YpaOGEAOLpRRnu28SicMQC0z9vfns23wykDAHIW25vOFucADhoAZobsDGdDM3DWABC6YF82uxCC0wYAXMm2J5llXwEcOACEG+wIZg1h6DqAfJhy+8t+NpaV+d0wlU84gK3VMFfz9KduBVnS0xqYq95KOIBfl55CDDPjP57Jxmf+Yu8+nKO4s/0Nf0TPjEY554QCQigioQBCCAkFghCIIAkECAkBwkhgEDmZnHPOwQQTTHTCYMBkTLTBmBiM7XXE2DjsXa93a8+v7paruu6PkaYndvfM9/kTut76nqmaU3VIi/EejcQMAKovSAvFHwXQC1Pwh4K0+EIFcQOA7ULS5pWxttAZYzv2FdJmoS3EDgB4QVpVx0NHTHw1afUCkEAA6EBaKbt9Dx0w33dTklY3II0AMFYpIIHwPhCI6RMu5IuOhVQCwOhk0k5xsQsEYLpcVJB2yaMhnQCQP4wEUKxyhxaM+yoFCTAsH1IKAKojJIRiXjs0gGk3T0FCHFFBWgEAH3cXlsDAb1EP5tuBChKi+8eA5AJAj7YkiOKzH0LwEibkh88UJEjbHpBiAFCXKEmYuME98H8wPQbHkTDKEjWkGQBw2pEEcs7sx+EvDNcv05kEcjwNSDYAbJlEgpXfSAEDIOVGOQk2aQukHABsp0WQYHYHY2H1Vh+0I8EiptlC2gEA+bmkg6DoKFixqOgg0kFuPiD5AIC+5aQD36lnPWCVPM5O9SUdlPcFZBEAbNo4kC7cvhhqAytjM/QLN9KFQxsbyCUAID+SdBNQVOcKq+FaVxRAuonMB2QUAPBxOemoc+/R9rAC9qN7dyYdlX8MyCcAfg7oKrm0r4U3YN+3NJl4wl9/+QUAXIgk3fk+aTQZFmpyoye+pLvIC4AsAwBmtSV9NPHqFAgLE9jJqwnpo+0sQLYBANtnkl6U1UtvqmAhVDeXVitJLzO3A7IOAIjdRHoKi9z/DLL3bH9kGOlpUywg+wCA2amkt083d+oI2erYafOnpLfU2YBFBAC894QM4JjbapYLZMZlVqtcRzLAk/cAiwkAiM8mgyjT/9jTxRayYNtlzx/pSjJIdjxgUQEAI5sryEAB627VbYGkbam7tS6ADKRoPhKwuACArVe7k+E+bf7WMndXSI6r+7K3mn9Khut+dStgkQEANo8zyCicPTNvhY70gCR4jAy9lenpTEaR8dgGsLwAeO4zAshYlOXZ6wfF10A0NfGD1meXK8lYAma4A7DsAICaRffJmBSfpj58483drV1hNq6td7/5xsPUTxVkTPcX1QCWHACva5kDGZ3Ccdi89qdWTP+Ng4lwv01fcar9vGGOCjI6h7KuAKwlACDwuieZil35xLJ/ndww9GaXHv4wmH+PLjeHbjj5r7KJ5XZkKp7XAwGrCgDgZjeLI5Pz3hi0K/f3y28cXXYm/kT++ylRHmo0QO0RlfJ+/on4M8uOvnH599xdQRu9yeTims3mAOsJgMfF7nQis1N6B3Tf+Knnjwv27Xr+SW7uJ8937Vvwo+enG7sHeCvJ7Jx2xnIArCwAnu32GXlktfJmbLcFYJUB8NRDNncnK9R98xA1ABYAgJAKryyyKlleFSEArD4AnmrHA0eyEo4PdqjwFxYAj2s3bZIDWTiHSdPacQBYAJp5VFxdSRZr5dUKD/BYAJrdeVzmRBbHqezxHfBYAA1zP5kaQRYjIvWkO3gsAEFsTg9O9SHZ80kdfNoGAAtAH1xa7cL7ziRTzvcX1qZx4LEA9NJ0e4fmTiQzTs07bG8KHgvAQK91at/Lm2TBu1f7Tq+BxwIwFvvpR4snHicJOz6x+Oh0e/BYAMZXsHrRr5s2ksRs3PTrotUF4LEATGvC7D2XE+aSBMxNuLxn9gTwWADm4zK9dn14rzgliUAZ1yt8fe10F/BYACJRdVwd2mrG+PTOZAad08fPaBW6uqMKPBaARAzoU7hoae9t5ckKMjJFcvm23ksXFfYZAIm5LmIARyBV6sCv3+t3bf+S9qXZw8c52pEe7BzHDc8ubb9k/7V+730dqIZU/WGeAPxJg0zIRNOkdrvrVlyrnbK/cYclS99pNsOrd3jz8ZPa9lywoGfbSeObh/f2mtHsnaVLOjTeP6X22oq63e2SmkImMs0TgAtpkADRMQmkgb95RsBEiI6ZKOI+QC+IjuklYgBfQXTMVyIGkAfRMXkiBqC0h8gYe6WIAdABiIw5QGIGkAORMTmiBjAOImPGiRoA9YGomD4kbgCLISpmscgBVEJUTKXIAZA7RMS4k9gBlEBETInoAXzgD9Ew/h+IHgDlQDRMDokfgG8SRMIk+UogACqCSJgikkIA1BWiYLqSNALYx0EEDLdPIgHQY4iAeUxSCSAuBmbHxMRJJgB6HgIzY0Kek3QCoF9hZsyvJKUA6HOYFfM5SSsAu7dhRszbdhILgByTYDZMkiNJLQD60ANmwnh8SNILgMJtYRaMbThJMQDqpoIZMKpuJM0A6IkHTI7xeEJSDYDaRsHEmKi2JN0AaEEKTIpJWUBSDoAqk2BCTFIlSTsA2vsMJsM820tSD4DyvoWJMN/mkfQDIN9zMAnmnC9JOQBe7xoYHVPTm0gmAVBlOxgZ066S5BMAOSyCUTGLHEgOAfCmDoDRMAOmEsksACpvCSNhWpaT/AIgu/9wMAKG+48dSTQAZ2pQxgEYjDmQQQ1yFjGAhxHUIOWxKhiEqTqmpAZFPBTzXkBsMjXs+AYOemO4DcepYcmx4h6MOHCctOg5EnpiRvYkLY4fgLgB4MRc0kI5IwZ6YGJmKEmLuScgdgBo8SppM2cPBx0x3J45pM2rLSB+AFj7HWm1bzt0wmzfR1p9txZSCAAThpN223ZDMGb3NtJu+ARIIwD4Z5IAbYdAEGZIWxIg0x9SCQC2/Z1JgF2noRVzehcJ4NzfVlJ3A+/NJSGG/4IGMb8MJyHm3pPa4ciYSBIkowL1YioySJDIGAleDj1lR4L0+iEEGjAhP/QiQexOARIMQPiflnGDe+D/w/QYHCf8j3ZpBoAB4SSQc2Y/jgXA4/plOpNA4QMkfDx6rAMJNf9GCv6LSbkxn4RyGCvt6+HuQSSY3cHVYLD6oB0JFuQOaQcAmxwHEi4oOgpWLSo6iIRzyLGB1AMALmSTDnzXzFLDSqlnrfElHWRfAGQQADB6PunC8dhNW1gd25vHHEkX80cDsgiAnwPCOf0Za1UN2Mb+6UQ8ga+/fAIALjwlHcU1e5uDVeDebhZHOnp6AZBLAPwc0FWT9l0tvgGua/smxBP++ssuANgMdiCd7d35Py6wWC7/s3Mv6cxhsA3kGABwYaqCdJe47VC8LSyObfyhbYmkO8XUC4BMAwD6dFOSPl4J/zwJFiTp8/BXSB/Kbn0AGQcATC5Skn4OBxc2hQVoWhh8mPSjLJoMyDwA4ESZM+nJbl2HkRxkjBvZYZ0d6cm57ARgAQEAWx/4kd6yEnJ2xECGYnbkJGSR3vwebAUsJADgwppEMoRn2aWfVZANVctLZZ5kiMQ1FwALCgDo+NCODONw5cjyFpC8FsuPXHEgw9g97AhYWABA0jvdyWBOzTuceR8S9f6ZDs2dyGDd30kCLDAAwDX0ChlDcsaaxv1acJAMrkW/xmsykskYroS6ApYWAM+9OICMJGzYg2l980XOgMvvO+3BsDAykoBidwCWHABQM/Y+GZHvh707DB1ZALMrGDm0Q+8PfcmI7o+tASw3AF7XUgcysgjP5w8W/7PfIxeYmMujfv9c/OC5ZwQZmUNpVwDWEQAQ09iTTCM5/cnCQ2/ubm3kElxa737z0MIn6clkGp6NYwArCgDghpR1JlPyy6vMeFrWrE307cIvnxWEQEchBc++LLwd3aZZ2dOMyjw/MqXOZUM4wFoC4LnWFYWRuXT+x4czU7PnfVH6x7HgMSVLOjTeP+Xc7W/qduyo++b2uSn7G3dYUjKm/bE/Sr+Yl50688N/dCZzCSuqcwVgVQHwbH7o5kZWzK3bDzYArDAAnv83FyPIKkVc/MYfgNUGwGt6fqADWRmHgeebAmAB/MXldq43WQ3v3Nsu+C8WAM+/MHgcWYFxwYX+AFgA9axOdScL1p1fdWMBCFyelD/hy64sAH592pMsiie/7s4CEKbjlFV5ZBHyVk3pCB4LQLiO59tneJOMeWe0P98RPBaA7uzjo396l2To3Z+i4+3BYwEYILBwcaoPyYZP6uLCQPBYAMbApQ2aUe1GEudWPWNQGgceC8CouI59p/0+LIwkKGzY79P6duTAYwGYCvda4ckH+wJIIgL2PThZ+BoHHgvALFr0u+7VszOJqHNPr+v9WoDHAjC/KvePP7r107b5iWQ2ifO3/XTro4/dq8BjAYjN9rfpK05dXrXPSUEmonDat+ryqRXTf7MFz6oDOAQpss+/ef6j/le9Bk5cOdeNDOQ2d+XEgV5X+390/ma+PaTohYgBHITkqdamdS0MjV4SXBo5aVuvD7+qnN8kz8dXw7hI9PXJazK/8qsPe22bFFkavCQ6tLBr2loVJG+VeQIYQBqMh1xx9jVVW5IupLm7p11I2lJVY89BrsaTBv7mGQHPITrmuYgjYDhExwwXMYC/QXTM30QMYD5Ex8wXMYAIiI6JEDEAGgWRMaNIzABuQ2TMbVEDiITImEhRA7CbAFExE+xEDYBqISqmlsQN4BOIivlE5AD8AiEiJtBP5ABoCkTETCGxA9gFETG7RA+ARkM0zGgSPwBPFUTCqDwlEAA1hkiYxiSFAJILIAqmIFkSAdAMiIKZQdIIwLkLRMB0cZZIALQJImA2kVQCoOswO+Y6SScA5wqYGVPhLKEAKGsrzIrZmkVSCoDGucCMGJdxJK0AKJKD2TBcJEktACqB2TAlJL0A6BuYCfMNSTGAiB0wC2ZHhCQDoMTlMANmeSJJMwBS/hMmx/xTSVILgDcNJsZMI5JwAHQLJsXcImkHQMW2MBnGtpikHgAVhcBEmJAikn4AlJoCk2BSUkkOAVDcdpgAsz2O5BEAKXNsYWSMbY6SpB4Ab+YoGBUzaiaRjAKgOTtgRMyOOSSvAEgxRgUjYVRjFCSXAHg9O8IomI49iWQYAPkM4mAwhhvkQ1IN4Dtq2C53GIhx30UN+07EAE5tpoY5N4uCAZioZs7UsM2nRD0YMYa0cHyTg54Y7k1H0mKM2BdD+hOJNQfY60/UH2IHgI+UJM4cYK8/KT+C+AHgmh+JMQfY609+1yCFAPCxA2mVvtwWgjG2y9NJK4ePIY0AcDOZtAtaJjABxnZZEGmXfBNSCQCPDpMAlaFqaMWoQytJgMOPIJ0A0PR3EsJzUAgaxIQM8iQhfm8qscORj91IiPLPVagXo/q8nIRweyy9y6En7pMg/5hiD40Y+yn/IEHun4D0AoBNMQnzwZJReAkzaskHJEyxjURvB69IJmH8BlZw4DHgKgb6kTDJK6R7PDp/Hwk1YloB/sIUTBtBQu3Lh3QDgOqIgoTyLooFAyC2yJuEUhxRSfx8/KxXSbgfo6Ng5aKifyThXp0FSDwA2LfyJeF817SEFWu5RqeP1coe0g8AaDGPdOFZ4g6r5F7iSbqY1wKQRQDAmVdJJ6++1QVWpstbun6jM4BsAoB9f1/STeXiPrAafRZXkm58+9tDJgHwc0BXhwd/Dyvw/eDDxBP++sssAOCMJ+lsXI6FN/B9zjjSmecZQE4B8HPAjXTXxKtTICxSYCevJqQ7t/72kGcAwNp33EgPyuqlN1WwKKqbS6uVpAe3d9YCsg0ASFkfRnoJy44+AQtxIjpb36+wPgWQdQBAwb/CSE971yyPgczFLF+zl/QU9q8CQPYBAIFLA0hfyupmy/IhU/nLmlUrSV8BSwMBiwgAiHmrMxkgL7fV7hrISs3uVrl5ZIDOb8UAFhMAUDU4mQzivPJhbRoHGeDSah+udCaDJA+uAiwqAGDCko1kKJ+EnH5VkLCqfjkJPmSojUsmABYXABCyYh0ZTlGePaZ2ugskxmV67ZjscgUZbt2KEMCyAuClBfuQcTRJbT/lXgwkIObelPapTcg4fILTAFhuAID/hmoynryZxy7NugOR3Jl16djMPDKe6g3+gKUGwGv59wgyqs7p4xf2D12dr4JZqPJXh/ZfOD69MxlVxN9bArCGAICqRpVkAsq4XlOvvn735xSYRMrPd1+/OrVXnJJMoLJRFWD5AfBmXbQjk4l4dVPRzrdO1dbF9nnfAwbweL9PbF3tqbd2Fm16NYJMxu7iLADWFQAw4dwniWQG3k5Bw7NLg9tEh54dfWb32/HtJrdO2lLVVAUeVE2rtiS1ntwu/u3dZ0afDY1uE1yaPTzIyZvMIPGTcxMAawqAF7PnMz8SjV3YK0579zq9EmZHovH7bE8MAKsLgFcw9rkzWSnn52MLAFhpALy1RycqyeooJx5dC4AF8F+/Re9SkBVR7Ir+DTwWAID3L0WGkVUIi7z0PgAWwEtUq0uqlWTRlNUlq1UAWACCNiflT/i+KwuAN7nRE1+yML5PGk0GjwWgheusFwsUZCEUC17McgXAAtBNytAXE91I5twmvhiaAp5sA3AlDVrB1NTuU7yClCRLyiCvKe5qmFor0sAVxsYpxbsUPGDIocg8kpW8yENDBoh3TVjJweiS6WU7YT7554N7eZMMePcKPp8P89lJL0uG8e2ll5XCvOxHvvkicoSSJEo5IvLFmyPtYV6l9LK9ML6v6GXrIAabb6+VDKz0IwnxqxxYcu1bG4hhHb3sKxhfW02TDuKx77M8Z+qPiSSyxB+n5izvYw/x5NHL2sL4upEGKRBZSNrZVsVPV2aR2WWtfFrc6mxaCESWQhp0g/EtJg3uQiJqJlfsGfx3fm/LlNtmfx+8p2JyDSTiLmmwGMbXiTQ4CKkpOFC3f/0XE1fOdSMjcpu7cuIX6/fXHSiA1BwkDTrB+LqQBmE2kCzV2rSuhaHRS4JLI4cHbfQmnXhvDBoeWRq8JDq0sGvaWhUkyyaMNOgC47P3Iw1+gFx4jPrfpc/Z2yv6Du30eMOi10+2arN0THBxcfCYpW1anXx90YbHnYb2rdg++3+XRkd5QC5+IA387GECQYb+2mDM9ds8CKZwjDRw84CIGA830uAYTKGQNFkBETErSJNCmIIqizRYBRExq0iDLBVMwos0UH4L0TDfKkkDL5hGBWkyEaJhJpImFTCNkDmkyVmIhDlLmswJgYk8JE3mu0IUjOt80uQhTGUIadQBomA6kEZDYCrqPNIk4A5EwNwJIE3y1DCZYtLICyJgvEijYpjOe6SRYjTMjhmtII3egwkNJ40CHsHMmEcBpNFwmNIQ0mxEFcyKqRpBmg2BSeWSZpPUMCNGPYk0y4VpfW1HmgXDjJhg0szua5jYEarHOZgNc47qcQSmFjWnvva6wkyYrnak2ZwomNwiqkdeF5gF0yWP6rEIpqdOp3pkfQkzYL7Monqkq2EGp6k+bqdhcsxpN6qPmb5/LtXHeyhMjBnqTfXJhXn08KH6OA+CSTGDnKk+Pj1E20TkKV6HCTGvK4gn3n5uCdWvDUyGaUP1K4H5cJFUv2J7mARjX0z1i+RgRgPGUf3+1homwLT+G9Vv3ACY1dc+VL/O52F0zPnOVD+fr2FmZ5TUgM0eMCrGYzM1QHkGZjeNGpL+CEbEPEqnhkyDCH6ihvhugNEwG3ypIT9BDB7DqEFFLjAKxqWIGjTMA6IIXEkNevdLGAHz5bvUoJWBEElVT2qQwisFBmJSvBTUoJ5VEE3NJmpY1iU1DMCoL2VRwzbVQESuzUmLBbOhN2b2AtKiuavIhf5OWigerIVemLUPFKTF72qIjGtG2vhEq6EzRh3tQ9o04yC+HNLq/j3oiLl3n7TKgSQ0UpBWmQegA+ZAJmmlaASJqPUj7XJ/hkDMz7mknV8tJKPiFRIguyUEYFpmkwCvVEBCkoaTEE/joQUT/5SEGJ4ESVEvVZAQ46ejAcz08SSEYqkaUvOLIwny5D3Ug3nvCQni+Ask6M4mEqbtNXu8hLG/1paE2XQHkmT7hjMJc3z9BfwfzIX1x0kY5zdsIVWxTUggRcJdNf7CqO8mKEigJrGQsMCnJFiTNqPAABjVpgkJ9jQQksZFh5FgfgMrOFg57peBfiRYWDQHqesRTjoYMS0QVixw2gjSQXgPyMGQw6QD78jbLrBKLrcjvUkHh4dAJlQ33EgXDs2X1cDK1Cxr7kC6cLuhgnz0mEq6cZjXqSmsRtNO8xxIN1N7QF5OV5KOfC9+4w8r4P/NRV/S0eHT4FncHOC5hZ+18Ab8z4bzn0WE11+qc4Bnt67DAQ4WiTvQYZ0d6W5qDzn/s62P40WDRsHCjBpUdJw0sPQtipG5pJ/0I2c8YCE8zhxJJ/3kjoTcHWiuIP04fHbSHbLnfvIzB9KPovkBWIJ28xSkL6eyQWkcZIpLG1TmRPpSzGsHS+F+UUH680kdXBgImQksHJzqQ/pTXHSHJekTriCDvNt7f7wKsqCK39/7XTKIIrwPLM33BxPJQA4Zlzu9Bkl7rdPlDAcyUOLB72GJ7rwxlwzn+Mk756a7QHJcpp975xNHMtzcN+7AUqnrEhRkFHMTLu+ZPQGSMGH2nssJc8koFAl1ali01mO6k9HETWo2NjYQogmMHdtsUhwZTfcxrWH5XEMzyKgct5WVjC3sEgWziepSOLakbJsjGVVGqCusRLuFYWR8AUEJm/9dO+SZB0zE49mQ2n9vTggKIOMLW9gO1sTlaDqZzJwFuX/++9KyftO3xtjCQLYxW6f3W3bp33/mLphDJpN+1AVWZ+T6+WRyCp/y6s+6FZdcP1cX225y66QtVU1VqJeqadWWpNaT28XWnbteUtzts+pyHwWZ3Pz1I2Gl4q/uJREkumU5zh0xbmX1lZmpqTOvVK8cN2KuY5ZbIolg79V4WDPuy/ZNyGo1af8lB6vHvf3rRrJCG399m8N/MbarjzmSVXE8ttoWPAa2u//0JCvh+eduNV7GdJyyyocsnM+qKR1RL0bdtc0VZ7JQzlfadFVDGyZq6ML5ZHHmLxwaBaGYrUczA8hiBGQe3QodMSH3WmU6kew5Zba6FwI9Ma8tv3zFgWTK4crl5a/BUIyq5aXeniQznr0vtVTBaJiYHTkJWSQLWQk5O2JgfAx34tqtTE9nkixnz8xb105wMCXG1f384lXjEklSEsetWnze3RXmwqgerVjS7StvEp33V92WrHikghgY9bO7h0rXjRClA+8R60oP3X2mhugYbm3Loa9fDc/4QEkmp/wgI/zq60NbruUgOUxIi3vLbuzM/c7RjozMzvG73J03lt1rEQI5YPx7dFl991zjkmMHE/Z5dncmnTl39/x/7dShDYQwAEBRErY40aBqqxEM0AoMAQwKiWcDRAVJFQ3BYUnAnz6NPlXBJswB+T9vhr+p41slv/+UF5+Inixu9T40nQnLuJ5p5npR+vqyUs2zkvaqfSl6l6XnOi7BdM2w65bDAwAAAAAAAHiNG8jFZrgKiD9tAAAAAElFTkSuQmCC;" parent="1" vertex="1">
                    <mxGeometry x="470" y="381.5" width="52" height="52" as="geometry"/>
                </mxCell>
                <mxCell id="7VhcuU38_8ilDAtrPy3k-29" value="Document" style="rounded=1;whiteSpace=wrap;html=1;fillColor=none;" parent="1" vertex="1">
                    <mxGeometry x="230" y="361.5" width="70" height="20" as="geometry"/>
                </mxCell>
                <mxCell id="7VhcuU38_8ilDAtrPy3k-30" value="Document" style="rounded=1;whiteSpace=wrap;html=1;fillColor=none;" parent="1" vertex="1">
                    <mxGeometry x="230" y="430" width="70" height="20" as="geometry"/>
                </mxCell>
                <mxCell id="7VhcuU38_8ilDAtrPy3k-42" value="" style="shape=image;verticalLabelPosition=bottom;labelBackgroundColor=default;verticalAlign=top;aspect=fixed;imageAspect=0;image=data:image/png,iVBORw0KGgoAAAANSUhEUgAAAgAAAAIACAYAAAD0eNT6AAAABHNCSVQICAgIfAhkiAAAAAlwSFlzAAAOAAAADgABsMRA8wAAABl0RVh0U29mdHdhcmUAd3d3Lmlua3NjYXBlLm9yZ5vuPBoAACAASURBVHic7d13uF1Vmfjx771pJCShd6mBBAS7iIUu6liw90J0VKwDOqOiP0dlZFQso4Nl7IrYsYNjQ6QMovTRgQEiKEjvkEJCSO79/fEmY4y5yb3n7P2uvc/+fp5nPTBjyLvWPmuv8569VxlifIaBRwNzgQcAmwJ3AjcAlwMXAKPj/LvUTTOBecDOq/59Y2A2sAkwA1gGLAIWA0uAe4DbgSuAmwrUV+2yA7A/sB2wPXAfcAtwLXAWsLBc1dQCw8AuxHfcJqvKLP4yVk3mL2PTXav+fTHwB+BqYHl6jSswtIH/fS7wT8Azga3X8+duBH4AfAS4ppKaqc3mAAcDDyf60Dxgxz7+vnuABUQy8L/AfwHnASv6qqXabhpwJPAy4JGMPZ4tB84APkeMU/5Y6baZwAHAY4E9+csYNa3Hv28F8CfgSmKMuoDob7f1XdNCNgP+g7hxRidQlgH/Rlxgdce2xCD8ZeIX10T6TK9lEfAT4C1EoqFueQEx6E603/wG2K9AfVXOFOAQ4DjgHCb+vdZLGQF+D/w78HRa9J24O/FYv5/G/x7YNbviSrUR8DzgVOB+cr7011euAY4nnj5ocE0iPud++sr9wBuyK650exN95WbKj09LgZOBw4nXCY30COL9RhUNvhV4YG71leAxxC/9hZS/qdZVRoAzgVfQ+yM9NdNkIuGsqq8cm1p7ZdgCeBtwKeXHorHKDcCHaNiPlW2B66i2oX8EtsxshGqzP9UOvhnlFmKQn1395VABH6fa/jECvCS1BarL1sS9fjflx53xlpXEmFr8FeYQcDb1NPLUxHaoWkPE+6vzKH+z9FNuBf4fJgJt9gLq6RtLiQlgaqedgU8Rn2PpcabXshL4PvEEvojnbqCC/ZbD8pqiiswFTqP8zVFluYOYNb6h1S9qlqnEUqu6+sX385qiikwFjqHdX/xrlxHgJNa/4q5yQ8TShTobdl5aa9SvGcSjtPsof0PUVc4GHlTR9VL9jqL+PvGotNaoX4fS/0T1Jpe7gKOJCa+12y+pUT5ma76nU/08kKaW5cREnI0quXKq0/nU3x9OSGuNerUt8D3Kjx1Z5XzgwZVcufV4f1Jj3lp3Q9SzKcRymRHKd/rscjGwR/+XUDXZnpx+eS2+GmqyQ4gN50qPF9llKfE0oDZ1Tf5bu5xSZyPUs52JzVFKd/SSZSHwon4vpGrxfPL6wc5JbdL4TSJeSa6g/DhRsnyP2IK/cnVOrlmzXFRH5dWXZ9OuZTN1l08Tk4vUHG8m7/N/bFKbND7bEFvqlh4XmlIWAA/p64quw5KkynugS7O8kVh+UrpTN638CpcLNskHyfvsn5PUJm3YrsQXXunxoGllEfDEPq7rXxkmZn1nyIqjDTsG+ATx+euvHUIkAalLcTSmzHFj48RYGts+xJ79zs35WzOJvXVeUMVf5hdAt0wCPkNM+NPYHkHMi9i9dEWkjjmI+PLfvnRFGmwq8HXgdf3+RSYA3TEMfBV4TemKtMRuxJkCu5SthtQZhwE/AzYpXZEWmESc2Pvmfv4SE4Du+Dec6T5ROwC/JCYjSarPI4kdGd2XY2L+jTj4rCcmAN3wLuBNpSvRUnOAHwOzSldEGlC74z3WqyHgs8BTevmPTQAG35HAe0tXouUeCfwIjxeWqrY9ceaIT9l6NwX4LvC4if6HJgCD7SDiPZH6dwjw76UrIQ2QqcAPcZ5NFaYTr1AmNHnSBGBwbQV8g6QDJTritXh+vFSVDwH7lq7EANmaCY75JgCDafWMf5fSVO8zeLCV1K+nEac8qloHAe8e7x82ARhM7wCeVLoSA2omcDLxyE3SxO0InIiHL9Xln4EnjOcPmgAMnocTh2eoPg/Gayz1Ygj4GrBF6YoMsGHgK4xjPwUTgMEyDHwSmFy6Ih3wj8CDSldCapkjgANLV6IDtgP+ZUN/yARgsLwaeEzpSnTEZOBT+BhTGq9NgA+UrkSHvBF42Pr+gL8UB8dWwPtLV2IcrgGuJE76uoE4jXL5qv9tM+Ikvj2AucBeNPt43gOIVQFfK10RqQU+QPwybbKFwOXEGHU1MT4tWvW/zSAOjNqJmAj8QGLcbapJxI+U/YGRsf5Q1jGG91TcOP21L1D+qMp1lcXEioSXMvFVCTOI/cE/APyxAW1ZV7kJdzCr0yfI+yyPSGpTFz2c5h4/fh5xQuqjmPiy6b2ANwA/BVY0oC3rKuvdKjirEiYA9dkNuJ/yHW3Ncgkwn5g1X4Uh4hf31xvY1mMqaqP+lgnAYPgR5e/TNctC4MPAnhW2cTvgbcD1DWjfmuWPrOdpf1YlTADq8xnKd7LV5WLgqdT7bnwO8CWa84viZnLPre8SE4D2ezDxCLr0fTpKPJF8D/G6sS7TiFNXb2hAezfYt7MqYAJQjx2AZZTvYHcTk04ydx7cD7io4nb0WtzUpB4mAO33Tcrfn6PA94g9CLLMBj5GM55YXs4Yk/6zKmACUI+PUb5znQ/sWndDxzCZWJNf+mnAdXhYUB1MANptDuXfjd8LvKruhq7HvjRjDtPz1lW5rOAmANXbhHikVbJTnUCcRlXak4k+VvJazK+9ld1jAtBun6bsPXkl1b7n79UWxKmHJa/F+euqWFZwE4DqvYpynWmE5u2Gtw9lJ+D8qv4mdo4JQHttBNxFufvxQuKAnKaYShzWU+p6jBJj5F/JCmwCUL2zKNeRXp/Qvl7sQUzKK3FNVgI719/ETjEBaK/nUW58+i3NXJ47DHyZctfl+LUrlBXYBKBaO1NuZu24T5sq5EGU++XxzoT2dYkJQHudSpl7cAHN+uW/tknEhMQS1+Z61pqonRXYBKBa76JMB/pqRuMq8BTKJEhXZDSuQ0wA2mlrYofP7PvvTmCX+pvXtxnA7ykzhh+2uhKeBdBeLygQ8wrgdQXi9uInxEYf2eYBDy0QV2qSZ5M/OXiU2PXumuS4vbiXGMMXF4j9/NX/YgLQTtsS+1BnWknse1+iw/bqncB/F4j7+AIxpSYpcQ98nthxsC0uB95aIO7/fTYmAO10KPmn0H2S2OWvTVYAR7KegzBqckhyPKlJhoCDk2PeQTvn33yOmLCYaTdWvSYxAWin7C+Y24ntM9voAvLnLRyIJ22qux4MbJkc8x3EONU2I8QuoqPJcQ8FE4C2OjQ53gm0exLnccTTgCyziN2/pC7Kfvx/HfCV5JhVuoA4TTDTIWAC0EY7EI9wsiwkHv+32dXAyckxD0yOJzXF/snxPkysOGiz9yXHOxBMANpo7+R43yYO+mm7zyXH2ys5ntQUmWPUMtqzNHl9ziWWBWbZEZhtAtA+85LjnZQcry5nA39KjNeE/celbFPIPRjsBwzGDxSAryXGGgL2MAFon8wE4Abg14nx6jQKfDcxXnaiJjXBHHLX/2e/2qvTt5Pj7WkC0D6ZXyynkz87tU6nJ8baFNgmMZ7UBJlPvlYS56EMij8Df0iMN9cEoH0yE4AzEmNlOIfcyUI+BVDXzE2MdQlx5scgyTxR1CcALZR5yMUlibEyLCE3w27ygSRSHRyf+pO5c+lWJgDtMgWYlhRrlNwvyyxXJsZq4nGkUp0y+3zmvZwls02uAmiZzJvrRuLAikGTmdTMTowlNcHMxFhXJcbKkjk+zTIBaJfMBGDQ3q2tltkunwCoazKT3kEco1LHJxOAdsn8QlmUGCtTZrtMANQ1mU8ABnGMupdY3ZDBVwAtMz0x1tLEWJmWJMbaODGW1AQzEmMtS4yVZZS8sXeGCUC7ZB4BPEjr/yUNnkEdo7LaNWQCIElSB5kASJLUQSYAkiR1kAmAJEkdZAIgSVIHmQBIktRBJgCSJHWQCYAkSR1kAiBJUgeZAEiS1EEmAJIkdZAJgCRJHWQCIElSB5kASJLUQSYAkiR1kAmAJEkdZAIgSVIHmQBIktRBJgCSJHWQCYAkSR1kAiBJUgeZAEiS1EEmAJIkdZAJgCRJHWQCIElSB5kAtMuKxFiTE2NlmpQYa2ViLKkJMvt85r2cKWvsXWEC0C6LE2PNTIyVaXZirIWJsaQmcIzqz2RgelKsRSYA7bIoMdYg3lwAsxJjZX5eUhNk9vnMezlL6vhkAtAumTfX9sBQYrws2yfGMgFQ12T2+e0SY2VJHZ9MANplCTCSFGsWsG1SrEzzEmOZAKhrMvt85r2cJXV8MgFol1Fy37HtlRgriwmAVJ/MeS97JsbKkjk+LTQBaJ9rE2M9LjFWht3IfcT2p8RYUhNkjk/7M3ivKfdPjHWNCUD7XJkY65DEWBkOTYw1AlyVGE9qgszxaRsG6ynlZHITgCtNANon8wZ7LLBpYry6PTkx1vXAvYnxpCbIHJ8g956u2wHkLlNeYALQPpk32DTgeYnx6rQZ8NTEeFckxpKa4mbg7sR4L02MVbeXJce7wgSgfbIz7PnJ8eryfCKhybIgMZbUJJl9/6HAQxLj1WUG8JzEeMtxDkArXUZ8eFkeB+yXGK8Ok4A3J8e8ODme1BSXJMf7p+R4dXg1uY///we3Am6lJcD5yTH/X3K8qj2P/DXDZyTHk5rizOR4LwZ2T45ZpanAPybHPB08DKitfpUc73DauyRwGvAvyTH/CFyTHFNqijOIPUuyTCL/Hq/SUcBOyTHPBBOAtsr+dTkEfAaYkhy3Cm8B5ibHPD05ntQktwD/mxzzxeQu863KdsC7kmOuAM4BE4C2+g2wNDnmPsSXaZvsSZnXFz7+V9dlP6UE+A9g4wJxe7X6h1Xmu3+A81i1S6kJQDvdR5kvmffSnlcB04GTidm1me4HfpkcU2qanxaIOQ/4dIG4vToaeHqBuH/12YwmlXvqbVPnvJC8z27Nch2wQ0L7+jEEnESZ63NqQvu65BPkfXZHJLWpCyYTewKUuAdfl9C+fh1A/JDLvjYjwC5rViQrsAlAtTYC7qLMDXYpsHn9TezZ8ZS5LqPEfgOqjglAe32UMvfgSuC5Ce3r1d7AnZS5NmeuXZmswCYA1fsCZTrRKHAusbte07yTctfkbuLVg6pjAtBeD6PcvbiU3J0/x+uBxDbhpa7Lq9auUFZgE4DqHUS5jjRKbEq0Y+2tHJ8h4MOUvR6fq72V3WMC0G6/p9z9uIJ1fOEV9CjgNspdj6Ws42yXrOAmANUbIpbblOpQo8ANRCJS0pbAf1L2OowC+9bd0A4yAWi3N1L2nhwBPkL5JcxHEl/AJa/FieuqWFZwE4B6HEHZTjVKZNrvIXa0ynYoMTGx9DX4Rd0N7SgTgHabTrnJgGuW3wB71NzWddkC+GYP9a26rCSWRf+NrAqYANRjMrHzXOkONgpcTt5mHNsBX09o03jLQfU2t7NMANrvbZS/P0eBZcRS5ox5OsPE64fbE9u3vvLtsSqaVQETgPq8lvIdbM1yDrF9cB22Jmb5L2lAO1eXc2tqq0wABsFMyr77XrvcAhwLbFJDW4eJse/iBrRzdRkBHj5WhbMqYQJQn2mUnVk6VrmI2Oxi6z7bN4XYMOM7RBZful1rlyf12T6NzQRgMBxL+ft07XInsXvgYypo3zzgOOIMkNLtWrucsr6KZ1XCBKBe8ynf0cYqK4gTDI8nvsjnsv5JOdsCBwNvIjbWuacBbRir/Hw97VD/TAAGwyxiwnDp+3WsciPwVeCVxGz9v5ktv4bpwEOIzdg+DVzZgPqPVZYTSw/HlFURE4B6DQFnU77DTaRj3gQsAC4kNhe6FljcgLqNtywj/6ChrjEBGBwvoPw9O5FyN3A18N/E08yrgVuJR+ql6zbe8qENfShZFTEBqN/exBdr6U7XlXLc+D4W9cEEYLD8lPL3bVfKdcT8izF5GNBguYwYMFW/PxOvNCSN31HEHviq35uIJ6pjMgEYPMcSywJVn1HgNcRKBEnj9wfg/aUr0QGnAN/b0B8yARg8i4h3bWbZ9fkw8LPSlZBa6l/xyOw6XU9MZtwgE4DBdCFwTOlKDKjzgXeVroTUYiPAS4kdAlWtFcTqhNvH84dNAAbXx4EflK7EgLmLeLqyvHRFpJa7BXgxsUWtqvNO4Nfj/cMmAINrlHgM9IfSFRkQK4GXERt9SOrfGcTrAFXjFOL15LiZAAy2u4hd6m4qXZEB8CbixEFJ1fkX4AulKzEAziOeqIxO5D8yARh8fyKSgLtKV6TF3gV8snQlpAE0SpxlssEZ6xrT/wJPoYdVSSYA3fA/wLOInes0MZ/Gx5RSnVa/Xju7dEVa6Abiy//OXv5jE4DuOAt4PiYBE3Ei8MbSlZA6YCnwDOJRtsbnBuAJxBbqPTEB6JZTgUOAO0pXpAU+TkyiHCldEakj7gYeT2wXrPW7GjgIuLyfv2SYCU4a6ENWHK3fb4mOc33pijTUKLGHwtH45d8EmeOGn3d5S4gTQ79UuiINdgFxhPHVVfxlt5FzMIHL0ZplV5p9jGWJch+xQYma41jyPv+/y2mSxmEI+Cjlx4SmlZ8AG/dxXf/G75MqflaVlVYlZgPfpHynbkK5lsiq1SyvIa8PPDipTRq/5xCvBkqPD6XLCHH42KT+Luff+l5SA75YdcVVmSOIR2+lO3mp8kNgs76voupwKDl94H4iIVbzzAUuofw4UarcQizlrsUrkxrx7LoaoEo8DFhA+c6eWZYB/0A8blQzTSH2sKi7L5ye1SD1ZDrwGcqPGdnlNGCbCq7fmLYhDhCosxFLgZl1NkKVmE68c11G+Y5fdzkT2LuKi6bafYv6+8Ob0lqjfhwMXEb58aPucicxETllpd6JNTfmYxmNUGX2II67LX0T1FFuJF55+Ku/PR5JvAOtc7D1FVB7TCG+HBdRfjypuowAJwFbVXa1xmFn6vvVtwjYOq8pqtALgT9S/qaootwLfATf87bVd6ivb/xjYjtUnV2B71JvcphZzgX2q/QKTcBbx1HBXsqrMxuhyg0DzyP2my59g/RSFgEnANtXfWGUaifgVqrvH+cB0xLboertTfxqvp/y400v5Rzg8MqvSg++SLUN8wCVwbE6EWjLbNw7iZPGtqjjYqiIxxF7NVTVR24CHpDaAtVpd+JkwSr7SF1lhDhd9LG1XIkebQScTDUN/DLxrkaDZ29iTerNlL+R1iwriFmzR1DxZhlqjGcDi+m/r1wLPCS57sqxKTEGnEbzXg9cQ4ydu9fV+H4NAf9MnNDUSwOX44zarphCPLr6FvGLu8QNdT/xCO0onGvSFQ8ljrnutc+chX2lK+YC7wUupdyX/p+BT9Gyjcb2Ip4GjDeDGln15+eWqKyKGyaeDBxJ9IM6d++6Gvgs8Upi04zGqXFmEGc2TCTxvJbon5XvpqZW2JoYMz5LvUsJbyXGwKOBR6S0rEfjWQr1IOKYxsOBfYgbb7UlwH8DPyZ2U7ui6gqqtaYAc4A9iaRw3qqyE7EnxPqWXS0hHvPeQmxOtIDoW1euKvfUVmu1zSbE2HQ4cCCw7Rr/2wri0KufEydhnkY8oZQg9sDZixif5hJj1RxgS2AWY08OXUFMLr6TeKR/5VrlWiIRaLxe1kLPJi7QrcQgLfVq5qoyg7/cVKufHEi9mEr80ltJJJCe8KdeTeGvf6wsJL7zlhWrkSRJkiRJkiRJkiRJkiRJkiRJkiRJkiRJkiRJkiRJkiRJkiRJkiRJkiRJkiRJkiRJkiRJkiRJkiRJkiRJkiRJkiRJkiRJkiRJkiRJkiRJkiRJkiRJkiRJkiRJkiRJkiRJkiRJkiRJkiRJkiRJkiRJkiRJkiRJkiRJkiRJkiRJkiRJkiRJkiRJkiRJkiRJkiRJkiRJkiRJkiRJkiRJkiSpd0OlK9CDLYF5wJ7AXGAXYHNg5qqyMbApMALcAywElgCLgduBq4ErgAWryqLU2qsNtgeeBjwR2BHYAZgE3AJcD5wNnEL0I2lN04DdiTFqHjFGbU2MSzOBzVb9+1RiTFpMjE93E2PRdfz1+HRdbvXVAlOBg4DDgYcQ/Wsb4DZijLoUOBU4A1hWqI6VmATsC7wN+BlwBzBacbkO+DbwWuKGVXftDfyQSB7H03fOBw4rUlM1xfbAS4AvEF/YK6h2fFoEnAMcBxwKbJTTLDXQDOAYxv89eA/wbiLxbI1NgVcDPyKy4qq/8DdUrgdOAp5JZFoafFOAE+h98P4x8RRKg28IOBD4FHA5+ePTUuBXxI+iB9TcVjXHocR3Uy995mbgKflVHr9JxC+pk4hHYtk31VjlLuCzwP6083WJNmxz4Jf031euIp4gaDDtRPz6uory49LqspJ4OnAkMKu+pquwI4Hl9NdXRoBjk+u9QVsSj7ZuofzNtKFyBfA64h2fBsN04Dyq6yO3A3NSW6A6DRFPAs+h/PizobIY+Dwx/0CD4w1U20+Oya3+um1NZCP3UP7GmWi5ZVXdN6n4mijXEPANqu8flwGzE9uh6g0TE6wuovx4M9GykpgA9vDKr4qyHQDcR/X94/DMRqxpG+DTxMzE0jdKv+U24B04KaetXkR9feOjie1QdYaAI2jWY/5eywjwA2CvSq+Qskyn93f+4/nuSv2RMkzcWLdX2IimlKuAJ1d3qZRgCvUO8vcBu6W1RlWYRzVzQZpWlhMTXJ0j0C5vp95+8d6shjwc+G3NjWlCORXYuaJrpnrNp/7+8Mm01qgfGxOv9Kp+1Nq0cj3xI0zNN5V6lryvWRYRfb/WRnyUeOdQuvNnlUXAq6q4eKrVj6i/L9yAK0ea7hDqe8za1PJDYIsqLp5q8yRy+sKz6mrATsC5SY1oYvkuThJsqunEzmsZ/eARSW3SxAwRs6Gr3rSnLeU64HF9X0XV5ePk9IMv1lH5ZwB3JjWgyeVK4KF9XktV70Hk9YFXJLVJ47c1sato6fGhdLmfePUx3NfVVB3OIqcPXFBlpYeADydVvC1lKfDifi6qKvdE8j7//5fUJo3PfsSuaKXHhSaVU6j5XbAmbAE5n/0NVVV4MvE4oXRnbmIZAd7a+6VVxV5C3md/QlKbtGGPJw4GKz0eNLGcD2zV+6VVxe4i53O/v4rHPzOISVV/X8HfNYiGgA8RXwZOCitvcmKsSYmxNLYXAz/FpXBj2Zd47LxT6YoIyBs3JvebAGwOnE7DDxpoiKOIpyR+KUh5jga+Ruz9oLHtBfwaeGDpiihPPwnADGLt+6MrqksXvAL4Ej4JkDK8Bvh3vN/G6wHEGfJ7lK6IcvSaAEwhlro9tsK6dMURxAFIkurzDOLIXk3M1sTrkm1KV0T16yUBGCJOnXL72969E3hz6UpIA+pg4Fv4uq1Xc4BfAJuWrojq1UsC8GFiK1X15yPA80tXQhowDyEmJXtIV38eDHyH3EmzSjbRBOC5wD/VUZEOGibmA3hal1SNmcC38TjmqhyGrysH2kQSgDnAF+qqSEdtDJxMTKiU1J/PEKf6qTrHUPD8eNVrvAnANCKzdn/76u0DfKx0JaSWey2xyZOqNQSciHsEDKTxJgAfwoNN6nQk8KLSlZBa6sGYRNdpc+CrOKly4IwnAXgs8A91V0R8EtiydCWklhkGPoeT/up2IPGURQNkQwnAJGItrRtp1G9z4P2lKyG1zGuIQ35Uv/cD25WuhKqzoQTgKDzSNtMrgceUroTUElvgLPVMs4EPlq6EqrO+NZ7bE+dFN9VK4CLgv4DLgSuI4w3vARYRTy9mEr+sdwbmEu8KD6a5M4WHiScu+xLtkzS2jxBJQFPdCPwK+G9ifLoauBNYsqpsRqwE2pYYn/YiXrk+BpheoL7j8VLiTJOzSldE9foS5Y+pXLusAP4TeCH9rUjYgZjXcEED2rSu8qo+2qb1m0/e5/jJpDZ10SOIo7ZL36trl6uA9wB79tG2jYAnERPvljSgTWuXS/C1cJ0yj61ep52B5YmV2FBZRGT720/kKo7TQ4BvEslF6XauLlfhDlx1mU/e52gCUJ/vUf4+XbOcATyB6r8YZwFvIZ4mlG7jmuVpFbdTf1E8AfhkYgXWV1YAHyfnMd884CfJ7VtfeWm9ze2s+eR9hiYA9Xgg8Yqs9D06SjzeP6De5gLxVOBtxI+h0m0eBX5Tb3M7rWgCsC2wNLECY5VLgIf3cPH69Wzg5h7qW3W5jP6Oa9a6zSfvMzQBqMdXKX9/LiUO9Mp+UrcjcEqfda+qPL7mtnZV0QTgQ4nBxyqfouy63m2B09dRr+zy7Lob2kHzyfv8TACqtxtwP2XvyyuJV4elDAFvAu6j7HX4Vd0N7ahiCcA0YpZqqQ51P/CKni9btSYBn6DsDXZ67a3snvnkfX4mANUr/QPlNOK9fBPsT9nxepR4HaNqFUsAnpsYeO1yL808dOKfKXdNVhKP/FSd+eR9fiYA1ZoEXE+5+/HbwNTaWzkxe1P2mnyg/iZ2TrEEoNS7pRXAs/q4YHU7lnI32Nvrb16nzCfvszMBqNaTKHcfnkJzV+bsDtxCmetyPZ4RULUiCcBWlFn6N0IMyk33GcrcYP+b0bgOmU/eZ2cCUK1Sk//OpvlnDexHuT0DDk1oX5cUSQCOSgy6Zvl4v1cryRTgXMpco0cmtK8r5pP3uZkAVGcWsJj8e+9GYJuE9lXh5ZQZn06sv2mdkpYArLnMrMT794uAtxaI24v7iSN77ywQu4lzI6RMhxLb5mYaAV5CPF5vgxOBrxSI+1RcstxKqz+0qcQe1JlWEIff3Jcctx/XAscUiHtIgZhSk5R4zPxpYoe/NjkKuCk55pbAg5JjqgKrE4DHADOSY58A/C45ZhW+RP4uWPuR/+tHapLsJPgW4F3JMauwkDI/UpwH0EKrE4Dsm+tu2nuM5wixN3emqeRsNyo10dbAPskxjwPuSo5Zla8Rr1czmQC00OoEIPvD+yRxbG9bnUv+o8GDk+NJTXEwuafP3UI86WurUeD9yTEPornLJDWG4VUlc5b5fbRn5v/6HJ8c79HJ8aSmeFRyvI8Te/232Q+JLYuzzKK/I5BVwDCwEzA9MeaPgdsS49Xll8B1ifHmJcaSmiTzi2WE2G+g7UaAk5JjOka1zDAwNznmINxcEDfYtSpmMQAAIABJREFU1xPjbQtskhhPaorMMep0chP7On2NGKeymAC0zDC52fV9wC8S49Xt1OR42cmaVNpUYNfEeNn3dJ3+TO5KKxOAlhkm90M7l/a/W1vT+cSymyzeYOqaOeROLhu0I24zTxR1fGqZYeJ87SxnJ8bKsILcPQHmJMaSmiBzfLqdwTt7I3PMdXxqmWFg08R4g3ZzAVyeGMs5AOqazPHpcmIJ3SDJHHMdn1pmmFi+kSVzWUqW7KU2Upc4PvXnGmBZUqwpwLSkWKrAMDAzMd6fE2NluTYx1uzEWFITOD71ZyVwQ2I8x6gWyX4CsCgxVpbMNvkEQF3j+NQ/xyitU+YTgGXEpLlBk7kKwJtLXWMC0L/MMconAC0yTKyzzbA8KU62zHZlfVZSU0xJjHV/YqxMjlFap+EN/xFJkjRoTAAkSeogEwBJkjrIBECSpA4yAZAkqYNMACRJ6iATAEmSOsgEQJKkDjIBkCSpg0wAJEnqIBMASZI6yARAkqQOMgGQJKmDTAAkSeogEwBJkjrIBECSpA4yAZAkqYNMACRJ6iATAEmSOsgEQJKkDjIBkCSpg0wAJEnqIBMASZI6yARAkqQOMgGQJKmDTAAkSeqgYeC+pFgbJcXJltmuZYmxpCbIGp8ApiXGyjQ9MdbSxFjq0zCwKCnW1FVl0MxOjJX1WUlNkdnnZyXGypTZLseoFslMAAA2SYyVxQRAqk9mn8+8lzNljruOUS2SnQDskhgry26JsRYmxpKaYHFirF0TY2WZCuyQGM8EoEWGyb3B5iXGypLZJm8udU1mnx/E8WkOMDkp1n3A8qRYqsAwcEdivAcnxsryoMRYdybGkpogs88/kLwvyyyOTxrTMHBVYryDEmNlmAE8KjHeHxJjSU2Q2ednAQ9PjJfhkMRYjk8tMwxcmRjvEcCmifHq9jhylw4tSIwlNcG15C5/PTQxVobM9mR+l6gC2QnAJOAZifHq9pzEWCOYYat7VgJXJ8Z7dmKsuu0NzE2MZwLQMtkJAMDLkuPVZSrw3MR41wH3JsaTmiJzjNoX2CcxXp3mJ8czAWiZYeAm4J7EmIcQM1Pb7jnAFonxrkiMJTXJ5cnxXp4crw7TgJcmxzQBaJnVZwGcmxzzbYnx6jAEvD05ZuZnJDXJb5LjvRbYMjlm1V4BbJcY71ZyJ5SrAqsTgDOS484HHpAcs0rPIH9J46+S40lNcTawIjHexsA/JMar2lTyf2SdAYwmx1SfSiUA04APJ8esyjTg+OSY9wLnJ8eUmmIRcGFyzLfQ3p0B30x+3f2B0kKrE4BLgLuSY78QOCw5ZhWOIX/HsLNxhy11W/YXzAzgo8kxq7Aj8K4CcU0AWmh1ArASOKtA/C8AmxeI26tHAv+vQNzsJzRS05S4B55J/kz6fkwCvkK8wsj0Z3z/30rDa/z7DwrE3xk4iZhU13SbAN+mzJnhPywQU2qSs4DbC8T9FLFFcBu8i9yd/1b7foGYqtjGxLu20QLlfQnt68cU4GeUuTa/Tmhfl8wn77P7ZFKbuuITlLkHrwK2TWhfP55JTJQscX0Gbfvk0haS99n9la8kBl67HNXHBavTMPB1yl2X19XfxE6ZT95nZwJQrUdR7j68kDgroIkOJbZLLnFdLk1oX9cUSwAOSwy8dhkhJtg1yWTgi5S7JveRu9lQF8wn7/MzAaje5ZS7Hy8Atqq/iRNyGLlfGGuXpo3Zg6BYAjBMbDlbqjONAh8hJrOUtgnwc8pei+/V3srumU/e52cCUL13UPaevALYrfZWjs8riNVBpa7FCtq9n0tTFUsAIDaQKHmDjQJnAtv3cOGq8nDi4J3S1+GAuhvaQfPJ+/xMAKq3BeXmKq0u9wAvqLuh67ERcMI66pVdvlV3QzuqaAIwC7gjsQJjlVuAl5C7QmAj4N2Ue5+2ZimxLLML5pP3GZoA1OOjlL8/R4nXg9lbBh8IXFZB3fstI+TvhtoVRRMAgPckVmBD5QzgERO7fhM2RMyibcKv/tXlibW2uLvmk/cZmgDUY3uakaSPEj+WXk/9y4N3IZZMjxRq59rlR7W2ttuKJwCbJVdiPOUnxBrXKp8ITANeBPyuAe1bs5xXYRv11+aT9zmaANTn05S/T9cs1wNvAjatuJ0PAr5M2Xf96yqPqrid+oviCQDE2vzSnWxd5U/AccB+xCz9iZpB/Lr+DHBnA9qzrvLUHtql8ZlP3udoAlCfXWnOU4A1y1LgZOC59L6CZ2/gn4gt2ku3Z13lpz22S+OTlgCs79f0TGLJTZNneS4kjsm9DFhAbEm5CFhMJAcziTkNc4j9+/chEoepJSo7Tj/BBKBO84ETk2J9CnhjUqwuOg7459KVWI8R4PfAxcCVxCvGhcDdxAz66cQYtQMxPs0DHkuzNx1aDjyEWA2heiykIXtOPJfy2WaXyjJg7rg+GfVqPnmfp08A6jUduJry922XStN3bR0EaU8A1jwLYF2+S/wiVY73E08yJG3YUuANpSvRIX8mxigNiA0lAABHE79MVa+rgQ+VroTUMj8DTildiY44ClhSuhKqzngSgKuI3bdUnxXAyzHRknpxJHBz6UoMuG/h0r+BM54EAGLXqRLHBXfFPwPnlK6E1FKrNw1bWboiA+oPRJKlATPeBGAU+HtiCZ6q9TPgw6UrIbXcr/AVWh2WAc8nVldpwIw3AYBYuvJCYhmIqnEzcaDHSOmKSAPg3cB/la7EgDkK+O/SlVA9JpIAAJyP65qrsoTYfth3l1I1VhCH9FxTuB6D4rPA50tXQvWZaAIA0SHeXXVFOuZ+4Hm45a9UtZuAJxDzAtS7U/DH3sDrJQGA2IHrhCor0iGjwGtwO02pLlcBTyN2BNXEnUU8SVlRuiKqV68JAMA/Entea2LeShzuIak+FwLPAO4rXZGW+R/gWbgkuRP6SQBGiKU3fpmNzyjwduDfSldE6ohfEU8CnME+PhcChwF3la6IcvSTAEA8Inol8JEK6jLIVgKvBj5YuiJSx/wSeDxwe+mKNNzpwKHAraUrojz9JgAQv2zfSpyFPVrB3zdo7iUeRX6xdEUE5C5jdclsM1wAHEjsZa+/9Q3gyfikpCmyxo3K48wnvvBKn1jVlHI98Oi+rqiqdgh5n/9bk9qk8dkRuIjy40JTygjwAWB9x8Ir36XkfP5/qqPyD0xsQJPL6TT7XO+umkdeH3hJUps0ftOIFUylx4fS5XbgqX1eS9XjNHL6wK/rasBM4GtJjWhaWQEcSzWvV1S9KcCd5PSFeUlt0sQ9k7x+0LRyPrBr/5dQNTmenH7w8bob8kpiC+HSHT6rXAUcUMmVU50yktMFaa1Rr+YQv4JKjxtZZTnwPmByFRdPtXkMOf3h8RmN2RY4iXjfVPoGqPPGOgHYuKJrpno9g/r7xHFprVE/hoAjiJ0DS48jdZazgX0qumaq1zBwLfX2h1uIp6FpDiQ2mSh9I1RdTgf2rPA6qX5DxMzwuvrEXcAWaa1RFTYjkvgVlB9Tqiw3EwmOE/3a5RXU2y/ekNeUv5hC7C9dd3aTUS4ADq/28ijRodTXN5z9316PBE6l/U8s7yaeQm1a7eVRkknA76mnbywApuY15W9NIbLSK6ingXWWc4gvfjPq9qtjss0v8B3rIHgQ8eqybU8EbiMmIW9W+RVRtj2pfg7dvcC+mY1Yn0nAi4kzvJuccd8H/IB4jaHBMQz8iOr6yeX4i2vQ7Al8juZPZr4MeDPOQxo0TyVOj62ij6wkTqFtpB2BY4jHE6VvptXlQuBoYOsa262yJgOfoP++8l/YTwbZRsSTv5OJSb+lx6ZR4A7gs8D+NbZb5T2B/pesLiKWvrbCY4nlKr+huuxnPGUJ8HMiEZlbeyvVJK8hBtSJ9pllxBkPqTNqVdQ2wOuA7xIb6mR+6V9KrN9+Kva5LplL/Mjopc/8Ftg7v8rVmE2c6PVR4gLcSjU30ggxGfEXwHuI9ftFJ0aouM2IeQHj6WOLga8Au5SoqBpjGHgocTz6D4knmFX9aLmHmGz8OeBFuLOoYgnzeYzvlflFwHNZz3y1tk5k24zYZW1PYDciSZi56p+brPr3lcQgvZhYlrWYeI+3ALhy1T/vza64WmES8DjiaNSdge2ILWSvB24k1lT/ElhaqoJqtCnEuLQX8cttC2JuyCxibJpJvKtfSHzJrx6nFhI/ShYQE6Rvyq64WmNH4OlEH9uR6GN3ADcQfecU4JpSlZMkSZIkSZIkSZIkSZIkSZIkSZIkSZIkSZIkSZIkSZIkSZIkSZIkSZIkSZIkSZIkSZIkSZIkSZIkSZIkSZIkSZIkSZIkSZIkSZIkSZIkSZIkSZIkSZIkSZIkSZIkSZIkSZIkSZIkSZIkSZIkSZIkSZIkSZIkSZIkSZIkSZIkSZIkSZIkSZIkSZIkSZIkSZIkSZIkSZIkSZIkSZIkSZKkRhqawJ+dDOwAbA9sBtwFXA/cCKysvmoaUJsAs4CNgZnApqv+uWRVWbzqn3cBi4AVZaqpFtoS2I4Yp+4DbgauI/qUNB4bEePRbGKsWj1OTSLGpUXA3Wv8+5Iy1azGhhKAycBzgGcBTyIG67XdAfwU+AHwQ2CkygqqtXYFHgbMW1X2XPXPdfWhsSwHrgauAK5cVS4DLsHEQGEf4CXA4cDe6/jfVwK/AU4FvgrclFc1NdjGwL78ZVxa/c+dgeEJ/D03EePTglX/vAK4CLityspmGwKeSzRmdALl98BTC9RX5W0DPA/4LPBHJtZvJloWA6cBxwCPYGI3rAbDrsQX+kom1m/eR/yyU7dMJsaKY4ixYxn1jlFXE2Ph84gn5q2xEfAV+mv854Gp2RVXuh2AtxGJX50304bK7cCngcfW21w1xFOAe+i9v/wZeHh6rZVtCvB04LvAvZQbn1YAvwJeQbz+bKwtgQuoptFnY6Y9iGYALwV+TnTskl/86yoLgHcDu9TUfpX1Vib2q3+ssohIJDR4Hgl8HLiV8uPR2mUJ8DXg74h5BY0xhchSqmzsz2hYI9WzWcDRxDuv0jfReMpK4r3vI+u4GCriecQco6r6yL3EY2ENhv2BX1J+7Blv+SMxpk6r42JM1Keop5Hvy2yEKrclcCwxK7/0DdNrOQ14dMXXRbkeBiyl+r7xJ1r2jlZ/ZYiYAHoe5ceZXsu1RCIwveJrM24PpprHausqy4Hd85qiimxEfPEvofwNUlX5T2BOhddIec6gvn7xocR2qDoHUn7+UZXlRuBlTGx5fiV+2mfFN1S+kdcUVeBQ4HLK3xB1lPuA44kER+3wNOrtE0uBHdNao35tTsywr/J1UJPK2cTy1hS7JTRoJbFMTM32AGLGbOkbIKP8gZiIo+b7CfX3h3entUa9GgZeT7tfR463LAc+SOxXUKs3JTVoft0NUV+eTmzqVLrjZ5eTKPjuTRs0k3re/a9dLshqkHqyFfU/qW5iuQJ4SAXXb0wZ2fUovgZoqsnEI/FBfZw2nnIRzlNpqqeS0wdGiAmvap6DgRsoP06UKkuJSYK1yHrXe25dDVDPdiI+l9IdvAllIfDC/i6navBG8vqASwKbZYjYua+J+42UKN9lYlupj8vdSZW/puqKqy/70syNMkqX4/u5qKrcv5L32R+e1CZt2DTgZMqPB00rlxJztSqTVfF7qqy0+vJ44hdv6c7c1PIpPF+gKT5B3uf+sqQ2af1mAr+g/DjQ1PInYG7PV3cNDnLd82JiMk2j96Qu7PXA93CpYNekr7/W39iWWAb3hNIVabBdiFe3fW9uZgLQLa8lTlCbUroiLfBMYithkwApx47Ar4ldH7V+WxBPSQ7o5y8xAeiOF+Kj7Yk6jHgPObl0RaQBtwVxwNhupSvSIrOAH9NHwuSXQTccCpyIn3cvDge+iI+HpbrMAE4B9ipdkRaaTRy6t0cv/7FfCINvX+BHNOTEqZY6AjiudCWkATSFWN722NIVabGtiXldE95t1wRgsO1IHIAzs3RFBsA7gVeWroQ0YD4NPLl0JQbAHOKH3tSJ/EcmAINrMvBNYgtNVeOTwENLV0IaEC/EpLpK+zHBky1NAAbX+4DHla7EgNmImBToEkqpP3sAnytdiQF0FPCs8f5hE4DB9GTgLaUrMaAcuKT+mEjXZwj4ErDreP6wCcDg2YY44c7Ptj4vxF3jpF59FF+l1WlT4OuM4zvAL4nB82E81SzDx/A6SxO1L/Ca0pXogMcAR27oD5kADJb9gZeWrkRHbIFLA6WJmAR8Fr93sryfWCI4Jnc4GxxTgM/Qjg1rlgNXATcCS1b93xCPrmYTB11sVqZqE3Ik8b7tgtIVkVrg9bRnm98bgauJ8WnRqv/fdGBjYOdVZVKZqo3bZsAHgVes7w9lnWDkaYD1eivlT6kaq9wAfJnYUGcO47txtgKeRBzPewEw0oB2rKtcgL9o6pR5GuARSW3qom3JO3p+ouU+4DTgHcSj8/FMTpwGPAT4B+D7xPdb6Xasq4ywgdVgWRUxAajPbOBOyne2Ncsy4uChw6jmC3J34F+A6xrQtrXLCypon9bNBGAwnED5+3TtcjHwRuJ1Xr+mEyet/pzm/Vg5e30Vz6qECUB93k75Tra6LCEmyO1QU1unEpuHXNWAtq4uv6Mdr17ayASg/bYmxoXS9+nqcjbwdzW296HEMscmJQIHjlXZrAqYANRjBnAL5TvYKHF87i61tvYvpgBHE+/nSrd7FHh6vc3tLBOA9jue8vfnKPFeP/MzfgRwfg3t6KX8fKxKZlXABKAeR1G+c90FPKfuho5hF+DcDdQvo5xXczu7ygSg3TajGe/HT6TMxkOTiHNE7p9AXesq+66rglnBTQCqN5ny78TPJ+9X/1imAB+h/A32+Lob2kEmAO32Tsrek/cCL6+7keNwIPEEouS1+P66KpYV3ASgek+jbIc6jWZt5/lyymba36i9hd1jAtBeQ8RSulL3413AAbW3cvx2Bq6g3PW4n3UcGZwV3ASget+iXGf6FvHLu2meS7kk4F5iRYaqYwLQXgdQbny6FXhQ/U2csC2BSyh3XY5eu0JZgU0AqrUJ8YVTohOdRqyDbaqXUm4G7t8ntK9LTADa6/OUuQeXEOv5m2or4ErKXJsL165MVmATgGq9mjId6GJiN6ymew9lrs+ZCW3rEhOAdppOmY1/VhIbiDXd7pTbu2Xv1ZVwB7P2ekmBmAuJTW+WFIg9UccBvygQ90BgxwJxpSZ5KvGUMtu/sp4lbw1yFfG0cLRA7P/77jABaKeZwGMLxH098IcCcXsxQhzZe1ty3CFi90Opy55YIOY5wHsLxO3VD4H/KBD3/z4bE4B2OoD8CXi/JM6YbpNbgWMKxD2kQEypSQ5NjrcCeAPxCqBN3kGclZLpoaw6bM0EoJ2yv2CWEzdXG50I/Do5pvsBqMt2Ig79yvTvwO+TY1ZhEfC25JiTgIPABKCtsrPrrwILkmNWZZSYEJhpe2BeckypKbLHpyXAh5JjVumbwKXJMQ8BE4A22oR4hJNlJXGmdJudDvwmOaavAdRVByfH+yz5c32qNAp8IDnmoWAC0Eb7EI9wsvyU9kz8W58TkuM9ODme1BSZfX+UWCradicDNyfG2xOYagLQPnsmxzspOV5dfkSsS87iKwB10RCwR2K8s4BrEuPVZQW5W4lPBuaYALTP3MRYC4kjfgfBMuAHifGyEzWpCXYklilnGaTzN7LbsqcJQPtkfrGcRXxxDorTEmNtj+cCqHuyE98Sm33V5WJy5zLMMwFon8wb7IzEWBlOJ3fnrcynNVITZL76uhq4NjFe3bK3EjcBaKEdEmOdlxgrw63AnxLjPSAxltQEjk/9+W1irAeYALTLMDAjMd6VibGyZO5nMCsxltQEmX3+isRYWTLH3FkmAO0yk5hlm+GOVWXQZN5gzgFQ12QmAG3dnGx9Mts02wSgXTJvrlsTY2XKnGTjEwB1TWafb/PmP2PJHHd9AtAymTfX4sRYmRYlxjIBUNdk9vnMeznLYvImKpsAtEzm+loTgP6ZAKhrNk6MtSQxVpaVwL1JsUwAWibz8xpJjJUps13eX+oax6j+ZbVr2AFKkqQOMgGQJKmDTAAkSeogEwBJkjrIBECSpA4yAZAkqYNMACRJ6iATAEmSOsgEQJKkDjIBkCSpg0wAJEnqIBMASZI6yARAkqQOMgGQJKmDTAAkSeogEwBJkjrIBECSpA4yAZAkqYNMACRJ6iATAEmSOsgEQJKkDjIBkCSpg0wAJEnqIBMASZI6yARAkqQOMgFol5HEWIPaN4YSY40mxpKaILPPZ97LmbLG3tFBHeQH1ZLEWDMSY2WamRhrcWIsqQkyx6iNE2NlGQamJ8VabALQLplfKLMSY2WanRhrUWIsqQky+3xmMp9lJnlPABaZALRL5s21ZWKsTFskxjIBUNc4RvUns00mAC2TeXNtDWyaGC/LvMRYCxNjSU2Q+ZRybmKsLJltWmgC0C4rgXsT43mD9cc5AOqazKQ3M5nPkjk++QSghW5OjPWoxFgZNgfmJMa7MTGW1ASZ49O+ibGyZI65N5kAtM+VibEOSYyV4RBylzcuSIwlNUHm+LQXsENivAwHJ8a60gSgfa5IjHUwMCUxXt2ekBjrduCOxHhSE2SOTwCPT45Xp33ITWhMAFoo81fl5sDfJcar0xTgOYnxMn8JSU1xLbAsMd6LEmPV7cXJ8UwAWij7i+VlyfHq8hRyl9hk/xKSmmAlcHVivCcyGK8BhshNZkaAP5gAtM+l5G63+Qxgx8R4dXlDcrzLkuNJTXFpYqxh4DWJ8erydGCXxHh/BO41AWif24D/TYw3FXhLYrw67Efu+3+AM5PjSU1xVnK8o4BNkmNW7Z3J8c6EwT3wZdD9Kjneq2n3U4D3Jse7A/hdckypKbLHp02Ao5NjVulw8pc0ngEmAG11ZnK86cDHkmNW5TnEe8JMZ5J7cqPUJFcCNyTHfDuwW3LMKkwH/j055igmAK12JvlfMM8Bnpocs1+zKZO4nFEgptQk2ffAdOATtO+I4HeSn7hcDtwEJgBtdSdwUYG4Xwa2LxC3V5+nzKuL0wrElJqkxD3wFGI+QFscQjy5yPZXn81oUrmn3jZ1zpvJ++zWLGfRjs2B3kCZ63NhRuM65BPkfXZHJLWpC2YT55Zk33/3AY9OaF+/tiO2Ci8xRu23ZkWygpoAVGtr4H7KdKBv0OynR0+j3LVp0y+QNjABaK9vUuYevA3YM6F9vZoNXEyZa7OANV6TNHkQ1/rdCvyiUOwXERNXmvi+7WDgZGBygdj3A98qEFdqopMKxd0S+CmwU6H467Mx8CPgYYXin0QkAv8nK/PwCUD1XkiZLHJ1OYlmvQ54BmUeO64up9bfxM7xCUB7TSYmm5W6H28EHlJ7K8dvc+DXlLseI8Cua1cqK7gJQPWmE4fOlOpQo8DPyN1id12GiM2KVlD2WmSeNdAVJgDt9kHK3pN3Ak+uvZUbtg+xPLLktTh9XRXLCm4CUI93U7ZTjQLXAQfU3dAxbAGcMo461l2uwFdqdTABaLftgaWUvTdHgOMp97TylcCSDdQxo6xzP5Ss4CYA9dgEuJvynWuEeCWwVb3N/T9DxIB9S41tmkiZX29zO8sEoP0+Tfn7c5T4BZ65JfjuxFyE0u0eBc4bq5JZFTABqM8HKN/BVpfbgGOAWTW1dYjYkOi8BrR1dfkjzZoLMUhMANpvF2A55e/TUeKHyneAh9bY3h2JfntfA9q7ujx9rMpmVcAEoD5b04xHTGuWO4j3f3tX1MbNiFO/Si2fWV8ZhNPImsoEYDCcSPn7dM0yAvwn8GxgWgXtGwYOWtXOJn3xjxLnkoy5YiurEiYA9WrSU4C1y8XA+4HDiGUw4zEJeBBxyMepwLIGtGNd5Q9UM4Bo3UwABsMcys8FGKvcQby+fDkTO5J3K2Li76eAaxrQjrHK4WM1YGjVH8iwkPYf2dhkGxPHBDdx7euaRolJgwuAm4HFRHK4EfHaYAtisNiDdnyx/h3w89KVGGCfAN6YFGs+5daud8GxwHtKV2IcFhLj07VEcrCYWGG0KbGJzwOAeeTNd+rHqazn8T/kZSE+AajfsyifbXapfGd8H4v64BOAwTGN8kvhulTuZQMHDblsabD8APhx6Up0xL3E3gOSxuc+3Co70/uICcpjMgEYPG8iJgSqXu8mHhFKGr+fA98tXYkOuAL4yIb+kAnA4LmavHemXXUGcRaCpIk7kpg0p3osA15MPHFZLxOAwXQi8JXSlRhQtxA318rSFZFa6i7gBcTeAKrem4BLxvMHTQAG1xuIVQGqzgjwUmL1gqTenQ+8q3QlBtB3gM+O9w+bAAyuJUSW7XyA6hwL/LJ0JaQB8WFiMx5V4w/AqybyH5gADLZLgWfio7YqfB3419KVkAbIKPAi4KLSFRkAtxEb/iycyH9kAjD4fgn8PfH4Wr35T2KXsNHC9ZAGzSJiM60rS1ekxXq+hiYA3fB1YktdTdz5xKuUFaUrIg2o24EnAzeVrkgLLQeeS2y3PmEmAN3xSeJwHo3fpcBTcB6FVLc/EUnAnaUr0iIriEnJv+j1LzAB6Ja3E0tEfJS9YecBhxB7gUuq3++A/YmzQrR+9xLzu/rajtwEoHtOIN5n+0h7bD8GDiUeTUrKcznwaOB/Slekwe4CnkQFKyiGmeCswT54GFBznEScg720dEUaaPW1ubd0RQTkjU8AdyfG0thuBA4Cfl26Ig10E3AwcE4Vf9kweRMvbkiKo/E5lbjJ/lS6Ig1xP/BW4unI/WWrojVkTgy7MTGW1u8u4InErqYKZwOPBH5f5V96GjlHE3p0ajPNBr5N+aMrS5Y/A4/r90KqFs8grx9sm9QmTczLiKVupceJUmWEeHU7pd8LuS5vT2rEa+qovCpzJHGIROnOnl1OATav4PqpHpsSh5rU3Q8q/VWlys0jJgmWHi+yy63EGv/a7JnQiBFghzoboUo8FPgt5Tt9RrkdeDUwVMmVU51+Sf2152JdAAACRUlEQVT94bi01qhX04mlzMspP35klG+S9FTqnJob8uOMRqgSQ8ARROZZ+gaoo4wQE/22quqCqXYvot4+sRzYI6016tdc4OeUH0vqKguIWf5pHk0MjHU0ZiXxy1LtsiXwBeLzK31DVFUuBh5T5UVSiiHgQurrF5/Ka4oqMgS8hJi4WXpcqaosBt4BTK3wOo3bNyZY2fGW/8hshCo3hzhe8n7K3yC9lt8RTzUmVXxtlOdA6umDtwDbJLZD1ZpGzF/6M+XHmV7LImKS33YVX5sJmQ5cQLUN+zXxAan9diE66VLK3zAT6X+H43v+QXE01faP5cSaarXfVCLJv5Ly4854yz3A8TRoEvJOxJnCVTTufzCzHkTbEytHLqP8DbSuchfxxMJlfYPp36juy/8lyXVX/SYTW+R+n5zVIxMtI8BZwCuBmTVdg75sTv+zbn8CbJJdcaXbm8hgb6bsTbWC2M/iCGBGrS1WE7ya/maC306c86DBtikxJpxGfXPcxluuIcbKOXU2uCqTgTcQ78cm0sjriczGMwa6ZRLwCOIR7cnElqp131BXE7/0nwdsVn8T1TAPY+I/VFYAX8QlyV20DTFWfJYYO+oen24jdls9hhgbG/kackOVmkV8oT+TOKVpXZOoVhCPNL5PbNvoHuqaCjyKWP2xJ7FsZy7ximmiN8LdxLKYK4j3e5cD/4UH9SgcRjzKfxqxcmVd/gj8iPjyvyypXmq2XYkVQXsRmwytHqOmT/DvuZ/YTn31+LQAOJ94BT5aVWXr8v8BhWoYUQTexGEAAAAASUVORK5CYII=;" parent="1" vertex="1">
                    <mxGeometry x="486" y="300" width="20" height="20" as="geometry"/>
                </mxCell>
                <mxCell id="7VhcuU38_8ilDAtrPy3k-48" value="" style="endArrow=classic;html=1;rounded=0;" parent="1" edge="1">
                    <mxGeometry width="50" height="50" relative="1" as="geometry">
                        <mxPoint x="496" y="330" as="sourcePoint"/>
                        <mxPoint x="496" y="370" as="targetPoint"/>
                    </mxGeometry>
                </mxCell>
                <mxCell id="7VhcuU38_8ilDAtrPy3k-49" value="" style="endArrow=classic;html=1;rounded=1;edgeStyle=orthogonalEdgeStyle;curved=0;strokeColor=default;" parent="1" edge="1">
                    <mxGeometry width="50" height="50" relative="1" as="geometry">
                        <mxPoint x="550" y="250" as="sourcePoint"/>
                        <mxPoint x="500" y="290" as="targetPoint"/>
                        <Array as="points">
                            <mxPoint x="500" y="250"/>
                        </Array>
                    </mxGeometry>
                </mxCell>
                <mxCell id="7VhcuU38_8ilDAtrPy3k-53" value="" style="shape=image;verticalLabelPosition=bottom;labelBackgroundColor=default;verticalAlign=top;aspect=fixed;imageAspect=0;image=data:image/png,iVBORw0KGgoAAAANSUhEUgAAAgAAAAIACAYAAAD0eNT6AAAABHNCSVQICAgIfAhkiAAAAAlwSFlzAAAN1wAADdcBQiibeAAAABl0RVh0U29mdHdhcmUAd3d3Lmlua3NjYXBlLm9yZ5vuPBoAACAASURBVHic7N15vK5T+cfxz9dwMkaRORTKrDKEKKWERKZCpZLKUNL0U1RKk+YiFEUhIg1CyhwyRBEayBRCxkyZz/f3x7p3dqfjnL2fte7pea736/W89knnXmtx9tnrutdwXbJNCCGEEEbLLG0PIIQQQgjNiwAghBBCGEERAIQQQggjKAKAEEIIYQRFABBCCCGMoAgAQgghhBEUAUAIIYQwgiIACCGEEEZQBAAhhBDCCIoAIIQQQhhBEQCEEEIIIygCgBBCCGEERQAQQgghjKAIAEIIIYQRFAFACCGEMIIiAAghhBBGUAQAIYQQwgiKACCEEEIYQREAhBBCCCMoAoAQQghhBEUAEEIIIYygCABCCCGEERQBQAghhDCCIgAIIYQQRlAEACGEEMIIigAghBBCGEERAIQQQggjKAKAEEIIYQRFABBCCCGMoAgAQgghhBEUAUAIIYQwgmZrewChWZLmABYBFp3BZxHgYeC2mXzutO2G/xVC6D1J8wKLA0tUX8d/5gJmrT6zjfv1tP977NePAncD91RfZ/Tru20/3MS/Y+g+xc/v4SZpCvAK4HXVZ9mCzT8GnA+cDJxi+5qCbYfQa5IWBtYCVgeW5r8n/HnbGxk3A3+qPn8e+2r7gRbHFFoQAcAQkrQosClpwn8NME9DXV8LnEIKCM61/VhD/YbQKknzkCb6tcZ9lmx1UJN3E08FBH8C/ghcbntqq6MKtYkAYEhIWhnYFtgMeDGgdkfEg8DppIDg+Hi7CMNE0mKkIHsd0mS/IsN5puou4DTgVOA023e0PJ5QUAQAPSdpeWA/YBvan/Sfzt3AF4Fvxf5j6CtJKwFbVJ816e7ft7oY+AMpGPgVcJHtJ9sdUsgRAUBPSXoe8CngzaSDQH1wO/A54NDYHghdJ2lW4GU8Nekv0+6IOudfpFW+k4ETbP+75fGESYoAoGckLQ58HHgnMHvLwxnUTcBngO/bfqLtwYQwnqS1gHeTJv0FWx5OX9wHHAl82/af2x5MmJgIAHpC0nOAjwK7AXO0PJxSriWtYhwbB41CmyTNDWwP7Aq8pOXh9N15wCHAT2Klr9siAOgBSVsDhwPPbHssNbkI2Nb2LW0PJIwWSSsCuwA7AvO1PJxhcydwBPAd29e3PZjwvyIA6LBqD3J/4MNtj6UBdwLb2T6r7YGE4SZJwJbAHqQcGaFeBn4NfNL2JW0PJjwlAoCOqpKI/AjYoOWhNOlJYG/bX2p7IGH4jJv49wVWbXk4o8jA0cDHbP+j7cGECAA6SdK6wI+BxdoeS0t+Crw9cgeEEqqJ/w2kiX+1locT4N/Al4Avx82BdkUA0DGS3gd8lf6e8C/lamCrOFEcckgam/hf1PZYwv+4hXSw+ZioKdKOCAA6QtKcwPdIJ5FD8iDwDtsntD2Q0C+SVgMOIt3jD932O2BP2xe2PZBREwFAB0iaBfgJaZky/LcngS1tn9T2QEL3SZqflGNiV/qTICsk3yEFAo+0PZBREQFAB0j6JulEcpNuAs4lLbXfRTqFP/b1buAZpCQozxn3dWFSCtR1SCVLm/IQsIHtSxvsM/RItc//DtKtmee0PJyJepS0DH4TqULf2OcfpHLcTwCPj/v6+HT+2ezAsybweS6wHN3fWrycdCX42rYHMgoiAGiZpA8AX2ugq+uBs0iT/rm2/z5oQ5JmJ1U+ewXw8urr3CUGOQP/BNa2fWPN/YSeqdJiH0U3l/sfBS4hLXP/nf+e7O9scu9b0mykdMYrTPNZnuYqhk7E/cDOtn/c9kCGXQQALaoS/BxPfVXEHgd+Dhxs+5ya+kDSvMBbScuuK9fVD/BXYF3b99bYR+gRSdsD36Y7SbIeAC4gZcM7F7ikD0vakp5LyoD4amBDUmDQtm8BH4psgvWJAKAlktYhvZHXkdb3H8ChwGG2b6uh/aclaX1SILA1MKWGLs4FNrL9aA1th56QNA9pgnhby0O5k6cm+/OAPw5Dhbyq3PGreSogaOtK8qWkLYEbW+p/qEUA0AJJywIXUr7QyMOkantfbjtqlvR80g/oTWpo/kfADnF1aDRJWgM4Fli2pSHcTzq0ezRwzijUsZC0ArARKWVy07US/gW8zfYvGu536EUA0DBJzwYupvwPr18Bu3ct57akbYBvUv4N4vO29yncZuiw6qDfR4DP0vxhtseBU0mT/kl9WNavi6QXA+8CdqC5+glTSecCjmiov5EQAUDDJB1MWiIv5Tbg/V0+MFOdEfgM8D7KnXeYCqxu+/JC7YWOkrQUsBbwHtJydFMM/Bb4IXC87Xsa7LvzJM0FvBHYmWYOYE4F3mn7+w30NRIiAGiQpJVJ11xK3U++BNjc9u2F2quVpC2AYyh3hfA3tjco1FboAEnzkSb7tYCXVl8XbngYj5O+T78UmSgnptoi2B14N/WuzkwFdrL9gxr7GBkRADRI0hmUe4M5AdjR9sOF2muEpNWBk4BFCzW5bWQK7LfqTXIL0k2SjWgvgc9DwGHA12zf3NIYek3SMsDnSSsDdZlKyhB6ZI19jIQIABpSvf3+vFBzXwD26eshOElLAKdQpiLbjcAKo7wn21eSViKVut4amLfFodwNHAgcGMv8ZUh6KfBlYP2auphKKhh2VE3tj4QIABogaQrwJ8oc/Huv7YMKtNOq6lzAr0lZBXPtY/vzBdoJDZD0AuBTwJuoLwfGRNxPOlB4UFSlq0f14rM/KdlQaVNJtwOOrqHtkRABQAMkfYRU/jLX121/sEA7nSBpIdKNiKUzm3oQeEHTOQ/C5FQrP/uRrpK1mad/KnA4KXC8o8VxjIQqA+F7SYHAMwo3/ySwfZcPQXdZBAA1qya5v5GfqewU0oG/obpzXB2MvID8JeAf2H57/ohCHSRtSkrX++yWh3IuqeDMZS2PY+RU1wePp/wV6AeBNWxfXbjdodfm8tuo+Az5k/+VpCh3qCZ/ANtXkUog5/677VgdMAwdImlWSZ8DTqbdyf9W4E22XxGTfzuq/+4vISVxKmke4PiqpHqYhAgAalSdbn5LZjP3A6+3/UCBIXWS7VOAj2c2I9J95NARkhYGTgf2Jv35tOVYYGXbx7c4hgDYfsD2DqTrgiVvMK1KSjgWJiECgHq9jvw77/vmVO7rkS+TDkrm2EpS1IDvAEkvBy4DXtniMO4G3mh7hygg1S22DyPlefhrwWbfJWmHgu0NvQgA6rVt5vNXkvLpDz3bT5ASieRYiFSaOLSoKnF9FuVyPQziDNJbfxwO6yjbVwJrkw4Cl/Kd6pZJmIAIAGpSLf+/LrOZ3auJsVHVvm3jS7a2f0NKu5ojN+gKGSS9F/ga7Z7y/xKwcV8yZI4y2/eRkj9dVKjJsfMAdVRZHTpxC6AmkrYlnXgd1JG2s0udVldwlgKWGfdZlPQXZe7q67SfZ5DyoD9EOmE79nX85z7g78B1Yx/bdxYY7yLA1Qx+cPIOYLFhKMnaN5LeSNpvb+vF4iFShrh46+8ZSc8kFTQrkRcE4Du2dynU1tCKAKAmko5n8LdRA8vZvm4S/U0hnbBdB3ghT032S9Lc29gDwPU8FRRcAfzW9g2TaUTSl0hV3wa1oe2zMp4PkyRpQ+CXwJSWhnAxafL/S0v9h0xVcrBfAesWanKLKCE8YxEA1KBa/r+TwQ8AzrTIjaRnkf6ivAxYD1gT6Oqy162kqmpjn8tntLUhaXkg5wf5t22XrLgYZqBK8HMlMH8L3f8d+AZwwDBekx01VRBwKmWqC15NOgfS+DZqX0QAUIMCy/9vn7balaTZgVcDm5Pya69Iu1ercjwE/I50UOwn03trk3Qh6YDQIGIboCHVWZHTSN+bdbqFdEvk2urzF+D3tu+qud/QMEnzAOcDqxVobjfbhxRoZyhFAFADSceQktsM4gFgEdv/rg6ybARsA7yedt6wmvBnUnXDE6qTwUh6F3BoRpuvsH1uicGFpyfp/aQ38NJMyhB5MnDK2PdFGA2SlgN+T36G0H8Cy9p+MH9UwycCgBpIuhoY9CrKscBPSJP+62i3SlobriEFA6eRlgIHze71QdtfLzaq8D+qGvB/oOzWk4GfAp+OSX+0SdoeOKZAU/vZ3rdAO0MnAoDCqnSUDxJXLNt2hO2d2h7EMJN0NrBBoeZi4g//Q9KhwLsym3mItAoQ10KnEZNUeSsS/127YJW2BzDMqkx/GxRq7lHgzba3ick/TGMP0m2iHHMDny4wlqETE1V5K7c9gADAipLi+7s+nyrUzr3ARrZLF4gJQ8D2I8AbSauqOd5ZbVmFceIHZHmlS12GwcxFu6loh5ak9SmT4/8GYN04rBlmpCrzu0dmM7MC+xcYzlCJAKC8YT2p30fxZ1GPEgeqLgHWtl2yGEwYXt8n3QrIsbmklQqMZWhEAFDefG0PIPxH/FkUVl3P2jCzmX+RSlzfUWBIYQQ4nVbfq0BTcTB4nAgAyotJpzviz6K8EsWW9rH9zwLthBFi+0zS9eAcb6mSqgUiAKhDTDrdEX8W5eUGAJcA3y4xkDCS9iJdGR3UQsBmhcbSexEAFCJpFkn/R7lqVm16kry/ZF2xr6SXtD2IYVEt/78oo4mpwC6Rsz8Myvbl5CcHim2ASiQCKkDSc4EjKXcvurQngBtJWfbGPrfzVGnfB8b9+kHbj1Q53ucmZSIcXyp4XlKp3ucBy5EyHr4AeE5z/zqT8jjwSeBLMfHkkbQ38LmMJg60nXuaO4w4Sc8D/srglSefBJ5r+7Zyo+qnCAAyVekqD6Y7J87vBs4j5VH/K2myv97243V2Kml+ngoIVgFeDqwBdGW/7VxgR9t/b3sgfSXpD8CLB3z8MWBh2/8qOKQwoiQdBOyW0cTHbI/8tcAIAAYkaT7SxL9Dy0O5kzS5nQP8BrjKHflDlTQ3qWTxK6rPWrRXLx7gPmB32z9scQy9VJW4foDBtw1Pt71RwSGFESZpVeCPGU1cY/uFpcbTVxEADKBKg3oUsGRLQ7iCtA92ku0/tzSGSavqJLyMdJBsG+DZLQ3lR8Cu8TY6cZJeClyU0cQetg8sNZ4QJF0KrJ7RxPq2zy81nj6KQ4CTIGl2SV8Azqb5yf864LPASrZXs/3FPk3+ALYftn2G7fcAiwCbkybjfzc8lO2AKyRt0HC/fZZz+A/gpCKjCOEph2c+/7Yio+ixWAGYIElLACcCTZ4qvxs4GjjG9u8a7LdR1VbBFsBbgI0BNdT1VOBztj/ZUH+9JenbwHsGfPwq21GcKRRVnTu6jcHLUf/d9tLlRtQ/sQIwAVURiQtobvK/AXgfsKTtPYd58gew/ZDtY2xvCqwAHEaqEFe3WYBPSDpC0mwN9NdnOSsA8fYfiqu28H6W0cRSkpYqNZ4+igBgJiStTTpV/9wGursUeBOwnO1v2W56abx1tq+2/W5gKdKVs3sa6PbtwM+qMwphGlVVxZw3+AgAQl2OyHz+FUVG0VMRAMyApE2AM4EFau7qV8CrbK9p+3jbT9bcX+fZ/qftj5POWuwB1H19bzPgDEnPqrmfPlqKVF1xUFeWGkgI0zgTuCnj+ZeXGkgfRQDwNCS9FfgFeT/4ZuZPwGtsb2L77Br76a1qe+BAYHngE9R7YHBd4LzqvEd4Sk6Oi4dt59ZyD2G6quReP85oIlYAwn+T9CHgB0Bd+8L3kt5qX2T7jJr6GCq2H7H9WVIgcFyNXa0E/FbS8jX20Tc5NRXuLDaKEKbvnIxnl5W0WKmB9E0EAOMo+TLwFeo5if4kqRDKcrYPtP1EDX0MNds3296OFLnnJAKZkSWB86u77yECgNBt55Nu9AxqZLcBIgCoVKfAvw98uKYuLgFWt72r7btr6mNk2D6XdCtjd+ChGrpYADhL0sY1tN03z8x4NgKAUKvqNkDOy8DIbgNEAPCUg4Eda2h3KvAF4GW263pjHUm2p9o+mJSf/tIaupiLdDtg3Rra7pNYAQhd95uMZ2MFYJRJ2gt4Vw1N3wJsaHvvuovxjDLbfyMd4NufvKXA6ZkDOFHSsoXb7ZMIAELXnZPx7IqSulrNtFYjHwBIeiPpDb20E4BVbZ9TQ9thGrYft/0x4NWkwKukBYFfSqr7OmhXdXoLQNLykt4raT9Jh0jaRdIidfcbOuU8ICet7aqlBtInIx0AVEu7P6Dsgb+HgXfa3tb2vQXbDRNQXadcjbwMYdOzHPBzSc8o3G4f5Pz9KL0i8x+SlpJ0BHAVcCDpmuguwCHAPyT9StJCdfUfusP2PeTlm3heqbH0ycgGANWS7okMnkd6eu4AXmk7t0hFyFD9MNga+GLhptcDjpDUVK2CrsjJvVBLHo0qPfcVpCyOs07nt8wCvBb4XVU6Ngy/nMp+zy82ih4ZyQCgWsr9JWlpt5SrgXVsX1ywzTAgJx8lFbAped1ye1JVxlHycMazcxcbRaX6+3syE9uaWIp0pXPt0uMInXN1xrMRAIyCagn356Ql3VLOJU3+1xdsMxRg+1Dg9cADBZvdW9JOBdvrupwAoI4VgG8yuR/Y8wKnSsotaRy67bqMZyMAGHbV0u0RpKXcUo4hpfON/f6Osv0rYH3gHwWb/Y6kVxdsr8tytgCKrgBUAfwWAzw6P3BatXUQhlPOC1gEACPgQ6Ql3FK+CrzF9mMF2ww1qHIwrA1cU6jJ2YAfj0jdgC5tAbwGmGfAZ59DKvi0TMHxhO64gcFvAiwgKee2Sy+NTABQ5Xb/TMEmv2X7w7Zzrp6EBtm+BdgQuLFQk/MDhxVqq8u6dAgw97T2YsCZkpoo7x0aZPsR4NaMJkZuFWAkAoCqnvkRlDvxfzipmE/omSoIeBXltgM2lvSOQm11VZdWAO4o0MZSpJWAhQu0FbolzgFMwkgEAMAHScu/JRwLvCve/PvL9g2klYASkwnA1yUtXqitLurSCsA/C7XzAuBsSS8o1F7ohjgHMAlDHwBIeiHllv5/DuxY1aAOPWb7atJ+8j0FmpuP4d4K6NIKwIXATYXaWgH4vaQ3F2ovtC9nBWDkkgENdQBQeOn/DOBNUcJ3eNi+AtiYMtUENxnirYDOrADYfhT4dMEm5wGOlnSYpDkLthvacWPGsyOXNXKoAwDgA8A6Bdq5kTT5x2n/IWP7EsoVghrWrYAurQBASt/9h8Jt7gxcXB0WDv2Vk+9jSrFR9MTQBgDV3l6JjG2PAFtX6WXDELJ9LCmXfK75gEMLtNM1nckDAGD7SWBT8pZ7p2cV4FJJby3cbmhOTrA6cnU+hjIAKLz0v7vt0m8boXs+BFxQoJ1NJb29QDtd8mDGs3NKml6u/iy2/wlsBNxeuOm5gSMlHStpqcJth/pFADAJQxkAkPK/r1ugne9GYZ/RYPtxYFvKnDL/uqRnFWinE2w/yOBLqyLdvS+uSr39WuC+GprfDrha0lclPbuG9kM9IgCYhKELAKpUofsUaOr3wHsLtBN6wvatwJuAJzObmp909XSY5ORNWLLYKKZRHeR8PXk/+J/OM0h/jtdJ2ktSycqhoR453wdxBmAI7AzkHsR6CNi2OnEcRojt31DmlPkew7QKQEcDAADb55ECt7pu6MwP7A/8TdI7qi3G0E2xAjAJQ/WNXL39f7RAU5+oksWE0bQ/cFVmG88k3UIZFrdkPFv7Xrrtk0jBf50JupYgZQG9UtKukuarsa8wmJwDqxEA9Nw7SX9Jc1wCHFBgLKGnqvMA7wJyEz69f4hWATq7AjDG9g9Ie/d1bAeMtyJwMHCbpB9IWr/m/sLExQrAJAxNACBpCvCxzGaeIKX5zd0DDj1n+yLgoMxmngnsWWA4XdD5AADA9vHAK4DbGuhuTmBH4FxJf5X0EUkjl0ymY+IMwCRoWFLaS9qVFJXn2N92bhARhoSkeYE/ATmV4+4Dlrb9rzKjaoekzYETB3z8SturlhzPzFRlmk8CXtRkv8DjwKnAr4DTbV/bcP+dVF0FXQF4Cenv07NJ17TPB06zfXfBfgY9C3Kv7ZG68TEUAUD19n8teT+orwVWqUpKhgCApM1IE0mO/WzvW2I8bZG0OnDpgI/fZ3v+kuOZCElzA0cDb2i673H+DpxOSiV+pu27WhxLI6qfx6sALyZN+C8BViWtmEzPVODbwIdyf/5W5zIGDbb/bbuOzJWdNSwBwC7AIZnNbGr71BLjCcNF0onA5hlN9H4VQNIi5C2rz2+7jvv6MyRJwBeAvZruezoMXA6cVX29Evhrn28bSVqAVFnxJeM+KwGzD9DcFcBmtm/OGM8SwKDPxwpA31TR5t/I22e8wPbLCg0pDBlJqwGXkZLaDOrTtj9VZkTNq66+PcJgP9gBVrV9ZcEhTYqkHYBvAV07lPkE6efXleM+VwE3t117pAqeFiHd4lgKWHrcr8c+8xTu9nTbGw36cFXL4S8DPn6D7ZEqCTwMAcAOwA8zm3m17TNLjCcMJ0k/BrbJaOIeYJHqhkEvSfo7gwfam9k+peR4JqtaxfgWsHWb45ggA3eTVl1unebrbaRl7kdm8JmFlNZ4blJFxrkn8b8XJk3uS9LOyfi3Vzc6Jk3SGqSbXIO4zPZLBny2l2ZrewAFbJ/5/Lkx+YcJ+DSwFYPfnHk2KXd9q5NgppsYPABovda67duBbSRtTQoEFml5SDMiYMHqs0rLY2nafpKOHvA21rwZ/fZ2i25Qvb4GWOXofm1mM70+nBWaYfsq4MeZzeQGq20bdGkVYOVio8hk+yeku/wDvWWG2i0JbDbgszlbEhEA9MxWDL4nCXC27XMKjSUMv0+TlxxoC0lPdxK6D/6c8exqxUZRgO17bb8d2Jh0Uj90y+4DPhcrAJPQ9wAg940q3v7DhNn+C/CjjCbmYfA3my74U8azK1eHyjrF9q+BFwLvIy/ZUSjr1ZJeMMBzsQIwCb0NAKoDPRtkNHFVVUQkhMnIzQ64XZFRtCMnAJgH6OQJa9uP2v4WsAwRCHSFgF0HeC5WACahtwEAqXZ7zviPKDWQMDpsXwD8NaOJTSU9s9R4mlSVS875IdloNsDJikCgc94uaa5JPpPzdysCgB7JWf5/HDiq1EDCyDk849k5aDczXa6ccwCdDgDGTBMIvJe8f+cwuPmBN0/ymZzKkxEA9IGkpYC1M5o42fadBcczt6T3SjpA0o8l/UTSbpI6ueQZsh1JXu35Ud0G6EUAMKYKBA6yvRLp582hwP0tD2vUTPYwYM510wgAemI78rKyFVn+lzSbpN1IdQQOJC0bbkO6nXAQcJ2koyTNUaK/0A22/wmcnNHEa6oUqn009CsA02P7YtvvIeUOeCspnW+/s6j1w2qSJpOlNQKASehrAPDGjGdvJ1XrKuEQ0kQ/o4QibwHOk7R4oT5DN3wv49nZSEFiH+WsACxTFejpLdsP2z7a9oakLYJPABeRdz00zNiEVgEkzQ7k/JwttircF70LACTNQ16Jz2Nt5yzfjo1jF2DnCf72NUg1wxfL7Td0xqnk/cBYv9RAGnZVxrMiVYgbCrZvsP1Z2+sAC5HOJR0J/LPdkQ2drSUtPIHftxSDz2lTgRsGfLa3ehcAkKpN5Yw7++2/uoL4zUk+9nzgDEkL5vYf2lelKc1JIb1GqbE0yfZtwC0ZTfQ18Jkh23fb/pHttwGLkv58Pw6cTaoGOYoeJRXROpK8laMpwLsm8Ptylv9vHsVS8H2sBZDzg/MRoMTd/41J35STtQJwmqRXtlEaNRR3OoMf6HuhpHltP1ByQA25kHQNdxDrlRhAVQX0tdU45gEeIq3IHGo755pmNqcKa7+vPp+rEiAtB6xO+vm1BulFpnQlvbYYuJ7/rmh4JfC3sXz+krYFjs/o4z2SvjCT+gA5AcA1Gc/2Vh8DgDUznj2vUJS3ScazLwZ+KWkj2w8VGEtozxkZz85CmgR+U2gsTbqIwQOAdSXNYnvgPXNJbwS+zfRL++4p6efAR2134od6FRBcU32Ohf+UV34hqUbCMtXn+dXXJYBZWxns9D1GWvW5Cbh5Ol9vmMDPsp+RqhguOuAYlgC2AH46g9+TEwD8LePZ3upjAJCzAnBaoTHkHuhbF/i5pM1sP1piQKF5tm+SdA0wSMpSSN/LfQwALsx4dn5gJdIb4qRJeh/wDZ5+G1DAlsCaktaxnbNdUZsqAPoL0ymwVB1mW5oUECxMWimY7Gd8jZRHSCskDwH/HvfraT9j/9+/+O8J/p/OrBtv+wlJhwGfzGhmd+oLADoRLDatVwGApPlJEfKgTi80lNsKtPFq4HhJW5c4lBhaczp5AUAf/YH0VjjINhikcwCTDgAkfQz4/AR/+xLAqZLW69t2m+3HSW+kA7+VVlskU4B/56y2FHYosDeDzzuvkrRCVZNjenLyrozkCkDfDgGuzuD3//8JXFFoHLcWamdz4JS+poYNQN42QC8DgGrV6rKMJiZ9DqC6dTPRyX/MysB7JtvXMLD9mO0HOzT5Y/sfwImZzXxY0pqSXitpuyrh2j6Svko6YzWokVwBUObKTqMk7QXsP+Djx9kukoFN0prAxeQlIxrvT8Bmtm8s1F5oSLUqdW9GE8+y3bsEJJK+Abx/wMcfIuXPONT2dRPo603AMQz2wnKV7VUGeC7UQNKryLs9U4fHgblGcSW2bysAOQcAc+4v/xfbl1Ad5ilkJeBiSTnpjUMLqsk7p2hML1cBgBmdxp6ZuYH/A/4m6XRJ20qa7rKwpNeS6nYM+rNq5QHLyoYa2D6LvGJadbhhFCd/6F8AkPPD8un2jQb1MeCegu0tBJxdve2Efsn53upVACBpUUmnAB8s0RzVWRjgIkkrTtPXOqRDX7NP59nJeEbm86Gsg9sewDRGcv8fehQAVLnTcyo9FQ0AbN8EvI60nFnKHMCxkj5RsM1Qv5zvrdWLjaJmkrYnraRtWkPzqwO/l/QhSbNIWgU4BZhsOdjpieu23fIDuvVnMpL7/9CjAADISaP7BKlgT1G2LwK2Ju0hlSJgP0nH97hgzKjJWdLsfHpoSQtI+jFpH/7ZNXY1B/AV0tXIXzP9e/6T9RhwV4F2mU8hLQAAIABJREFUQiG27weObnsc48QKQA/k/OC53vZjxUYyju1fAztSvhjItsBVkjYv3G4oL2cFoM4JNZukOUmT8TYNdrsegyeMmdYPqgkndEuXtgFyDvH2Wp8CgJy3gdL7///F9o+APWpoehHgREk/qE6bh27K+f4q8ZZbiyqF7Q/o0TbFNJ4Evtj2IML/sn0F8Nu2x1H5mqQl2h5EG/oUAOS8KdV+6tT2QcCnamp+R9JqQE4K4lAT27czeMGXzgYAwL4MnvK3Cz4/kWuGoTWTLahWl0WBX/S9VPUg+hQA5PygbGQP0PangQNqan5xUg2BwyTNV1MfYXCDfo9N6eIPnirffk7a1rYdbbvP4x96tn9MXiKtkl4MHFWteo2MPgUAOSsAje0B2n4/6c2pLjsD10rao8oZHroh53usU+cAqut436dcoqumnQO8s+1BhAl5D6kGQRdsyeDVPXupTwFAzgpAo4eAbO9Hql+dkyxlRhYkLZ/9WdLWNfURJifne6xr2wD/B8zZ9iAG9Gdgy7oO/YaybF9PvS9Mk/XZUXqx6lMA0IsVgDG2v0uKKOuMbpcFTpB0gaR1a+wnzNxQrABIWoj+vgXdDmzax9TKI+7rdOda4PMZofoRfQoAerMCMMb2ScCGwN01d7UO8FtJJ0ybTS00ZlhWAHahn5nzHiLV0/h72wMJk2P7SdtvJa2aPtL2eIBPSCqRgKrz+hQA5LwlPVBsFJNUJQt6GXBjA91tTbotcIqkDRvoLzwl53usEysAVQnZXdsexwAeA7az/fu2BxIGV62avpS0jdOmhYCRuHE1aF3mNvRuBWCM7aurvObHAS+vuTuRUrVuKuly4GvAj6oa46E+w7AC8EZS7olc95KyBj5ctbcoqeBVibandQewle2u3CkPGar8ACtJejGpXPoWpBP6Yx4nBdv/IKXwvYZUnn0O0sS9HfDcAkPZAvhJgXY6rTflgCXdxOB/sEtVuftbJWlW0oGXfWh29eVW0vXEQ22PbNarOkn6HLD3gI/vY3uyte6Lk/RL8t989gW+bPvhadqeA9gT+AzlXjyuADaPZf/hJmlBwMADMzvcWf2M3Qb4LjBPRrf3AAvZrusgdyf0aQsg52BPJ7LoVXtdnwQ2Ih1YaspiwP7ArVWNgc1H6aRrQ3K+x7pyaG25zOf3sL3ftJM/gO1HbO8PbE+qzZHrROBlMfkPP9t32b57Ijc7qp+xxwGvIS/F77OB9TOe74UIAFpg+0zgRcDpDXc9Bymz24nAbZK+JWnthscwrHKSM7UeAFRvTktnNPET2wfO7DfZPoH0hvZoRl9fIF31ezCjjTDEqrNXe2Y2s2aJsXTZqAQAXdlj/Q/b/wReS9oOaGOZaQFgd+BCSX+TtK+kNauJIExe31cAlmLwpfmpTCJroO0Tgdcz+SuyjwJvsb23+7J3Gdp0NHBlxvOdr9SZa1QCgE6tAIxx8nngFdRcsGgmliXVMfgdcLekn0t6n6SVWhxT3/Q9AFgm49nf2Z7UyW3bp5Our540wUfOANay/cPJDi6MJttTgaMymli81Fi6qk8BQM5+TudWAMarTjCvBnyM9tNizkc6AXsA6UrhbZJ+KGknSUu3OrJu6/UWAHkBwEDBq+0rbG9OqjZ4FKlo19hq2FTgelLZ2Ffafk11QjyEyci5Ujj0KwB9ugY4VFsA06qu6e0v6RhSmt83tDykMYsAO1QfJF0PnFl9zrZ9R4tj65K+rwA8L+PZa3I6tv0HUsXLsVwEs9juQkKY0H8535t1XFvtlFEJADq5BTA91XXFLSW9DjiQvB/MdXh+9XkXYElXAeeSIu2/An+1fWuL42tL31cAcrL/FZusI4d/KCwn/0mf5seB9OlfcKhXAKZl+xRJZ5Huln+EbqZnFbBK9XnqH0r3A1eTAoK/VF//Clw7jAmJqoOT8w74+GO22972CSGMoFEJAHLvN7eiuk/9CUmHkc4H7ARMaXdUE/JM0hWaaa/RPFFtIYwFBDcAd1Wfu8d+3cMgIef7675iowghhEnoUwCQU1BnVUmzVKdCe6faFthV0udJgcA76UcgMK3ZgBdUn82f7jdVKwh38b/BwX2kJDJPjvs67a+fBGYH5iKVtB3/mUpKT3sf8HvgItslJuAXZTxbd6GoEEKYrj4FADmnOecCXki7V+2y2b4Z2G2aQKCLWwO5nll9nl9zP5Z0Lqkc6UkZAeKLZ/5bnlbbhU9CCCOqN9cAbd9FKgAxqJy3tE6xfYvt3Un39w8iL6vaKBMpB8PPgT9JWm/AdnICgMszni3poYxnO1HNMITpWDDj2aHPNNmbAKByWcazOT+kp0vSIlXCnOMkHS7pG5K2byqbXhUIvBdYEvgocF0T/Q6p5YHfSPp6dRVtMnKCy64EAHdlPPuCYqMIoazlM54d+ivOfQsAcn5YFlsBkDSXpONIKxIHkMqovgN4P6kM6tWS3lmqv5mxfYftL5IOo21EKmNZouDKqJmFlD/8LEkLTeQBSYsDz8nocxgCgFWLjSKEsnJe/CIA6JicH5ZFVgAkLUBKgvNGnv6/3zLAdyUNWh52IFVq4dNtb0MqnbwPcGOTYxgSLwMukbTaBH5vzvfVPdW5ji64M+PZFaq8FSF0hqT5SeekBvXPUmPpqlEKABas3tYGVtWlPheYaAW9z0naMafPQdm+vaozsAywKXAscH8bY+mpJYHfStpyJr9vGPb/AXLT7H5GUp8OFYfh92HyEnT9sdRAukp9KqolSaR8AM8csIkjSDnHfzvZjGOS5gXOAtaYZJ//AhbuQoazam/71cBWpGt4OUvXo8LAJ2x/Dv6T9GdZYEVgJeCtDL4H/jXbHyoyygIk/YW8PdMTgO1tx/ZTaJWknYDvkg76Dmpp238vNKRO6lUAAFBd21o/s5mHgHOAXwOn2b56Jn3OAfwSeOWA/b2hKoHaGdVEth4pGNiStGUQnt5FwNyk66SlcjDsaDunWllRkg4Cdsts5lfAPlV+/xAaJWlhYA/SNemcyf962zkFsnqhjwHAAcD7Cjf7O+Ddtv9nyada1jyBVCFvUEfZbmUrYKIkrUmq0b4BsBbDmV+ga1a1nVOvvChJW5CuRJZwESkd9L9I11QfA26p/vlVtp+cwbMhPC1JS5G2YVcg/ZyaQloVXhR4DWUC9G/b3rVAO53WxwBgZ+CwGpp+gpQQ5lNjudmrLYfvU1Uqy/Az21tlttGYasVjLdId+ZeT6rbP3eqghs9jwNxdWi6vgt0bgCVq7upe4EvAN6t01yHMVHUe57Ok7be6rT4Kq1i9OgQo6YWk4jh1mI1UdOcqSRtX/+zr5E/+kJdkpXG2H7F9ru3P2H4NqZjSOsBepK2QSF+bbwrpkGjOMmVRVTDyrQa6ehbwBeBaSe+Ow4NhRiRtIOki4Kc0M/mfPwqTP/RoBUDSusAvgAUa6vJSJn/g7+l83fYHC7XVCdU9+RXHfVaovg59De3CjgXe3oVDogCSngXcTLMrPteQzkNc3GCfoeOq78UfAps03PUbbf+44T5b0YsAQNJWpG+EOdoeywCmAivO7KDhsKj+0k4bFKxIHDKckXOALW3nVLwsRtKngU823O09wHq2e12vI5RRbUOeQcrJ0aTfAy8dlTMqnQ8AJG1Hmvx7tV0xzgm2t217EG2rrlEuTyrws9A0n+eM+3XOvd0+uwpYx3br+cer66J/IF1zbNLNwLq2b2m439AhkmYhZTN9Q8NdP07a++/Mwdy6dToAkPRc4Er6OyncC6xt+5q2B9IX1eQzPiB4DmnbZ0r1mX2az7T/DOARUtnfh6f59QKkcwxjv69rvmd757YHASDppcAFNB94/wlY3/a9DfcbOkLSIcAuLXS9r+39Wui3NZ0NAKrDUacDG7Y9lgE9Cmxk+9y2BxKeImkD0rXOps6STNYWtn/R9iAAqlTWn2uh61/b3njmvy0MG0m7AIe00PWZwCa2H2+h79Z0OQDYA/hm2+MYkEkZ0Y5reyDhf0l6PulAadNL3BNxB7Cy7Zzc/MVI+hrwgRa6Xt/2+S30G1oiaU7gepo/SPw7YMMubL81rZP76pKWA/ZvexwZ9orJv7tsX0+61nhy22OZjoWAQ9sexDgfIqXQbto+LfQZ2vUump/8/0R68x+5yR86GgCQSrLO2fYgBnSQ7S+3PYgwY7YfIGV3/GLbY5mON0jqxOqE0xLhzsC+pBstTXmNpGc32F9o3/YN93cKaaXpnob77YzOBQDV9Y8d2h7HgE4k5aEOPWB7qu2Pkgr6PNL2eKaxU9sDGFP9d9oP2Ji8ssGTMSvw2ob6Ci2rKq2u1VB3T5JWmF4/6odNOxcAkK5+zN/2IAZwPrCD7SbfkkIBto8m1UC4reWhjPcWSZ26rWD7dOBFpFTcTaQwjgBgdLyaZuajc0j5Jj7vrh6Aa1DnDgFKOo1U0CHHk6SUtSeSikSMXSl7HbBwZtvTczSws+1Ha2g7NETS4sDxwLoT+O23kcpD/550xfCx6rMkaS9z6QJD2sr2zwq0U5ykZUjbAtuT0mjX4Vrby9XUdugQSQcC762xiwuAT9o+s8Y+eqdTAUB17/9G8iLBq4FNq4Ne07Y/LykH+e4Z7Y83Fdjbdhf3kcMAquunOwIfB5ad5v++jlRj/Be2/zyDNmYBdgUOIO97+STbm2c8XztJ85NStb6++lp69W5h23cUbjN0jKQ/AC8u2OQTwHmk2z6/mN58ELoXAGxFygA1qL8Ar7T9z5n0UyLV6QPAm22flNlO6ChJiwKrkc4H3ANcOZllQ0nbk1aHBg0C7rL9nAGfbVwVPD2LlLxp7LMYcCCD12bf0napEsWhgyTNQyobPeuATXwb+A3pCu2d1eeuLlXa7KquBQB7kirwDepVts+eYF8fJa0GDOIGYHPbVw34fBgRko4kHTIc1Dy2e1VNclqSLiOdHRjEV2x/pOR4QrdI2pCU939Qi9q+vdR4RknXDgEumfHsWROd/AFs70+6bjhZ5wJrxeQfJmhfUo7xQS1daBxtytl3bboYTGhezp/xn2LyH9wwBQAnTPYB298EXk5KOTwzd5AOqWxo+67J9hVGk+0bSIV1BrV0oaG0Keftbi1JvdkGCQN5XcazOd9bI6+u07uDygkABiojavs8YCNJa5GWal8EvIC073s/cClwGnBylTwmhMn6M/DSAZ9duuA42nIu6YbElAGenZV0NfiwoiMKnSBpSfLu/0cAkKFrAcBiGc9em9Ox7d+RckKHUNp1Gc/m/J3oBNv/lnQh8IoBm9iGCACG1dYZzz5BOvwXBtS1LYCcgCROfIauejLj2UFPRndNzpvaqyIt8NDaJuPZi2NVNk/XAoAQwnDKCQBmAzqdDyFMnqTFSEW5BhXL/5kiAAghNOES4L6M599VaiChM97J4PkhIAKAbBEAhBBqZ/tJUh72Qa0radAzBKFjJM0NvD+jiQeBiwsNZ2R1LQDoTlaiELphmP5O5OZh36fIKEIXvAdYIOP5c23n5NcIdC8AyDnQsUixUYRQVs5J/pxl8645iVQ/Y1CvkbRGqcGEdkh6BvChzGZOLDGWUde1ACCn1vgLio0ihLJWzHh2aArh2L6RVKUzx94FhhLa9Tbyg+IfFhrLSBumAGDQRCsh1EbSHAyeBx9ghoWteujAzOffICknoAotkjQrsFdmM4f3vT5GV3QtAMj5YffuuCscOugd5O113lZqIB1xOqlk96AEfKzQWELztgOen/G8gYMKjWXkdS0AuCTj2XlIhVdC6ARJ85P3tvMwMFRFp6pyyrk/wLeT9LwS4wnNqcpF5wZvp9rOyawZxulaAHBO5vN7SPq/EgMJIYekeYFfA0tlNHOB7ccKDalLvk/egd/ZgPh73j+bAytltpG7hRTG6VQAYPta4NbMZr4o6ajYJwxtkDSrpO2AC8krcgJDmue8St96ZGYz76gyyYX+yL3G+TdSUB0KUVqR6w5JhwE7F2jKwF9Je6j/IlUje4RUNfASUh7pfxfoJ4wYSYuSUpiuDSwOzAnMRdrrXxJYqFBXa9j+faG2OkXS8qQqiTmZ4H5he4tCQwo1krQb+Vs/e1Yl3EMhXQwAXgRc1kBXdwGfBw62/WgD/YWeq/adPw28mfpXzy62vXbNfbRK0mnAazKb2c32ISXGE+pRrcZeSgqUB/UgsLjt+8uMKkDHtgAAbF9Oqh9etwWBrwHXSHqbpM79twjdIGkRSd8inV5/K838vRmFN50S+7lflbRCgXZCDaqkP8eQN/kDHBmTf3mdWwEAkLQl8NOGu70S2Nh27hmEMEQkvQ04mLTE35R/AM8b9lSnVdD9J2D5zKYuB146pAcme03S14APZDbzBLCS7WsKDCmM08m3Xts/A85quNtVgFMlzddwv6GjJG0GfI9mJ3+ADwz75A9geyrw3gJNvQj4QoF2QkGSXgvsWaCpb8TkX49OrgAASFoWuIL8paPJOoe0EhDnAkaYpLVJxWuanvxPsr15w322StKPgDdlNmPgtbZPLzCkkEnSc0g/v3NrtNwCrGD7wfxRhWl1cgUA/nMl8NMtdL0BcGSVtCKMIEkvBE6m+cn/AWD3hvvsgg+SlxcA0m2CH0hasMB4Qr7vUaZA2wdi8q9PZwOAypeAH7XQ7xsps3QVeqbKVf4z8tL3DuJxYBvbNzfcb+uqczclsnguSpp4QouqK3+vL9DUabZPKNBOeBqd3QIYI2kKcCrwqoa7voN0ECtyBYwQSW8Bjmq4WwNvs910v50haTbgD6SzOLneb/uAAu2ESZK0GikJVu7W7aPAKrb/lj+q8HS6vgJAdbJ3S+CihrteCHhXw32G9uVmK5usqaRlzpGd/AFsPwHsRgqGcn1DUolkYmESJK0KnEGZc1tfjsm/fp0PAACq+58b0Pzy3jYN9xdaJGkl8q+kTcZ9wOaR3SyxfT75KYIhnQc4VNJ7CrQVJqB68z+LlF8l1w2kJG2hZr0IAABsP2p7Z9JbwiMNdbtOVdEtjIZNG+zrKmAt26c02Gcf/B8pdXcuAYdU+9GhRpJeTJr8S52beb/thwu1FWagNwHAmCrt5wtJ+7R1H2CYlebPHoT25KalnYg7SXffXxx3m/+X7TuAjxZqTsBBkt5XqL0wDUkvIS37P7tQkz+3fVKhtsJM9C4AALB9k+0dgdWB44E6D+qtW2PboSOqrHR15t6/EdgPWNb2QdWed5gO298BfliwyQMkxa2ewiStTtnJ/1pgp0JthQno/C2AiZA0F/A6YCtgOdL904VJdcNzXWR7nQLthA6r9jAvL9Tcg8Dt1edC4Me2LynU9kiQNAdwHrBGwWY/bPurBdsbWZLWBE4DSm2R3g+sbfsvhdoLEzAUAcD0VIl8FiTdDX4jg5/ufgyYz3ZT5w5CCyTtSsr5P4h/AxuTSk/fHolLypC0OKmKXImEMmP2sv2lgu2NHElrkSb/UmnTpwJb2D65UHthgnq5BTARTu60fQXw/YymplD2LSR008synr3Q9nm2r43Jvxzb/yBdAS6ZlvuLkg6pVg3DJFXFsc6g3OQP8PGY/NsxtAHAeFVa4Zwqf+uVGkvorJw/498UG0X4L7YvAnYp3OwuwOWSXlq43aElaQFJPyG9TM1bsOkf2Y5CTi0ZiQCgcm7GsyNVnGXUVAlMlspoIud7K8yE7e8D3yjc7HLA+ZI+VWUhDE9D0iaka6tbFW76D8Shv1ZFADAxa1f7kWE4bZ3x7KPAxaUGEp7Wh4HSlf5mI9UguEDSCwq33XuS5pJ0MPBLyp7DgJRq/Q1x379dEQBMjEh7kWE45QQAl8QB0frZfpJUMvjaGppfE7isOgga+M9Bv8uAOv6bPAZsNYqFr7pmlAKAPwN3ZTwfaYGHkKTlgZUymojl/4bYvpf60oHPBRws6ZeSFq2pj86TNJukfYHfAnWtilxo+7c1tR0mYWQCAKf7judlNLG+pIVKjSd0Rs7bP8QBwGGzCXClpI9JKnnSvdMkzSJpa+AS4FOUyaESOm5kAoDKqRnPzgK8u9RAQvuqw185FR8fBM4vNJzQHQuQitHcJGl/SaX3vztD0hRJ7wT+ApwAvKjlIYUGjVoAcAJp/2lQ75c0d6nBhNa9mbzT/yfarjMNdWjXM4G9gBslfVvSMm0PqBRJ80j6IHA98F3qW+4PHTZSAUC1h/jLjCYWJFYBhkKV+z+36MwxJcYSOu8ZwHuAqyX9SFJv35IlLShpP+Am4KtA3G4aYSMVAFRyi4x8SNKUIiMJbdoSWD7j+btI6VDD6JiVdBPhMkmnSnp1X3IISFpe0gHA34FPAM9qeUihA3rxzVvYyaTCE88c8PnFgbcBhxUbUWjD3pnP/zgq+o20javPA5LOJuUoOK0rJZ4lLQBsCGxEKnO9ZLsjCl00cgGA7UeqlJbvyGhmL0mHV3eTQ89I2hh4SWYzsfwfIKXF3bz6IOkmUjBwOnCG7bubGES1Kvky0mS/EfBiRnOFN0zCyAUAlR+SFwAsQ1oKjEmgn3Lf/m8i3ZMOYVpLAu+sPlMlXUYKBn5HOnB3g+37czqoJvulgOcBKwOvBl5BymUQwoSNagBwNnALsERGGx+TdKyHtZ7ykJK0HrB+ZjNHx597mIBZgNWrz39IupsUDPwduA94qPo8WH19Epi7+swz7usSpEl/ceLtPhQwkgGA7amSvk46BTuolUnLfieWGVVoyD6Zzz8KfKvEQMLIWqD6rNn2QMJoG+Uo8jvAPZlt7CNJJQYT6idpddLBrRyH276txHhCCKFNIxsA2H4IOCCzmTWBPQsMJ9RM0jOAwzObeQL4UoHhhHZcRboBFPJMBS5sexAh38gGAJUDSftuOfbvc2KQEfIlYNXMNo61fWOBsYR2nEI6wPtN8jKCjrJfkW7Q5B6kDR0w0gGA7XuAQzObmQIcI2nOAkMKNZC0CbBHZjMGvlBgOKFFtu+yvScpCdQxpD/XMHOXAhva3sT2H9seTChjpAOAylfJfxtYAfh6gbGEwiQtDHy/QFM/s/2XAu2EDrB9g+03A2sAZ7Q9ng67DtgOWMv2WW0PJpQ18gGA7VuBIwo09R5JbyjQTiikOqB5BJBbxtnA5/JHFHJUVfmWK9mm7T/YHkuec1nJtnvuDuB9wAq2jyt87XVBSSsUbC8MaOQDgMongX8VaOe7khYr0E4oYw9SffdcR9j+Q4F2wgAkvVvS1cBtwE519GH7dNJ9/TcDl9fRR0/cDnwaWNb2t2w/XkMfKwF/lnSnpIMlzVtDH2ECIgAAbN8BfLxAUwsAR8bVwPZJWhX4YoGm7iWVhA0Nk7SIpFNJV3ZrL1fr5BjbLwZeBHwDuLPufjvgMVKp9M2AJWx/yvYDDfS7ILArcKWkVzTQX5hGBABPOQQo8Za3IfCRAu2EAVUHMo8llXHNtbftuwq0EyZB0hLAeeTnbRiI7T/a/gAp694bgJ8BdbwNt+lS4L3Aora3tX1KS/VNlgJOk/T6FvoeaREAVGxPBXajzKngz0p6eYF2wiRVqy8HAysWaO5S8m+JhEmqJv9zgGVbHgq2H7d9ou2tgMWA99PvswK3A18BVra9pu2DqttQbZsCnBBBQLMiABjH9sXA9wo0NTvwy1jWalY1+R8CvL1Ac1OB3arAMDRk3OS/TMtD+R/VFcIDbL8EWI20V34aZc4P1eVx4BJSzpPNgOfa/ojtP7U7rOmKIKBhI1kLYCY+CmwFPDuznblJQcBmts/OH1aYkWry/w7wrkJNHmb7kkJthQno8uQ/LdtXAFfAf773XgisPe6zMjBrC0O7CbgIuLj6+gfbj7QwjkGNBQFb2z657cEMO0VRs/8l6S3AUYWaexh4ve0zC7UXplH9AD6MVIK1hJuB1WzfW6i9MBOSnkuq0lnn5P9F2x+tsf3/kDQ3KcfAWECwDOmlYgFgjszmnyTVMbkHuJX0hn8RcFFTdSokbUD686rLY0AEATWLFYDpsH109Q1eYkKZEzhJ0htsn1agvTCOpFmA7wLvKNTkE8B2Mfk3p6HJv1FVrZHfVJ//ImkungoGpvd1Cmlyv3vc1/G/vn8EylFPAX4SKwH1igDg6b2PVOwnN388pCDgRElb2v5VgfYC/5n8DwfeVrDZvW1fULC9MAPV5H8O8PyWh9IY2/8G/g3c0vZYOi6CgJrFIcCnYfthYFug1H3YOYCfS9q0UHsjrZr8v0/Zyf9k0gnp0IAWJv829uSHVVP/LceCgNc11N9IiQBgBmxfQ7lDZZDupf8sTrnmkTQr8APgrQWbvQl42wgsrXZCS2/+u0vassH+hpKkZYFvN9jlFOCnEQSUFwHATNg+jnSvvJQppCBgP0mxBTNJkpYm7Re/pWCzj5P2/btwH3rotbjsPyfphHluZciRJWlt4EKaz9EQQUAN4hbABEh6BmnSWadw05cCb7F9deF2h5KktwMHAKVzh+9h+8DCbYbpkLQk6e9S23v+Xwc+HHkeJq5aPfkhKZBqy6PAVrZ/2eIYhkasAEyA7UeB1wGlk2esAVwmaffC7Q4VSQtK+impsl/pyf/zMfk3o5r8z6H9yR/gA8DxknKv5I2EatXkBNqd/CFto/40zlKVESsAkyBpceC3pNzVpf0aeEdT93j7ovqL/j1gkRqa/47tXWpoN0xj3OT/vJaHMq0LgM1t3932QLqoOmz7FVLA1CWxElBABACTJOkFwPnAc2po/h7gPbZPqKHtXqnuSn8VqGuC/jFp3z+WgGvW4cl/zN+ATWxf1/ZAuqRaHTka2LrtsTyNCAIyRQAwAEmrk/Yx66pjfRTwPtv31dR+p0lai/SDZ7maujgd2Mz2YzW1Hyo9mPzH3EnK2Hlx2wPpAkkLAL8A1m17LDPxKLCl7VPbHkgfxRmAAdj+PalE6KM1dfFW4GpJe0l6Zk19dI6kVSQdTVqWrWvyv5j0AyMm/5pJWoryk/+/SfkfSnsOcLakN9TQdq9IWoZ00r+Oyf8s4K8F2xu7Wr1JwTZHRgRWMx9KAAAgAElEQVQAA7J9FrAF8GBNXSwM7A/cJOkLkhauqZ/WSVpP0smk4ipvpr4kI+cBG1dpWkONapr8x+pqvAPYmZS2uaQ5SUlnRvaaoKSXkib/OgLwI4GNgVcSQUAnxBZApmo74BTShF2nR0hvPl+2fX3NfdWuKuCzKfAx4GUNdHkC6cplXas2oTJu8l+6YLP/U1RL0mtJZznq2Ir7Guma4Mj8gJS0BXAs9Zz0/4ztT47raxHSNuryBft4FHhDpFufuAgACpD0fOBX1LdsPd6TwPGkymZ/bKC/oqrkR28C9gJWaajbA4E948Bf/Zqa/Mf1txrwS2Cxgv2NOQF4a8/K6Q5E0nuBb1J+VfgJ0sHmw6fTZwQBLYsAoBBJC5Jyyb+0wW5PBQ4BzrZd11ZEEZKeB2wO7EnZyWFGDHzU9pca6m+k1Tj5b277jBn0+1xSELBywX7HDPU1wWol7svAh2po/gFgmxlVQY0goF0RABRUXV07Dtis4a4fJ+3bnV59LrX9ZMNj+C+S5gNeBbym+jSdOvRxUl6FHzbc70iStB7p9srSBZud6eQ/rv/5gJ8AGxbsf8xQXhOsrvkdSSp6VtqtwKYTWaWsMQh4J3Cc7dJnRYZGBACFVYVqPkta4lZLw7iXdNr2dOA02zfU3WG1tP9SYCPShL8W7VVfuwXYwfZ5LfU/EqqDqTsCO1H2hzekMy+b2z59EuOZHfhuNabShuqaoKRnAycC69XQ/FWkyf/mSYynjiAA4HZSkHN4pFz/XxEA1ETSa0jfeHVksJus64AzSH8xr6s+Nw56FU7Ss0jpXJepPmsDGwBduLL4C2CnYV2ybVsV4G5CervaDKijoNWkJ//xJO0HfKLskIC0IrGD7Z/X0HZjqjNLvwReWEPzZwJbD5LDpMYgYMz5wOHA8XETKIkAoEaSFiIFAa9teyzTMRW4mfS2/BDpOuP4r7MB8wBzj/s6P+la17NaGO/MPAr8n+0D2h7IMKpKwO4EvI16DtyNeQTYYkb7xhMhaSfgO5QPUKaSDpT2sn6EpDVJZ5UWqqH5I4GdbT8+aAMNBAGQziYcR1oVuLDGfjovAoCaVYdsPgx8Dpi95eEMq2uAN9m+vO2BDBNJcwLbkN72X9FAl0Um/zGSNiKd5I9rgoCk1wM/Auaqofn/uuaXo6EgYMyfSasCR9m+o4H+OiUCgIZU6W1PARZseyxD5mekq1qxpFdI9Za4E7A9MF9D3T5COrn965KNVtcETwEWL9lupTfXBCXtRiqlXfpcztNe88vRcBAA6dDwyaTCY79q+xB1UyIAaJCki2j2muAoeIft77c9iL6rcr+/hfS231R+hjG1TP5jJC1B2vOu49/rt6RVi06eOalWIL8IfKSG5h8Atq3xz63pIGDMraSka0fYvrbhvhsVqYBDGFGSZpG0kaTjSD/0vkHzkz+ksyi/qatx27eQTrvP9DrhAF4GXFAdrOsUSc8gZfarY/K/FVi/rskfwPbt1PNnNjOLAXsD10g6R9JbqyveQycCgBBGjKSlJH0KuAH4NfBGYEqLQ1oO2K/ODmzfT0o9/YMamn8BcFG1zdcJ1U2d00lZN0u7Cli77kykVW6J3ersY2ZDIJ19ORK4TdK3q+2xoREBQAgjQNIzJL1J0mmkiX9fYMmWhzXehyStXWcHth+3/XbqCTbGqgluUUPbkyJpaVIGw/VraP5MYL3J3PEfRPXGfQTdmaOeCbwH+J2kKyTtWWV/7bWu/McNIdRA0mqSDiAt2f6IlKSprQRVMzILcESVna5WtvclHXIsnSFuLuCnVV79VkhaA7iIevbNjyRlRJz0Hf8BfJ7ms4dO1CrA14F/SDpe0saSejmX9nLQIYSnJ2k+SbtKuhS4HHgf8OyWhzURy1PzVsAY20eQtgQeKNz0LMCBkr5SHcBrjKTNSLUY6qhM+hnbb8u54z9R1dL/++rup4AppDTKpwI3StqvqnnSGxEAhDAElGwg6SjgNuBgYPWWhzWI2rcCxlSZBtcD/lFD8x8CjmtiRQNA0i7Az0kJu0p6gpTcp8gd/5np4NL/RD2XlH3yOklnStqhqT/7HH37jzzKjiIdvhkmj5JS9/6+7YH0laTFJe1NKlhzNukqXx313JvS2FYAgO0rSKmsr6yh+W2BM6q8+7WoAr/9SVVBS9/xfwDYzPb3Crc7I11e+p8IkYqg/ZB0cPAgSS9peUxPKwKA/jjY9iqkZdJ9gMtaHs+gHgZ+CuwAPMf2FgxfYFMrSbNL2krSycD/t3fmYX8UReL/VBLCjRyigHLJroAiCOIJKCjoIgj+1gOPBTnWA5CVZTlkXQUVFBVWXFERUaO4uIIXoKKoIHIrNyKIIOE+AwiEJEBSvz963vDy8h7fma6e7vlOfZ6nnzxJvtNd09PTXVNdXXULIcrkepnFsqS1rQBo5ZjgRSmOCYrITMJCc4h13QSfkdemPOY3lg6Z/gdlRcIphstE5AoR+XB1OqMYXAHoGKr6F1X9jKpuRpj0DwbOwn4v05KbCRaMXQiL/ttU9fuqWrLMxSEiG4rI0YT8DT8CdiBfxsWJWETIRhnLAW1tBcDTjgnOSlD9CwlKgNkxwWohOYsQrdGakWN+rYXWNjT9LyDkMymNlwJfJlgFvi8i27btIzIuquqlpULwztWG5VVT1D2dMMg+TPD2vj2irZjyJHA5IezoO4E1BuiXWRHt7Z77uSYeMzOA9xKOdeV4noOWvxH2QNcENiOEVo2t8zpgqQx9fniiPppLyHIYK9/ahBj2KWT8LfCsDH1+rJH8BxGSl+1ByP6X+72YrMwGPpqjvxf3e66G+1QI8dR3qB5408EyqQIwQbtrETIR7gMcQ8j//SfgMYPBew9hUTqJMGH+C/BqYPkGcs6KkONbwKbAtNzPOcGYOYgQJS/3RDVRmUcwQb+eKqz4KPk/ZdTG5zP1/+7A4wn6bCGwb4RcmxGcPFM8z+8CS2To6y2rfomV/yJg+pi61yeEQk7VZxblIcI23qpt973nAkiIiKxJSEn6JuJNW69W1YvjpVocH3w1Qlrf5QjZ0pYbU54kmNIeqf58dNTf71ZD872IzCKkmY3h78BngaO1w4k8RGQNwsK/F2my2FlwOSFpysmq+tB4P6j2py8lPrTwImALq7FfBxHZjpDwZ4UE1R9NSF898AQsIm8GTsHe0x/gCFX9eIJ6J6Uy/V9FvOPffGBTVb1+gnZmELZ49qr+tE4TbcE84ETgC5o40NJicmjXfSgEJ7eHsNMSa1sAulKIswCMLRcDL8h9Tw36YAbh6Ngjhn1hWeYQtnU2qXFPnd4KqO5hY9JZYX4ALDmgHB8gKOXWMjwB7JVx3JuZ/mu0uRrBd+r6TO/SVOVxgmVzveT9n+vBD3MB9iZ8uVgOClcABi+3tfHyGN7/6whbM7knnrFlISFXwC4MuFCNc2+d3gqo7uF5hK/UFH18HrDyJG0L4WhcirYfBt6UsV+Tmf5ryLAFYbF9tOV3a5AyF9gn6TPI9fCHtZBm8VdcAahbilcCCKbl/y1gohlbbgY+AaxlcI8zgasNZFqY8x2ontVZifr7emDdCfrue4navAN4acb+XIYQuyL2PuYBGxjIsxxhe+CClt+1QcqZwOpJnkOuATCMhXSLv+IKQJNSrBJQTTglTTbzgJOBbRnj0Gdwr53fCqjuYwnC12KK/r8HePmotlYkBHZK0dY1wJqZx3/rpv8asm0AfB64u+V3cLIyB3iH+b3mHATDVEi7+CuuADQtxSkBhC+73xUwqSjBoW9fYKXE9/xpI3mzbQWMupfDEj2LucBOhNM71yZqI8sxvzH9Z2X6v5iGpv8B5ZwBvJUQrdRCgbUoJ1k+v6wv0rAU0i/+iisAMaUoJYAQvCXnJPIAIShJayZghmQrYNT9vI80xwSfBO5L9NyzHPMb029Fmf5ryL06IeLiXzK/u0qIuWEyn3kkwEhEZG/gK5SZYtUJPJ+Qq908HGtDPpChTSWEun03YT9xP20x0puqPk44Wx+bgrfVXAEToarfIRwne9i46ulAijzzR6jqbtpCNr8psIr1/wmd4MhfClT1LlX9nKquD2xF+GiZ21b7Y1gXOE9EXhxbkSsAEfji3ynWBH6XWwkQkecCW7fY5C3AJwlOZtup6v+p6oIW21+Mql4OHGVQVau5AiZCVX9DMGffnluWSRjJ5tf6Gf+xGMb6vwT4b4N6GqGq56vqHgSrwPsJWxFtszpwrohEZfx0BaAhvvh3khKUgDYy9S0ghIN+IyEmwuGqeksL7Q7Cp7HJvNda2uDJUNVrCNkEr8otyzg8ArxF283mNy6Gsf7nE8J/Zw/2paqPqOqJqvpq4EWEaKv3tijCKsDZlWLVCFcAGpBp8R9mRaPNeytBCUjFlcC/EfIvvFtVf62qi3ILNZph2woAUNU7CGbhs3LLMoqRbH6/zC1IhZXp/7A2Tf+DoqrXqeqBhO3GfwZ+RvBXSc0KwK+qqJX1yekQ0sVCOw5/45XzgOVy33+C/tyGsJfWdn/eSoaIgdULO8/wPh4AjgM2y/0sa/bD0JwKGHVPM0h3TLBO+ROZj/mN6ZdOeP0nuO81gEOBG1p45vOBbWvLmLuTulTIt/iPlKFSAsi3+I+UWxgnAEsL9z3LQPYbgF3JeC4+sg+G6lTAmHv7RMYxnf2Y35i+6KTXf4J+eC0hhbeFIjRRuY+ail/2julKIf/iP1KGQgkg/+I/UlpXAoDNI+S9jeB4NCP3MzToh6EIEDTBvb2PNMcEJyvZj/mN0w9WAX8Ozn0vRv3xQuAbhC/2FGPgYmDmwPLk7pAuFMpZ/EdKp5UAyln8R0oOJeA/a8p4HyFZUFELnUE/DN1WwKh7ewMhS2UbY/jTue93nPvvpel/wL5Zg3RhwI8bVA5PBzwFBXv7nw9sr6qP5hakDiKyDcFBZpncsozhVmBrVb25rQZFZDdC+s8lJvnZI4QjT8eoYQrmUhiGtMGTISIvAX5BcA5LwZPA3qp6YqL6G2GY5ncBIc3vdfFSlUc1H34F2NC46veo6ven/FVuTajkQnlf/mNLpywBhPPvJX35jy05LAHbEHLO3ztGlgcIZ91Xyf3cWuiDod0KqO5vXWwdP0eXD+W+vwnu2U3/g/fVEsAXjMfFo8CLpmrbLQATkOjL/zpCEBPLOjthCRCRrYGfY/vlfxuwEiGxjhW3ECwBsw3rHAgR2RB4ASHU500ajsz1AhH5NPBfBlV9QVUPNqjHhMrCcSohxn8Kbge2UdUbE9Vfm+pc+rnEHzO/hGDVyX7mvw1E5CPAF7FbH/5MCPc9YfRHVwDGIdHifw6wI8E5yLruopWARIv/LQSLwvMJ6TKHQgnoK8O4FdDC4j9CMUqAm/7jEJF3EhL+zDSqcn9V/dKE/5vb/FFaIY3Z/2xgmcRtFLkdQBqz/2xgnVFtbEnYK0/WhpdWxsrLGJKtAMIEfprxmJys3Ab8QwHP0E3/8X24DXbOo3OAFSdsK/fNllRIszCfw6jFP3FbRSkBtLD4j2rLlYAhKMARRs8u26kA2l/8R0pWJQD3+rfsy00I0RwtxsXRE7aT+0ZLKIQIXgfQ0uI/qt2hVQKA19HS4j+qzVRKwEty92dfCmHxvMbguWUJEES+xX+kZFECsAv4Mx/YMPc4LKEAawN3GPTpAiZwbu51LgARWUlEDiY4XR2D7b78ucCOqvrYRD9Q1a8B+xIekhVbAmeKiOWeeC1E5HUk2vPXSfblVfV8YHuCB6wVawNXicgvRWR7ESntOOhQoR3OFdDinv9kjKS+toi7XwfLNL+92vefhDcQsv7FMpOJsnDm1nIyaVYbAl8j3ZG03wHL1pBnaCwBhC//R43vZTY1TPGksQSMlOuBfeo8Xy+NxlGntgLI/+U/trRmCcBN/yn6dE/s14RnWMSy32iLHSrAPwG/TNCxo8u5NFgcGAIlgAIW/1GypFQCFHgQ+DywVu6xPYyFDm0FUN7iP1KSKwG46T9Fn6ZY/BX46TPayn2zLXTmsoTF9boWXrhGi/8oWTurBFDQ4j9KptRKgBJM1acCW+Ye68NW6MCpAMpd/EdKUiUAO6//Q3KPtxIK6RZ/JeSmeFpgsew3nLAj1yJ8oT3Q0ov2ewzMwnRQCSBkuipq8R8lWxtKwEi5FPgXaiTj8DLl8yt2K4B0i/8C4/qSKAHYmf4vwU3/kHbxHyn7Pq3N3DedoBO3AE4hfJm1MekrYfE3W2DpkBJAwYv/KBnbVAIUuAv4OLBq7veh64VCtwJIt/gflmi8mioBuOnfepy3sfgrcMnT2s1940adtwThy+uPLXTg2JJqYS1eCaADi/8oWdtWAkYmt28Bm+R+R7pcKGwrgHSL/ycSj1czJQA3/VuO77YW/5Gy/uK2c998ZMetSogfbhUwoUnZK+H9FasE0KHFf5TMv884Ts4Bdgam5X5vulgoZCuAdIv/f43TVpFKAG76txzXbS/+ChyxuP3cHdCw0zYGvkm6DFt1yr3ASgnvtTglgG4u/u8tYKwocBOwP7BC7veoS4UCtgJIt/h/bJI2i1ICcNO/5ZjOsfgrYa4NeYByd0KNzppGCLBxdoYOm6p8PfG9F6MEAFvRvcV/ReDuAsbJ6PIw8CVgvdzvVlcKGbcCSLf4/+cAbRejBOCmf6uxnGvxHykvU1Wyd8QAHbU88BHgxoydNVVZRPqzxtmVADq4+Fdyf62AMTJRWUhYWF6f+13rQiHDVgDpFv9Da8iQXQnATf9WYzj34q/AB1WV7J0xSSetR9A2rbIipS5Xph7UZFQCCIt/55LtAK/EZtJqo1xNmByyZrIruWC3FbAIeNeA7aVY/L/a4N53SiDHQEoAsCY2vla9Nv1TxuKvwAmqSvYOGaeDtqleuK5M2qPLv7fQP60rAXR38Z8OXFHAuKhb7gU+Daye+30ssWC3FbAA+BDVfug47axJCE+b4hnv1+C+/yGRLHOA7afo7+uN2uqt6Z9yFn8FLlPVyhEgM1XCjvcQTP0bZxYnhkeBDVT1jpSNiMjewFewTV50PmESeFoiHRHZCvgFYJlcaMrEPhaIyP7AF1O2kZgnCDEtjlXVS3MLUxIicgTwMaPqrgZ+RsjhMQ1YCXg9YU5a1qiNseylqt+qc4GIrEaIMZECBX4N/ICggD4CbAq8CdiOoEzH8gfgNaq60KCuTiEiewInYjtn30ZQUpvwOLB8bo1odeBThAGXWyOyKj9sqe+SWwJIl153nRb653kER7vc48GqXAC8gx7vnY55vlZbAbnKLg3uefkC5G5aemv6J82X/8XAGsRZyjfL1SEbAycRtJDcA3OkPAr82KiuN7fUj8mUADq8+Fd9c6qBvLdT3qmTW4GDyZDpsbSC3VZAjrJjg/udVoDcTUsvTf+kW/xXqOqPyXHz/rY7Y13gewk6JKbMBg4EVqxkPN2gzr8BS7fUpymUgEvp9uK/vZHM/1zVtwkhot/8AsbrSLkH2I+e5x0AjizgWTQp2zS831QpzFOWXnr9k3jxr9o4OaKur7XVEc8B/gf7JBcx5TzgbWMHJrA2Ni/ZkS0OtBRKgGWZTXuL/9KEYDuxMv9sgnH8CcI+bO4+HSl/IwQ5GteRbdgL3d0KeEXD++3adul84EW5x0mGcZli8b+IMQHECB+vTev7SepOWB44nPZjsE9UFgDfpQqCMInchxi1tUGLA65UJWA2LS3+VT9YnBN/bDKZCYvOrsBlBfTvSLmSSTy5h7kAm9O9rYAXN7zXvxUge53SO9M/LS3+VVvbRtT5q5SdsDPlaKv3EpwNVxtQ9iWAPxm0e07LA680JWA27S7+G2BjZaoToGUr4Ee0m31ysvKrQcf5MBXgowX0fZ2ybsP7vLoA2Qctv6Fnpn9aXPyr9l4aUe95KTpgCeC/Cxh8ClwF7AEs2eA+tjJ6kLu2PABLUQJm0+LiX937OQZyXwss0aDtdYBjgIcK6Pu7gTe02fclFGBWAX0/aHlOw3u8qADZBynXU/lV9aXQ8uJftblBRN2XmcYBEJF1COdIX2FWaX0WEc70Hquq58RUJCLfBnaPlOdewlbAg5H1DEyiOAF1aOWc/2hEZDfgOwZVvU5Vfx8hx3KEMfNvwD8ayNOURYTtkE+q6qKMcrSGiMwkfHVulVuWAdiCsNVUl6+Td34dhDmE0Og35hakLRKd878I+CdVfXiSdtcmfGw14XpL7eetwIPk0zgfJoQONkuuAjybMJhjZTs+gzaayxIwm/a//FfCZrtplqFMAuxIWJByvRNKOMbYmy0BYBVsstV5aVYWAK/NPQ5aHnMpvvwvZICMoQTH5KZt3Gpx89MJ0dZyDbibCBEEk6RXBf7VQMZFwCszDMy2lYDZtLz4V/f5dQPZ5wDPTiTfRsA3yJe++m6CRabV55KrAKsCZ2Xq6z6X2TQ83dDVQrrFf/kB248JDnV/7M1PIwT0yTHYziE4Gk5L/ICFEIUtVt4ryOAQQ3tKwGzyLP6vMrq/f21B1mcTwtfekeF9mQds1/bzyVUIc9Mn6GZOkS6WM4CVcz/3lsdY1sW/kmG5iLbmxr5gs1oeZPMJAVk2aflBvwSbY0b7ZxqoqZWA2eRZ/GcQjr/Fyn8BLZ6jJzjKvpcQG73N9+cxeuYcCLyBED2xzX7uU5lLiEzZqzgUBD+frIt/JUfMFsCDTW9egG+2OMjuAj4OrJrxgX/B4D4eBp6XSf6jEj2bx4EXZrqnAwzkfwJ4ScZx9RpCwp+2jhE+RsModF0tBIVrN2yO0P2dENRst5ael2U5lhA45kaDuu4DDgNWyf18M4ynbbCPO3EBNRf/SpZ1I9q8vcnNC2E/s40Beykh4Er2cKeErGAWXxKnZpD9zaRNjHNu2xMB8HxsAkx9IffYqu5nLeDzwAMtvFdzCacdst93hn7eHvg59Y9rXgl8AFi2qmfrFp6TdTmqkl2ANwI/pZ7iuYBgtdqHlkKdl1aAFwD3Gz+XRot/Jc+LI9q9odYxQBER4GvABwe+qD4LCQPzWFU9P2E7tRGRtwI/Majqzap6pkE9UyIiHyZo/hbpPCfjr8AOqvrXxO0AICI/Bv5fZDW3ETKUzTUQyQQRWZbwdfkRYP2ETc0lRA48L2EbxVLNZesDryQcq3shT6W8voWwrTVSbho7rkVkB8Jx4y5xnKruN/ofRGRVYENCHIvRZTnCGLmDsOhfAlypqgtak7YwRGR5wtG8FxtWeyHhqN8jDWV6BeHZNOGqutrGf5BOO30COA5YO7eWN0UfnGFwrzeRWIMmLPhfSvi8xitzaOHLEtjBSN635h5Pk9yjEL5WU4YbngOsmfteu1iAXVp+tyzKt3P3W1cLweftNOPn0fjLf5RcW8e0P40BEZHNgc8O+vuanAFspKofVtVbErVhxX40C+AxmhcQvMGTUAWjOY0QjKZNVgbOEpH3pWpARJYhKIqxnKGqPzWoJwkaOJMQ53534M4EzawMnCwiqa1Dw8iyuQVoQBdlLoUjgJ0M67uAiC//USwTce1jAykAlenj/wjONJZcSfBK3klV/2JcdxI0RLf7tEFVB4nIBgb1PA0ReT5wPuErOQczgVkickRlZrXm4wQTZQyPERS54qkUge8QTNSfIl75HMuWBGcupx5dXEy7KHN2ROTdwKGGVV5A2H6LXfwh7pnOHdQCcDywXkRD43EwISvf2cb1tsExwJ8j65gJfNVAlsWIyGaE/aBNLOttyMeA74vIUlYVisiLCNtQsXyyA5amp6Gqc1X1MMK+9R+Mq/+YiGxtXOews9zUPymOLsqclcry/U3DKq2+/EdIawEQkd2B90Q0MhE7E85xdw5VfYJwtj6WbUTkXwzqQUR2Bn4PrGFRnxG7AGdXjkYWfI14K9S1hMiVXWV1QlwKS6YB3xORVYzrHWa6+DXdRZmzISJLEzJ9Lm1U5cji/6hRfRD3TCdXAERkfWz2W8djC0II106iIWHMLIOqjhGRFWMqEJEDgB9T5gv+auASEdkwppJKEX1tpCwKfKhS4DqHiDyPcELGakIazfOwGc99ocR3bSq6KHNO9iMcz7XgfOwXf4izAEy5BXAsaQfN7iJyUML6U3MQ4dx2DM+hoXOliMwQkeMJWxIDO3RmYF3gIhHZtsnFIrIyIRBTLN/Wwo6WDkr1NXIaaS08O1ZHXZ2p6eJi2kWZs1B9lH3UqLrzCXv+1os/RG4BTGiCF5HXAv8UUfmgHCUi16vqGS20ZYqq3i8ihxACI8XwARGZpaoDn+cUkRWAUwkBPbrAs4AzRWQfVa3bX58jxNGPYQ7B76RzVM6U3wFe1kJzR4jI6dqTFMIRxOyn30rInNqEaTTfAnIfgMH5KCHLaCxXkG7xh0gnwMnOF1okwBm0PEzGcKyR5zBbTxYErA38qcXnY10+z4Cxwwmhci1ibu+Ze6xEjLFPtvx8ds19z6UX4s6Evyui3aUi2l2Qu9+6UAjbYY8ZvEf3AGsllvXLEfIdMK7ZWER2JEy8bbE8cLqhs1hraHgKexNCasbwUgY4miYiryR4+ltGo2qbg4AfVmf6J0REZhBOoMQeJzwf+HZkHVkQkV0IWe3a5JMiYn3kd9iI+fJq/DWoqvMJ0VKbMLN6p5zJOYx4P5sngLep6q0G8kyGrRNgZW48MqLSpqwD/EREZmZoOwpVvZoQdS+WT1WOXuMiIu8gpEF+rkFbufln4FwRWW2S3+xPvMf7E8DelaLWKaojSDkUl3WB92dot0vEmNNjQ0/HXO/bAJNQOb7vaVDVvtqOv5G5E+C7gI0jKo2hyycDDifElo9heYLj5TMQkUOBH5DGAzwXmwN/EJFnLPIishahT2P5oqr+yaCeVqkUwdPI97w/PpWFpufE7b3GEXO9OwJOzpHE5035itb3c2qKeRyAwyIqtKCTJwM0OHl8xKCqt4vIYudLEVlCRL4FfIZ4U3iJrAlcICLbj/n3/yF+srqFsH/eKVry+J+K1Uib9KvruAIwZOrtmnAAABjgSURBVIjIy4G3RVZzAcFy2RZ2kQBF5FWkzUA2KEeJyFtyC1EXVf0JNhnCviIiS4nISsCvgD0M6iyZ5YEzRGRfgOrZ72xQ736qah06Nykte/xPxftyC1AwWXwAKlwBSMPukdcrsL+qxvqD1cHUAvDeGEkI+dktmAb873im4Q5glSzoOELqyW2iJXom9wLXRVx/rpUgo5gOHCciXyZ4tsZymnbwaCnBAvcOo7pi38dNRKTLzqYpyekDEKNAuA/AxOwYef0PVfVSE0kGx8YJsPIOfWekMAcSTLcWdPJkgNolC9qLNNaYawk50G+IqONYYFfgcROJns6HCcccY5hL+5kQo6k8/q224B4jKI+XRdaTIgx4p6msNDG+Gb4FUBgisglxUf+eJGGG10kwcwLclhCVrim3EUKJHkAwW1uwDt08GWCRLCgFvwa2qJSUKFT1e4QxMye2rgQc3sLxG1OMPf4V2F1VLyPeB+I9ibI6dpllaO6Ps0hV50W27wqAPbFbzieq6l9NJKmH2RZArPn/c6r6uKouJCSBuT6yvhE6dzJA7ZIFWXIC8GZV/btVhap6HiHWf46BPxHXMMFJilIRkTWw9fg/XFVPBai2QS6PqGsd2o0J0gVymv9j6/AtgPHZKeLaueRzNo53AqyO+8TEAL+LUSkTq0XmLcTHyR+hcycDNCQL+k5uOQhR9A5U1Q+mcE6ptN5XETIR5kYJyX7adMKJovL4Px07j/8fqOqnxvzb2L/XxbcBnk7OEwAQ5wPgFoAxVLFINo+o4quqereVPDUxsQC8iTjN8OtVhKrFqOqNwNsJgVgs6OLJAItkQTE8RohGdUzKRlT1AWA74KSU7QzAN1X1wswyDEwCj/8/Ms6JEVU9DZgdUW/s0ahhI+cJAPAtAGt2JO6I9SlWgtSh2hpvGtlRgXkjCkDsBDRuB6jqOQSnLgs6dzJAVe/DLqNUXe4CXquqP22jsWr7ZzfyxZG4HzgkU9tNsfT4vwN46yT7yz+MqPu5IvL8iOuHjdwWAFcAbIn5sLyTeEfbpsR8/c9TVR1RAF4aUdE1qjrhkTJVPYF+nww4kXCcr02uBl5ZOYG1SmV+fi+woOWmD6osEZ1ARN6JXYz/x4CdVfXOSX5zamQbMXPEsOE+AENCtQXXKE15xRkZw4xHmf/hqRzyMS/3IOaP3p4MqAbHh4hPFjQovyB4+seGJW6Mqp4MvIHwVd4Gv1fVWS21FU3l8T8Lm8iOoz3+J/6R6h8IaWib4grAU+TeAnAfADteRNxCerqVIA2ItkRNq76mJ0xAMwBTKgB9PxlQJQtqw0v0OGAnTZd7emBU9QKCc+BfEjf1d0LMhE6Q0uN/AH4U0c6mEdcOG74FMDzEON/OBc62EqQBJhaAGM3+AVUdKKCMnwzgSCBVZLqFwL+p6n6VslUEqnoT4Zjg71I1Qchdf2Oi+k1JEON/PI//yYjZinILwFP4FsDwsHrEtWeNdX5vmagogBCvAFxd58d9PhlQbQXsSjinbsmjhP1fi/C55qjqg8AbCSZva/6rK+F+K4//WcQdNxrNuB7/U1DrfR3DuiKyQsT1w4RbAIaHGGU8l/PfCFFRACEoADGpf2tPKH0+GVBZQbYEzjSq8s/Alqr6c6P6kqCqT6jqHsDBgIXG/ASwl6p+xqCutjiM+FDbI0zl8T8RNwJNo9AJ0In3rAXcB2B4iLEA3GUmRTOitwBmAM+OqKTRF4WqnlAlGbGI1z5yMuAV1bG7olHVhyurxZHAvwNNnBkfAg4n5J3uTNAbVf2CiJwCHE2wBDXhb8CeqpoiIVESMnj8j4uqLhSRa2luhYiZKxYjIksBmxA3+TbhLuAqA7OtWwCGhxgLQK7gPyNEj8MZxGkR10ZcewAh2c2bIuoYYR3CyYBtqjC8RVPt039URI4nfBnuSsiGNxWLCMcKP6aqbXnYm6KqtwDvEJFtgC8x+FflncARhJjbxT/jEUTkZbTs8T8FMQpAzFwxkuzoEGAjYImYuiJ4slKCjq7yWTTBfQCGh95bAGK8kRvHla++RnYBLgY2iJBhhC0IX8U5MjI1okrKs4eIfJRwbG5bQtz11YAVgJsJVpargauAS7uW5GYiVPUcEdmUsBhtXJVNqj+XJSQZuhn4LSGJ0UWqmiL7YDKqENvfJ4/H/0TE5IJodB8isgpwPM2tPpbMIIyzk0Tk7cAHVPXemnXk3gJwC4AdXVYAop0AYy0AUaY0Vf17ZQ6/BFg5pq6KQ0Tk510KBwugqvcAJ1cFABGZpqqL8kmVnsoScklVFiMikjG4hiXHAP9oVFddj/+JiHlnm84V/0dcsJVU7AysLCJb13zXcm8BuA+AASIyDXhuw8sXAnUVR2tMnABjvk6iHbqMTwZMB74rIp03cw374j8Zw7D4i8j2hABQFjTx+J+ImHe29lwhIh+izMV/hK2o74vU5S0AVwCe4jkMtvU6HvcVMEebxAHIZgEYwfhkwHrAF43qcpzaVCbvbxlV19TjfyJaswCIyAzg8xHttcVnRGTJGr/PugVQ+cA0/WCaXjlhOhDTD22HOh+P+EiAxFkAzDrBOGfAv3YlPoAzlHyd4McRS2OP/0mIeWfrzhUvJpzSKZ2lqXfEMfcWQGw9bgUYDkwsAE3TCQLU0ZoHwTJnwIkdSxrkDAEi8j5s0udaePyPR8w7W3eueHlEW21TJ9RxCQqA+wE4JpEAH8skwDMwzhnwHOAbBvU4zkCIyNrYWbEsPP7HI3rSqMFKEW21TR1Zc/sAxNbTeR8pBzByAizKlGScM2BnEdnToB7HmZQq1O93CMc3Y7Hy+B+PNr9eL49oq22urPHb3McAobB528mCyRZAcQPJ+GTAEV1JHex0mrcArzOox9LjfzyivxpqcBlhK6MLXFHjtyVsARQ3bzutY+IEGDOQoiKDTUZ1MuBAg6pWJ0Tac5yUHGJQxxxsPf7Ho7XFS1UfAlJsY1hz+qBhxKuTDTF+FCUoAL4FMBwMpwVgFF8mRIGL5cDKROs45ojIloQIjrF80Njjfzza/nrdF7gnos3UzAE+WOP3Mf33uGEYa3cCdIbLCXAsVUCYPYAHI6vaANgpXiLHGReLr/+TVPVHBvVMRZtOgFQ5K3YjJLAqjUeA96lqnaQuJZj/Y+tyBWA4GD4nwLGo6h2Er4hYDjaow3GeRpXVcofIam4D9jMQZxBaX8BU9SxCAiCrNNgW/AbYqEEqbVcAnFIwSQZU/EBS1e+LyM6EI4JNeY2IbKGqF1jJ5TgExTJme2nkvH9Mkp46tOkEuJhKkX+ziGxMiA+wOXnSAV9KcE68qmHI6Zj9c6sTAOA+AI5ROuDiFYCKfQhxu2PyNx+CbwU4RojImsC7I6v5kqqebSHPgGT9glXVkeyW34ytKxOlWADcB6DHVD5tMVF8O+EEuBhVfQD4SGQ1O4rIhhbyOA7w78Tltb8dONRIlkEpZQHrKqX0XyfmbScZS9Pc8rhwJLV6ZxSAih8Df4m4XoD/MJLF6TEisiLw/shqvqiqJgm1alDKAtZVSogCGFuXbwF0H5OtvGLjAIxHlX7x6MhqdvYjgY4B2xE3kT4EnGAkSx2y+AAMESVEAYRufbg59pic5umaBQDguwRnnqY8G3ipkSxOf4nNcf9VVbVcEKZERJag+ZaFAikDFHWFUiwo7gPQb8wsAMXGARiPau/i2MhqtrOQxek1MWNoPvAlK0FqEPO+zmvoNT9slKIAdO3DzbEl+gggdNMCAHA8EHNsKvbrzekxIvICYN2IKmap6r1W8tSglMWry/gxQKcEersFgKo+DHw9ooqtRGQpK3mc3hHz9W/hx9IUVwDiKaUPOzdvO6YU4QSYcyCdEnHtUsAWVoI4vSPGgnS5qt5kJkk93AEwnlIUAPcB6Df9tQBUXAE8EHG9+wE4tRGRacDrI6r4jZUsDShl8eoyvgXglEC/LQDVkcCYCGruB+A0YTNg5YjrXQHoNqX0YSfnbceMIpwAW40DMA4xk+mmIrKKmSROX4hRHOcDOXNRlLJ4dZlS+jCmrqU9Fkrn6f0WAMQpANOAl1kJ4vSGV0Rce36GyH+jKWXx6jJFBAJS1YUEhbIJQv6PNyeOIuIAZNUkK2eq2RFVPNdIFKc/PCfi2pzmfzAyG/acUkIBx9bnfgDdxsYCUAXWebJhRSVokr+NuNYVAKcuMQpAzFi1wC0A8ZTUh1223jpxmFkAnvYPDcg9kP4aca0rAE5dYhSAG82kaEZJi1dXKakPuzxvO3GYOQFCtwfSPRHXugLgDIyILAk8q+Hlj6vqQ5byNKCkxaurlHIMMLY+3wLoNiZbADOqP7usANwdca2pAlAlW1kf+5drEXCjqsbEPXDiWTXi2hyhf8fiCkA8JfVhl+dtJw6TLYBhUACyWgBEZDpwEPB2YCNgydg6J2nrFuBi4FBVvTlVO86ExJj/S1AAPBJgBJUFaHpEFdaOlF2et504zI4BQrdjAcQoADETOiKyPnAh8FnCkcJki3/F2sAuwNUi8v7EbTnPpOsKQElfr10katKtgpdZ4gpAfzG1AHQqJfAY7iXkKm9yHHFVEZEmaU6rIELnksePYDngBBFBVb+Rof2+0mcFwI8BlnUEENwHoM+4EyCAqj4JzGl4+QygaTTA48jvRPjfIhKTltapR58VALcAlNd/nZ23nWiK2QIoYSC1GhBDRF4NvCuiTSuWI2w/OO1Q2hdgXUpbwLpGEVEAR9H1edtpjscByMhrcgswilflFsDpDO4EGEdpCqBHAuwvbgHIyOa5BRjF2iISk53O6Q9uAYijtP6LsSr0cd4eJtwCkJHVcwswhty+CE43KG0B6xql9Z/P2z2kOno+M6KKoToGmIMrcwswivnEhUN2+kNpC1jXcB8ApwRint2C0cdR3QLQjD/mFmAU11QnIRxnKtwHIA73AXBKwOw9HlEAuhwHIAe/Au7PLUTF/+YWwCkfEVmKp973ujypqk9YytNRSrOg+IdbPzGL5+EWgAao6v3AvrnlIAQi+p/cQjidoLTFq4uUtgXgToD9xNwC4ApATVT1FOD4jCLMBnZvEsXQ6SWuAMTjWwBOCZhEAQRXAKJQ1b2Bd9I8EmFTvglsrKqzW27X6S6uAMRTWh/6vN1PzLYAhiEbYFZU9VQROQd4PSE+wKbA8sbNLARuAC4FLlTVK4zrd4af0havLlLaFoDP2/3EbAvAFQADKp+AU6riOCXiJwDiKU2Jch+AflKUE2Af4wA4TtcobfHqIqX5ADxGyITahCVFZMbUP3MKxJ0AHcephSsA8RTVh5UD8LyIKnzu7ibmToAeB8Bxhhszs2GPKc0HAPzjrY+YbwHEvOBLiMgSEdc7jpMe9wGIp7QtAIhTLPwoYDex3QKoYgO7KclxhpeizNcdpcQ+dAtA/zC3AIAPJMcZZkpcvLqGbwE4JWDuBPiM/6iJDyTHKRtXACIQEaHMbRSft/uHuRMg+EBynGHGFYA4lgGk4bULVXW+pTCjcB+A/lHcFoDHAnCcsinx67VLlKpA+Ydb/0iyBeBHAR1neCl1AesKpfafKwD9ozgLgA8kxykbjwMQR4lHAGPr9i2AbuJOgI7j1KLUL9iuUOIJgNi6fd7uJu4E6DhOLVwBiKPU/vN5u3/4FoDjOLVwJ8A4XAFwSsG3ABzHqUWpC1hXcB8ApxTcAuA4Ti1cAYjDfQCcUijOAuBxABynbFwBiKPU/vMPtx4hIkvy9HW7DovGBqTyOACOM+RUYWyXjqjCjwH6FoBTBjFr7TMS/vkWgOMMPzEWunmqqmaSdJdStwB83u4Xps68rgA4zvBTqvm6S5Tah+4D0C9MA3q5AuA4w0+pi1eXKLUPfd7uF24BcBynFqUuXl0iZr+81C0A9wHoHmZRAMEVAMfpA64AxFNqH/q83S+K3ALwY4COUy4eBTCeIhUAVZ0HLGp4+fTqWJnTHXwLwHGcWhS5eHWMUo8Bxtbv2wDdIpkFwOMAOM5w4qmA4yn1GCD4x1ufKNICsEwVbMRxnPJwC0A8JfehKwD9IY0ToKouABY2rDg20pjjOOkoefHqCiX3oSsA/SHZFgD4QHKcYcSdAOMp9RhgbP3uA9Atkm0BjPuDGrgC4DhlUvLXa/GIyHQgxlveLQCOFW4BcBynFq4AxBHTf4+r6pNmkoyPz9v9oVgLgMcCcJwycQUgjpLN/+DHAPtEskiA4Jqk4wwjrgDEUXr/eUKg/pB0C8BjATjO8GH61dBDSlcA/MOtPxS7BeADyXHKpPQFrHRK7z+ft/uDOwE6jlOL0hew0nEfAKcU3ALgOE4tXAGIo/T+cx+A/uBOgI7j1MIDAcVRugLg83Z/8C0Ax3FqUfoCVjq+BeCUQrFbAB4HwHHKxBWAOErvP/9w6w9+DNBxnFp4OuA4SlcA3AegB4jINGCpiCrcCdBx+oSIzABmNrx8YZUltO/EzG2lbwH4vN0dYjLuPjFeSGpXABxnuHEHwHhi9slL3wJwH4DuYG7JcwXAcYab0s3XXaD0PvR5ux+YK/OuADjOcFP64tUFSt8CcB+AfuAWAMdxauEKQDzDvAWwjIiImSROStwC4DhOLVwBiKfoPlTVx4FnOHgNiOBHuLuCeVIvjwPgOMONOwHGU7QCYNCOf7x1g+RbAB4HwHGGC48BEE/pPgCx7fjc3Q18C8BxnFp04eu1dEr3AYhtx48CdoOinQBnVkFHHMcpB1cA4ulCH/rH2/CT1gKgqouA+RGN+EBynLLowuJVOl3YAnAFYPhJ7gQIPpAcZ5hwJ8AIRGRJoKllU2nPjyJG0fAtgG6QfAsAXAFwnGHCLQBxxPTfPFVVM0kmx+ft4Se5E+CEPxwQPwroOGXhCkAcXTD/gysAfcAtAI7j1MIVgDi60n8+bw8/rVgAPBaA4wwPHgcgji4cAYxty30AuoE7ATqOUwt3AoyjKxYADwQ0/PgWgOM4tejKAlYq7gPglELxToA+kBynLFwBiMO3AJxScAuA4zi1cAUgjq70n8/bw08rFoAYs9W8iGtjiGk3l8y58T6rT0yUzFx9FiNzmybsUolxhHzETIq0bfXV2bNrc2BMm+O+y+MpAFdGNHJdxLUxXNXwuntU9R5TSbpD0z6LvbbLXBNxba4+u6HhdQ8Ct1gK0lFi5rSYubTNtnLN21mp5v6m83+O97npc5oL3Djef4ynAJzbsBHIN5Aubfm6YaDpvd+hqnebStIdLo+4NtdYa6oAnF/lBuk7NwBN++H3loJMhqreDNze8PJeKgAVXVo7mj6nC1X1yfH+4xkKgKreSTPt5teqem+D6yw4Exj3BqfgNGtBOsQlQJPn1ds+U9W7aKYEXKiq91vLMyCnAo83uO4X1oJ0EVWdD5zS4NLbgD8bizMVv2xwze3A2daCdIjTG1zzJGHNaZsfAQsaXDfhuzyeBQBgT+CJGg0sAPatI5ElqnotcFTNy84BTkwgTidQ1UeAfWpeditwaAJxusQe1FtQ5wN7JZJlSlT1euCzNS87DzghgThd5QDg4Rq/XwTs3mIegBEOISgeddhfVfvs7PkNwnivw1HVmtMqqnoT9de5S4DjJqt03AIcSMhmNVVZCOw7UT1tFWAmcNmAMt8PrJNb5hIKcNKAfbYAeENueUsowEED9pkC+xUg75KErb1B5J0DrJVb5tIKsCtB8RukD4/MKOeW1bs6iJyzcvdrCQX4B4LPyyB9dhkwM6OsSwEXDijrQ8B6k9Y3RWNvBe6cpIE7gW1yP8AxnXN0pZRMJPNpwGq5ZS2lAEKw3jw6xaDfKLesJRVgB+COSfrsVuCNueUcJe904EjC1+lEMp8BPC+3rKUW4JXAzZP03/3AewqQcyPgD5PIOQ/4YG45SyrAGtX4n6jPFlZry1IFyDqjepcnW+d+yQCKvFQVToiIrEjYEnhZVZYkmEzOBX6qqnMmrSADIrI5sBNB3pcAs4E/Aueo6s8yilYsIrIusAuwObAZ8AChzy4CTtYJnEj6jIisRPgy3LwqSnAO+iNwkqr+PaN44yIimxKUl60J78ZfCQreb1W1yX5orxCRZxE+jF4HvJanFOTLCF/U92UUbzEiMh14L7AFYR58PkEp+B1wuqqO6xXed0RkR2Ab4OXAOoSTP5cR+qwop3ER2YSn3uVNCJ7+lxHWuZ8MVMdUCoDjOI7jOMPHRE6AjuM4juMMMa4AOI7jOE4PcQXAcRzHcXqIKwCO4ziO00NcAXAcx3GcHuIKgOM4juP0EFcAHMdxHKeHuALgOI7jOD3EFQDHcRzH6SGuADiO4zhOD3EFwHEcx3F6iCsAjuM4jtNDXAFwHMdxnB7iCoDjOI7j9BBXABzHcRynh7gC4DiO4zg9xBUAx3Ecx+khrgA4juM4Tg9xBcBxHMdxeogrAI7jOI7TQ1wBcBzHcZwe4gqA4ziO4/QQVwAcx3Ecp4e4AuA4juM4PcQVAMdxHMfpIa4AOI7jOE4PcQXAcRzHcXqIKwCO4ziO00NcAXAcx3GcHuIKgOM4juP0EFcAHMdxHKeH/H8hekczV4cYLQAAAABJRU5ErkJggg==;" parent="1" vertex="1">
                    <mxGeometry x="564.1" y="160" width="46" height="46" as="geometry"/>
                </mxCell>
                <mxCell id="7VhcuU38_8ilDAtrPy3k-54" value="&lt;i&gt;How is GDP defined ?&lt;/i&gt;" style="whiteSpace=wrap;html=1;shape=mxgraph.basic.roundRectCallout;dx=30;dy=15;size=5;boundedLbl=1;direction=east;flipV=0;flipH=1;" parent="1" vertex="1">
                    <mxGeometry x="470" y="100" width="100" height="60" as="geometry"/>
                </mxCell>
                <mxCell id="7VhcuU38_8ilDAtrPy3k-58" value="&lt;font style=&quot;font-size: 12px;&quot;&gt;Embedding&lt;/font&gt;" style="text;html=1;align=center;verticalAlign=middle;whiteSpace=wrap;rounded=0;fontColor=#4060A9;fontSize=12;fontStyle=1" parent="1" vertex="1">
                    <mxGeometry x="260" y="290" width="90" height="30" as="geometry"/>
                </mxCell>
                <mxCell id="7VhcuU38_8ilDAtrPy3k-62" value="&lt;font style=&quot;font-size: 12px;&quot;&gt;Embedding&lt;/font&gt;" style="text;html=1;align=center;verticalAlign=middle;whiteSpace=wrap;rounded=0;fontColor=#4060A9;fontSize=12;fontStyle=1" parent="1" vertex="1">
                    <mxGeometry x="410" y="250" width="90" height="30" as="geometry"/>
                </mxCell>
                <mxCell id="7VhcuU38_8ilDAtrPy3k-64" value="Vector DB" style="text;html=1;align=center;verticalAlign=middle;whiteSpace=wrap;rounded=0;fontColor=#4060A9;fontSize=12;fontStyle=1" parent="1" vertex="1">
                    <mxGeometry x="450.99" y="430" width="90" height="30" as="geometry"/>
                </mxCell>
                <mxCell id="7VhcuU38_8ilDAtrPy3k-65" value="Semantic search" style="text;html=1;align=center;verticalAlign=middle;whiteSpace=wrap;rounded=0;fontColor=#4060A9;fontSize=12;fontStyle=1" parent="1" vertex="1">
                    <mxGeometry x="500" y="325" width="90" height="30" as="geometry"/>
                </mxCell>
                <mxCell id="7VhcuU38_8ilDAtrPy3k-66" value="" style="endArrow=classic;html=1;rounded=0;" parent="1" edge="1">
                    <mxGeometry width="50" height="50" relative="1" as="geometry">
                        <mxPoint x="532.1" y="411.15999999999997" as="sourcePoint"/>
                        <mxPoint x="622.1" y="410.58" as="targetPoint"/>
                    </mxGeometry>
                </mxCell>
                <mxCell id="7VhcuU38_8ilDAtrPy3k-67" value="Source 1" style="rounded=1;whiteSpace=wrap;html=1;fillColor=none;" parent="1" vertex="1">
                    <mxGeometry x="631.5" y="380" width="70" height="20" as="geometry"/>
                </mxCell>
                <mxCell id="7VhcuU38_8ilDAtrPy3k-68" value="Ranking" style="text;html=1;align=center;verticalAlign=middle;whiteSpace=wrap;rounded=0;fontColor=#4060A9;fontSize=12;fontStyle=1" parent="1" vertex="1">
                    <mxGeometry x="532.1" y="370" width="90" height="30" as="geometry"/>
                </mxCell>
                <mxCell id="7VhcuU38_8ilDAtrPy3k-69" value="" style="shape=image;verticalLabelPosition=bottom;labelBackgroundColor=default;verticalAlign=top;aspect=fixed;imageAspect=0;image=data:image/png,iVBORw0KGgoAAAANSUhEUgAAAgAAAAIACAYAAAD0eNT6AAAABHNCSVQICAgIfAhkiAAAAAlwSFlzAAALGAAACxgBiam1EAAAABl0RVh0U29mdHdhcmUAd3d3Lmlua3NjYXBlLm9yZ5vuPBoAACAASURBVHic7N13uF5F1f7x7w0JvXcivCBIFZGOgKB06aGIVBERu+KLil30tYEVsPCTIk0QpAsRaUoTkKoiigoi0nsnoSTr98fsh3OIKafs/cwu9+e6nisK58ysFLLWnj2zRhGBmZmZdcssuQMwMzOz/nMBYGZm1kEuAMzMzDrIBYCZmVkHuQAwMzPrIBcAZmZmHeQCwMzMrINcAJiZmXWQCwAzM7MOcgFgZmbWQS4AzMzMOsgFgJmZWQe5ADAzM+sgFwBmZmYd5ALAzMysg1wAmJmZdZALADMzsw5yAWBmZtZBLgDMzMw6aEzuAMzMrFqSBCwNrAQsQnr4G8pn1oq+tuqvr3LsAB4A7h30uQm4ICJeGPJvSg0oInLHYGZmJZI0FtgH2JqU9FcE5soaVPs9B5wLnApcFhGTM8czUy4AzMxaQtJcwIHAp4ClMofTZf8E3h8RV+QOZEZcAJiZtYCkjwFfJi3xW34BHA98OiKeyh3MtLgAMDNrMEmzAEcBH8kdi03Tg8D4iLghdyBTcwFgZtZQkuYgvXPeJXcsNkNPA1tExE25AxnMBYCZWQMVyf8SYOPcsdiQPEUqAm7OHUiP+wCYmTXToTj5N8kCwKWSXp87kB6vAJiZNYykN5POnruXS/NcFhFb5g4CvAJgZtYokmYFjsPJv6m2kPSe3EGACwAzs6b5ALBO7iBsVL4vafHcQbgAMDNrlnfnDsBGbUHgoNxBeA+AmVlDSFoauAdQ7lhs1P4DLBsZk7BXAMzMmmMXnPzb4n+ATXIG4ALAzKw5dssdgJVqn5yTuwAwM2uOVXMHYKXaLOfk3gNgZtYQkiYCc+SOw0rzMjBHREzJMblXAMzMGqC49MfJv13GAuNyTe4CwMysGebKHYBVYplcE7sAMDNrhrG5A7BKLJprYreSNDNrgIh4UtI9VPPEOAU4EZhY/O+RfiaP8vubMPY/geVH9Ks8bY+WONawuAAwM2uOK6mmE+AswOSI+GgFY7eGpEUpN/kD3F/yeEPmVwBmZs1xZYVjHyjpQxWO3wYbVDDmgxWMOSQuAMzMmqPKAgDgSEkbVzxHk72l5PEei4gXSx5zyFwAmJk1RETcBdxa4RRjgbMkLVXhHE1W9grA7SWPNywuAMzMmuVjFY+/GHCuJPccGETSrMC6JQ97XcnjDYsLADOzBomI3wOnVDzNOsAxFc/RNKsDc5c8pgsAMzMblkOAZyqeY19J/1vxHE1SxQZAFwBmZjZ0EfEQ8OU+TPUdSZv3YZ4mKLsAuCsisvUAABcAZmZNdRRwdsVzzAqcIen1Fc/TBGWfAMj69A8uAMzMGinSVa77AbdVPNXCwHmSOnsXQdEA6A0lD+sCwMzMRiYingfGA09UPNXqwAkVz1FnZT/9gwsAMzMbjYj4F7A7qZ99lXaX9NmK56irst//P0/1Kzcz5QLAzKzhIuJy4FN9mOrrktbvwzx1U3YBcFNEvFLymMPmAsDMrAUi4gjg5IqnmRU4QdLsFc9TG21sANTjAsDMrD0+ANxY8RyrAF+teI46aV0DoB4XAGZmLRERk4CdgYcqnupTkpareI66aOUGQHABYGbWKhFxP7AL8FKF08wKHFjh+HXSugZAPS4AzMxaJiKuAz5S8TT7Sxpb8Rx1UHYBUIunf3ABYGbWShFxHPDjCqdYHNihwvGzk7QILWwA1OMCwMysvT4BXFnh+G+vcOw6aN0FQIO5ADAza6nirPk7gXsqmmKNisati7ILgBeoQQOgHhcAZmYtVmw4G09KPmV7syRVMG5dlH0C4MY6NADqcQFgZtZyEfFH4IAKhp4PGFfBuNkVDYDWK3nY2iz/gwsAM7NOiIjTgcMrGLqteeRNtLQBUE9bf+PMzOy/PV7BmFMqGLMOWr0BEGBM7gDMzKxakuYBjifdGlg2FwBDU5sGQD0uAMzMWkzSisC5wKoVDD8ZeKqCceugtQ2AevwKwMyspSSNJ10OVEXyB7gjIiZWNHY2bW8A1OMCwMysZSTNIukbwDmknfpVuaXCsXOq4gKg6ysYc1T8CsDMrEUkLQycBmzVh+lu6sMcOVTRAOjPJY85ai4AzMxaQtJapKf+Zfow3eRirjYquwCoVQOgHr8CMDNrAUn7A7+nP8kf4KKIuK9Pc/VN0QBo3ZKHrd37f3ABYGbWaJJmk3Q08DNgjj5O/dM+ztVPbwLmKXnMWhYAfgVgZtZQkpYCzgLW7/PUfwYu6vOc/dKJDYDgFQAzs0aS9HbgZvqf/CcDB0TE5D7P2y9VNAB6pOQxS+ECwMysYSR9ErgMWCzD9D+IiLbu/ocONADq8SsAM7OGqLil71DcCnw509yVKxoArVDysLVc/gcXAGZmjVBxS9+h+BOwRRs7/w1Sxfv/2q4A+BWAmVnN9aGl78z8Gdg8Ip7INH+/dKIBUI8LADOzmpI0RtI3qb6l74xcQUr+VVwlXDedaADU41cAZmY1JGk54FSqWZYequ8Dh7R4x/+rutQAqMcFgJlZzUjaF/gxMG+mEJ4nHfU7I9P8OaxGRxoA9bgAMDOrCUnzA0cDe2YM405g54j4S8YYcih7+R9qfAIAXACYmdWCpI1IS/796uU/LRcC+0bEUxljyKUzDYB6vAnQzCwjSbNK+ipwJfmSfwBfAXbsaPKH8guAWj/9g1cAzMyykfR60lN/FcvPQ/UUsE9ETMgYQ1aSFqb8BkC1fv8PXgEwM8tC0j7AH8mb/P8CrNvl5F/oVAOgHhcAZmZ9JGl+SacCp5DvbD/AGcBbIuLOjDHURacaAPW4ADAz65Nio98fgb0yhvEK8MmI2CMins8YR510qgFQj/cAmJlVrGgy8yXgi8CsGUN5FNg9Iq7IGEOtFL8365U8bO2X/8EFgJlZpWqy0Q/gBmDXiLgvcxx107kGQD1+BWBmVhFJe5N/ox/AccAmdU3+kmaTNI+khST1e19E5xoA9XgFwMysZEUS+wmwd+ZQXgQ+FhHHZo7jVZIWBN5OSrwbAmsDc0z1NfeTTijcBvwOuLjC+wjKPgHwr7o3AOpRROSOwcysNSRtSFryXzZzKPeRlvxvyBwHAJJWBQ4C9gXmHOa33w+cCPwsIv5Vclx/B1YscchTI2KfEserjF8BmJmVoLi69yvAVeRP/hcAa9Yh+UtaUdLFwO3A+xl+8gd4HfAF4B+SDpc0x8y+YYixLUy5yR8a8v4fXACYmY2apDVIm+wOJe8u/0mkJf8dI+KxjHEAIOl9wC3AViUNOStwCHCrpDLe3XeyAVCPCwAzsxGSNLukbwA3AmtmDud2YL2I+FHmOJC0gKRzgGOBuSuYYmXgGkkfHOU4nWwA1ONNgGZmI1C86z+elIxyO5rU3Gdi7kAkLQ9MAFaqeKpZgJ9IUkQcPcIxOtkAqMcrAGZmwyBpbklHAleTP/k/AewcER+uSfJ/K/AHqk/+r04J/FjSh4b9jdIsdLQBUI8LADOzIZK0Bel42sfJ//fnFcDqEXFe5jgAkLQvcDmwcL+nJhUBuw7z+zrbAKgn9x9gM7PaK95pHw9cSv4d/q+QdsRvHhH3Z44FJV8DTgZmyxUGcJKkNw3jezrbAKjHewDMzGZA0nhSU58lc8cC3A3sFRG1SDTFcbwTgXdlDgXSZsPzJK0bEU8M4evLLgAa0wCoxysAZmbTIGkxSWcA51KP5H8asEaNkv9ipC59dUj+PcsBZxQX/MxM2QVAo5b/wQWAmdl/kbQP8Fdg99yxAM8B+0XE3hHxTO5gACStRup7UMU5+tHaAvjOjL6g6w2AelwAmJkVJC0taQJwCv3fzDYtN5I6+p2cO5AeSe8Afg8skzuWGfjfYlPi9HS6AVCPCwAz67xiI9uHSM10ts0dDxDAt4GNIuLO3MH0SPoIcCHQ7xv7RuIYSetM59+VXQA0qgFQjzcBmlmnSVqB4rrc3LEUHgT2jYjLcwfSU7xT/z7p+GNTzAGcK2mdiHh4qn/X6QZAPV4BMLNOkjSrpE8Df6I+yf9C0tn+OiX/+YBf0azk37MUcLaksb1/4AZAA1wAmFnnFOfFrycts4/kdrqyPQd8OCJ2qMMlPj2S3kjah1CH1yIjtREw+H6E1YB5S57DBYCZWZ1JmkPS/wE3A9N7P9xvvwXeNIp+9pWQtDuprW/Zu+VzeP+gi4M63wCox3sAzKwTJG0PHEk6K14Hz5Kutv1pRETuYHokjQEOBw7OHUvJjpL0F9wA6FUuAMys1SQtR0r82+eOZZDLgPdFxD25AxmsaO7zS+BtuWOpwFjgbOClksdt5PI/+BWAmbWUpDmL5f7bqU/yfwZ4f0RsWcPk/xbgFvIk/4nAe4G/VTzPYqSNgWVqbAHgFQAza52if/8PyH9xz2CXkJ76780dyNSKHghHkOcyn4eAnSLiBknXkDoMLpAhjpFqbAGgGr16MjMbleJM/1HAO3LHMsjTwCcj4vjcgUytuMzn/wH7ZQrhz8D2g4uiotPgBJqxQv0CMH8TewBAM36BzcxmSNJckr4J/IV6Jf+LgNVqmvyXBa4lX/K/kNTp8DUrIhHxG+BzeUIatkY2AOpxAWBmjSZpN+AOUtLIdR/91J4G3hsR20bEfbmDmZqkrUlHIdfMFMIPSMv+z03rX0bEt4Ff9DekEWns8j+4ADCzhpK0sqRLgTOBpXPHM8gE4I0RcULuQKZW3HnwBeDXwEIZQngF+EBEHBwRU2bytQcAt/YhptFo5Pn/Hu8BMLNGkTQP8GXgE6SjXXXxJPC/EXFS7kCmRdJCwInADplCeArYbThtjiX9D3ATsGhlUY3O4k3tAQAuAMysQSTtAXwXeF3uWKZyAenJ9sHcgUyLpE2AUyn/CNxQ3UXa7HfHcL+xiP0y6lXsQWoAtHzuIEbDrwDMrPYkvVHS70jvheuU/J8g3dy3Yx2Tf3Hh0VdI7YZzJf+rgPVHkvwBIuIq0mpP3TT6/T+4ADCzGpM0n6TvAX8E3p45nKmdT3rX//PcgUyLpKVIif9QYNZMYZwEbBkRj49mkIj4CXBsOSGV5urcAYyWXwGYWS1J2gf4DrBE7lim8gDwiYg4M3cg0yNpJ+Bn5NnoBxDA5yPisLIGlDQb8Dtgw7LGHIWXgHGjLWxy8wqAmdWKpNUlXQWcQr2S/2RSt7yV65r8Jc0u6YfAeeRL/s8Cu5aZ/AEi4iVgV+D+MscdoQubnvzBBYCZ1YSkxSX9hNSPfuPc8UzlemCdiPjfiHg2dzDTImll0vW9H80Yxt+AdSPi3CoGj4iHgJ2BSVWMPwy1O+I5Ei4AzCyroovfl4A7gQ+R7331tDwJfADYMCL+mDuY6ZG0P+m43JszhnEmsF5E/L3KSSLiRtLvSS4PA7/JOH9pXACYWRbFDvX3kRL//wHzZA5paicBK0XEMVHTzVLFJsnTSO/7584UxmTg0xGx+/Q6+5UtIk4mdRPM4QdNbv87mDcBmlnfSdoOOBx4Y+5YpuF24MPF8bPakrQucDqwXMYwHgHeFRFX9HtiSbOSnsS36OO0vyb1M2hF4nQBYGZ9I2ltUiOft2cOZVpeIK1EfD8iXs4dzPRIEvBJ4JvkbY5zPamzX7ZNeUV3w+uAFfsw3d3A2hHxZB/m6gsXAGZWueLmuW8CewDKGsy0nQ98PCL+kzuQGSla454AbJY5lKNJRyFfyhwHkhYnrQSsUeE0k0j7QOp+N8GweA+AmVVG0oJFI587gD2pX/K/B9gxIsY3IPnvD9xG3uQ/EXhPRHy4DskfICIeJq0oVdWY51HSzYWtSv7gFQAzq4Ck2UnH0b4ALJg5nGl5Gfge8LWIeCF3MDNSPOEeS75LfHruJp3vr2UilDQn6STCdiUOeyWwV0Q8UOKYteEVADMrTXHd7F6kJ/7vUs/kfyWwRkR8rgHJ/53AX8if/C8ivf+uZfIHiIiJwHhS4XnvKIebQtoPsnlbkz94BcDMSiJpU1Lr3rVzxzIdj5COq52cO5CZkbQg8GPSa5OcAvga8NWImJI5liEr2gbvD3wOWGYY3/pP0vHPkyNitEVE7bkAMLNRkfRG4NvAtrljmY4ppCX0zzVhB7ekbYDjgHGZQ3kc2C8iJmSOY8QkjQW2AVYnHTldjXRiYAypoc8Dxedu4JcR8ftMoWbhAsDMRkTSONIy6XuoV/e+wW4g7e7/Q+5AZkbSPMD3gQNzx0J6TbJ3ziN+VZE0BoiImJw7ltxcAJjZsEiaFzgEOBiYK3M403M/afn3501o2iJpE+BE4PWZQ5lMWvL/WpOW/G1kxuQOwMyaoXhyej/pfvnFMoczPRNJ+xC+HRHP5w5mZiTNQeqP8AnyH5G8j7TjvfH33NvQuAAwsxmSNAvwTuCrwEqZw5mRXwCfacrmraKV70nAKrljITVCem9EPJE7EOsfHwM0s2kqjvS9E/gzqed8XZP/DaQubXs1KPkfDFxL/uT/IvCxohGSk3/HeAXAzF6j6DW/M/AV4E15o5mh+4HPAqc24T1/j6TPAt/KHQfwd2CPOl9zbNXyCoCZvUrSeOBW4Gzqm/wnkk4frBgRjdjk11Oj5H8iqbGPk3+H+RSAmSFpB9I7/jVzxzIDQXrP/9mmLPUPJmlbIPeZ+meBD0bEaZnjsBrwKwCzDpO0HSnx17V7X88fSLfPXZ87kFH4eOb5byIt+d+VOQ6rCb8CMOsgSdtIugG4kHon//uAfYENmpz8Jb0B2CrT9EFqMLShk78N5hUAsw6RtBXpif8tuWOZiRcYOM9f6wt7huj95Dnn/yDpeN9vMsxtNecCwKwDJG1BSvwb5o5lJgI4jfSe/77cwZRoOBfSlOV04CM+3mfT4wLArMUkbUZK/G/NHcsQtOE9//T083Xr48CHIuLMPs5pDeQ9AGYtJOltkq4ELqf+yf8uYC8a/p5/Jvr1d+0FwGpO/jYUXgEwaxFJG5Oe+DfNHcsQPEQ6z39cRLycO5iKvVTx+M+QVk9OqHgeaxGvAJi1gKSNJF0GXEX9k//TwBeA5SPi6A4kf4CzKhz7t8CbnPxtuNwIyKzBJG1AeuLfMncsQzAR+BFwWNc2pkkaC9wLLF7isC+QWiH/qEndEK0+vAJg1kCSNpV0CelCmbon/1eAY4EVIuKQriV/gGKVo8wn9OuBNSLih07+NlJeATBriOJa3vGkp751M4czFEFa+v5iRPwjdzC5SVoSuI7RHQl8iXRJ07cjYnIZcVl3uQAwqzlJs5G64X2a+l7JO7XLgM9FxE25A6kTScsCVzCyIuBPwLsj4s8lhmQd5gLArKYkzUvqIHcwMC5zOEN1IynxX547kLoaQREwGTgM+GpHNkxan7gAMKsZSYuRLo75CLBA5nCG6u/AFyLi7NyBNIGkhYEDgQ8y/ULgSeBk4OiI+Hu/YrPucAFgVhOSXg98CtgfmDNzOEN1H+md9Il+Jz18xb6O7YDNgFlJG7NnAW4AzoiIiRnDs5ZzAWCWmaTVgc8A7yIlgSZ4AvgW6QjapNzBmNnwuROgWSaSNiHt6N8mdyzD8DxwBPCdiHg6dzBmNnIuAMz6SJKAHUmJv+5X8g72Iuks/9cj4uHcwZjZ6LkAMOuDohPc3sAhwCqZwxmOSaTEf3hE3J87mJEq9lesPegzEbi5+Nzkosa6yHsAzCokaW7Sbu+DgaUzhzMck4BjSIn/gdzBjJSkxUk/jx1n8GUBHEU6vuhNd9YZLgDMKiBpEeBjwEeBhTKHMxwTgZ+SOs09mDuY0ZD0LuDHwMJD/JZ/AO+JiOuqi8qsPlwAmJVI0jLAJ4EDgLkyhzMcE4H/R0r8D+UOZrQkHUTarDhcU4AtIuJ3JYdkVjsuAMxKUBzl+xSwJ83aW/MCA4m/Fe/BJa0I/JGR91L4N7B6RDxbWlBmNeQCwGyEiiYuOwIHAW/PG82wvQD8hHSc75HcwZSl+D25BthglEMdExEfKCEks9pyAWA2TJIWIC3xfxRYNm80w/Y8A4n/0dzBlE3S7sAZJQ23slvwWps1aanSLCtJK5M29u0HzJ05nOF6nrQh7rttTPyDlNlbYX3SHQdmreQCwGwGisY97yBdzrM1oLwRDdtzwI+A70XEY7mD6YO1Sx7r5BLHM6sVFwBm0yBpHtKT/seAlTKHMxLPMpD4H88dTD8U7//XLHHIMosJK4Gk2envRVlTIuKZPs7XVy4AzAYpOsZ9lPSOf/7M4YzEs8APSYn/idzB9NnslHv0skn9G1qhWHFbh/T6ZUlg3FSfvv+eSHoJeBB4YNDnQeBfwCUR8WS/YyqLCwAzQNKmpN38O5CuY22ax0lP/Ed1MPEDEBETJd0BvLGkIW8paRybAUmzAZsCOxWfcXkj+i+zAcsUn6m9Iukq4Dzg/Ij4T18jGyUXANZZkuYg9ec/CHhT5nBG6j/A94HjIuL53MHUwE2UVwDcVNI4Ng2StgXeTboNc77M4YzUGGCz4nOUpFuBc4GfNOHVm48BWudIWgr4MPB+ht4mtm7+ChwO/CIiXs4dTF1I+hipr38ZNomIq0saywqS1gO+A2ySO5YKPQ0cBhxZ5/slXABYZ0jagPS0vyvNXf26lpT4Lwj/x/tfist/bmf0hd2fgHVdXJVH0vLAt4B35o6lj+4HvgycFBGTcwczNRcA1mrF+8XdScf41s0czmj8GjjMT6QzV1wCdPoohngZWC8i/lhSSJ0maT7g68AHgbGZw8nlduDgiLgkdyCDuQCwVpK0GOkvnA8BS2QOZ6ReIXW1OzwibssdTJNIOoNU+I3EVyLiq2XG01WS3gD8Clgldyw1EMCXIuIbuQPpcQFgrSJpbdLZ/T1Ix8KaaCJwPOko378zx9JIkhYETiTd1TBUQboY6SAv/Y+epM2AM/FxyqmdDry3DnsDXABY40mam3QL3wdIZ4ib6klSu96jWt6ut28kvRs4ElhgJl96L+kv5cuqj6r9JH2EdB1zU/faVO0mYHxE3J8zCBcA1ljFFbwfAPahuceIIG0U+j7pBrrncgdThqKhy5qk9slbk5q63EO6avdu4JSIuK9PsSwFvI/U2W8dBl4J3Q3cDNwA/LTNHd/6RdKspCLWNynO3IPAThFxY64AXABYo0iaE3gX6S+YMi9+yeEO4NvAqRHxUu5gyiBpIdKGyw8Bi83gSyeSip7DI+LZfsTWI2kcMKmrDZOqJOko0is4G5onSRtO78wxuQsAawRJq5KS/ruZ+XJu3f2BdJTvvLYc5ZO0JHAwaePlPMP41oeBvSLit5UEZn0j6UDgmNxxNNDfgLfkWIFyAWC1VVz8sRsp8W+cOZzRCtJRvu9GxBWZYymNpGWBQ4D3MvJNl08Aa3vDY3NJ2gS4jO4e8xuti4DtI2JKPyd1AWC1I2lFUpe+99DcTn09zwMnkTqC/SN3MGWRtArwOdLmyzI2et0KbFSHndE2PEUReCOwSN5IGu97EfGpfk7oAsBqoWjYszPpaX/TzOGU4T+ky3mOjYincgdTluKY5edJv1cqefgfRYTfHzdIcQLnOpp7l0bd7BcRJ/drMhcAlpWk5UhP+/sz401jTXEd8APgnDq2/hypYon3C8BWFU7zKLB4W/ZFdIGkrwFfzB1HizwNLN+vi4RcAFjfSRpDatDyAWBLyn+S7LdXSA1PjoiIG3IHU6bixrbPAxv1acp1IuLmPs1lo1Bs/LwTmCt3LC3zg4g4uB8TuUmD9Y2kZYADSRvGlswcThmeAH4K/Dh3Q48ySZqFdGHS54E1+jz91qSz+VZ/X8HJvwofkXRUPzbFugCwShXn9ncmLfFvTvOf9iEd2zkSOLlNm9YkjSU1VfoMsFKmMNbKNK8Ng6SVgQNyx9FSs5EuT9qn6olcAFglJK1PSvp7APNnDqcMAVxMam96SZveUxdF2gHAp4H/yRzOQ5nnt6H5FjBrhnlfBCb1cT6Rp8voXpK+FxG3VjmJCwArjaQlgH1Jib8tt3+9AJxCOsb3t9zBlKm4pvVDpAY+ddmAeU/uAGzGJK0HjO/DVC8ClwPnkTbXPpCje2NxQmlJYHlgO9LPfbmqpwW+AWxb6SQtepCxDIpl4x1ISX8b8jwVVOF+0jG+Y9rWMlbSIsBBwEepX1fF3SPizNxB2PRJOoL056cqk0j3CXyrX7vhh0vSO0jdPFevcJrJpFMxlf0auACwEZH0ZlLS35t2NQC5gbTMf2ZEvJI7mDJJeh3wSdKxy7kzhzMtE4E3RMQDuQOx6ZN0N7BsRcNfC+wREfdWNH5pis2yHybdaVFVB8T9I+LEisb2KwAbOkkLA3uREv+amcMp04vAL4GfRMT1uYMpm6TlSRv79iNtMKqr7zn515ukNagu+Z8MvD8iXqxo/FIVbXt/JOk24CyqeRAaD5xYwbiAVwBsJorrPbcmJf0dqXcCGa5/Af8P+FldlxpHQ9JqpHa976L+r2YeAlZoy3XIbSXpUNLxv7KdERF7VDBuX0haC7gGmLPkoV8AFqnqtJELAJsmSSuRkv6+wLjM4ZRpCulSnp8AF/f78o1+KDZpfZ5UsDXh2OUrpBsB/e6/5iTdSvm9IW4B3tr0I7WS9gB+UcHQ4yPi/ArGdQFgA4pd4e8iJf4NModTtkeB44CfRkQrd5pL2oyU+DfPHcswPETa+Hd17kBsxopGXv8uedjJwJvacsJG0umkv0PLdGJE7F/ymID3AHReceXuNqRb3Xag/CWs3H5Peto/KyJeyh1M2SQJ2J6U+N+SOZzhuhZ4p9/7N0YVXSGPbUvyL3yR1EWzzNxaWTdOFwAdVOxe3ZS0oW8X6ncUbLSeA34OHB0Rf84dTBUkzUE6gXEQzbuJ7c/AN0knLVr3CqbFyn4VOAX4WsljZhURd0o6DXh3icNW9grWBUCHFN359iQtUS2ROZwq3A4cDZwSEc/kDqYKkpYmHT06EFg4czjDdT2pucmENnVS7JCyE9EfWrr6cyblFgCLShpTxbFkFwAtJ2lV0pP+nlTfvSqHl4FzSE/7V+YOpiqSNgY+TrpXoe47+qd2OfDNdnASAgAAIABJREFUiPht7kBsVMq+wOuCkseri8tIq5DzlDSeSA9s95U03qtcALRQsVlnD1Lir7JTVU73AscAx0VEK/vHF8v8e5ISf79v5RutAC4EvhERf8gdjJWi7BWAP5Y8Xi1ExCRJfwXWK3HYcbgAsOmRtCiwOylhbEgzjn8NVwCXkpb5L4iIyZnjqYSkpUg9+t9P87osTiYtgX4zIm7LHYyVquwCoI3L/z1l/9wq2QfgAqDBimN7O5OS/ua09/fzIVKXsGMj4s7cwVRF0kakp/1daN7v5cuk36PD2vx71HFlvwJ4sOTx6qTsn1vZv/ZA8/6S6bzi2N52pOX97YA58kZUmcnARaSz+xPa1pe/p/j93IOU+NfKHM5ITASOBb7bhP7tNiqzlzxe647lDlL2z63sX3vABUAjFO14Nyc96e9Cnvup++Uu4HjgpJbuEAZA0jjSMv8HgEUzhzMSz5BubDsiIh7JHYyZDZ8LgBqTtAHpSX936nNfexUmAmeTEv+VbT4iJmlD4GPAbjTzv7/HgCOBH0XEU7mDMbORa+JfQK0m6U2kJ/09qe7Wrbq4hZT0T2tzMpE0GwPL/GtnDmek7ge+BxwTEc/nDsbMRs8FQA1Iej0DSX+1zOFU7SngVOD4iLg1dzBVkrQkA8v8TV3B+RdwOKkfeZvf2Zp1jguATCQtTlra34vm9XAfrgCuID3tnx0Rk/KGUy1JbyE97e8GjM0czkjdDnwLOL2txy3Nus4FQB9Jmp+0iW9PYDOa19FtuB4ATgR+FhF3ZY6lUsUy/+6kxL9u5nBG4yZSu97z27wXw8xcAFRO0pwMHNvbloqOc9TIK6QOcMcBv2n706OkJYAPFp/FM4czGleSmvdckjsQM+sPFwAVKFq4bklaAt4ZmDdvRH1xB/Az4OSIeDh3MFWTtB7paf+dwGyZwxmNX5MS/+9zB2Jm/eUCoCTF8v72wHhgG2DuvBH1xWPA6aTb927IHUzVJI0lJfyPA+tnDmc0ppAuUPpm2zdimtn0uQAYhWKX9/jisynN3fA1HC+SbvE6BbgoIl7OHE/lilMa+wPvo6KWnH3yCukExmERcUfuYMwsLxcAwyRpRVLC35n0FNjGS3em5RpS0v9lm8/s9xQtencmJf3NaPbv8yTS65lvR8Q9uYMxs3pwATAEktZhIOmvmjmcfrqTlPR/HhH/yh1MP0hanZT09wYWyhzOaD1O6tN/ZFuvTDazkXMBMA2SxgCbMLC8v3TeiPrqCeAM0nv963IH0w/F/o09gQOAdTKHU4Y/AT8kdVicmDsYM6snFwCF4rje1qSEvwPNf/objpeACaSn/Qld6fgmaRNS0t8NmCtzOKM1GTgPOCoirsodjJnVX6cLAEkLkpL9eFLyb3oSGK7rSXe4nxERT+QOph+Kc/v7kRL/CpnDKcPjpJ4LP4mI/+QOxsyao3MFgKSlGFjafxvd+zW4m4H3+v/MHUw/FNcpb0t6t78t7fg9/zNwFF7mN7MRasNfhDMlaRUGNvGtQ7N3dI/EE6Trdk8Gft+VFq+S3kB60t+PZh/f6+kt8/8wIq7MHYyZNVsrCwBJAtZjIOmvlDeiLJ4EzgXOBC7vwnl9eHUvx26kxP+2zOGUxcv8Zla61hQARZe2tzOwvD8ua0B5PEl6QjwTuKwrSR9A0tqkpL8XMH/mcMriZX4zq0yjCwBJi5I2721Dere7QN6IsngSOB/4Jd1L+guSzusfAKyROZyyTCb9fh7lZX4zq1KjCgBJs5De4W9LSvrrALNkDSqPpxh40r+0Y0lfpLbL7yO93pkjb0SleYLUtMfL/GbWF7UvACQtAmxFSvpbA4vkjSibp3jtk34nzur3SHodqR///sBymcMp059JTXtO9TK/mfVT7QqA4glvHQaW9delm0/5AE8zkPQv7WDSH0vq03AAqfibNW9EpfEyv5llV4sCQNJCDLzLfwewaN6Isuol/TOBS7qW9AEkrUV6t78PsFjmcMrkZX4zq40sBUDxlL82KeFvQ7pVr6tP+ZCS/q9IT/pdTfpvIO3g34v2Hdv0Mr+Z1U7fCoBix/bgp/w2PdmNxDO8Num/mDmeviva8r6LlPTXyxxO2bzMb2a1VlkBUDzlr8nAu/z1ac873JHqJf0zgYs7mvTnB3YhJf1Nad+fiSdITXt+7GV+M6uz0gsASeuQjmjtBCxR9vgN9CwDT/pdTfqzA9uRkv72wOx5I6rEn4Af4WV+M2uIUgqA4qlub+BA2tOQZTSeBS4gJf3fdDTpzwJsRkr6u9Ce7nyDPQOcBhwfETflDsbMbDhGVQBIWg34FLA7MGcpETVXL+mfSUr6kzLHk4WkdUnF4Lto7wrQVcDxwFkR8ULuYMzMRmJEBYCkMcDngC8Cs5UaUbM8x2uf9Lua9FdiYAf/GzKHU5WHgJNIT/uduEbZzNpt2AWApNWBE4C1yg+nEZ4DLiQl/Ys6nPRfB+xBSvpt/bPwCnARaVPfryPilczxmJmVZsgFQMef+ntJ/0xS0u/kJq/iKOeupKT/Ntrbu+FO0hL/SRHxYO5gzMyqMKQCQNIcpAS4ebXh1MpdwATSz/vKLjbnAZA0J6kd716kI51tLf4mAmeRlvh9bt/MWm+mBUBxhOs82p/8XwauJiX9CRHx98zxZCNpVmALUtLfGZg3b0SVupn0tH9aRDydOxgzs36ZYQEgaTbgbFIHvzZ6GPg1KelfGhHPZI4nm+LY3sbAbqRTHW3u1Pgk8HPS0/6fcgdjZpbDdAuA4ia2M0gNXNoiSE98E4rPTREReUPKp9jXsRnpvf542p30A/gt6Wn/nC72ZjAzG2xGKwDHkJJC0z0LXEJK+BdFxEOZ48mqeKWzFSnp7wgsmDeiyt0HnAj8LCLuzhyLmVltTLMAkLQN8J7+hlKqfzCwge/qiHg5czxZSZqLtIFvN9KKTpvf6UPaz3EB6fjexRExJXM8Zma1818FQJEsfpIhltF4CbiSgQ18d2aOJztJ85H67u9KSv5d6NT4N9IS/8kR8WjuYGx4is2nGwArA+OAJYsfe5/F6e/lUS+TGkA9MI3PbRFxcx9jMSvdtFYA/g9Yts9xjMSDDLzLvywinsscT3aSFiYt6+8KbEl7j+wN9hypKdPxEXFt7mBseIoHjq1Il4dtDyySN6LXGAssXXz+i6T7SFc+nw9c0fWVRmue1xQAktYEPpEplpmZAtzIQNK/tcsb+HokLU46qrcr8HYqvOK5Zq4nPe2f7uKvWYrNp3uSXkltSXNXp5YCPlJ8npL0a9KfxwvyhmU2NFMni6Op1/3sTwMXM7CBz8u6gKSlSTfs7QpsRHs78k3tX6Tb906NiDtyB2PDJ2ln4DBgxdyxlGwBivswJF0PHBIRV2eOyWyGXi0AJK0FrJ8xlp6/MfCUf437ryeSlicl/F2BdQHljahvHiEt8Z8aEdfnDsZGRtKGwHeADXPH0gdvAa6SdAHw2Yj4a+6AzKZl8ArAAZlimARcwcAGPh/VKkhalYGk/+bM4fTTc8C5pKf9y1wENpek5YDvkl5Tdc0OwLaSTgS+EBEPZ47H7DXGwKu9/vfq47z3kTrwXQhc7jvVE0kC1ib1X9iVtBu6K14GfgOcClzgPxPNJ2lr4HTS8nhXzUp6uNpa0nifHLA66a0A7EL1/5HeBfyM9JTv9qsFSXOTNkJtD2xLOvrUFQFcQ0r6Z0bEE5njsZJI+gTpyb9Oe4pyWgq4WtL+EXFG7mDMYKAAqHL5/1/A14FTvJSbSFqWlPC3J+3cnz1jODn8mbS8/4uI+E/uYKw8xf0hRwPvzR1LDc0JnC7pjcChPsVkuY0pzuFuWtH4nwe+0/XEP6jBSS/pvzFvRFncQ0r6p0XEX3IHY+WTtChwDvDW3LHU3JeA1STtGxHP5w7GumsM6T1zFTvKj4uIb1UwbiNIWgB4BynhvwNYOG9EWTwGnEla4r/WTzztJWlO4CLSHhabuZ1JqwE7uVW15TIGWKWCcW8EPlrBuLUmaSXSzt/tSefzu9KUZ7DnSZ3RTgMucXe09is2r56Ek/9wbQ98E/hs7kCsm6ooAF4Edu3CdavFlcmbMLC0/4a8EWXzCunGxdOA87ys2TlfBt6ZO4iG+oykv0TEz3MHYt0zBli15DEviYh7Sx6zNor3nNuSEv7WtP9mvekJ4DrS8v4vI+KxzPFYBpLeCRyaO46GO1bSPyPiD7kDsW6pYgXgzJLHy07Smxl4yl+P7rTenZbbGdjM9+/MsVhGktYmLf13pStlVeYAzpW0bkTcnzsY644xlH/7VuP7X0t6HbAF6Xz+5sASeSPK7h+k3d2nu4eDwavv/Y+nuRf51M2SwBH4VYr10RhS29Uyi4BJJY7VF5LmJZ3H7yX9KjZGNs1twNnA2T62Z9OwN91qT90Pu0la368CrF96BUCZXip5vNIV15GuR0r2W5IuQerijv2p3Uh60j87Iv6ZOxirJ0mzk5p7Wfm+Q9pYbFa5MaRjW2VaAahdBStpZVKy34L0tD9f1oDqYQpwLelJ/xx35bMh+jCwTO4gWmpjSTtGxK9yB2LtV8UKwJbUoACQtDjp/X0v6S+VN6LaeIV0++I5wLkR8VDecKxJJM0PfCF3HC13mKQJETE5dyDWblUUADtL+ka/u74VLY03YSDhvwnvTu55EbiM9KT/q4h4PHM81lyfpD9dLZ8m3Q55IXAH8ADwcD+TYtHnYwlgHLA6sCPpoaLqjY+rAPuRLk8zq8wYoOxjJ2sB7yYdD6qMpFmAdRjYuLchMFuVczbMC6TWrOcAF0bEM5njsXbYu+LxHwW+ChyTu4tkMf+9xecPpPP68wKfIhVCc1c4/d64ALCKjQEuJ73TK9N3JF0UEY+UOaik5Rl4wt8MWLDM8VvgGdIT09nAbyLihczxWItIWg1YrsIpjgMOjohnK5xjVIrYDpV0NHAC6Z6PKmwiacGIeLKi8c0YA/wWmEy593YvClwpaYvRNLaQtDBpya33lL9sOeG1yuOk3vvnAJdGRO1PYVhjja9o3MnAJyPiyIrGL11EPCRpO+Bw0opA2cYA2wFuEWyVGRMRT0m6mXQsrkwrA1dLek9EXDWUb5A0B+kSnd5T/pp0u+ve9DwEnEt60r+y69ctW9/sVNG4H4yI4yoauzLFLX6flvQi1WyM3AkXAFah3tn3Sym/AAB4PWklYALwXeCmiHh102HRTWwNBp7w34o7i03P3cB5pKR/na8QtX6StBRpz03Zjmhi8p/Kl0h3quxc8rjvkDR7Fy5Wszx6BcBlVHu0Z7viM0XS30kb1BYHFsMb96ZnMumynQtJm/huzxyPdduOFYz5N6pZPu+riAhJ+wNvAxYqceh5SK9Af13imGav6hUA1wKPUf69AFObBbfZnZGngIuBC4CLIuKJzPGY9axdwZifbctZ94h4WtI3SSudZVobFwBWkVkAio1j38scS1f9nfRrvymwaETsERGnOvlbzYwrebxbWtjt7sekTbllKvvX3exVgzfY/Yi0CmDVepl08uJgYIWIWDkiPhURV3gzn9VY2YnonJLHyy4iJpFe2ZXJBYBV5tUCoNic51WAajwGnAzsDiwSEZtHxA8i4s7McZkNVdmJ6IKSx6uL80oezwWAVWbqG/B+ROpwVfVegC64jWIDH3C9d+1bU0majXLb/75E+u+jjW4seTwXAFaZ1xQAEfGcpC8BR2eKp8leBH5HerKZEBH3ZI7HrCxLUO69Gg/1+66QPnqIdMtmWf1LFpc0ix8grApTrwAQEf9P0qak5WqbsQeBCaSn/Msiouyrlc3qoOyn0AdKHq82ImKypEdIRVMZZiUdl/atnVa6/yoACgeSuvCt0MdYmmAScA2pb8KlwK0tfpIx65mj5PHa3tim7J9f2b/+ZsB0CoCIeEbSO4Hr6fYfvinAH0nJ/jLgmmKnr5mZWaNNbwWAiPiTpA+QbrzqUj/+u0nJ/jLg8ogo+1yvmZlZdtMtAAAi4mRJL5GOsI3tT0h99wRp896lpPf4d2WOx8zMrHIzLAAAIuJ0SU+SLqGZu/qQKvci8HsG3uPf4h22ZmbWNTMtAAAi4mJJvUspyrzsoh8C+BMDCf/qiJiYNyQzM7O8hlQAAETEHyStA/yUdHVvnf2HgY17l0fEo5njMTMzq5UhFwAAEXE3sJWkdwPfp9zuYKPxFK99j//PzPGYmZnV2rAKgJ5ic+BFwBHAXuWGNCQvAdcx8JR/U1uuFTUzM+uHERUAAMWy+t6SvgZ8CNgPmL+swKaejtQ7vPce/6qIeKGiuczMzFpvxAVAT0TcARwk6fPA3sAHSV0ER+s+BhL+5RHxcAljmpmZGSUUAD1FH/xjgGMkLQK8ZdBnPWDe6XzrFODfwD+AvwN/A66IiL+XFZuZmZm9VmkFwGAR8RgDV+EiScA8wJzFZ67ix0nAXRHR9t7gZmZmtVJJATC14sKcZ4uPmZmZZdalHv9mZmZWcAFgZmbWQS4AzMzMOsgFgJmZWQe5ADAzM+sgFwBmZmYd1JdjgGZDVfSMWBRYEhg36LMQoD6G8izwwKDPg8BDEfFKH2MwM6uMCwDLStJswGbATsBWwNLA2KxBTd8USY8AVwHnAb+OiKczx2RmNiIuAKzvJC0AbEtK+tsw/TbRdTMLsASwe/F5WdKVpGLg/Ii4L2dwZmbD4T0A1jeSlpR0DPAIcCopiTYl+U/LWGAL4EfAvZIukrRG5pjMzIbEBYBVTtJ8kr4B3AkcSH2X+EfrHcAtkk6V9PrcwZiZzYgLAKuMpNkkfQK4C/g86RKothOwF3CHpCMlLZo7IDOzaXEBYJWQ9EbgL8APgEUyh5PDbMDHgbsk7Zo7GDOzqbkAsNJJ2h64Dlghdyw1MC9wpqRDiyOOZma14ALASiXpM8D5NHtzX9kEfAX4paQuvAYxswZwAWClkDSHpFOAw/Cfq+nZDbhG0tK5AzEz81/UNmqSZgcuBfbJHUsDrAncIGm53IGYWbe5ALAyHAu8NXcQDbIE8CtJfk1iZtm4ALBRkXQIsG/uOBrojcDPvTHQzHJxAWAjVuz2/1buOBpsR+DruYMws25yAWAjUpzzPw3/GRqtz0t6V+4gzKx7/Je3DVtxg9+5+KhfWU6QtHzuIMysW1wA2Eh8GDf5KdOcwDdzB2Fm3eICwIZF0nzAF3LH0UK7S1ovdxBm1h0uAGy4PkM3e/v3w3dyB2Bm3eECwIZM0pLAJ3LH0WKbSNohdxBm1g1jcgdgjfJV+nel73PAlcC9wMPAU32at2cuYHFS056NgSX7NO9hkn4dEZP7NJ+ZdZQLABsSSQsA7+nDVOeTOgteFhEv9mG+mSqa9axPanh0IDC2wulWBbYGfl3hHGZmfgVgQ7Yt1Sa+m4CNI2J8REyoS/IHiOT6iPgIsApwdsVTjq94fDMzFwA2ZDtVOPbxwIYRcU2Fc5QiIu6KiN2AjwKvVDTNDm4RbGZVcwFgM1U0/tmmouG/GBHvi4iXKxq/EhHxY+AdQBUrFUsAb6lgXDOzV7kAsKHYjGq6/h0fEd+oYNy+iIjLSXsCqlDliouZmQsAG5IqktFNwIcqGLevIuIU4KgKhvY+ADOrlAsAG4qtKhjzf5u27D8DhwJPljzmSpKWLnlMM7NXuQCwGSo2o5WdiM5vwoa/oYqIp4DDKxh6mQrGNDMDXADYzC1K+cf/ji95vDo4AZhS8pjjSh7PzOxVLgBsZsrugDcRuKzkMbOLiEeAa0setl/dB82sg1wA2MyU/RT6+4iYWPKYdfGbksfzCoCZVcYFgM1M2UnonpLHq5Oyf24uAMysMi4AbGbKTkIPlDxenZT9c3MBYGaVcQFgM7NQyeM9UfJ4dVL2z63sX3szs1e5ALCZcU/6fPxrb2aVcQFgZmbWQS4AzMzMOsgFgJmZWQe5ADAzM+ugMbkDGEzSWFL3s3GDfhwHzN3HMKYAj5OOdL36iYjH+xiDmZlZpbIWAJIWAXYgXTe7IbAINd35LOkl4N/ARcD5wNUR8UrWoMzMzEao7wWApOVJd53vBGxEc15DzAasWHwOAp6QNAE4D7g4Ip7PGZyZmdlw9C35StpI0tXAncB3gY37OX8FFgL2Bc4GHpX0PUkLZ47JzMxsSCpPwJJWkXQecA3w1qrny2RO4GDgLkmflzRX7oDMzMxmpLICQNI4SccCt5GW+7tgfuAbwJ2S3i+pVpsszczMeiopACTtR1rqfx8waxVz1NySwE+BWyQtlzsYMzOzqZVaAEiaRdK3gRNJy+Jd9ybgBklvyx2ImZnZYKUVAJLmJe2I/3RZY7bEwsClkg7MHYiZmVlPKQWApGWBa0ln+u2/jQWOkXSEpC6+EjEzs5oZdQEgaWXgBmC10YfTegcBZ0tq8vFHMzNrgVElIkkLARcAi5YTTifsBHw7dxBmZtZtIz6mVhxxOwt4Q3nhdMYnJd0WESflDsTMrKkkzU/KQSsAy5GOYs816DN38eMcwAvAU8DTxY+DP3cBf42IZ/r8U8hqNOfUfwhsWlYgHfRTSf+IiOtyB2JmVmeSZgPWJTWTW5WBpF/q6rOk+4G/Fp/bix9viogXy5ynLkZUAEj6KPDBkmPpmtmBcyWtGxH35g7GzKwuJM0BrA+8rfhsQH+Olr+u+Gw56J9NlHQVcClwSUTc1oc4+mLYBYCkdYEjKoilixYHzpS0QURE7mDMzHKRNB+wC7AXsAnpIakO5gS2Lj5IeohUDFwMnB8Rz2WMbVRGsgnwO3Szu19V1gf2yB2EmVm/SRoraUdJZwAPAyeQnr7rkvynZQnSRXA/Bx6UdLykjTLHNCLDKgAkbUtajrFyfaN4x2Vm1hVHAg8B5wO7kzbqNc08wHuBayTdIekQSUvkDmqohlwAFGfXD6swli57PfCR3EGYmfXRu0nXqrfFSsDhwL3AnpljGZLhrADsS+ptb9X4oqQFcgdhZmajMgZYLHcQQzGkTYDFjsyvVRzLYP8htRZ+uPhM7OPcAAuSNugtQ3rl0Y/dpwsBnwM+04e5zMys44Z6CmAXYOkqAyE1afgxcHpE3FLxXEMmaS7gHaQl+s0qnu7Dkr7c1jOnZmZWH0N9BTC+0ijgZ8AKEXFInZI/QES8EBHnRMTmwLbA3yqcbh5g8wrHNzMzA4ZQAEianfQEXIVJwN4RcUBEPFDRHKWJiItI3ajOqnCanSoc28zMDBjaCsBmwLwVzP0csGlEnFbB2JWJiOdJR1a+W9EUO0pSRWObmZkBQysAqnginUJ68r++grErV3TtOwQ4r4LhlyA1BzIzM6vMDAuA4kl0xwrm/XpE/KqCcfumKAL2Jd0iVTa/BjAzs0rNbAVgNWDJkue8D/hWyWNmUfSA/mwFQ29VwZhmZmavmlkBsEwFc34pIiZVMG4WEXEW8IeSh63i193MzOxVMysAxpU83wvA6SWPWQfHljzewr4bwMzMqjSzAqDs5f9L2/T0P8ivSBsby1T2r72Z2YhIWh2YK3ccVq5+rwBcWvJ4tRARjwJlNzAq+9fezGzYJK1I+rt7bO5YOqyS65Fn1gq47CR0T8nj1ck9wDoljucCwMyykrQMcDn1v9zmUeCvwO3Av0n3x7xQ/Nj7TAEWIf1cFgMWLX4cR7rors7XEX9e0mURcXOZg/a7AKh9t79RKPvn5gLAzLKRtCQp+S+VO5apPANcAlwB/AX4a7EKO2LFnqu1gA2BDYof6/R38HzAxZI2iYi/ljXozAqAsu9qfqLk8eqk7J9bm+7JNrMGkbQwadl/+dyxFP4GTCg+v4+Il8scPCJeAq4vPgBIWhbYGdgbWLvM+UZoYeBSSRtHxL/KGHBmewDckjYf/9qbWd9Jmg+4GHhj5lAeB74NvCEiVo2IT0fEFWUn/+mJiH9HxA8iYh1gFeDrwN39mHsGxgGXSXpdGYMN9TZAMzNrueL68wnkfeK9BXgvsFREfCYiqui2OiwRcUdEfCkilgM2As7OGM7rSSsBC492IBcAZmbWew9+LvDWTCFcCGwYEWtHxAl1PTIeEddGxG7AeqQ9EjmsApwuaVQ53AWAmVnHFfe+nE6eNuR/A7aOiB0i4roM849IRNwYEVsAWwI3ZQhhC+CroxnABYCZmR1E2vDWT08BnwBWj4hL+jx3aSLiMtJqwO5UczncjHxB0rYj/WYXAGZmHSZpZfp/QduJwAoRcWREvNLnuUsXyZnAm4ET+ji1gFOKEwvD5gLAzKyjJI0BTqZ/TXCeBfaKiP0j4rE+zdk3EfF8RLwX2AN4uk/TLgScJWnY3QJdAJiZddfngHX7NNfNwJoR8Ys+zZdNRJwBrAH0a0/D2sBhw/0mFwBmZh0kaS3gS32a7gekHf7Zj/T1S0T8G9gE+AblXxY3LR+TNKzjmy4AzMw6plguPpnqL/iZDLw7Ig4uuu11SkS8EhFfJHUTrHqvw6zAMZJmHeo3uAAwM+uer1N9p78Xgd0i4pSK56m9iDiddEqg6iJoLdKJjiFxAWBm1iGS3gocXPE0zwM7RMR5Fc/TGBFxLrALqTCq0v9J+p+hfKELADOzjpA0N3AS1f7d/zSwVURcWuEcjRQRE4AdSNcTV2Vu4MdD+UIXAGZm3fEBYLkKx59I6up3bYVzNFpRGG0DPFfhNNtL2npmX+QCwMysA4pe/1Uu/Qewf0T8ocI5WiEirgT2rXiaQ2f2BS4AzMy6YV+glGtkp+P/ivPvNgTF/ojDK5xiA0kzvNvBBYCZWcsVt8YdUuEUZzDKi2k66gvA7yocf4arAC4AzMzabxdgxYrGvpG09B8Vjd9aETGZ1Db4/oqm2FDSltP7ly4AzMza73MVjTsJ2CciqtzV3moR8QjwTuDliqaY7iqACwAzsxYrngDXqmj4r0TEPyoau7YkLSTpUElnSbpa0j8k3SPpGEnbDvdinoi4DvhMReFuJGnjaf0LFwBmZu1W1dP/zcB3Kxq7liTNL+krwN3AV4BdgbcCKwD/AxwITAAelTTnzesLAAARc0lEQVTcPRdHAbeXFuxrHTCtf+gCwMyspSStD2xawdAvAwcU77A7odhR/y/Skvp8M/nyeYHDJZ001NWA4tfyk6OLcrp2kzTP1P/QBYCZWXv9b0XjHh4Rf6po7NqR9B7Sk/1Cw/zWdwO/lbTAUL44Ii4GfjPMOYZibtJdBK/hAsDMrIUkjQW2rWDoxxnB3fNNJenLwAnAmBEOsSHwxWF8/SdJtyiWbf+p/4ELADOzdtqEtBRdtiMj4vkKxq0VSWMkHUc5/Q0+ImncUL4wIv4K/LSEOaf2VkkrDP4HLgDMzNpp+wrGfBb4YQXj1oqkMcCZTGfz3AjMAXxpGF9/KPBMSXMP9p7B/8cFgJlZO21XwZg/iYinKhi3NoquiScD40se+oDitcxMRcRjRQxle83PyQWAmVnLFEu9K8z0C4dnEvCDksesFUkCjgH2rGD4scAiw/j64yuIYVVJS/b+jwsAM7P2qWL5/+SIeLiCcevkCMpb9p+WRYf6hRHxR1KvhbJt3vsfLgDMzNqniuX/UysYszaK3f4fr3iaIRcAheMqiGGL3v9wAWBm1iKS5iWdACjTA8A1JY9ZG5K2ZiY355XksWF+/S+Asu9Z8AqAmVlLbUV631ymsyJiSslj1oKkpYCfU30+vGe4zZMi4mnSaYQyLSVpJXABYGbWNlvM/EuG7YwKxsyuOO53BsPbnDdSvxrh951UahTJ5uACwMysbVYsebx7getKHrMuDid16uuHs0f4fb8HXiwzEGBNcAFgZtY2y/3/9u492M6qvOP495kQQCDcJCCliEWKCFUKpnIZZGqhiCAlaIfLWBANLTAFJoIgQ620VZQCtQIaO60gAi1XJQIjiAIiELkXuUcI0gqi3AvBkJzAr3+876mnx3PZZ++13rXPu3+fmXdOcrLfZz3n3TtnP3ut9a6VON6VkpQ4ZnERMRc4tqHmvizppm5OlLSc9HcDvBNcAJiZtUbdpb1p4rB3JY5XXERsDpzXUHPXAJ/qMUbqCZguAMzMWmYzYEbimPckjldUvT3vZcA6DTT3AHBggm2Tb02RzAjrR8RsFwBmZu2Ruvt/OfBQ4pilnQls30A7twPvl5RiTf9FCWKM9k4XAGZm7ZG6ALhf0srEMYuJiL2Awxto6hpgt3pN/57VcRaniDXCVi4AzMzaI3UB0Jru/3ojnib2Mvgm8GcZtkxO3QvgHgAzsxb5vcTx7k0cr6SjSX+L5GgLJB2aqdfk54njvcUFgJlZe6TuAfhl4nhFRMSGwGczN3MJVZGRS5LhhBFmuQAwM2uPtyaO92LieKV8nryz/q8DDs68XPLzieO5ADAza5HUv9OnfQEQEduRd4vfO4APSxrK2Aa4ADAzswn0er/5aNO+AKC67S/Xe90LwNwME/7GkroAWNsFgJlZe7gAGCEi9gfel7GJIyQ9nTH+SO4BMDOzcaUsAFZKeiVhvEZFxOrA6RmbuFBS6q16J+ICwMzMxpWyAEi9A13TDib9pMhh/w0clSn2eH6dON7MVRIHNDOzclIWAGtERKTeCbDesGh7qq75XYGtgceAB+vjNkkP99hGAJ/sMdXxCDhU0v9kij+eNRPHW+oCwMysPVIWAEH1prM0WcCIHYB/B94+6p+2APYc8bi7qHbru0jSC1009UHqHe8y+GdJN2aKPZFZieO97CEAM7P2SL0C3VopgkTEjIj4W6ptbUe/+Y9lDvAV4OmIuDwiPlT3HHTquG7y7MCDwEmZYk8myXMxwisuAMzM2iP1XQCpPnVeCPwDMNVe51WBjwBXAU9GxD9FxLsmOiEi/hD4k66ynNgQ8BeSSs2NcA+AmZmNK/ViNOv1GiAi9gYOTJDLRsCxwH0RcU9EHBMRG4zxuGMTtDWWb0gquTdCz8/FKO4BMDNrkScSx3tHLydHxBpUXfmpbUe1wM8vIuKKiNg3ImZGxO+QptgYbTnVcsIl9fRcjMEFgJlZi/Q0e34MW/V4/vHA2xLkMZ6ZwFxgIfAUcEX9vdT+TVLq3fimqtfnYrQXfBeAmVl79FsBsGuSLDozuz5SWwZ8IUPcqUpdADzqHgAzs/ZIXQD0eitdrlvxmrSgweV+J5L6Wj7iAsDMrD0WUy1Uk8oWEdHV7WcRsQ6wccJcSlgK/GPpJCJiI9Jfy8UuAMzMWkLSUuDJhCFnAh/o8tzfTZhHKWdLerZ0EsCHEscbAh53AWBm1i6phwHmdnneT6nGz6erFcCXSidR6/Y5GM/jkla6ADAza5fUBcDeU1yFDwBJQ8DtiXNp0kJJz5VOIiLWBHZPHHYxgAsAM7N2SV0ArEe1cU83bkmZSMPOKZ1AbQ9g9cQx7wcXAGZmbfNghpjddkH/B/BaykQa8l/AD0onUUvd/Q/wQ3ABYGbWNrcDqbeq3bebk+ptfU9MnEsTzpX0RukkImIGsHfisCuAW8EFgJlZq9Rj79cmDrtZRGzb5blnAd9LmUxmbwDfKJ1EbRfgzYlj3iZpGbgAMDNroyszxOyqK1qSgEOA69Omk83VfbDs77Ac3f83DP/BBYCZWftcA6xMHHO/bk+U9Iyk3akKgeIz6ydxeukEACIiyFMA3Dj8BxcAZmYtI+lF4ObEYbeNiJ4WpJF0AdWa9l8C+mGBndEWSeqXOxc+SvqNlJYBtw3/xQWAmVk75RgGOLWemNY1Sc9LOg7YhKpX4TtUK9OVtpJq98LiImI18mw//D1JK4b/4gLAzKydrsoQcxvg0BSBJA1JWihpLlUxMB+4N0XsLp0saVHB9kc6CtgsQ9wLRv7FBYCZWQtJWgI8lCH030fEm1IGlPSspDMlbQdsB5xJs0ME3wVObbC9cUXEusBJGUK/CFw98hsuAMzM2ivHMMDwp/UsJN0raT7NDRFcCuzXD/f9104C1s8Q95KR3f/gAsDMrM0uyRT3xIjYIFNsoJEhAlFNRjxo9BtjKRGxKXB0pvAXjP6GCwAzs5aSdC/w/Qyh1wY+kyHumDIMEfwnsLOk4/rokz/A50i/7j/AkrHmN7gAMDNrt9MyxT0yIjbPFHtcYwwRLARe7eDU16nWRzgImCPptkke36iIeDdwcKbw5431zSlv8WhmZtOHpB9ExN3AexKHXhX4WkTsJen1xLEnVS95vBBYGBEzgR2B3ajunZ9VHy8Cj9THDZJ+1XSenYiIVYF/Ic+H8leAr471D00XAGdHRCeV2nT0B6UTmCYOiYgdSyeRybqlE5gmto6Ii0snkdHs0gmM4TTyzAfYAzgD+GSG2B2ri4GbSb/4UVO+BuyUKfZX64WhfkvTBUBPq0hZKwyP4dngmg0cUDqJAfMtYAnw9gyx50fEA5LOyRC79SJiPvCJTOF/TTXRcUyeA2Bm1nJ1F/0ZGZtYEBG7ZIzfShEx3IOSy79KGneypAsAM7PBcB7wTKbYqwLfjogcq9e1UkRsSTUs09PSyhNYziQbG7kAMDMbAJJeA87K2MRs4MqIWCtjG60QEetQLdKUc97QOZJ+MdEDXACYmQ2OBcDzGeO/G7iw3srWxlBvpnQx8I6MzTwPfHayB7kAMDMbEPVs8GMzN7Mv+dYemNbqwujLwJ6Zm/q0pEkLPRcAZmYDRNL5wHWZm/lURFyUetOg6Swi1gQuo9rpL6cfA+d28kAXAGZmg+dwOls9rxcHAj+KiE0yt9P36smRtwIfydzU68CRktTJg10AmJkNGElP0Mxa/nOAOyNihwba6kv17ZF3ANs20NxXJP2k0wdPVgAs7TEZ616/XPt+yWMQ9cu175c8BlWu638WcHum2CNtDNwUEbnWue9bETEPuB7YsIHmnqCDiX8jTVYApNx60aamX659v+QxiPrl2j8IrCydxIB6StJzOQLXu+AdBgzliD/KasD5EXFaRLS+5zkiZkTEmcDXqdZIyG0IOEDSy1M5abIn4u7u87Ee3VM6gZpfA+X0xbWXtAx4qHQeAyrra0DSA8AXc7YxyvHAVRGxQYNtNioiNqLadfCYBps9UdIdUz3JBUB/+pmkF0onASDpZ0Bf5DKA+un/Xz/lMkiauO6nAA830M6wvYAlEXFSm+4SiIi1IuJk4DHgTxts+ipJ4673P5HJCoA7qcYVrFmXlk5glMtLJzCAHqyPfnFZ6QQG0BBwRe5GJK2gmp0+5o5xmaxNVXg8GhHz6sVxpqWIWCUijqR64/87oMmVEH8OHNrtyRMWAHXX3yeAjm4psCQeAk4uncQox1O90KwZQ8AhJfZYH4+ka4Bvls5jwHxO0v1NNCTpYWA/YEUT7Y2wCdU4+U8iYu+G2+5ZRHyYqlBfAGzUcPNDwIG99BZPOhlD0o1UP5zlt5LqF//y0omMVE8smVc6jwHyeUn9MgdkpPnAU6WTGBB30uzYPJJuovo0WeID3zbA1RFxY0TMKdD+lETELhGxiGqb5S0LpCDgY5IW9RZFmvQA1gSurRv1kedYBhzWyfNR6gA+TVV1lr5WbT4uAlYp/VxP8BrYBXi6D65Tm4+HgC0K/z8v+fO/QTX0cSCwdunX/Ijrsh5wMPDdPniNHJPkZ5riBfgr4JU++OHbdtwObFX6Bd7ha2AOVZdX6WvWtuNZYP/Sz2+Hr4H1qQqV0tesbcfrVHvDr94Hz/GCPrgeotrS9lrgCGDjAtdhU+Boqnv5++XDzympfr6of8iORcTbgL8B3gtsDawypQA27CWqW/2uBs5SH433TiYiVgNOAHYHtgNmlc1o2loBPAAsour2/1XhfKakHv/8GPAeqrFc687jwF1UvwduLZ0M/N+OdVcA+5TOZQRRrai3EFgo6ZEcjUTEu4C59bF9jjZ68HVJf5kq2JQLgP93cnULx7bAZoC3f+zMcuB+YIl6ufh9ol7UY0uqMbyZhdOZLgQsAe5TNQN72ouIt1AVg+uUzmUaeQ64W9UOfX0nItYAfgj8UeFUxrOYqvd0cX38FHhU0mudnFz/fL9PtS3vlvXXnYHNs2Tbu29T9RIm+7DYUwFgZmbtFREbAj8i7971KQl4mWqoemn99RWqD6izqG7RG/66NtPng+v5wDxJSVfkdAFgZmbjioj1qD59/nHhVAbVGcAJOXqMW78ms5mZda8eotgDOK9wKoNGVG/8x+caLnYBYGZmE5I0JOnjVFsIu9s4v5XAxyWdnrMRDwGYmVnHIuIAqt6A1Qun0lbPAR+VdF3uhlwAmJnZlETETsB3gNmlc2mZm4GDJDWy4qaHAMzMbEok/RjYgWZ3EWyzN6g2R3p/U2/+4ALAzMy6oGqr8J2Bc/G8gF48A+wp6TNNLwjnAsDMzLoi6SVJ84BdqVa1tKn5FrCtpO+XaNwFgJmZ9UTSLVQrQZ4AvFo4nengUapP/X8u6ZelkvAkQDMzSyYi3gqcBexbOpc+tAz4AnC6+mDbdxcAZmaWXETsA5xNtVeMwZXA/HruRF/wEICZmSUn6SqqHWNPpVqPfxCJ6nbJ90rat5/e/ME9AGZmlllEzKLaOvqvga0Kp9OEN4DLgVMk3Vc6mfG4ADAzs8ZExG7AUcA+wIzC6aS2HLgY+KKkxaWTmYwLADMza1w9WfAI4DCm/4qCtwAXAJdKeql0Mp1yAWBmZsVExGrA/sDhwI5Mn16Bx4ALgQskPV46mW64ADAzs74QEWsBOwHvq48dgDcVTeo3XqX6pH89cL2kewrn0zMXAGZm1pciYiYwh6oY2KU+1muo+VeBe4AbqN70b5M01FDbjXABYGZm00JEBLANVVGwEbAB8Ob668hjXSA6CPka1Vr8i4FH6q/Dx5Nq+RukCwAzM2uViFgFWJ/fFAQzgKVU6xEsHT4krSyWZB9wAWBmZjaAvBKgmZnZAHIBYGZmNoBcAJiZmQ0gFwBmZmYDyAWAmZnZAHIBYGZmNoBcAJiZmQ0gFwBmZmYDyAWAmZnZAHIBYGZmNoBcAJiZmQ0gFwBmZmYDyAWAmZnZAHIBYGZmNoBcAJiZmQ0gFwBmZmYDyAWAmZnZAHIBYGZmNoD+F6A0zSkeNz96AAAAAElFTkSuQmCC;" parent="1" vertex="1">
                    <mxGeometry x="565.5" y="414.5" width="24.5" height="24.5" as="geometry"/>
                </mxCell>
                <mxCell id="7VhcuU38_8ilDAtrPy3k-70" value="Source 2" style="rounded=1;whiteSpace=wrap;html=1;fillColor=none;" parent="1" vertex="1">
                    <mxGeometry x="631.5" y="410" width="70" height="20" as="geometry"/>
                </mxCell>
                <mxCell id="7VhcuU38_8ilDAtrPy3k-71" value="" style="endArrow=none;dashed=1;html=1;dashPattern=1 3;strokeWidth=2;rounded=0;" parent="1" edge="1">
                    <mxGeometry width="50" height="50" relative="1" as="geometry">
                        <mxPoint x="651.5" y="439.75" as="sourcePoint"/>
                        <mxPoint x="681.5" y="439.75" as="targetPoint"/>
                    </mxGeometry>
                </mxCell>
                <mxCell id="7VhcuU38_8ilDAtrPy3k-72" value="Source n" style="rounded=1;whiteSpace=wrap;html=1;fillColor=none;" parent="1" vertex="1">
                    <mxGeometry x="631.5" y="450" width="70" height="20" as="geometry"/>
                </mxCell>
                <mxCell id="7VhcuU38_8ilDAtrPy3k-78" value="" style="endArrow=classic;html=1;rounded=1;edgeStyle=orthogonalEdgeStyle;curved=0;strokeColor=default;" parent="1" edge="1">
                    <mxGeometry width="50" height="50" relative="1" as="geometry">
                        <mxPoint x="670" y="280" as="sourcePoint"/>
                        <mxPoint x="620" y="250" as="targetPoint"/>
                        <Array as="points">
                            <mxPoint x="670" y="250"/>
                        </Array>
                    </mxGeometry>
                </mxCell>
                <mxCell id="7VhcuU38_8ilDAtrPy3k-92" value="" style="shape=image;verticalLabelPosition=bottom;labelBackgroundColor=default;verticalAlign=top;aspect=fixed;imageAspect=0;image=data:image/png,iVBORw0KGgoAAAANSUhEUgAAAgAAAAIACAMAAADDpiTIAAAAA3NCSVQICAjb4U/gAAAACXBIWXMAAHYcAAB2HAGnwnjqAAAAGXRFWHRTb2Z0d2FyZQB3d3cuaW5rc2NhcGUub3Jnm+48GgAAAwBQTFRF////AAAAAAAAAAAAAAAAAAAAAAAAAAAAAAAAAAAAAAAAAAAAAAAAAAAAAAAAAAAAAAAAAAAAAAAAAAAAAAAAAAAAAAAAAAAAAAAAAAAAAAAAAAAAAAAAAAAAAAAAAAAAAAAAAAAAAAAAAAAAAAAAAAAAAAAAAAAAAAAAAAAAAAAAAAAAAAAAAAAAAAAAAAAAAAAAAAAAAAAAAAAAAAAAAAAAAAAAAAAAAAAAAAAAAAAAAAAAAAAAAAAAAAAAAAAAAAAAAAAAAAAAAAAAAAAAAAAAAAAAAAAAAAAAAAAAAAAAAAAAAAAAAAAAAAAAAAAAAAAAAAAAAAAAAAAAAAAAAAAAAAAAAAAAAAAAAAAAAAAAAAAAAAAAAAAAAAAAAAAAAAAAAAAAAAAAAAAAAAAAAAAAAAAAAAAAAAAAAAAAAAAAAAAAAAAAAAAAAAAAAAAAAAAAAAAAAAAAAAAAAAAAAAAAAAAAAAAAAAAAAAAAAAAAAAAAAAAAAAAAAAAAAAAAAAAAAAAAAAAAAAAAAAAAAAAAAAAAAAAAAAAAAAAAAAAAAAAAAAAAAAAAAAAAAAAAAAAAAAAAAAAAAAAAAAAAAAAAAAAAAAAAAAAAAAAAAAAAAAAAAAAAAAAAAAAAAAAAAAAAAAAAAAAAAAAAAAAAAAAAAAAAAAAAAAAAAAAAAAAAAAAAAAAAAAAAAAAAAAAAAAAAAAAAAAAAAAAAAAAAAAAAAAAAAAAAAAAAAAAAAAAAAAAAAAAAAAAAAAAAAAAAAAAAAAAAAAAAAAAAAAAAAAAAAAAAAAAAAAAAAAAAAAAAAAAAAAAAAAAAAAAAAAAAAAAAAAAAAAAAAAAAAAAAAAAAAAAAAAAAAAAAAAAAAAAAAAAAAAAAAAAAAAAAAAAAAAAAAAAAAAAAAAAAAAAAAAAAAAAAAAAAAAAAAAAAAAAAAAAAAAAAAAAAAAAAAAAAAAAAAAAAAAAAAAAAAAAAAAAAAAAAAAAAAAAAAAAAAAAAAAAAAAAAAAAAAAAAAAAACyO34QAAAP90Uk5TAAECAwQFBgcICQoLDA0ODxAREhMUFRYXGBkaGxwdHh8gISIjJCUmJygpKissLS4vMDEyMzQ1Njc4OTo7PD0+P0BBQkNERUZHSElKS0xNTk9QUVJTVFVWV1hZWltcXV5fYGFiY2RlZmdoaWprbG1ub3BxcnN0dXZ3eHl6e3x9fn+AgYKDhIWGh4iJiouMjY6PkJGSk5SVlpeYmZqbnJ2en6ChoqOkpaanqKmqq6ytrq+wsbKztLW2t7i5uru8vb6/wMHCw8TFxsfIycrLzM3Oz9DR0tPU1dbX2Nna29zd3t/g4eLj5OXm5+jp6uvs7e7v8PHy8/T19vf4+fr7/P3+6wjZNQAAFgZJREFUeNrtnQd4VFXax+8kpJFCAoSSiNkAklADBEIHWeklhC7g+omwfIqiKI+ALlUsyCN8IksVBQQFKTEBIYQOS5MQ2uIaIDQVCJ00IHW+7Loq3HMmZeacW+b9//I87nLmzsy55/+be8995869igIAAAAAAAAAAAAAAAAAAAAAAAAAAAAAAAAATI/F6B0sXyc8PKyaj6+Pr7ti/ePPqnD/iDcXZGZkZty77jwCNImJaWjBp7SMZJ89e/Zf22+bXQDXdjExIUjTXgr+ERd32bwCeHXp26sSUnSQE3FxJ00pQPmx4ysgPiFcivvsX2YTwHXEtOpITty+YPnUK6YSoO+HYUhNKA/mzkw3jQDtZrVEYsK58/78HFMIUOuTXkhLCpcnfWU1vgCd1gYgKlkkD7jEa3YxUBdfTUD+8ohMamdsAdwWzSuHmCRSeecI3jGXUbpXadMAZCT5+Draf4fVqHOAehtrISH5JA5ON6YA3df4IR0tSOmdakQBWu92RzbacLdrkvEEeDKpCpLRimvNrxhNgPIHGhf3cO7RX65cLSKjqLO//1kU7h/xZrdqQVVLPK472v6BsZS0rLfa5u7XgzE7KNNUP6hZ9KQka3GsNliXp9lOf14nN0RqD0+8uiPPtgF/M1RfBxba6ObDjysiSfsJGPWTLQEKYwzUzybZ/E4WrHgSITqG51t3bBiQ2cgwnSx/md/FrQ0RoICtwKwH/OG9GGiULk7mb6MmIzwx1NjCN+BLg/SvSgavd9n4WkAYLrP5e9gIY3Tv77zO/RKJ3AQyPIc3yImG6NtTuZyuJQUhNKG0vcEzoLMRuraO07Ez/ohMMCGpnHE+ZoAicEte8acOAhNO3XuckX5O/37tY3uV3wVxSaBbPjvUlzz07lU0R8uxCEsKb3DGepzendrG9ulzRCWJpexg3/HWt0sV2EOANB8kJQk3zjeE/fTt0hC2R6MRlDTascO9Qt8erWE6dBbnhUsknhnvW7qeE+6eznSoP1KSeSzIHgl00LM/XZnuHEJIUlnCjPgcPbuzgOlOR2QklSDm1IvzOvbG8ou6N1dwOSjJLGI+cw31+21gs2B1y0YrIpJLHNPSR7/OTGFsRBFY+rybOfsiSb/OrFX35R5OANZ+0AvL67YLYC4EtCUPAUkvBTAzsTC9BHCpU/IOCohmS766JVwvAUI81S0nkY907n5vGAFqMy1XkY98LhtGAOZKoFmZiEc+zKfsCb0E8MUGQA+Ya4b66CWADwQwxBbAF1sA2gLotgVgzkZKQzqkBGBORUAZSAvuqBu8XDAotIEAEABAAAABAAQAEABAAAABAAQAEABAAAABAAQAEABAAAABAAQAEABAAAABAAQAEABAAAABAAQAEABAAAABAAQAEABAAAABAAQAEABAAAABAAQAEABAAAABgHHAzVpLiaVMfzlZ+c4oQOWa/n5+fr6uj6ypasWL++dj/4hUv3a/cMViUQT+CX2xsg9sTmZWWkoRqQVGF7t0RHSvWycsABuCMnP7u/ht2Ybpjf9dewRwbRMTE4oo7ebhjvhN100rgGfnmOjKCNFBCg/Hx6aaUYBnRnf1RnxiHFg1+SezCRDxUVcEJ3BXMO+De4YToJg6QMjK48hfJJ5vnX/Tw2idsilAxdlnnsP93AVTcXbKMIMNqo3ueL0+sQLyksLx/9Xxlt2lnQM0jgtBUtKmAiO/MvocoP8B5C9xKrDqQwN9A8PpimXquvKISSYT43wNPAcov2IAIpLN6eiLRt0F1NiP/OXTIKmDQXcBrZKaIB4NqLR9pCEF6LG7KsLRBLclMQacA9Q75Ido7MRqVf74K03BL7v1KaPVASoeqVXCC+Rdu3o1LffxleX82fdgWZY2WqMKj+pBQUHBT3SsXtxgXo66ob8Aj1Jup7UYsjY8HxGI4nDZtq8tPvihmCHd7665AEwfHn10vu2u3vi8tyfytIva41JtDusyQwnwss1+HumCk4cdme+NuWFrZMcZSICOeTY6mToYG34H8Z2RzR/bgh6GESD0lo2N/xg3BOg41b/gD++9QKMIsMnGXgrHhYJ4MYc7wJ8aRIAO3N7lv4nghNHmOm+Ic2sbQgDL99ztUzfEJpAnj/MGea0hBBjE69qZMIQmFO9Y3jBHGUAAN96hapI/IhN9QLiPM857DSDAGE6/rgYjMOEEXuKMdG/dBfC7yfbqQRTikkCjLHaof3DVW4D3OVoOQ1hS6FvIjvUInQUI4JSpZiIqSUxhB/ugzgI8x5mYoPgvbSJ4ji0IV9VXgHVMa2EzBCWNgeznbaSuAnhkMq1rEJNEjjDjvUlXAbqz5cmaSEkiT7OHXN66CVC0r+/DLLbwAlKSyJ4EdYunnj/DtlxVS5GOK4LIJZL5HK7QcRfQgmmbj4gkc1495Ldc9RLAhbMH+BYJSSZO3VCprV5d4Qhwby8Skgz7EeuimwB+9dRNm/OQkGQOMj8IqKebAOHYA2hPIXPgH2YcAR5uRUDSiVc31C5nGAEOZyMf6fyobnCraRgBfkI88rnKtOgmQLWS+waEcz9d3aLX6fcuvhDAEJsAH70E8IEAhhDAFwJgC4BdAB2Y+wfodVF2F+ZiJulIRwOYG8nodQ4ezv0jDgSAAAACAAgAIACAAAACAAgAIACAAAACAAgAIACAAAACAAgAIACAAAACAAgAIACAAAACAAgAIACAAAACAAgAIACAAAACAAgAjI/4C1RaGjdtGu6q6UpknEj+Pg1ZGkOAkGUdtV+L3kru9I8KkKYBdgFDT3XUZT3c3z8YijT1F6DFl3pd8VKJWlcOceotgNeXrvqtSuQ7iFNvAcbX0XNdJtVAnjoL0F7XdXFrjTx1FqCJvivTHHnqK0BIgL4r0xR56ivAHau+K3MTeeorQOZZfVcmCXnqPAc4BgFoC7BU133A6UPIU2cBdul52+H84bnIU2cBlAkp+q3KB0cRp+4C3G/xhU4rcmfYVKSpvwBKxoie2+9qvhbWc0vrf40w7UH8N2hbtii16mr7xVzGsXtI0jACFHH+PAaW6i4AQAAAAQAEABAAQAAAAQAEABAAQAAAAQAEABAAQAAAAQAEABAAQAAAAQAEABAAQAAAAQAEABAAQAAAAQAEABAAQAAAAQAEAOKRcIEI94Za3zJGY+4eT74CAWzh9eFoN+f/3KSO2m3Kfluk7wKaHXudQP5K7Z2fepmx34HqhvuCtwAhu3xp7DotY3yHm7DbQeqGLLFbAMsXRPIv4oWeziBAplgBRv6Z0Px5iQl3AsGStwC9KR1ABTXBFkBNJKlD6EgnEOCyUAGqBUEAgx+9qBtShApA7Oat5lvdYGavdUaoADd/JiVAsul6HG2RuwUw4ZDQWtsYZiN2TqwAsZTyv3jCbD2uwNzY+/BDsQKs3Ewnf+uIHLN1uQdTpY8T/V3AX++QEWCh+b4O6se0xIsW4FpbIjfuyZ8x1nR9bsAI8OM54d8G/thqejqBzX9yqyl5puv1TBd2AyD+fID8adNrOv0JIcczTdjtDj0VLQQo+njgjjGGZBbTkvY9zgmkw6AopmmjFQKQwX+mwtsDQAAiuH4Tyh6y7YQAZJjdhW2blgMBqDDidbYt5XMFAhCh7QJO48QCCECEZrHubOP+eAUC0ODZfYGc1rcUCEACy3ureacvbzj86/+Wwwg5Nz6r+vCa899WsAWgQKtD3PyVxecgAAHqbDjYgPvA6d82ABDAiam68Id+/EduRf/+dSbmAM5KwyGvedt4KK//RQUCODPl2vWJDrX98Oh9CgRwUvyCimjYo2Jxy8xdqkAA0/NUu+aRfswnv5p3yc9MHKdAALPj9d5Ye6fvZwYXQADTT/DW17H3qRd7PX7SLg4DTYjnWrvz3xuVqkAAs/NuuL3PXNz5lgIBzE7oODufmD/mJebXDJgDmI/Wdn5q7w7cySkZYDxNR3P7nvZjdCqnFbsA82HfpWnWtuTlDwFMiD3XYjzQZnCGAgGocqZv24M2HoIAzk/ayw3ibD6ISaCzk/Xxx9nFPAwBnJrCQ3Errxe7BARwXh7siPvuRkkLQQAn5fZ38Yn3S7GcDAHcG9Z1aq/uHL1q5O4VXEg5k/JDUimvYyo+qSFvNPJw9o/XtV0TjHTXoAlHfss+OyszK8talueKFiBwYX8C29fqw3qOXWGc7pzaY/9zBQvglxRCYxfrvzzkXadYEcGFoE+I5F/EpMYQgKHncDL5K27LXSGAmucpHWhFNIIAamjdMqYpBFBRoSYpASIhgPoYwEJKgAoQQMXPt0kJcBwCqDlGSoBjEEDNLkr5ZyRDADVzThES4M10CKAm9/lcMvknfK5AAIaTA24SyX+jkxS9RJ8UuqlBPIX401/oc8s51kT4+QA3YkKbOv0tY5JPZIt+0Sp6rY1Vjb8C5DOTGfcXS/3cE+qndjPQLgDYy5Jop5gDAHtxXdMWApDGa1MDCEAa/8QQCECaoMTKEIA0YVu8IQBpmse6QQDSdFlugQCkGToHAtBm7EQIQJsPX4QAtFnSGwKQxvWbNhCANFoWhSGAEQnYGgIBSBOsWVEYAhiTsM3eEIA0URvcIABpui6zQADSDJsDAWgzdgIEoM3M4RCANhoUhSGAkSknvygMAQzC8gu8Vq9N9WULwFxX1BVhaABzeZnLXbiXdQ9IfFKyAMyP3KoiHQ0IUjdkne+eyVswOLGSXAGySuwa0EKATOV4TA5vyXC5RWGXTAhgjC2Aoux6rpC3aIv1btgCOBuuVTkCKOvHcBfuJrMo7JIBAXSgCjPVTvv3fxbwr0A+bLZEAS5CAB1gp/Yp//nv1MXcxd8YL0+AFHVLXcQjn07MBuC/lxwbvYG7/EcvaCdAvdrIRzox/A2AohQO28N9wme9NBOA7RwQTY1mtgRQcvqc4D2j3NrWkgQ4nwMBNKcP03L49/+X0Z1fFP5OVlE4QX3JoQLUAmWzQz3m+Y+W+2pft/L4+beZo+CLRDHX9XOJRkJyCeigbjnw6HXWU/lF4SekFIVdlI3M10GDEJFcXmWuzvj4p/BYDPeKu7KKwkeYjU17ZCSTwAxmxGupFhlYwN0LJLgJ3wUU8TfmfQ4hJJl8ygz4aWaZ0VwBrCstEgSoz75Pf6Qkj1q5zHi/xy41nW/AbAkCKKnM25zBTcXlsZqNtTlnsUV8A8ZLEGA2+zYvISdZtCxkRvsK79s+lw1cAQr/R7wA7dm3uVEDScmh2k/saH/KXdJjN9eAvJ7CBXBNYd/mWHlkJQOPQ+xY3w/mL+t3gmtA9i3RAigxnLdZb0FaEljJGer3bW4tzltLhcMCKPs5rzodaYlnAmegb/rZXNxGUVi8AK15LzsYeYlmEK++81oxT2iaoY0ACm/GeR/VAMG8U8gZ5tRiT/l8JkcbAerk8Y44JiMzgXitttqxoR1UoIkAygLuK6/2Qm6iCE7iDvGRkibbr2gjQNVM7ksn4RRRQbS/yg/v6RKf+a4mAiiT+a995VkcDgogLNZGdktL8eTFmghQboeNVz/6Z+TnINUW5dkY3P3upXi6a6wWAigB52y9fkIjZOgAgdOzbI3s5dLdLtJjjxYCKOH3bL1Bwde9MRu0j1pv7rM9jc+KKOWrVDihhQBK92KOOLLjhgcizjLhGdphxj+Ly62wX+l3IhdkCfDYFG/cx8UtWnjwn1f/zW2rYcfc8l9cLFy0a/YPCgqqWFJvp8wo/ZrVPlDM3qL7VkECKMteKMVT8gvsfzvrL8nHNqaIzLxyj1Ytw1x/HXZzbSHWlqnWHrnbV4oAqtnGAat8Ho4XeGGintetJuVwGb9wL6Yo3E3ceFY5osW6H6wgStj5Zo3f+k2ZT7iwXRQWKIDi+ZUWa79cTGdtnDVlAuz6muUVLQRQlIkFGgyAmB8fLTJr/ln97FrfGZoIoERnyB8BIfPA6WbN/1KEnWu8WBMBlAYX5I+Bv+PdfNms+f/D7oqKjaKwYz8OZTkdtVf6MVBTh19hwN9NWiD67Jmb9j61YKjwZLhHZLc6z8qRPAoNHX2BjqvMeZXbQ+1G5dr/7Id9TvIqM6IFUPImhK0qlDoOjn630CTOw4zxn+3fer9DL5De/SLbeEG4AIpy+S9NE438HUuCnwnjT3u5fqyjr3Gt6w1ms3BJggCKcrJbp2SjjmTVRBNexSRrau1F+Y6/zLke6stHbJO2sbY8e17WTNihW2T7HTPf1P/CrCqiYumkKgq3kGitW6+l1w0ngMcus6WfPFnoOTWDH6vVrZG85XJpPeuMoQRwWWeq8HO3vyL8l7bDHjnHaLsWs+G6Ew8XGkaABeap+F/a+skQfxmBPHX0t98Kz3XwukGl/g69Yt3wsPDaFXx8xBx+vz3T3mdOnVaWpR8PRLN/5WRmZWalnX0gb988ql1U6INTyfMcLaqX/SSK8t523FTmo+dFCfDSQm7zt6MLeYEY9+QlAfhnFjj+ImW/Fsz9+3a8jbCPQv/53Oa9Qx8q5LgnZIpnrnV++ituh0/2IZi/oDm+qXrbOJ475b3YLR1JUhCgJr8AfKNLGoKkIECVbdV4zZk9UpEjBQF8E2rxmnP7JiNGCgK4x3FPIin8y06kSEEAl1X8Xym/thYhkhBg3kBu84z5yJCEAJNHc5uXTEGEJAQYxb+j4rejkSAJAfrxvwDYO7QACVIQoMPXKABTFiACBWDSAoRu5f6YGAVgIgKgAExbAN8t3HsZowBMRAD3byN5zSgAExHAZeUz3HYUgIkIMJd/F1MUgIkIMOlVbjMKwEQE+Cv/QnooABMRIAYFYNICtF/N/QECCsBEBGi00ZPXjAIwEQH+hAIwaQECt1XnNaMATEQAny1P8ZpRACYigHtsM14zCsBEBLCs6MxtRwGYiABzn+U2owBMRIB3xnCbUQAmIsBI/u3UUQAmIkCfRdxmFICJCNBuDQrAlAVoiAIwaQH+tJV7VTUUgIkIUDmRe7dyFICJCOCzpQ6vGQVgIgK4bWjOa0YBmIgAlhVduO0oABMR4P+GcJtRACYiwNuvc5tRACYiwIsfcJtRACYiQPQSbjMKwEQEaIsCMGkBGmzi3kYOBWAiAoQkogBMWQAUgGkL4L05jNeMAjARAdw2RPGaUQAmIoBleVduOwrARASYM5TbjAIwEQEmjOU2owBMRIDh/LvHoQBMRIDeKACTFqDNN9zbFqIATESA+igAkxbgycQAXjMKwEQEqJQYzGtGAZiIAN6bw3nNKAATEcBtfQteMwrATsoiq4q7Vi6vYKiIbAG4JwCgAEysDqAGBWDaAqAATFsAFIBpC4ACMG0BUACmLQAKwLQFQAGYtgAoANMWAAVg4gLgDGDaAqAATFsAFIBpC4ACMG0BUACmLQAKwLQFQAGYtgAoANMWAAVg2gKgAExbABSACQmQy2lDAZgQY9kzwN/FqBCiB5P/YgwKJXxuqfKPdcWgkOKdx/Pf44khIbYJOPVo/icqYESoUS31j/wTAjEeBA1YVvhr/A/GWDAahkHLLJr2j4i4f+RIAuq/AAAAAAAAAAAAAAAAAAAAAAAAAAAAAAAAAACI5P8BCAU3/8oNhQ0AAAAASUVORK5CYII=;" parent="1" vertex="1">
                    <mxGeometry x="564.1" y="226" width="40" height="40" as="geometry"/>
                </mxCell>
            </root>
        </mxGraphModel>
    </diagram>
</mxfile>
